<?xml version="1.0" encoding="UTF-8" standalone="no"?>
<svg
        x="0px"
        y="0px"
        viewBox="0 0 339.18999 339.19"
        width="339.19"
        height="339.19"
        style="background: #080808"
        xmlns="http://www.w3.org/2000/svg">
    <rect
            style="fill:#ffffff;fill-opacity:1;stroke-width:1.76193"
            id="rect867"
            width="339.19"
            height="339.19"
            x="0"
            y="0" /><g
            id="g14"
            transform="translate(-425.68,-251.35)"
            style="fill:#000000;fill-opacity:1">
	<g
            id="g12"
            style="fill:#000000;fill-opacity:1">
		<path
                class="st0"
                d="m 697.89,382.61 c -0.96,-3.95 -3.58,-7.25 -7.1,-9.09 -1.93,-1.01 -4.13,-1.59 -6.46,-1.59 H 653.6 c -20.14,-0.03 -30.35,-10.26 -30.35,-30.42 0,-0.02 0,-0.04 0,-0.06 v 0 -76.11 c 0,-0.55 -0.04,-1.09 -0.1,-1.62 -0.01,-0.13 -0.04,-0.25 -0.06,-0.37 -0.06,-0.41 -0.13,-0.82 -0.23,-1.22 -0.03,-0.12 -0.06,-0.24 -0.09,-0.36 -0.11,-0.42 -0.24,-0.84 -0.39,-1.25 -0.03,-0.08 -0.05,-0.15 -0.08,-0.23 -0.19,-0.48 -0.4,-0.96 -0.64,-1.41 -0.01,-0.03 -0.04,-0.05 -0.05,-0.08 -0.28,-0.52 -0.58,-1.03 -0.92,-1.51 -0.01,-0.01 -0.02,-0.02 -0.03,-0.04 -0.34,-0.47 -0.7,-0.92 -1.09,-1.34 -0.04,-0.05 -0.08,-0.09 -0.13,-0.14 -0.81,-0.86 -1.72,-1.61 -2.71,-2.24 -0.09,-0.06 -0.19,-0.11 -0.28,-0.17 -0.43,-0.26 -0.88,-0.5 -1.34,-0.71 -0.08,-0.04 -0.15,-0.08 -0.23,-0.11 -0.53,-0.23 -1.07,-0.43 -1.63,-0.6 -0.11,-0.03 -0.22,-0.06 -0.33,-0.09 -0.45,-0.12 -0.92,-0.22 -1.39,-0.3 -0.16,-0.03 -0.31,-0.05 -0.47,-0.07 -0.58,-0.07 -1.18,-0.13 -1.78,-0.13 0,0 0,0 0,0 v 0 c -0.73,0 -1.43,0.07 -2.13,0.18 -0.12,0.02 -0.25,0.03 -0.37,0.06 -0.67,0.12 -1.32,0.29 -1.96,0.5 -0.1,0.03 -0.2,0.07 -0.3,0.11 -1.33,0.48 -2.56,1.15 -3.67,1.99 -0.05,0.04 -0.1,0.08 -0.16,0.12 -0.56,0.43 -1.08,0.91 -1.57,1.42 -0.02,0.02 -0.04,0.04 -0.06,0.07 -1,1.07 -1.84,2.3 -2.46,3.65 0,0 0,0.01 0,0.01 -0.3,0.64 -0.54,1.31 -0.74,2 -0.01,0.04 -0.04,0.09 -0.05,0.13 -0.15,0.55 -0.27,1.12 -0.36,1.7 -0.01,0.08 -0.03,0.16 -0.04,0.24 -0.08,0.6 -0.13,1.2 -0.13,1.82 v 76.17 c 0,0.02 0,0.04 0,0.07 0.02,28.2 15.37,58.31 58.36,58.33 0.01,0 0.02,0 0.03,0 0.01,0 0.02,0 0.03,0 h 30.63 c 3.86,0 7.36,-1.57 9.89,-4.1 2.53,-2.53 4.1,-6.03 4.1,-9.89 v -0.02 c -0.01,-1.15 -0.17,-2.24 -0.43,-3.3 z"
                id="path4"
                style="fill:#000000;fill-opacity:1" />
        <path
                class="st0"
                d="m 556.94,318.33 c -3.95,0.96 -7.25,3.58 -9.09,7.1 -1.01,1.93 -1.59,4.13 -1.59,6.46 v 30.73 c -0.03,20.14 -10.26,30.35 -30.42,30.35 -0.02,0 -0.04,0 -0.06,0 v 0 h -76.11 c -0.55,0 -1.09,0.04 -1.62,0.1 -0.13,0.01 -0.25,0.04 -0.37,0.06 -0.41,0.06 -0.82,0.13 -1.22,0.23 -0.12,0.03 -0.24,0.06 -0.36,0.09 -0.42,0.11 -0.84,0.24 -1.25,0.39 -0.08,0.03 -0.15,0.05 -0.23,0.08 -0.48,0.19 -0.96,0.4 -1.41,0.64 -0.03,0.01 -0.05,0.04 -0.08,0.05 -0.52,0.28 -1.03,0.58 -1.51,0.92 -0.01,0.01 -0.02,0.02 -0.04,0.03 -0.47,0.34 -0.92,0.7 -1.34,1.09 -0.05,0.04 -0.09,0.08 -0.14,0.13 -0.86,0.81 -1.61,1.72 -2.24,2.71 -0.06,0.09 -0.11,0.19 -0.17,0.28 -0.26,0.43 -0.5,0.88 -0.71,1.34 -0.04,0.08 -0.08,0.15 -0.11,0.23 -0.23,0.53 -0.43,1.07 -0.6,1.63 -0.03,0.11 -0.06,0.22 -0.09,0.33 -0.12,0.45 -0.22,0.92 -0.3,1.39 -0.03,0.16 -0.05,0.31 -0.07,0.47 -0.07,0.58 -0.13,1.18 -0.13,1.78 0,0 0,0 0,0 v 0 c 0,0.73 0.07,1.43 0.18,2.13 0.02,0.12 0.03,0.25 0.06,0.37 0.12,0.67 0.29,1.32 0.5,1.96 0.03,0.1 0.07,0.2 0.11,0.3 0.48,1.33 1.15,2.56 1.99,3.67 0.04,0.05 0.08,0.1 0.12,0.16 0.43,0.56 0.91,1.08 1.42,1.57 0.02,0.02 0.04,0.04 0.07,0.06 1.07,1 2.3,1.84 3.65,2.46 0,0 0.01,0 0.01,0 0.64,0.3 1.31,0.54 2,0.74 0.04,0.01 0.09,0.04 0.13,0.05 0.55,0.15 1.12,0.27 1.7,0.36 0.08,0.01 0.16,0.03 0.24,0.04 0.6,0.08 1.2,0.13 1.82,0.13 h 76.17 c 0.02,0 0.04,0 0.07,0 28.2,-0.02 58.31,-15.37 58.33,-58.36 0,-0.01 0,-0.02 0,-0.03 0,-0.01 0,-0.02 0,-0.03 v -30.63 c 0,-3.86 -1.57,-7.36 -4.1,-9.89 -2.53,-2.53 -6.03,-4.1 -9.89,-4.1 h -0.02 c -1.15,0.01 -2.24,0.17 -3.3,0.43 z"
                id="path6"
                style="fill:#000000;fill-opacity:1" />
        <path
                class="st0"
                d="m 492.66,459.28 c 0.96,3.95 3.58,7.25 7.1,9.09 1.93,1.01 4.13,1.59 6.46,1.59 h 30.73 c 20.14,0.03 30.35,10.26 30.35,30.42 0,0.02 0,0.04 0,0.06 v 0 76.11 c 0,0.55 0.04,1.09 0.1,1.62 0.01,0.13 0.04,0.25 0.06,0.37 0.06,0.41 0.13,0.82 0.23,1.22 0.03,0.12 0.06,0.24 0.09,0.36 0.11,0.42 0.24,0.84 0.39,1.25 0.03,0.08 0.05,0.15 0.08,0.23 0.19,0.48 0.4,0.96 0.64,1.41 0.01,0.03 0.04,0.05 0.05,0.08 0.28,0.52 0.58,1.03 0.92,1.51 0.01,0.01 0.02,0.02 0.03,0.04 0.34,0.47 0.7,0.92 1.09,1.34 0.04,0.05 0.08,0.09 0.13,0.14 0.81,0.86 1.72,1.61 2.71,2.24 0.09,0.06 0.19,0.11 0.28,0.17 0.43,0.26 0.88,0.5 1.34,0.71 0.08,0.04 0.15,0.08 0.23,0.11 0.53,0.23 1.07,0.43 1.63,0.6 0.11,0.03 0.22,0.06 0.33,0.09 0.45,0.12 0.92,0.22 1.39,0.3 0.16,0.03 0.31,0.05 0.47,0.07 0.58,0.07 1.18,0.13 1.78,0.13 0,0 0,0 0,0 v 0 c 0.73,0 1.43,-0.07 2.13,-0.18 0.12,-0.02 0.25,-0.03 0.37,-0.06 0.67,-0.12 1.32,-0.29 1.96,-0.5 0.1,-0.03 0.2,-0.07 0.3,-0.11 1.33,-0.48 2.56,-1.15 3.67,-1.99 0.05,-0.04 0.1,-0.08 0.16,-0.12 0.56,-0.43 1.08,-0.91 1.57,-1.42 0.02,-0.02 0.04,-0.04 0.06,-0.07 1,-1.07 1.84,-2.3 2.46,-3.65 0,0 0,-0.01 0,-0.01 0.3,-0.64 0.54,-1.31 0.74,-2 0.01,-0.04 0.04,-0.09 0.05,-0.13 0.15,-0.55 0.27,-1.12 0.36,-1.7 0.01,-0.08 0.03,-0.16 0.04,-0.24 0.08,-0.6 0.13,-1.2 0.13,-1.82 v -76.17 c 0,-0.02 0,-0.04 0,-0.07 -0.02,-28.2 -15.37,-58.31 -58.36,-58.33 -0.01,0 -0.02,0 -0.03,0 -0.01,0 -0.02,0 -0.03,0 h -30.63 c -3.86,0 -7.36,1.57 -9.89,4.1 -2.53,2.53 -4.1,6.03 -4.1,9.89 v 0.02 c 0.01,1.15 0.17,2.24 0.43,3.3 z"
                id="path8"
                style="fill:#000000;fill-opacity:1" />
        <path
                class="st0"
                d="m 633.61,523.56 c 3.95,-0.96 7.25,-3.58 9.09,-7.1 1.01,-1.93 1.59,-4.13 1.59,-6.46 v -30.73 c 0.03,-20.14 10.26,-30.35 30.42,-30.35 0.02,0 0.04,0 0.06,0 v 0 h 76.11 c 0.55,0 1.09,-0.04 1.62,-0.1 0.13,-0.01 0.25,-0.04 0.37,-0.06 0.41,-0.06 0.82,-0.13 1.22,-0.23 0.12,-0.03 0.24,-0.06 0.36,-0.09 0.42,-0.11 0.84,-0.24 1.25,-0.39 0.08,-0.03 0.15,-0.05 0.23,-0.08 0.48,-0.19 0.96,-0.4 1.41,-0.64 0.03,-0.01 0.05,-0.04 0.08,-0.05 0.52,-0.28 1.03,-0.58 1.51,-0.92 0.01,-0.01 0.02,-0.02 0.04,-0.03 0.47,-0.34 0.92,-0.7 1.34,-1.09 0.05,-0.04 0.09,-0.08 0.14,-0.13 0.86,-0.81 1.61,-1.72 2.24,-2.71 0.06,-0.09 0.11,-0.19 0.17,-0.28 0.26,-0.43 0.5,-0.88 0.71,-1.34 0.04,-0.08 0.08,-0.15 0.11,-0.23 0.23,-0.53 0.43,-1.07 0.6,-1.63 0.03,-0.11 0.06,-0.22 0.09,-0.33 0.12,-0.45 0.22,-0.92 0.3,-1.39 0.03,-0.16 0.05,-0.31 0.07,-0.47 0.07,-0.58 0.13,-1.18 0.13,-1.78 0,0 0,0 0,0 v 0 c 0,-0.73 -0.07,-1.43 -0.18,-2.13 -0.02,-0.12 -0.03,-0.25 -0.06,-0.37 -0.12,-0.67 -0.29,-1.32 -0.5,-1.96 -0.03,-0.1 -0.07,-0.2 -0.11,-0.3 -0.48,-1.33 -1.15,-2.56 -1.99,-3.67 -0.04,-0.05 -0.08,-0.1 -0.12,-0.16 -0.43,-0.56 -0.91,-1.08 -1.42,-1.57 -0.02,-0.02 -0.04,-0.04 -0.07,-0.06 -1.07,-1 -2.3,-1.84 -3.65,-2.46 0,0 -0.01,0 -0.01,0 -0.64,-0.3 -1.31,-0.54 -2,-0.74 -0.04,-0.01 -0.09,-0.04 -0.13,-0.05 -0.55,-0.15 -1.12,-0.27 -1.7,-0.36 -0.08,-0.01 -0.16,-0.03 -0.24,-0.04 -0.6,-0.08 -1.2,-0.13 -1.82,-0.13 H 674.7 c -0.02,0 -0.04,0 -0.07,0 -28.2,0.02 -58.31,15.37 -58.33,58.36 0,0.01 0,0.02 0,0.03 0,0.01 0,0.02 0,0.03 V 510 c 0,3.86 1.57,7.36 4.1,9.89 2.53,2.53 6.03,4.1 9.89,4.1 h 0.02 c 1.15,-0.01 2.24,-0.17 3.3,-0.43 z"
                id="path10"
                style="fill:#000000;fill-opacity:1" />
	</g>
</g>
</svg>
