<svg width="33" height="33" viewBox="0 0 33 33" fill="none" xmlns="http://www.w3.org/2000/svg">
<g clip-path="url(#clip0_5_2)">
<path d="M32.595 0.595001H0.594971V32.595H32.595V0.595001Z" fill="white"/>
<path d="M26.2759 12.9784C26.1854 12.6057 25.9382 12.2944 25.6061 12.1208C25.424 12.0255 25.2165 11.9708 24.9966 11.9708H22.0975C20.1974 11.968 19.2342 11.0029 19.2342 9.10091C19.2342 9.09903 19.2342 9.09714 19.2342 9.09525V1.91485C19.2342 1.86296 19.2304 1.81202 19.2248 1.76202C19.2238 1.74975 19.221 1.73843 19.2191 1.72711C19.2135 1.68843 19.2069 1.64975 19.1974 1.61201C19.1946 1.60069 19.1918 1.58937 19.1889 1.57805C19.1786 1.53842 19.1663 1.4988 19.1521 1.46012C19.1493 1.45257 19.1474 1.44597 19.1446 1.43842C19.1267 1.39314 19.1068 1.34785 19.0842 1.3054C19.0833 1.30257 19.0804 1.30068 19.0795 1.29785C19.0531 1.24879 19.0248 1.20068 18.9927 1.1554C18.9918 1.15445 18.9908 1.15351 18.9899 1.15162C18.9578 1.10728 18.9238 1.06483 18.887 1.0252C18.8833 1.02049 18.8795 1.01671 18.8748 1.01199C18.7984 0.93086 18.7125 0.860103 18.6191 0.800667C18.6106 0.795006 18.6012 0.790289 18.5927 0.784629C18.5521 0.7601 18.5097 0.737457 18.4663 0.717645C18.4587 0.713871 18.4521 0.710098 18.4446 0.707267C18.3946 0.685569 18.3436 0.666701 18.2908 0.650663C18.2804 0.647833 18.27 0.645003 18.2597 0.642172C18.2172 0.630851 18.1729 0.621417 18.1285 0.613869C18.1134 0.611039 18.0993 0.609152 18.0842 0.607265C18.0295 0.600661 17.9729 0.595001 17.9163 0.595001C17.8474 0.595001 17.7813 0.601604 17.7153 0.611982C17.704 0.613869 17.6917 0.614812 17.6804 0.617642C17.6172 0.628964 17.5559 0.645002 17.4955 0.664814C17.486 0.667644 17.4766 0.671418 17.4672 0.675191C17.3417 0.720476 17.2257 0.783686 17.1209 0.862933C17.1162 0.866707 17.1115 0.87048 17.1058 0.874254C17.053 0.914821 17.004 0.960105 16.9577 1.00822C16.9558 1.01011 16.954 1.01199 16.9521 1.01482C16.8577 1.11577 16.7785 1.23181 16.72 1.35918V1.36012C16.6917 1.4205 16.669 1.48371 16.6502 1.5488C16.6492 1.55258 16.6464 1.55729 16.6455 1.56107C16.6313 1.61295 16.62 1.66673 16.6115 1.72145C16.6106 1.729 16.6087 1.73654 16.6077 1.74409C16.6002 1.8007 16.5955 1.8573 16.5955 1.91579V9.10185C16.5955 9.10374 16.5955 9.10563 16.5955 9.10846C16.5973 11.7689 18.0455 14.6096 22.1013 14.6115C22.1022 14.6115 22.1032 14.6115 22.1041 14.6115C22.1051 14.6115 22.106 14.6115 22.1069 14.6115H24.9966C25.3608 14.6115 25.691 14.4633 25.9297 14.2246C26.1684 13.986 26.3165 13.6558 26.3165 13.2916V13.2897C26.3156 13.1812 26.3005 13.0784 26.2759 12.9784Z" fill="black"/>
<path d="M12.9784 6.91406C12.6057 7.00462 12.2944 7.2518 12.1208 7.58389C12.0255 7.76597 11.9708 7.97352 11.9708 8.19334V11.0925C11.9679 12.9925 11.0028 13.9558 9.10088 13.9558C9.099 13.9558 9.09711 13.9558 9.09522 13.9558H1.91482C1.86293 13.9558 1.81199 13.9595 1.76199 13.9652C1.74972 13.9662 1.7384 13.969 1.72708 13.9709C1.6884 13.9765 1.64972 13.9831 1.61198 13.9926C1.60066 13.9954 1.58934 13.9982 1.57802 14.0011C1.5384 14.0114 1.49877 14.0237 1.46009 14.0379C1.45254 14.0407 1.44594 14.0426 1.43839 14.0454C1.39311 14.0633 1.34782 14.0831 1.30537 14.1058C1.30254 14.1067 1.30065 14.1096 1.29782 14.1105C1.24876 14.1369 1.20065 14.1652 1.15536 14.1973C1.15442 14.1982 1.15348 14.1992 1.15159 14.2001C1.10725 14.2322 1.0648 14.2662 1.02517 14.303C1.02045 14.3067 1.01668 14.3105 1.01197 14.3152C0.930831 14.3916 0.860072 14.4775 0.800636 14.5709C0.794976 14.5794 0.79026 14.5888 0.7846 14.5973C0.760071 14.6379 0.737429 14.6803 0.717618 14.7237C0.713844 14.7313 0.710069 14.7379 0.707238 14.7454C0.68554 14.7954 0.666671 14.8464 0.650632 14.8992C0.647802 14.9096 0.644972 14.92 0.642142 14.9303C0.630821 14.9728 0.621388 15.0171 0.61384 15.0615C0.61101 15.0766 0.609123 15.0907 0.607236 15.1058C0.600632 15.1605 0.594971 15.2171 0.594971 15.2737C0.594971 15.3426 0.601574 15.4086 0.611952 15.4747C0.613838 15.486 0.614785 15.4983 0.617615 15.5096C0.628936 15.5728 0.644974 15.6341 0.664786 15.6945C0.667616 15.7039 0.671389 15.7134 0.675162 15.7228C0.720447 15.8483 0.783655 15.9643 0.862903 16.069C0.866676 16.0738 0.870453 16.0785 0.874226 16.0841C0.914794 16.137 0.960076 16.186 1.00819 16.2323C1.01008 16.2341 1.01197 16.236 1.0148 16.2379C1.11574 16.3323 1.23178 16.4115 1.35914 16.47H1.36009C1.42047 16.4983 1.48368 16.5209 1.54877 16.5398C1.55255 16.5408 1.55727 16.5436 1.56104 16.5445C1.61293 16.5587 1.6667 16.57 1.72142 16.5785C1.72897 16.5794 1.73651 16.5813 1.74406 16.5823C1.80067 16.5898 1.85727 16.5945 1.91576 16.5945H9.10182C9.10371 16.5945 9.1056 16.5945 9.10843 16.5945C11.7689 16.5926 14.6095 15.1445 14.6114 11.0887C14.6114 11.0878 14.6114 11.0868 14.6114 11.0859C14.6114 11.0849 14.6114 11.084 14.6114 11.083V8.19334C14.6114 7.82918 14.4633 7.49898 14.2246 7.26029C13.9859 7.02161 13.6557 6.87349 13.2916 6.87349H13.2897C13.1812 6.87443 13.0784 6.88953 12.9784 6.91406Z" fill="black"/>
<path d="M6.91398 20.2116C7.00455 20.5843 7.25173 20.8956 7.58381 21.0692C7.76589 21.1645 7.97344 21.2192 8.19326 21.2192H11.0924C12.9925 21.222 13.9557 22.1871 13.9557 24.0891C13.9557 24.091 13.9557 24.0929 13.9557 24.0948V31.2752C13.9557 31.327 13.9595 31.378 13.9651 31.428C13.9661 31.4403 13.9689 31.4516 13.9708 31.4629C13.9765 31.5016 13.9831 31.5403 13.9925 31.578C13.9953 31.5893 13.9982 31.6006 14.001 31.612C14.0114 31.6516 14.0236 31.6912 14.0378 31.7299C14.0406 31.7374 14.0425 31.744 14.0453 31.7516C14.0632 31.7969 14.0831 31.8422 14.1057 31.8846C14.1066 31.8874 14.1095 31.8893 14.1104 31.8922C14.1368 31.9412 14.1651 31.9893 14.1972 32.0346C14.1982 32.0356 14.1991 32.0365 14.2 32.0384C14.2321 32.0827 14.2661 32.1252 14.3029 32.1648C14.3066 32.1695 14.3104 32.1733 14.3151 32.178C14.3916 32.2591 14.4774 32.3299 14.5708 32.3893C14.5793 32.395 14.5887 32.3997 14.5972 32.4054C14.6378 32.4299 14.6802 32.4525 14.7236 32.4724C14.7312 32.4761 14.7378 32.4799 14.7453 32.4827C14.7953 32.5044 14.8463 32.5233 14.8991 32.5393C14.9095 32.5422 14.9199 32.545 14.9303 32.5478C14.9727 32.5592 15.0171 32.5686 15.0614 32.5761C15.0765 32.579 15.0906 32.5808 15.1057 32.5827C15.1604 32.5893 15.2171 32.595 15.2737 32.595C15.3425 32.595 15.4086 32.5884 15.4746 32.578C15.4859 32.5761 15.4982 32.5752 15.5095 32.5724C15.5727 32.561 15.634 32.545 15.6944 32.5252C15.7039 32.5224 15.7133 32.5186 15.7227 32.5148C15.8482 32.4695 15.9642 32.4063 16.069 32.3271C16.0737 32.3233 16.0784 32.3195 16.0841 32.3158C16.1369 32.2752 16.1859 32.2299 16.2322 32.1818C16.2341 32.1799 16.236 32.178 16.2378 32.1752C16.3322 32.0742 16.4114 31.9582 16.4699 31.8308V31.8299C16.4982 31.7695 16.5209 31.7063 16.5397 31.6412C16.5407 31.6374 16.5435 31.6327 16.5445 31.6289C16.5586 31.577 16.5699 31.5233 16.5784 31.4686C16.5794 31.461 16.5812 31.4535 16.5822 31.4459C16.5897 31.3893 16.5945 31.3327 16.5945 31.2742V24.0881C16.5945 24.0863 16.5945 24.0844 16.5945 24.0815C16.5926 21.4211 15.1444 18.5804 11.0886 18.5786C11.0877 18.5786 11.0867 18.5786 11.0858 18.5786C11.0849 18.5786 11.0839 18.5786 11.083 18.5786H8.19326C7.8291 18.5786 7.4989 18.7267 7.26021 18.9654C7.02153 19.204 6.87341 19.5342 6.87341 19.8984V19.9003C6.87436 20.0088 6.88945 20.1116 6.91398 20.2116Z" fill="black"/>
<path d="M20.2116 26.2759C20.5842 26.1854 20.8955 25.9382 21.0691 25.6061C21.1644 25.424 21.2191 25.2165 21.2191 24.9967V22.0975C21.222 20.1975 22.1871 19.2342 24.089 19.2342C24.0909 19.2342 24.0928 19.2342 24.0947 19.2342H31.2751C31.327 19.2342 31.3779 19.2305 31.4279 19.2248C31.4402 19.2239 31.4515 19.221 31.4628 19.2191C31.5015 19.2135 31.5402 19.2069 31.5779 19.1974C31.5893 19.1946 31.6006 19.1918 31.6119 19.1889C31.6515 19.1786 31.6911 19.1663 31.7298 19.1522C31.7374 19.1493 31.744 19.1474 31.7515 19.1446C31.7968 19.1267 31.8421 19.1069 31.8845 19.0842C31.8874 19.0833 31.8893 19.0805 31.8921 19.0795C31.9411 19.0531 31.9893 19.0248 32.0345 18.9927C32.0355 18.9918 32.0364 18.9908 32.0383 18.9899C32.0827 18.9578 32.1251 18.9238 32.1647 18.887C32.1695 18.8833 32.1732 18.8795 32.178 18.8748C32.2591 18.7984 32.3298 18.7125 32.3893 18.6191C32.3949 18.6106 32.3997 18.6012 32.4053 18.5927C32.4298 18.5521 32.4525 18.5097 32.4723 18.4663C32.4761 18.4587 32.4798 18.4521 32.4827 18.4446C32.5044 18.3946 32.5232 18.3436 32.5393 18.2908C32.5421 18.2804 32.5449 18.2701 32.5478 18.2597C32.5591 18.2172 32.5685 18.1729 32.5761 18.1285C32.5789 18.1134 32.5808 18.0993 32.5827 18.0842C32.5893 18.0295 32.5949 17.9729 32.5949 17.9163C32.5949 17.8474 32.5883 17.7814 32.578 17.7153C32.5761 17.704 32.5751 17.6917 32.5723 17.6804C32.561 17.6172 32.5449 17.5559 32.5251 17.4955C32.5223 17.4861 32.5185 17.4766 32.5148 17.4672C32.4695 17.3417 32.4063 17.2257 32.327 17.121C32.3232 17.1162 32.3195 17.1115 32.3157 17.1059C32.2751 17.053 32.2298 17.004 32.1817 16.9577C32.1798 16.9559 32.1779 16.954 32.1751 16.9521C32.0742 16.8577 31.9581 16.7785 31.8308 16.72H31.8298C31.7694 16.6917 31.7062 16.6691 31.6411 16.6502C31.6374 16.6492 31.6327 16.6464 31.6289 16.6455C31.577 16.6313 31.5232 16.62 31.4685 16.6115C31.4609 16.6106 31.4534 16.6087 31.4459 16.6077C31.3892 16.6002 31.3326 16.5955 31.2741 16.5955H24.0881C24.0862 16.5955 24.0843 16.5955 24.0815 16.5955C21.421 16.5974 18.5804 18.0455 18.5785 22.1013C18.5785 22.1022 18.5785 22.1032 18.5785 22.1041C18.5785 22.1051 18.5785 22.106 18.5785 22.107V24.9967C18.5785 25.3608 18.7266 25.691 18.9653 25.9297C19.204 26.1684 19.5342 26.3165 19.8983 26.3165H19.9002C20.0087 26.3156 20.1116 26.3005 20.2116 26.2759Z" fill="black"/>
</g>
<defs>
<clipPath id="clip0_5_2">
<rect width="32" height="32" fill="white" transform="translate(0.594971 0.595001)"/>
</clipPath>
</defs>
</svg>
