<svg width="16" height="16" viewBox="0 0 16 16" fill="none" xmlns="http://www.w3.org/2000/svg">
<g clip-path="url(#clip0_306_1694)">
<path d="M11.1169 6.81154L11.4072 7.06944C11.6644 7.2932 12.061 7.07702 12.0097 6.73933C11.8906 5.97413 10.9743 5.46137 10.1946 5.46137C9.41206 5.46137 8.49698 5.97352 8.37592 6.73963C8.32449 7.08097 8.72484 7.29335 8.97849 7.06974L9.26873 6.81184C9.7182 6.41104 10.6709 6.41104 11.1169 6.81154ZM10.3827 13.5048C9.5847 13.8688 8.70178 14.0782 7.76728 14.0782C4.28717 14.0782 1.45636 11.2471 1.45636 7.76728C1.45636 4.28748 4.28717 1.45636 7.76728 1.45636C11.2474 1.45636 14.0782 4.28748 14.0782 7.76728C14.0782 8.50274 13.9451 9.20635 13.7129 9.86323C13.89 10.0233 14.0512 10.2015 14.1744 10.4112C14.465 10.4122 14.7399 10.4803 15.0018 10.5784C15.3404 9.70607 15.5346 8.75943 15.5346 7.76728C15.5346 3.47707 12.0575 0 7.76728 0C3.47707 0 0 3.47707 0 7.76728C0 12.0575 3.47707 15.5346 7.76728 15.5346C8.85712 15.5346 9.89327 15.3082 10.8347 14.9032C10.7825 14.8157 10.7296 14.7282 10.6984 14.6272L10.3827 13.5048ZM7.70356 12.191L7.16349 12.4094C7.05327 12.455 6.99449 12.5725 7.02019 12.6901C7.04591 12.7963 7.14511 12.8759 7.25901 12.8759H7.2737C8.57078 12.8001 9.44156 12.125 9.44156 11.5409C9.44156 11.1465 9.03742 10.7141 8.37599 10.4487C9.0598 10.1733 9.46334 9.73944 9.46334 9.34501C9.46334 8.76095 8.59255 8.08586 7.29548 8.01001C7.1817 7.99787 7.07247 8.08282 7.0482 8.20115C7.02089 8.31342 7.08157 8.43175 7.16349 8.47726L7.67777 8.69723C8.07099 8.8641 8.30613 9.10683 8.30613 9.34956C8.30613 9.59229 8.07099 9.83501 7.67777 10.0019L7.16349 10.2181C6.99082 10.2939 6.98345 10.5897 7.16349 10.6695L7.67777 10.8857C8.07099 11.0526 8.30613 11.2953 8.30613 11.5381C8.30613 11.7808 8.09799 12.0241 7.70356 12.191ZM4.34179 6.31091C4.34179 6.84947 4.77506 7.28182 5.31148 7.28182C5.85155 7.28182 6.28512 6.84947 6.28512 6.31091C6.28512 5.77236 5.85155 5.34 5.31148 5.34C4.80297 5.34 4.34179 5.77388 4.34179 6.31091ZM13.8112 11.4264L13.5533 11.4909L13.4812 11.2368C13.2992 10.5881 12.6505 10.1293 11.9718 10.2355C11.1944 10.3569 10.7202 11.1039 10.9211 11.8324L11.6265 14.3394C11.6758 14.4987 11.8427 14.5973 12.0094 14.5556L14.5696 13.9033C15.3129 13.7099 15.7301 12.936 15.4458 12.2118C15.1978 11.5842 14.4726 11.2565 13.8112 11.4264Z" fill="#0D1D1C"/>
</g>
<defs>
<clipPath id="clip0_306_1694">
<rect width="15.5346" height="15.5346" fill="white"/>
</clipPath>
</defs>
</svg>
