<svg width="14" height="16" viewBox="0 0 14 16" fill="none" xmlns="http://www.w3.org/2000/svg">
<g clip-path="url(#clip0_306_1233)">
<path d="M11.6509 1.22534H1.94182C0.869268 1.22534 0 2.09461 0 3.16716V12.8763C0 13.9488 0.869268 14.8181 1.94182 14.8181H11.6509C12.7235 14.8181 13.5927 13.9488 13.5927 12.8763V3.16716C13.5927 2.09461 12.722 1.22534 11.6509 1.22534ZM12.1364 12.8763C12.1364 13.1444 11.919 13.3617 11.6509 13.3617H1.94182C1.67373 13.3617 1.45636 13.1444 1.45636 12.8763V3.16716C1.45636 2.89901 1.67373 2.68171 1.94182 2.68171H11.6509C11.919 2.68171 12.1364 2.89901 12.1364 3.16716V12.8763ZM9.1933 5.5641L5.82546 8.93497L4.37213 7.50592C4.08768 7.22147 3.62696 7.22147 3.34236 7.50592C3.05776 7.79036 3.05791 8.25109 3.34236 8.53569L5.28418 10.4775C5.45227 10.6219 5.63734 10.6917 5.82546 10.6917C6.01357 10.6917 6.19805 10.6206 6.34034 10.4784L10.224 6.59475C10.5084 6.3103 10.5084 5.84957 10.224 5.56498C9.93954 5.28038 9.47851 5.28193 9.1933 5.5641Z" fill="#F8F8F8"/>
</g>
<defs>
<clipPath id="clip0_306_1233">
<rect width="13.5927" height="15.5346" fill="white" transform="translate(0 0.254395)"/>
</clipPath>
</defs>
</svg>
