<svg width="16" height="17" viewBox="0 0 16 17" fill="none" xmlns="http://www.w3.org/2000/svg">
<g clip-path="url(#clip0_306_1235)">
<path d="M11.1169 7.46193L11.4072 7.71983C11.6644 7.94359 12.061 7.72741 12.0097 7.38972C11.8906 6.62452 10.9743 6.11176 10.1946 6.11176C9.41206 6.11176 8.49698 6.62391 8.37592 7.39002C8.32449 7.73136 8.72484 7.94374 8.97849 7.72013L9.26873 7.46223C9.7182 7.06143 10.6709 7.06143 11.1169 7.46193ZM10.3827 14.1551C9.5847 14.5192 8.70178 14.7286 7.76728 14.7286C4.28717 14.7286 1.45636 11.8975 1.45636 8.41767C1.45636 4.93787 4.28717 2.10676 7.76728 2.10676C11.2474 2.10676 14.0782 4.93787 14.0782 8.41767C14.0782 9.15313 13.9451 9.85674 13.7129 10.5136C13.89 10.6737 14.0512 10.8519 14.1744 11.0616C14.465 11.0626 14.7399 11.1307 15.0018 11.2288C15.3404 10.3565 15.5346 9.40982 15.5346 8.41767C15.5346 4.12746 12.0575 0.650391 7.76728 0.650391C3.47707 0.650391 0 4.12746 0 8.41767C0 12.7079 3.47707 16.1849 7.76728 16.1849C8.85712 16.1849 9.89327 15.9586 10.8347 15.5536C10.7825 15.4661 10.7296 15.3786 10.6984 15.2776L10.3827 14.1551ZM7.70356 12.8414L7.16349 13.0598C7.05327 13.1053 6.99449 13.2229 7.02019 13.3405C7.04591 13.4467 7.14511 13.5263 7.25901 13.5263H7.2737C8.57078 13.4505 9.44156 12.7754 9.44156 12.1913C9.44156 11.7969 9.03742 11.3645 8.37599 11.0991C9.0598 10.8237 9.46334 10.3898 9.46334 9.9954C9.46334 9.41134 8.59255 8.73625 7.29548 8.6604C7.1817 8.64826 7.07247 8.73322 7.0482 8.85155C7.02089 8.96381 7.08157 9.08214 7.16349 9.12765L7.67777 9.34762C8.07099 9.51449 8.30613 9.75722 8.30613 9.99995C8.30613 10.2427 8.07099 10.4854 7.67777 10.6523L7.16349 10.8685C6.99082 10.9443 6.98345 11.2401 7.16349 11.3199L7.67777 11.5361C8.07099 11.703 8.30613 11.9457 8.30613 12.1884C8.30613 12.4312 8.09799 12.6745 7.70356 12.8414ZM4.34179 6.96131C4.34179 7.49986 4.77506 7.93222 5.31148 7.93222C5.85155 7.93222 6.28512 7.49986 6.28512 6.96131C6.28512 6.42275 5.85155 5.9904 5.31148 5.9904C4.80297 5.9904 4.34179 6.42427 4.34179 6.96131ZM13.8112 12.0768L13.5533 12.1413L13.4812 11.8872C13.2992 11.2385 12.6505 10.7797 11.9718 10.8859C11.1944 11.0073 10.7202 11.7543 10.9211 12.4827L11.6265 14.9898C11.6758 15.1491 11.8427 15.2477 12.0094 15.206L14.5696 14.5537C15.3129 14.3602 15.7301 13.5864 15.4458 12.8622C15.1978 12.2346 14.4726 11.9069 13.8112 12.0768Z" fill="#F8F8F8"/>
</g>
<defs>
<clipPath id="clip0_306_1235">
<rect width="15.5346" height="15.5346" fill="white" transform="translate(0 0.650391)"/>
</clipPath>
</defs>
</svg>
