<svg width="18" height="17" viewBox="0 0 18 17" fill="none" xmlns="http://www.w3.org/2000/svg">
<g clip-path="url(#clip0_306_1688)">
<path d="M17.3732 8.73586L14.4605 14.5613C14.2966 14.892 13.9599 15.0984 13.5654 15.0984H1.94182C0.869267 15.0984 0 14.2288 0 13.1565V3.44744C0 2.37519 0.869267 1.50562 1.94182 1.50562H5.50688C6.02176 1.50562 6.51571 1.71017 6.88011 2.07451L8.37106 3.44744H12.6218C13.6944 3.44744 14.5636 4.31701 14.5636 5.38926V6.36017H13.1073V5.38926C13.1073 5.12153 12.8895 4.9038 12.6218 4.9038H7.76727L5.84973 3.10428C5.75871 3.01235 5.63734 2.96198 5.50688 2.96198H1.94182C1.67421 2.96198 1.45636 3.17983 1.45636 3.44744V12.1856L3.61542 7.86811C3.78048 7.53739 4.11726 7.33108 4.48439 7.33108H16.5055C17.2245 7.33108 17.6948 8.0896 17.3732 8.73586Z" fill="#0D1D1C"/>
</g>
<defs>
<clipPath id="clip0_306_1688">
<rect width="17.4764" height="15.5346" fill="white" transform="translate(0 0.534668)"/>
</clipPath>
</defs>
</svg>
