<svg width="18" height="17" viewBox="0 0 18 17" fill="none" xmlns="http://www.w3.org/2000/svg">
<g clip-path="url(#clip0_306_1231)">
<path d="M17.2488 5.0463L12.8797 0.94724C12.5877 0.669438 12.127 0.684609 11.8509 0.976631C11.574 1.26866 11.5873 1.72939 11.8803 2.00549L14.9174 4.87453H9.95967C8.72302 4.79144 7.57613 5.30116 6.70534 6.16285C5.82546 7.03667 5.34 8.20479 5.34 9.45787V12.1006C5.34 12.5026 5.66617 12.8014 6.06819 12.8014C6.4702 12.8014 6.79637 12.5314 6.79637 12.1279V9.45787C6.79637 8.5971 7.1283 7.79398 7.73026 7.19747C8.32252 6.61189 9.0689 6.27207 9.95182 6.30242H14.9156L11.8785 9.17146C11.5855 9.44738 11.5723 9.90813 11.8491 10.2003C11.9923 10.3247 12.1847 10.4288 12.3782 10.4288C12.5574 10.4288 12.7375 10.3634 12.8779 10.2297L17.247 6.13066C17.3945 5.96563 17.4764 5.77448 17.4764 5.57423C17.4764 5.37398 17.3945 5.18284 17.2488 5.0463ZM10.9227 12.3706C10.5207 12.3706 10.1946 12.6968 10.1946 13.0715V14.5005C10.1946 14.6342 10.0855 14.716 9.95182 14.716H1.69909C1.56541 14.716 1.45636 14.6069 1.45636 14.5005V6.30242C1.45636 6.16873 1.56541 6.087 1.69909 6.087H3.39818C3.8002 6.087 4.12637 5.76083 4.12637 5.38612C4.12637 5.01141 3.8002 4.68524 3.39818 4.68524H1.69909C0.762164 4.68524 0 5.44741 0 6.35703V14.5825C0 15.4927 0.762467 16.2542 1.69909 16.2542H9.95182C10.8888 16.2542 11.6509 15.4921 11.6509 14.5825V13.1534C11.6509 12.6983 11.3263 12.3706 10.9227 12.3706Z" fill="#F8F8F8"/>
</g>
<defs>
<clipPath id="clip0_306_1231">
<rect width="17.4764" height="15.5346" fill="white" transform="translate(0 0.719727)"/>
</clipPath>
</defs>
</svg>
