<svg width="18" height="16" viewBox="0 0 18 16" fill="none" xmlns="http://www.w3.org/2000/svg">
<g clip-path="url(#clip0_306_1690)">
<path d="M17.2488 4.39591L12.8797 0.296849C12.5877 0.0190475 12.127 0.034218 11.8509 0.32624C11.574 0.618272 11.5873 1.079 11.8803 1.3551L14.9174 4.22414H9.95967C8.72302 4.14105 7.57613 4.65077 6.70534 5.51246C5.82546 6.38628 5.34 7.5544 5.34 8.80748V11.4502C5.34 11.8522 5.66617 12.1511 6.06819 12.1511C6.4702 12.1511 6.79637 11.881 6.79637 11.4775V8.80748C6.79637 7.94671 7.1283 7.14359 7.73026 6.54708C8.32252 5.9615 9.0689 5.62168 9.95182 5.65203H14.9156L11.8785 8.52106C11.5855 8.79698 11.5723 9.25774 11.8491 9.54993C11.9923 9.67432 12.1847 9.77842 12.3782 9.77842C12.5574 9.77842 12.7375 9.71301 12.8779 9.57933L17.247 5.48027C17.3945 5.31524 17.4764 5.12409 17.4764 4.92384C17.4764 4.72359 17.3945 4.53244 17.2488 4.39591ZM10.9227 11.7202C10.5207 11.7202 10.1946 12.0464 10.1946 12.4211V13.8501C10.1946 13.9838 10.0855 14.0656 9.95182 14.0656H1.69909C1.56541 14.0656 1.45636 13.9565 1.45636 13.8501V5.65203C1.45636 5.51834 1.56541 5.4366 1.69909 5.4366H3.39818C3.8002 5.4366 4.12637 5.11044 4.12637 4.73573C4.12637 4.36102 3.8002 4.03485 3.39818 4.03485H1.69909C0.762164 4.03485 0 4.79702 0 5.70664V13.9321C0 14.8423 0.762467 15.6039 1.69909 15.6039H9.95182C10.8888 15.6039 11.6509 14.8417 11.6509 13.9321V12.503C11.6509 12.0479 11.3263 11.7202 10.9227 11.7202Z" fill="#0D1D1C"/>
</g>
<defs>
<clipPath id="clip0_306_1690">
<rect width="17.4764" height="15.5346" fill="white" transform="translate(0 0.0693359)"/>
</clipPath>
</defs>
</svg>
