<svg width="18" height="16" viewBox="0 0 18 16" fill="none" xmlns="http://www.w3.org/2000/svg">
<g clip-path="url(#clip0_306_1229)">
<path d="M17.3732 8.38625L14.4605 14.2117C14.2966 14.5424 13.9599 14.7487 13.5654 14.7487H1.94182C0.869267 14.7487 0 13.8792 0 12.8069V3.09783C0 2.02558 0.869267 1.15601 1.94182 1.15601H5.50688C6.02176 1.15601 6.51571 1.36056 6.88011 1.7249L8.37106 3.09783H12.6218C13.6944 3.09783 14.5636 3.9674 14.5636 5.03965V6.01056H13.1073V5.03965C13.1073 4.77192 12.8895 4.55419 12.6218 4.55419H7.76727L5.84973 2.75467C5.75871 2.66274 5.63734 2.61237 5.50688 2.61237H1.94182C1.67421 2.61237 1.45636 2.83022 1.45636 3.09783V11.836L3.61542 7.5185C3.78048 7.18778 4.11726 6.98147 4.48439 6.98147H16.5055C17.2245 6.98147 17.6948 7.73999 17.3732 8.38625Z" fill="#F8F8F8"/>
</g>
<defs>
<clipPath id="clip0_306_1229">
<rect width="17.4764" height="15.5346" fill="white" transform="translate(0 0.185059)"/>
</clipPath>
</defs>
</svg>
