<svg width="14" height="17" viewBox="0 0 14 17" fill="none" xmlns="http://www.w3.org/2000/svg">
<g clip-path="url(#clip0_306_1692)">
<path d="M11.6509 1.57495H1.94182C0.869268 1.57495 0 2.44422 0 3.51677V13.2259C0 14.2984 0.869268 15.1677 1.94182 15.1677H11.6509C12.7235 15.1677 13.5927 14.2984 13.5927 13.2259V3.51677C13.5927 2.44422 12.722 1.57495 11.6509 1.57495ZM12.1364 13.2259C12.1364 13.494 11.919 13.7113 11.6509 13.7113H1.94182C1.67373 13.7113 1.45636 13.494 1.45636 13.2259V3.51677C1.45636 3.24862 1.67373 3.03132 1.94182 3.03132H11.6509C11.919 3.03132 12.1364 3.24862 12.1364 3.51677V13.2259ZM9.1933 5.91371L5.82546 9.28458L4.37213 7.85553C4.08768 7.57108 3.62696 7.57108 3.34236 7.85553C3.05776 8.13997 3.05791 8.6007 3.34236 8.8853L5.28418 10.8271C5.45227 10.9715 5.63734 11.0413 5.82546 11.0413C6.01357 11.0413 6.19805 10.9702 6.34034 10.828L10.224 6.94436C10.5084 6.65991 10.5084 6.19918 10.224 5.91459C9.93954 5.62999 9.47851 5.63153 9.1933 5.91371Z" fill="#0D1D1C"/>
</g>
<defs>
<clipPath id="clip0_306_1692">
<rect width="13.5927" height="15.5346" fill="white" transform="translate(0 0.604004)"/>
</clipPath>
</defs>
</svg>
