<svg width="817" height="468" viewBox="0 0 817 468" fill="none" xmlns="http://www.w3.org/2000/svg">
<g opacity="0.75">
<rect x="1.5" y="163.722" width="811.949" height="137.37" rx="5.5" fill="#0D2D2A" stroke="#0D2D2A"/>
<rect x="34.729" y="256.954" width="750.946" height="18.1827" rx="9.09136" fill="#051413"/>
<rect x="35.2351" y="257.391" width="357.956" height="17.3404" rx="8.67021" fill="url(#paint0_linear_306_3489)"/>
<rect x="35.2351" y="257.391" width="357.956" height="17.3404" rx="8.67021" fill="url(#paint1_linear_306_3489)"/>
<path d="M36.1566 226.133V211.133H38.2304V212.902H38.408C38.5311 212.675 38.7086 212.412 38.9407 212.114C39.1727 211.815 39.4946 211.555 39.9066 211.332C40.3185 211.105 40.863 210.991 41.5401 210.991C42.4208 210.991 43.2068 211.214 43.898 211.659C44.5893 212.104 45.1315 212.746 45.5245 213.584C45.9222 214.422 46.1211 215.43 46.1211 216.609C46.1211 217.788 45.9246 218.799 45.5316 219.642C45.1386 220.48 44.5988 221.126 43.9122 221.581C43.2257 222.031 42.4421 222.256 41.5614 222.256C40.8985 222.256 40.3564 222.144 39.935 221.922C39.5183 221.699 39.1916 221.439 38.9549 221.14C38.7181 220.842 38.5358 220.577 38.408 220.345H38.2801V226.133H36.1566ZM38.2375 216.588C38.2375 217.355 38.3488 218.027 38.5713 218.605C38.7939 219.183 39.1158 219.635 39.5372 219.962C39.9586 220.283 40.4747 220.444 41.0855 220.444C41.72 220.444 42.2503 220.276 42.6764 219.94C43.1026 219.599 43.4246 219.138 43.6424 218.555C43.8649 217.973 43.9762 217.317 43.9762 216.588C43.9762 215.868 43.8673 215.222 43.6495 214.649C43.4364 214.076 43.1144 213.624 42.6835 213.292C42.2574 212.961 41.7247 212.795 41.0855 212.795C40.47 212.795 39.9492 212.954 39.523 213.271C39.1016 213.588 38.782 214.031 38.5642 214.599C38.3464 215.167 38.2375 215.83 38.2375 216.588ZM53.602 222.263C52.5272 222.263 51.6015 222.033 50.825 221.574C50.0532 221.11 49.4567 220.459 49.0353 219.621C48.6186 218.778 48.4103 217.791 48.4103 216.659C48.4103 215.542 48.6186 214.557 49.0353 213.704C49.4567 212.852 50.0438 212.187 50.7966 211.709C51.5542 211.23 52.4396 210.991 53.4529 210.991C54.0684 210.991 54.665 211.093 55.2426 211.297C55.8203 211.5 56.3388 211.82 56.798 212.256C57.2573 212.691 57.6195 213.257 57.8847 213.953C58.1498 214.644 58.2824 215.485 58.2824 216.474V217.227H49.6105V215.636H56.2014C56.2014 215.078 56.0878 214.583 55.8605 214.152C55.6333 213.716 55.3137 213.373 54.9017 213.122C54.4945 212.871 54.0163 212.746 53.4671 212.746C52.8705 212.746 52.3496 212.892 51.9046 213.186C51.4642 213.475 51.1233 213.854 50.8818 214.322C50.6451 214.786 50.5267 215.291 50.5267 215.835V217.078C50.5267 217.807 50.6546 218.427 50.9103 218.939C51.1707 219.45 51.5329 219.841 51.9969 220.111C52.4609 220.376 53.0031 220.508 53.6233 220.508C54.0258 220.508 54.3927 220.452 54.7242 220.338C55.0556 220.22 55.3421 220.044 55.5835 219.812C55.825 219.58 56.0097 219.294 56.1375 218.953L58.1475 219.315C57.9865 219.907 57.6977 220.426 57.281 220.871C56.8691 221.311 56.3506 221.654 55.7256 221.9C55.1053 222.142 54.3975 222.263 53.602 222.263ZM61.0386 222.042V211.133H63.0911V212.866H63.2048C63.4036 212.279 63.754 211.818 64.2559 211.481C64.7625 211.14 65.3355 210.97 65.9747 210.97C66.1072 210.97 66.2635 210.975 66.4434 210.984C66.6281 210.994 66.7725 211.006 66.8767 211.02V213.051C66.7914 213.027 66.6399 213.001 66.4221 212.973C66.2043 212.94 65.9865 212.923 65.7687 212.923C65.2668 212.923 64.8194 213.03 64.4264 213.243C64.0381 213.451 63.7304 213.742 63.5031 214.116C63.2758 214.486 63.1622 214.907 63.1622 215.381V222.042H61.0386ZM77.2891 213.797L75.3644 214.138C75.2839 213.891 75.156 213.657 74.9809 213.435C74.8104 213.212 74.5784 213.03 74.2848 212.888C73.9913 212.746 73.6243 212.675 73.184 212.675C72.5827 212.675 72.0808 212.81 71.6783 213.079C71.2758 213.345 71.0746 213.688 71.0746 214.109C71.0746 214.474 71.2095 214.767 71.4794 214.99C71.7493 215.212 72.1849 215.395 72.7862 215.537L74.5192 215.935C75.523 216.167 76.2711 216.524 76.7635 217.007C77.2559 217.49 77.5022 218.117 77.5022 218.889C77.5022 219.542 77.3128 220.125 76.934 220.636C76.5599 221.143 76.0367 221.541 75.3644 221.829C74.6968 222.118 73.9226 222.263 73.0419 222.263C71.8203 222.263 70.8237 222.002 70.0519 221.481C69.2801 220.956 68.8066 220.21 68.6314 219.244L70.684 218.932C70.8118 219.467 71.0746 219.872 71.4723 220.146C71.8701 220.416 72.3885 220.551 73.0277 220.551C73.7237 220.551 74.2801 220.407 74.6968 220.118C75.1134 219.824 75.3218 219.467 75.3218 219.045C75.3218 218.704 75.1939 218.418 74.9382 218.186C74.6873 217.954 74.3014 217.779 73.7806 217.66L71.934 217.256C70.916 217.024 70.1631 216.654 69.6755 216.148C69.1925 215.641 68.951 214.999 68.951 214.223C68.951 213.579 69.1309 213.015 69.4908 212.533C69.8506 212.05 70.3478 211.673 70.9823 211.403C71.6167 211.129 72.3435 210.991 73.1627 210.991C74.3416 210.991 75.2697 211.247 75.9468 211.758C76.6238 212.265 77.0713 212.944 77.2891 213.797ZM84.8322 222.263C83.8095 222.263 82.917 222.028 82.1546 221.56C81.3923 221.091 80.8005 220.435 80.3791 219.592C79.9577 218.749 79.747 217.765 79.747 216.638C79.747 215.506 79.9577 214.516 80.3791 213.669C80.8005 212.821 81.3923 212.163 82.1546 211.694C82.917 211.226 83.8095 210.991 84.8322 210.991C85.8549 210.991 86.7474 211.226 87.5098 211.694C88.2721 212.163 88.8639 212.821 89.2853 213.669C89.7067 214.516 89.9174 215.506 89.9174 216.638C89.9174 217.765 89.7067 218.749 89.2853 219.592C88.8639 220.435 88.2721 221.091 87.5098 221.56C86.7474 222.028 85.8549 222.263 84.8322 222.263ZM84.8393 220.48C85.5022 220.48 86.0514 220.305 86.487 219.954C86.9226 219.604 87.2446 219.138 87.4529 218.555C87.666 217.973 87.7725 217.331 87.7725 216.631C87.7725 215.935 87.666 215.295 87.4529 214.713C87.2446 214.126 86.9226 213.655 86.487 213.3C86.0514 212.944 85.5022 212.767 84.8393 212.767C84.1717 212.767 83.6177 212.944 83.1774 213.3C82.7418 213.655 82.4174 214.126 82.2044 214.713C81.996 215.295 81.8919 215.935 81.8919 216.631C81.8919 217.331 81.996 217.973 82.2044 218.555C82.4174 219.138 82.7418 219.604 83.1774 219.954C83.6177 220.305 84.1717 220.48 84.8393 220.48ZM94.8114 215.565V222.042H92.6878V211.133H94.7262V212.909H94.8611C95.1121 212.331 95.505 211.867 96.0401 211.517C96.5799 211.167 97.2593 210.991 98.0784 210.991C98.8218 210.991 99.4728 211.148 100.032 211.46C100.59 211.768 101.024 212.227 101.331 212.838C101.639 213.449 101.793 214.204 101.793 215.104V222.042H99.6693V215.359C99.6693 214.569 99.4634 213.951 99.0514 213.506C98.6395 213.056 98.0737 212.831 97.354 212.831C96.8616 212.831 96.4236 212.937 96.0401 213.15C95.6613 213.364 95.3606 213.676 95.1381 214.088C94.9203 214.495 94.8114 214.988 94.8114 215.565ZM108.216 222.284C107.524 222.284 106.899 222.156 106.341 221.9C105.782 221.64 105.339 221.264 105.013 220.771C104.691 220.279 104.53 219.675 104.53 218.96C104.53 218.345 104.648 217.838 104.885 217.44C105.121 217.042 105.441 216.728 105.843 216.496C106.246 216.264 106.696 216.088 107.193 215.97C107.69 215.852 108.197 215.762 108.713 215.7C109.366 215.624 109.897 215.563 110.304 215.515C110.711 215.463 111.007 215.381 111.192 215.267C111.376 215.153 111.468 214.969 111.468 214.713V214.663C111.468 214.043 111.293 213.562 110.943 213.221C110.597 212.881 110.081 212.71 109.395 212.71C108.68 212.71 108.116 212.869 107.704 213.186C107.297 213.498 107.015 213.846 106.859 214.23L104.863 213.775C105.1 213.113 105.446 212.578 105.9 212.17C106.36 211.758 106.888 211.46 107.484 211.275C108.081 211.086 108.708 210.991 109.366 210.991C109.802 210.991 110.263 211.043 110.751 211.148C111.244 211.247 111.703 211.432 112.129 211.702C112.56 211.971 112.913 212.357 113.187 212.859C113.462 213.356 113.599 214.003 113.599 214.798V222.042H111.525V220.551H111.44C111.303 220.826 111.097 221.096 110.822 221.361C110.548 221.626 110.195 221.846 109.764 222.021C109.333 222.196 108.817 222.284 108.216 222.284ZM108.677 220.579C109.264 220.579 109.766 220.463 110.183 220.231C110.604 219.999 110.924 219.696 111.142 219.322C111.364 218.944 111.476 218.539 111.476 218.108V216.702C111.4 216.777 111.253 216.848 111.035 216.915C110.822 216.976 110.578 217.031 110.304 217.078C110.029 217.121 109.762 217.161 109.501 217.199C109.241 217.232 109.023 217.26 108.848 217.284C108.436 217.336 108.059 217.424 107.718 217.547C107.382 217.67 107.112 217.847 106.909 218.079C106.71 218.307 106.611 218.61 106.611 218.989C106.611 219.514 106.805 219.912 107.193 220.182C107.581 220.447 108.076 220.579 108.677 220.579ZM118.951 207.497V222.042H116.828V207.497H118.951ZM128.636 214.976V216.815H122.187V214.976H128.636ZM140.041 213.797L138.116 214.138C138.035 213.891 137.908 213.657 137.732 213.435C137.562 213.212 137.33 213.03 137.036 212.888C136.743 212.746 136.376 212.675 135.936 212.675C135.334 212.675 134.832 212.81 134.43 213.079C134.027 213.345 133.826 213.688 133.826 214.109C133.826 214.474 133.961 214.767 134.231 214.99C134.501 215.212 134.936 215.395 135.538 215.537L137.271 215.935C138.275 216.167 139.023 216.524 139.515 217.007C140.008 217.49 140.254 218.117 140.254 218.889C140.254 219.542 140.064 220.125 139.686 220.636C139.311 221.143 138.788 221.541 138.116 221.829C137.448 222.118 136.674 222.263 135.793 222.263C134.572 222.263 133.575 222.002 132.803 221.481C132.032 220.956 131.558 220.21 131.383 219.244L133.436 218.932C133.563 219.467 133.826 219.872 134.224 220.146C134.622 220.416 135.14 220.551 135.779 220.551C136.475 220.551 137.032 220.407 137.448 220.118C137.865 219.824 138.073 219.467 138.073 219.045C138.073 218.704 137.945 218.418 137.69 218.186C137.439 217.954 137.053 217.779 136.532 217.66L134.686 217.256C133.668 217.024 132.915 216.654 132.427 216.148C131.944 215.641 131.703 214.999 131.703 214.223C131.703 213.579 131.883 213.015 132.242 212.533C132.602 212.05 133.099 211.673 133.734 211.403C134.368 211.129 135.095 210.991 135.914 210.991C137.093 210.991 138.021 211.247 138.698 211.758C139.375 212.265 139.823 212.944 140.041 213.797ZM148.081 211.133V212.838H142.122V211.133H148.081ZM143.72 208.52H145.844V218.839C145.844 219.251 145.905 219.561 146.028 219.77C146.151 219.973 146.31 220.113 146.504 220.189C146.703 220.26 146.919 220.295 147.151 220.295C147.321 220.295 147.47 220.283 147.598 220.26C147.726 220.236 147.825 220.217 147.896 220.203L148.28 221.957C148.157 222.005 147.981 222.052 147.754 222.099C147.527 222.151 147.243 222.18 146.902 222.185C146.343 222.194 145.822 222.095 145.339 221.886C144.856 221.678 144.466 221.356 144.168 220.92C143.869 220.485 143.72 219.938 143.72 219.28V208.52ZM157.741 217.518V211.133H159.871V222.042H157.783V220.153H157.669C157.419 220.736 157.016 221.221 156.462 221.609C155.913 221.993 155.229 222.185 154.41 222.185C153.709 222.185 153.089 222.031 152.549 221.723C152.014 221.41 151.592 220.949 151.285 220.338C150.982 219.727 150.83 218.972 150.83 218.072V211.133H152.954V217.817C152.954 218.56 153.16 219.152 153.571 219.592C153.983 220.033 154.518 220.253 155.177 220.253C155.574 220.253 155.97 220.153 156.363 219.954C156.76 219.756 157.089 219.455 157.35 219.052C157.615 218.65 157.745 218.139 157.741 217.518ZM168.316 211.133V212.838H162.152V211.133H168.316ZM163.842 222.042V209.869C163.842 209.187 163.991 208.622 164.289 208.172C164.588 207.717 164.983 207.379 165.475 207.156C165.968 206.929 166.503 206.815 167.08 206.815C167.507 206.815 167.871 206.851 168.174 206.922C168.477 206.988 168.702 207.05 168.849 207.106L168.352 208.825C168.252 208.797 168.125 208.764 167.968 208.726C167.812 208.683 167.623 208.662 167.4 208.662C166.884 208.662 166.515 208.79 166.292 209.045C166.074 209.301 165.965 209.67 165.965 210.153V222.042H163.842ZM176.099 211.133V212.838H169.934V211.133H176.099ZM171.625 222.042V209.869C171.625 209.187 171.774 208.622 172.072 208.172C172.37 207.717 172.766 207.379 173.258 207.156C173.751 206.929 174.286 206.815 174.863 206.815C175.289 206.815 175.654 206.851 175.957 206.922C176.26 206.988 176.485 207.05 176.632 207.106L176.135 208.825C176.035 208.797 175.907 208.764 175.751 208.726C175.595 208.683 175.405 208.662 175.183 208.662C174.667 208.662 174.297 208.79 174.075 209.045C173.857 209.301 173.748 209.67 173.748 210.153V222.042H171.625ZM178.956 222.177C178.568 222.177 178.234 222.04 177.955 221.765C177.676 221.486 177.536 221.15 177.536 220.757C177.536 220.369 177.676 220.037 177.955 219.763C178.234 219.483 178.568 219.344 178.956 219.344C179.345 219.344 179.679 219.483 179.958 219.763C180.237 220.037 180.377 220.369 180.377 220.757C180.377 221.017 180.311 221.256 180.178 221.474C180.05 221.687 179.88 221.858 179.667 221.986C179.454 222.114 179.217 222.177 178.956 222.177ZM183.394 222.042V220.587L189.303 213.079V212.98H183.586V211.133H191.952V212.682L186.271 220.096V220.196H192.151V222.042H183.394ZM195.057 222.042V211.133H197.18V222.042H195.057ZM196.129 209.45C195.76 209.45 195.442 209.327 195.177 209.081C194.917 208.83 194.787 208.532 194.787 208.186C194.787 207.836 194.917 207.537 195.177 207.291C195.442 207.04 195.76 206.915 196.129 206.915C196.498 206.915 196.813 207.04 197.074 207.291C197.339 207.537 197.471 207.836 197.471 208.186C197.471 208.532 197.339 208.83 197.074 209.081C196.813 209.327 196.498 209.45 196.129 209.45ZM200.437 226.133V211.133H202.511V212.902H202.688C202.812 212.675 202.989 212.412 203.221 212.114C203.453 211.815 203.775 211.555 204.187 211.332C204.599 211.105 205.143 210.991 205.821 210.991C206.701 210.991 207.487 211.214 208.179 211.659C208.87 212.104 209.412 212.746 209.805 213.584C210.203 214.422 210.402 215.43 210.402 216.609C210.402 217.788 210.205 218.799 209.812 219.642C209.419 220.48 208.879 221.126 208.193 221.581C207.506 222.031 206.723 222.256 205.842 222.256C205.179 222.256 204.637 222.144 204.215 221.922C203.799 221.699 203.472 221.439 203.235 221.14C202.999 220.842 202.816 220.577 202.688 220.345H202.561V226.133H200.437ZM202.518 216.588C202.518 217.355 202.629 218.027 202.852 218.605C203.074 219.183 203.396 219.635 203.818 219.962C204.239 220.283 204.755 220.444 205.366 220.444C206 220.444 206.531 220.276 206.957 219.94C207.383 219.599 207.705 219.138 207.923 218.555C208.145 217.973 208.257 217.317 208.257 216.588C208.257 215.868 208.148 215.222 207.93 214.649C207.717 214.076 207.395 213.624 206.964 213.292C206.538 212.961 206.005 212.795 205.366 212.795C204.75 212.795 204.23 212.954 203.804 213.271C203.382 213.588 203.063 214.031 202.845 214.599C202.627 215.167 202.518 215.83 202.518 216.588ZM219.492 214.77C219.492 212.989 219.726 211.351 220.195 209.855C220.664 208.359 221.348 206.979 222.247 205.714H224.193C223.843 206.183 223.516 206.758 223.213 207.44C222.91 208.122 222.645 208.87 222.418 209.685C222.191 210.494 222.013 211.335 221.885 212.206C221.757 213.072 221.693 213.927 221.693 214.77C221.693 215.897 221.805 217.038 222.027 218.193C222.25 219.348 222.55 220.421 222.929 221.41C223.308 222.4 223.729 223.207 224.193 223.832H222.247C221.348 222.568 220.664 221.188 220.195 219.692C219.726 218.195 219.492 216.555 219.492 214.77ZM232.322 207.497V222.042H230.121V209.699H230.035L226.555 211.971V209.869L230.185 207.497H232.322ZM241.721 222.241C240.746 222.241 239.874 222.073 239.107 221.737C238.345 221.401 237.741 220.935 237.296 220.338C236.856 219.737 236.619 219.041 236.586 218.25H238.816C238.845 218.681 238.989 219.055 239.249 219.372C239.515 219.685 239.86 219.926 240.286 220.096C240.712 220.267 241.186 220.352 241.707 220.352C242.28 220.352 242.786 220.253 243.227 220.054C243.672 219.855 244.02 219.578 244.271 219.223C244.522 218.863 244.647 218.449 244.647 217.98C244.647 217.492 244.522 217.064 244.271 216.694C244.024 216.32 243.662 216.027 243.184 215.814C242.711 215.601 242.138 215.494 241.465 215.494H240.237V213.704H241.465C242.005 213.704 242.479 213.607 242.886 213.413C243.298 213.219 243.62 212.949 243.852 212.604C244.084 212.253 244.2 211.844 244.2 211.375C244.2 210.925 244.098 210.534 243.894 210.203C243.695 209.867 243.411 209.604 243.042 209.415C242.677 209.225 242.247 209.131 241.749 209.131C241.276 209.131 240.833 209.218 240.421 209.393C240.014 209.564 239.683 209.81 239.427 210.132C239.171 210.449 239.034 210.83 239.015 211.275H236.891C236.915 210.489 237.147 209.798 237.587 209.202C238.033 208.605 238.62 208.139 239.349 207.802C240.078 207.466 240.888 207.298 241.778 207.298C242.711 207.298 243.515 207.48 244.193 207.845C244.874 208.205 245.4 208.685 245.769 209.287C246.143 209.888 246.328 210.546 246.323 211.261C246.328 212.076 246.101 212.767 245.641 213.335C245.187 213.903 244.581 214.284 243.823 214.479V214.592C244.789 214.739 245.537 215.122 246.068 215.743C246.603 216.363 246.868 217.132 246.863 218.051C246.868 218.851 246.645 219.569 246.195 220.203C245.75 220.837 245.142 221.337 244.37 221.702C243.598 222.061 242.715 222.241 241.721 222.241ZM255.012 222.241C254.036 222.241 253.165 222.073 252.398 221.737C251.636 221.401 251.032 220.935 250.587 220.338C250.147 219.737 249.91 219.041 249.877 218.25H252.107C252.135 218.681 252.28 219.055 252.54 219.372C252.805 219.685 253.151 219.926 253.577 220.096C254.003 220.267 254.477 220.352 254.997 220.352C255.57 220.352 256.077 220.253 256.517 220.054C256.962 219.855 257.31 219.578 257.561 219.223C257.812 218.863 257.938 218.449 257.938 217.98C257.938 217.492 257.812 217.064 257.561 216.694C257.315 216.32 256.953 216.027 256.475 215.814C256.001 215.601 255.428 215.494 254.756 215.494H253.527V213.704H254.756C255.296 213.704 255.769 213.607 256.176 213.413C256.588 213.219 256.91 212.949 257.142 212.604C257.374 212.253 257.49 211.844 257.49 211.375C257.49 210.925 257.389 210.534 257.185 210.203C256.986 209.867 256.702 209.604 256.333 209.415C255.968 209.225 255.537 209.131 255.04 209.131C254.567 209.131 254.124 209.218 253.712 209.393C253.305 209.564 252.973 209.81 252.718 210.132C252.462 210.449 252.325 210.83 252.306 211.275H250.182C250.206 210.489 250.438 209.798 250.878 209.202C251.323 208.605 251.91 208.139 252.639 207.802C253.369 207.466 254.178 207.298 255.068 207.298C256.001 207.298 256.806 207.48 257.483 207.845C258.165 208.205 258.691 208.685 259.06 209.287C259.434 209.888 259.619 210.546 259.614 211.261C259.619 212.076 259.391 212.767 258.932 213.335C258.478 213.903 257.871 214.284 257.114 214.479V214.592C258.08 214.739 258.828 215.122 259.358 215.743C259.893 216.363 260.158 217.132 260.154 218.051C260.158 218.851 259.936 219.569 259.486 220.203C259.041 220.837 258.433 221.337 257.661 221.702C256.889 222.061 256.006 222.241 255.012 222.241ZM269.13 207.497H271.793L276.424 218.804H276.595L281.225 207.497H283.889V222.042H281.801V211.517H281.666L277.376 222.021H275.643L271.353 211.51H271.218V222.042H269.13V207.497ZM287.479 222.042V207.497H292.806C293.838 207.497 294.693 207.667 295.37 208.008C296.047 208.345 296.554 208.801 296.89 209.379C297.226 209.952 297.394 210.598 297.394 211.318C297.394 211.924 297.283 212.435 297.06 212.852C296.838 213.264 296.539 213.596 296.165 213.846C295.796 214.093 295.389 214.273 294.944 214.386V214.528C295.427 214.552 295.898 214.708 296.357 214.997C296.821 215.281 297.205 215.686 297.508 216.212C297.811 216.737 297.962 217.376 297.962 218.129C297.962 218.872 297.787 219.54 297.437 220.132C297.091 220.719 296.556 221.185 295.832 221.531C295.107 221.872 294.182 222.042 293.055 222.042H287.479ZM289.674 220.16H292.842C293.893 220.16 294.646 219.957 295.1 219.55C295.555 219.142 295.782 218.633 295.782 218.023C295.782 217.563 295.666 217.142 295.434 216.758C295.202 216.375 294.87 216.069 294.44 215.842C294.013 215.615 293.507 215.501 292.92 215.501H289.674V220.16ZM289.674 213.79H292.614C293.107 213.79 293.549 213.695 293.942 213.506C294.34 213.316 294.655 213.051 294.887 212.71C295.124 212.364 295.242 211.957 295.242 211.489C295.242 210.887 295.031 210.383 294.61 209.976C294.189 209.569 293.542 209.365 292.671 209.365H289.674V213.79ZM304.879 214.77C304.879 216.555 304.644 218.195 304.176 219.692C303.707 221.188 303.023 222.568 302.123 223.832H300.177C300.527 223.364 300.854 222.788 301.157 222.106C301.46 221.425 301.725 220.679 301.953 219.869C302.18 219.055 302.357 218.212 302.485 217.341C302.613 216.47 302.677 215.613 302.677 214.77C302.677 213.648 302.566 212.509 302.343 211.354C302.121 210.198 301.82 209.126 301.441 208.136C301.062 207.147 300.641 206.339 300.177 205.714H302.123C303.023 206.979 303.707 208.359 304.176 209.855C304.644 211.351 304.879 212.989 304.879 214.77Z" fill="#ADF0DD"/>
<path d="M772.658 228.423H759.23C758.562 228.423 757.922 228.158 757.45 227.685C756.978 227.213 756.712 226.573 756.712 225.905V209.959C756.712 209.737 756.801 209.523 756.958 209.366C757.115 209.209 757.329 209.12 757.552 209.12C757.774 209.12 757.988 209.209 758.145 209.366C758.302 209.523 758.391 209.737 758.391 209.959V225.905C758.391 226.128 758.479 226.341 758.637 226.498C758.794 226.656 759.007 226.744 759.23 226.744H772.658C772.881 226.744 773.094 226.656 773.251 226.498C773.409 226.341 773.497 226.128 773.497 225.905V209.959C773.497 209.737 773.586 209.523 773.743 209.366C773.9 209.209 774.114 209.12 774.336 209.12C774.559 209.12 774.772 209.209 774.93 209.366C775.087 209.523 775.176 209.737 775.176 209.959V225.905C775.176 226.573 774.91 227.213 774.438 227.685C773.966 228.158 773.326 228.423 772.658 228.423Z" fill="#ADF0DD"/>
<path d="M776.016 208.281H755.874C755.651 208.281 755.438 208.192 755.281 208.035C755.123 207.877 755.035 207.664 755.035 207.441C755.035 207.219 755.123 207.005 755.281 206.848C755.438 206.69 755.651 206.602 755.874 206.602H776.016C776.239 206.602 776.452 206.69 776.609 206.848C776.767 207.005 776.855 207.219 776.855 207.441C776.855 207.664 776.767 207.877 776.609 208.035C776.452 208.192 776.239 208.281 776.016 208.281Z" fill="#ADF0DD"/>
<path d="M769.302 208.281C769.079 208.281 768.866 208.192 768.709 208.035C768.551 207.877 768.463 207.664 768.463 207.441V204.924H763.427V207.441C763.427 207.664 763.339 207.877 763.181 208.035C763.024 208.192 762.811 208.281 762.588 208.281C762.365 208.281 762.152 208.192 761.995 208.035C761.837 207.877 761.749 207.664 761.749 207.441V204.084C761.749 203.862 761.837 203.648 761.995 203.491C762.152 203.334 762.365 203.245 762.588 203.245H769.302C769.525 203.245 769.738 203.334 769.895 203.491C770.053 203.648 770.141 203.862 770.141 204.084V207.441C770.141 207.664 770.053 207.877 769.895 208.035C769.738 208.192 769.525 208.281 769.302 208.281Z" fill="#ADF0DD"/>
<path d="M765.945 224.226C765.722 224.226 765.509 224.138 765.352 223.98C765.194 223.823 765.106 223.61 765.106 223.387V211.638C765.106 211.415 765.194 211.202 765.352 211.044C765.509 210.887 765.722 210.798 765.945 210.798C766.168 210.798 766.381 210.887 766.538 211.044C766.696 211.202 766.784 211.415 766.784 211.638V223.387C766.784 223.61 766.696 223.823 766.538 223.98C766.381 224.138 766.168 224.226 765.945 224.226Z" fill="#ADF0DD"/>
<path d="M770.142 222.548C769.919 222.548 769.706 222.459 769.548 222.302C769.391 222.144 769.303 221.931 769.303 221.708V213.316C769.303 213.093 769.391 212.88 769.548 212.722C769.706 212.565 769.919 212.477 770.142 212.477C770.364 212.477 770.578 212.565 770.735 212.722C770.893 212.88 770.981 213.093 770.981 213.316V221.708C770.981 221.931 770.893 222.144 770.735 222.302C770.578 222.459 770.364 222.548 770.142 222.548Z" fill="#ADF0DD"/>
<path d="M761.749 222.548C761.526 222.548 761.313 222.46 761.155 222.302C760.998 222.145 760.91 221.931 760.91 221.709V213.316C760.91 213.094 760.998 212.88 761.155 212.723C761.313 212.565 761.526 212.477 761.749 212.477C761.971 212.477 762.185 212.565 762.342 212.723C762.5 212.88 762.588 213.094 762.588 213.316V221.709C762.588 221.931 762.5 222.145 762.342 222.302C762.185 222.46 761.971 222.548 761.749 222.548Z" fill="#ADF0DD"/>
</g>
<rect x="1.5" y="0.5" width="811.949" height="137.37" rx="5.5" fill="#0D2D2A" stroke="#0D2D2A"/>
<rect x="34.729" y="93.7319" width="750.946" height="18.1827" rx="9.09136" fill="#051413"/>
<rect x="34.729" y="93.7319" width="214.781" height="18.1827" rx="9.09136" fill="url(#paint2_linear_306_3489)"/>
<rect x="34.729" y="93.7319" width="214.781" height="18.1827" rx="9.09136" fill="url(#paint3_linear_306_3489)"/>
<path d="M38.2801 44.2749V58.8203H36.1566V44.2749H38.2801ZM48.4475 54.2962V47.9112H50.5782V58.8203H48.4902V56.9311H48.3765C48.1256 57.5135 47.7231 57.9988 47.1691 58.3871C46.6199 58.7706 45.9357 58.9624 45.1166 58.9624C44.4158 58.9624 43.7956 58.8085 43.2558 58.5007C42.7207 58.1882 42.2993 57.7266 41.9916 57.1158C41.6885 56.505 41.537 55.7498 41.537 54.8501V47.9112H43.6606V54.5945C43.6606 55.3378 43.8666 55.9297 44.2785 56.37C44.6904 56.8104 45.2255 57.0305 45.8836 57.0305C46.2813 57.0305 46.6767 56.9311 47.0697 56.7322C47.4674 56.5334 47.7965 56.2327 48.0569 55.8303C48.3221 55.4278 48.4523 54.9164 48.4475 54.2962ZM53.8316 58.8203V47.9112H55.8699V49.6868H56.0049C56.2321 49.0855 56.6038 48.6167 57.1199 48.2805C57.636 47.9396 58.2539 47.7692 58.9736 47.7692C59.7028 47.7692 60.3136 47.9396 60.806 48.2805C61.3032 48.6214 61.6701 49.0902 61.9068 49.6868H62.0205C62.2809 49.1044 62.6952 48.6404 63.2634 48.2947C63.8316 47.9444 64.5086 47.7692 65.2946 47.7692C66.2842 47.7692 67.0915 48.0793 67.7165 48.6996C68.3462 49.3198 68.6611 50.255 68.6611 51.505V58.8203H66.5375V51.7038C66.5375 50.9652 66.3363 50.4302 65.9338 50.0987C65.5314 49.7673 65.0508 49.6016 64.4921 49.6016C63.8008 49.6016 63.2634 49.8146 62.8799 50.2408C62.4963 50.6622 62.3046 51.2043 62.3046 51.8672V58.8203H60.1881V51.5689C60.1881 50.977 60.0034 50.5012 59.6341 50.1413C59.2648 49.7815 58.7842 49.6016 58.1924 49.6016C57.7899 49.6016 57.4182 49.7081 57.0773 49.9212C56.7411 50.1295 56.4689 50.4207 56.2605 50.7947C56.0569 51.1688 55.9551 51.602 55.9551 52.0945V58.8203H53.8316ZM76.609 59.0405C75.5342 59.0405 74.6086 58.8108 73.8321 58.3516C73.0603 57.8875 72.4637 57.2365 72.0423 56.3984C71.6256 55.5556 71.4173 54.5684 71.4173 53.4368C71.4173 52.3194 71.6256 51.3345 72.0423 50.4822C72.4637 49.63 73.0508 48.9647 73.8036 48.4865C74.5612 48.0083 75.4466 47.7692 76.4599 47.7692C77.0754 47.7692 77.672 47.871 78.2497 48.0746C78.8273 48.2782 79.3458 48.5978 79.8051 49.0334C80.2644 49.469 80.6266 50.0348 80.8917 50.7308C81.1569 51.4221 81.2894 52.2625 81.2894 53.2521V54.005H72.6176V52.4141H79.2085C79.2085 51.8554 79.0948 51.3606 78.8676 50.9297C78.6403 50.4941 78.3207 50.1508 77.9088 49.8999C77.5016 49.6489 77.0233 49.5234 76.4741 49.5234C75.8775 49.5234 75.3567 49.6702 74.9116 49.9638C74.4713 50.2526 74.1304 50.6314 73.8889 51.1001C73.6521 51.5642 73.5338 52.0684 73.5338 52.6129V53.8558C73.5338 54.585 73.6616 55.2053 73.9173 55.7166C74.1777 56.228 74.5399 56.6186 75.0039 56.8885C75.4679 57.1536 76.0101 57.2862 76.6304 57.2862C77.0328 57.2862 77.3998 57.2294 77.7312 57.1158C78.0626 56.9974 78.3491 56.8222 78.5906 56.5902C78.8321 56.3582 79.0167 56.0717 79.1446 55.7308L81.1545 56.093C80.9935 56.6849 80.7047 57.2034 80.288 57.6484C79.8761 58.0888 79.3576 58.4321 78.7326 58.6783C78.1124 58.9197 77.4045 59.0405 76.609 59.0405ZM85.4448 58.9553C85.0565 58.9553 84.7227 58.8179 84.4433 58.5433C84.164 58.264 84.0243 57.9278 84.0243 57.5348C84.0243 57.1465 84.164 56.8151 84.4433 56.5405C84.7227 56.2611 85.0565 56.1214 85.4448 56.1214C85.833 56.1214 86.1668 56.2611 86.4462 56.5405C86.7255 56.8151 86.8652 57.1465 86.8652 57.5348C86.8652 57.7952 86.7989 58.0343 86.6664 58.2521C86.5385 58.4652 86.3681 58.6357 86.155 58.7635C85.9419 58.8913 85.7052 58.9553 85.4448 58.9553ZM90.1097 62.9112V47.9112H92.1835V49.6797H92.3611C92.4842 49.4524 92.6618 49.1896 92.8938 48.8913C93.1258 48.593 93.4478 48.3326 93.8597 48.1101C94.2716 47.8828 94.8161 47.7692 95.4932 47.7692C96.3739 47.7692 97.1599 47.9917 97.8512 48.4368C98.5425 48.8819 99.0846 49.5234 99.4776 50.3615C99.8753 51.1996 100.074 52.2081 100.074 53.3871C100.074 54.5661 99.8777 55.5769 99.4847 56.4197C99.0917 57.2578 98.5519 57.9041 97.8654 58.3587C97.1788 58.8085 96.3952 59.0334 95.5145 59.0334C94.8516 59.0334 94.3095 58.9221 93.8881 58.6996C93.4714 58.477 93.1447 58.2166 92.908 57.9183C92.6712 57.62 92.4889 57.3549 92.3611 57.1229H92.2333V62.9112H90.1097ZM92.1907 53.3658C92.1907 54.1328 92.3019 54.8052 92.5245 55.3828C92.747 55.9605 93.069 56.4126 93.4904 56.7393C93.9118 57.0613 94.4279 57.2223 95.0387 57.2223C95.6731 57.2223 96.2034 57.0542 96.6296 56.718C97.0557 56.3771 97.3777 55.9155 97.5955 55.3331C97.818 54.7507 97.9293 54.0949 97.9293 53.3658C97.9293 52.6461 97.8204 51.9998 97.6026 51.4268C97.3895 50.8539 97.0675 50.4018 96.6367 50.0703C96.2105 49.7389 95.6779 49.5732 95.0387 49.5732C94.4231 49.5732 93.9023 49.7318 93.4762 50.049C93.0548 50.3662 92.7352 50.8089 92.5174 51.3771C92.2996 51.9453 92.1907 52.6082 92.1907 53.3658ZM104.977 52.343V58.8203H102.853V47.9112H104.892V49.6868H105.027C105.278 49.1091 105.671 48.6451 106.206 48.2947C106.745 47.9444 107.425 47.7692 108.244 47.7692C108.987 47.7692 109.638 47.9254 110.197 48.2379C110.756 48.5457 111.189 49.005 111.497 49.6158C111.805 50.2266 111.959 50.9818 111.959 51.8814V58.8203H109.835V52.1371C109.835 51.3464 109.629 50.7285 109.217 50.2834C108.805 49.8336 108.239 49.6087 107.52 49.6087C107.027 49.6087 106.589 49.7152 106.206 49.9283C105.827 50.1413 105.526 50.4538 105.304 50.8658C105.086 51.273 104.977 51.7654 104.977 52.343ZM119.78 63.1385C118.914 63.1385 118.168 63.0249 117.543 62.7976C116.923 62.5703 116.416 62.2696 116.023 61.8956C115.63 61.5215 115.337 61.112 115.143 60.6669L116.968 59.9141C117.096 60.1224 117.266 60.3426 117.479 60.5746C117.697 60.8113 117.991 61.0125 118.36 61.1783C118.734 61.344 119.215 61.4268 119.802 61.4268C120.607 61.4268 121.272 61.2304 121.797 60.8374C122.323 60.4491 122.586 59.8288 122.586 58.9766V56.8317H122.451C122.323 57.0637 122.138 57.3217 121.897 57.6058C121.66 57.8899 121.333 58.1361 120.917 58.3445C120.5 58.5528 119.958 58.657 119.29 58.657C118.429 58.657 117.652 58.4557 116.961 58.0533C116.274 57.6461 115.73 57.0471 115.327 56.2564C114.93 55.4609 114.731 54.4832 114.731 53.3232C114.731 52.1631 114.927 51.1688 115.32 50.3402C115.718 49.5116 116.262 48.8771 116.954 48.4368C117.645 47.9917 118.429 47.7692 119.305 47.7692C119.982 47.7692 120.529 47.8828 120.945 48.1101C121.362 48.3326 121.686 48.593 121.918 48.8913C122.155 49.1896 122.337 49.4524 122.465 49.6797H122.621V47.9112H124.702V59.0618C124.702 59.9993 124.484 60.7687 124.049 61.37C123.613 61.9714 123.024 62.4164 122.28 62.7053C121.542 62.9941 120.708 63.1385 119.78 63.1385ZM119.759 56.8956C120.37 56.8956 120.886 56.7536 121.307 56.4695C121.734 56.1806 122.056 55.7687 122.273 55.2337C122.496 54.6939 122.607 54.0476 122.607 53.2947C122.607 52.5608 122.498 51.9145 122.28 51.3558C122.063 50.7971 121.743 50.3615 121.322 50.049C120.9 49.7318 120.379 49.5732 119.759 49.5732C119.12 49.5732 118.587 49.7389 118.161 50.0703C117.735 50.397 117.413 50.8421 117.195 51.4055C116.982 51.969 116.876 52.5987 116.876 53.2947C116.876 54.0097 116.984 54.6371 117.202 55.1768C117.42 55.7166 117.742 56.138 118.168 56.4411C118.599 56.7441 119.129 56.8956 119.759 56.8956ZM134.261 51.5476C134.261 49.7673 134.496 48.129 134.964 46.6328C135.433 45.1366 136.117 43.7564 137.017 42.4922H138.963C138.613 42.9609 138.286 43.5362 137.983 44.218C137.68 44.8999 137.415 45.648 137.187 46.4624C136.96 47.272 136.782 48.1125 136.655 48.9837C136.527 49.8501 136.463 50.7048 136.463 51.5476C136.463 52.6745 136.574 53.8156 136.797 54.9709C137.019 56.1262 137.32 57.1986 137.699 58.1882C138.077 59.1778 138.499 59.9851 138.963 60.6101H137.017C136.117 59.3459 135.433 57.9657 134.964 56.4695C134.496 54.9732 134.261 53.3326 134.261 51.5476ZM147.092 44.2749V58.8203H144.89V46.4766H144.805L141.325 48.7493V46.647L144.954 44.2749H147.092ZM156.491 59.0192C155.515 59.0192 154.644 58.8511 153.877 58.5149C153.115 58.1787 152.511 57.7124 152.066 57.1158C151.625 56.5144 151.389 55.8184 151.356 55.0277H153.586C153.614 55.4586 153.759 55.8326 154.019 56.1499C154.284 56.4624 154.63 56.7038 155.056 56.8743C155.482 57.0447 155.955 57.13 156.476 57.13C157.049 57.13 157.556 57.0305 157.996 56.8317C158.441 56.6328 158.789 56.3558 159.04 56.0007C159.291 55.6409 159.417 55.2266 159.417 54.7578C159.417 54.2701 159.291 53.8416 159.04 53.4723C158.794 53.0982 158.432 52.8047 157.954 52.5916C157.48 52.3786 156.907 52.272 156.235 52.272H155.006V50.4822H156.235C156.775 50.4822 157.248 50.3852 157.655 50.1911C158.067 49.9969 158.389 49.727 158.621 49.3814C158.853 49.031 158.969 48.6214 158.969 48.1527C158.969 47.7029 158.867 47.3123 158.664 46.9808C158.465 46.6446 158.181 46.3819 157.812 46.1925C157.447 46.0031 157.016 45.9084 156.519 45.9084C156.045 45.9084 155.603 45.996 155.191 46.1712C154.784 46.3416 154.452 46.5878 154.196 46.9098C153.941 47.227 153.803 47.6082 153.785 48.0533H151.661C151.685 47.2673 151.917 46.576 152.357 45.9794C152.802 45.3828 153.389 44.9164 154.118 44.5803C154.848 44.2441 155.657 44.076 156.547 44.076C157.48 44.076 158.285 44.2583 158.962 44.6229C159.644 44.9827 160.169 45.4633 160.539 46.0646C160.913 46.666 161.098 47.3241 161.093 48.0391C161.098 48.8535 160.87 49.5447 160.411 50.1129C159.956 50.6811 159.35 51.0623 158.593 51.2564V51.37C159.559 51.5168 160.307 51.9003 160.837 52.5206C161.372 53.1409 161.637 53.9103 161.633 54.8288C161.637 55.629 161.415 56.3464 160.965 56.9808C160.52 57.6153 159.911 58.1148 159.14 58.4794C158.368 58.8393 157.485 59.0192 156.491 59.0192ZM170.609 44.2749H173.272L177.903 55.5817H178.074L182.704 44.2749H185.368V58.8203H183.279V48.2947H183.145L178.855 58.799H177.122L172.832 48.2876H172.697V58.8203H170.609V44.2749ZM188.958 58.8203V44.2749H194.285C195.317 44.2749 196.172 44.4453 196.849 44.7862C197.526 45.1224 198.033 45.5793 198.369 46.157C198.705 46.7299 198.873 47.3762 198.873 48.0959C198.873 48.7019 198.762 49.2133 198.539 49.63C198.317 50.0419 198.018 50.3733 197.644 50.6243C197.275 50.8705 196.868 51.0504 196.423 51.1641V51.3061C196.906 51.3298 197.377 51.486 197.836 51.7749C198.3 52.0589 198.684 52.4638 198.987 52.9893C199.29 53.5149 199.441 54.1541 199.441 54.907C199.441 55.6503 199.266 56.3179 198.916 56.9098C198.57 57.4969 198.035 57.9633 197.311 58.3089C196.586 58.6499 195.66 58.8203 194.534 58.8203H188.958ZM191.153 56.9382H194.32C195.372 56.9382 196.124 56.7346 196.579 56.3274C197.034 55.9202 197.261 55.4112 197.261 54.8004C197.261 54.3411 197.145 53.9197 196.913 53.5362C196.681 53.1527 196.349 52.8473 195.918 52.62C195.492 52.3928 194.986 52.2791 194.399 52.2791H191.153V56.9382ZM191.153 50.5675H194.093C194.586 50.5675 195.028 50.4728 195.421 50.2834C195.819 50.094 196.134 49.8288 196.366 49.4879C196.603 49.1423 196.721 48.7351 196.721 48.2663C196.721 47.665 196.51 47.1607 196.089 46.7536C195.668 46.3464 195.021 46.1428 194.15 46.1428H191.153V50.5675ZM206.358 51.5476C206.358 53.3326 206.123 54.9732 205.654 56.4695C205.186 57.9657 204.501 59.3459 203.602 60.6101H201.656C202.006 60.1413 202.333 59.5661 202.636 58.8842C202.939 58.2024 203.204 57.4567 203.431 56.647C203.659 55.8326 203.836 54.9898 203.964 54.1186C204.092 53.2474 204.156 52.3904 204.156 51.5476C204.156 50.4254 204.045 49.2867 203.822 48.1314C203.6 46.9761 203.299 45.9036 202.92 44.9141C202.541 43.9245 202.12 43.1172 201.656 42.4922H203.602C204.501 43.7564 205.186 45.1366 205.654 46.6328C206.123 48.129 206.358 49.7673 206.358 51.5476Z" fill="#ADF0DD"/>
<path d="M772.658 65.2006H759.23C758.562 65.2006 757.922 64.9353 757.45 64.4632C756.978 63.991 756.712 63.3506 756.712 62.6829V46.7372C756.712 46.5146 756.801 46.3011 756.958 46.1438C757.115 45.9864 757.329 45.8979 757.552 45.8979C757.774 45.8979 757.988 45.9864 758.145 46.1438C758.302 46.3011 758.391 46.5146 758.391 46.7372V62.6829C758.391 62.9054 758.479 63.1189 758.637 63.2763C758.794 63.4337 759.007 63.5221 759.23 63.5221H772.658C772.881 63.5221 773.094 63.4337 773.251 63.2763C773.409 63.1189 773.497 62.9054 773.497 62.6829V46.7372C773.497 46.5146 773.586 46.3011 773.743 46.1438C773.9 45.9864 774.114 45.8979 774.336 45.8979C774.559 45.8979 774.772 45.9864 774.93 46.1438C775.087 46.3011 775.176 46.5146 775.176 46.7372V62.6829C775.176 63.3506 774.91 63.991 774.438 64.4632C773.966 64.9353 773.326 65.2006 772.658 65.2006Z" fill="#ADF0DD"/>
<path d="M776.016 45.0584H755.874C755.651 45.0584 755.438 44.97 755.281 44.8126C755.123 44.6552 755.035 44.4417 755.035 44.2191C755.035 43.9965 755.123 43.7831 755.281 43.6257C755.438 43.4683 755.651 43.3799 755.874 43.3799H776.016C776.239 43.3799 776.452 43.4683 776.609 43.6257C776.767 43.7831 776.855 43.9965 776.855 44.2191C776.855 44.4417 776.767 44.6552 776.609 44.8126C776.452 44.97 776.239 45.0584 776.016 45.0584Z" fill="#ADF0DD"/>
<path d="M769.302 45.0584C769.079 45.0584 768.866 44.97 768.709 44.8126C768.551 44.6552 768.463 44.4418 768.463 44.2192V41.7014H763.427V44.2192C763.427 44.4418 763.339 44.6552 763.181 44.8126C763.024 44.97 762.811 45.0584 762.588 45.0584C762.365 45.0584 762.152 44.97 761.995 44.8126C761.837 44.6552 761.749 44.4418 761.749 44.2192V40.8622C761.749 40.6396 761.837 40.4261 761.995 40.2688C762.152 40.1114 762.365 40.0229 762.588 40.0229H769.302C769.525 40.0229 769.738 40.1114 769.895 40.2688C770.053 40.4261 770.141 40.6396 770.141 40.8622V44.2192C770.141 44.4418 770.053 44.6552 769.895 44.8126C769.738 44.97 769.525 45.0584 769.302 45.0584Z" fill="#ADF0DD"/>
<path d="M765.945 61.0041C765.722 61.0041 765.509 60.9157 765.352 60.7583C765.194 60.6009 765.106 60.3874 765.106 60.1649V48.4154C765.106 48.1928 765.194 47.9794 765.352 47.822C765.509 47.6646 765.722 47.5762 765.945 47.5762C766.168 47.5762 766.381 47.6646 766.538 47.822C766.696 47.9794 766.784 48.1928 766.784 48.4154V60.1649C766.784 60.3874 766.696 60.6009 766.538 60.7583C766.381 60.9157 766.168 61.0041 765.945 61.0041Z" fill="#ADF0DD"/>
<path d="M770.142 59.3253C769.919 59.3253 769.706 59.2369 769.548 59.0795C769.391 58.9221 769.303 58.7087 769.303 58.4861V50.0936C769.303 49.8711 769.391 49.6576 769.548 49.5002C769.706 49.3428 769.919 49.2544 770.142 49.2544C770.364 49.2544 770.578 49.3428 770.735 49.5002C770.893 49.6576 770.981 49.8711 770.981 50.0936V58.4861C770.981 58.7087 770.893 58.9221 770.735 59.0795C770.578 59.2369 770.364 59.3253 770.142 59.3253Z" fill="#ADF0DD"/>
<path d="M761.749 59.3258C761.526 59.3258 761.313 59.2374 761.155 59.08C760.998 58.9226 760.91 58.7092 760.91 58.4866V50.0941C760.91 49.8715 760.998 49.6581 761.155 49.5007C761.313 49.3433 761.526 49.2549 761.749 49.2549C761.971 49.2549 762.185 49.3433 762.342 49.5007C762.5 49.6581 762.588 49.8715 762.588 50.0941V58.4866C762.588 58.7092 762.5 58.9226 762.342 59.08C762.185 59.2374 761.971 59.3258 761.749 59.3258Z" fill="#ADF0DD"/>
<g opacity="0.25">
<rect x="1.5" y="327.367" width="811.949" height="137.37" rx="5.5" fill="#0D2D2A" stroke="#0D2D2A"/>
<rect x="34.729" y="418.78" width="745.491" height="18.1827" rx="9.09136" fill="#0D2D2A"/>
<rect x="34.729" y="418.78" width="358.075" height="18.1827" rx="9.09136" fill="#ADF0DD"/>
<path d="M37.2148 373.505V383.687H35.7283V373.505H37.2148ZM44.332 380.52V376.051H45.8235V383.687H44.3618V382.365H44.2823C44.1066 382.772 43.8249 383.112 43.4371 383.384C43.0526 383.652 42.5737 383.786 42.0003 383.786C41.5098 383.786 41.0756 383.679 40.6977 383.463C40.3232 383.245 40.0282 382.921 39.8128 382.494C39.6007 382.066 39.4946 381.538 39.4946 380.908V376.051H40.9811V380.729C40.9811 381.249 41.1253 381.664 41.4137 381.972C41.702 382.28 42.0765 382.434 42.5372 382.434C42.8156 382.434 43.0924 382.365 43.3675 382.225C43.6459 382.086 43.8763 381.876 44.0585 381.594C44.2441 381.312 44.3353 380.954 44.332 380.52ZM48.1008 383.687V376.051H49.5276V377.294H49.6221C49.7812 376.873 50.0414 376.544 50.4026 376.309C50.7639 376.071 51.1964 375.951 51.7002 375.951C52.2106 375.951 52.6382 376.071 52.9829 376.309C53.3309 376.548 53.5878 376.876 53.7535 377.294H53.833C54.0153 376.886 54.3053 376.561 54.7031 376.319C55.1008 376.074 55.5748 375.951 56.1249 375.951C56.8177 375.951 57.3828 376.168 57.8203 376.602C58.2611 377.037 58.4815 377.691 58.4815 378.566V383.687H56.995V378.705C56.995 378.188 56.8541 377.814 56.5724 377.582C56.2907 377.35 55.9543 377.234 55.5632 377.234C55.0793 377.234 54.7031 377.383 54.4346 377.681C54.1661 377.976 54.0319 378.356 54.0319 378.82V383.687H52.5504V378.611C52.5504 378.197 52.4211 377.864 52.1626 377.612C51.9041 377.36 51.5677 377.234 51.1534 377.234C50.8716 377.234 50.6114 377.308 50.3728 377.458C50.1375 377.603 49.9469 377.807 49.8011 378.069C49.6586 378.331 49.5873 378.634 49.5873 378.979V383.687H48.1008ZM64.045 383.841C63.2927 383.841 62.6447 383.68 62.1011 383.359C61.5609 383.034 61.1433 382.578 60.8483 381.992C60.5566 381.402 60.4108 380.711 60.4108 379.919C60.4108 379.136 60.5566 378.447 60.8483 377.85C61.1433 377.254 61.5543 376.788 62.0813 376.453C62.6116 376.119 63.2314 375.951 63.9406 375.951C64.3715 375.951 64.7891 376.022 65.1935 376.165C65.5978 376.308 65.9608 376.531 66.2822 376.836C66.6037 377.141 66.8573 377.537 67.0429 378.024C67.2285 378.508 67.3213 379.097 67.3213 379.789V380.316H61.251V379.203H65.8646C65.8646 378.812 65.7851 378.465 65.626 378.164C65.4669 377.859 65.2432 377.618 64.9548 377.443C64.6698 377.267 64.335 377.179 63.9506 377.179C63.533 377.179 63.1684 377.282 62.8568 377.487C62.5486 377.69 62.3099 377.955 62.1409 378.283C61.9752 378.608 61.8923 378.961 61.8923 379.342V380.212C61.8923 380.722 61.9818 381.156 62.1608 381.514C62.3431 381.872 62.5966 382.146 62.9215 382.335C63.2463 382.52 63.6258 382.613 64.0599 382.613C64.3417 382.613 64.5985 382.573 64.8305 382.494C65.0626 382.411 65.2631 382.288 65.4321 382.126C65.6011 381.964 65.7304 381.763 65.8199 381.524L67.2269 381.778C67.1142 382.192 66.912 382.555 66.6203 382.867C66.332 383.175 65.969 383.415 65.5315 383.588C65.0974 383.757 64.6019 383.841 64.045 383.841ZM73.7499 378.74V380.028H69.2357V378.74H73.7499ZM77.4976 373.505V383.687H76.0111V373.505H77.4976ZM82.9941 383.841C82.2781 383.841 81.6534 383.677 81.1198 383.349C80.5861 383.021 80.1718 382.562 79.8769 381.972C79.5819 381.382 79.4344 380.692 79.4344 379.904C79.4344 379.111 79.5819 378.419 79.8769 377.826C80.1718 377.232 80.5861 376.772 81.1198 376.443C81.6534 376.115 82.2781 375.951 82.9941 375.951C83.71 375.951 84.3347 376.115 84.8683 376.443C85.402 376.772 85.8163 377.232 86.1112 377.826C86.4062 378.419 86.5537 379.111 86.5537 379.904C86.5537 380.692 86.4062 381.382 86.1112 381.972C85.8163 382.562 85.402 383.021 84.8683 383.349C84.3347 383.677 83.71 383.841 82.9941 383.841ZM82.999 382.593C83.463 382.593 83.8475 382.471 84.1524 382.225C84.4574 381.98 84.6827 381.654 84.8286 381.246C84.9777 380.838 85.0523 380.389 85.0523 379.899C85.0523 379.411 84.9777 378.964 84.8286 378.556C84.6827 378.145 84.4574 377.816 84.1524 377.567C83.8475 377.318 83.463 377.194 82.999 377.194C82.5317 377.194 82.1439 377.318 81.8357 377.567C81.5307 377.816 81.3037 378.145 81.1546 378.556C81.0087 378.964 80.9358 379.411 80.9358 379.899C80.9358 380.389 81.0087 380.838 81.1546 381.246C81.3037 381.654 81.5307 381.98 81.8357 382.225C82.1439 382.471 82.5317 382.593 82.999 382.593ZM91.6947 386.71C91.0882 386.71 90.5661 386.63 90.1286 386.471C89.6944 386.312 89.3398 386.102 89.0647 385.84C88.7896 385.578 88.5841 385.291 88.4482 384.98L89.7259 384.453C89.8154 384.598 89.9347 384.753 90.0839 384.915C90.2364 385.081 90.4418 385.222 90.7004 385.338C90.9622 385.454 91.2986 385.512 91.7096 385.512C92.273 385.512 92.7387 385.374 93.1066 385.099C93.4745 384.827 93.6585 384.393 93.6585 383.796V382.295H93.564C93.4745 382.457 93.3453 382.638 93.1762 382.837C93.0105 383.036 92.7818 383.208 92.4901 383.354C92.1985 383.5 91.819 383.573 91.3516 383.573C90.7484 383.573 90.2049 383.432 89.721 383.15C89.2404 382.865 88.8592 382.446 88.5775 381.892C88.2991 381.335 88.1599 380.651 88.1599 379.839C88.1599 379.027 88.2974 378.331 88.5725 377.751C88.8509 377.171 89.2321 376.727 89.716 376.419C90.1999 376.107 90.7484 375.951 91.3616 375.951C91.8355 375.951 92.2184 376.031 92.51 376.19C92.8017 376.346 93.0287 376.528 93.1911 376.737C93.3569 376.946 93.4845 377.129 93.5739 377.289H93.6833V376.051H95.14V383.856C95.14 384.512 94.9875 385.051 94.6826 385.472C94.3777 385.893 93.965 386.204 93.4447 386.406C92.9276 386.609 92.3443 386.71 91.6947 386.71ZM91.6798 382.34C92.1073 382.34 92.4686 382.24 92.7636 382.041C93.0619 381.839 93.2873 381.551 93.4397 381.176C93.5955 380.799 93.6734 380.346 93.6734 379.819C93.6734 379.305 93.5971 378.853 93.4447 378.462C93.2922 378.071 93.0685 377.766 92.7735 377.547C92.4785 377.325 92.114 377.214 91.6798 377.214C91.2323 377.214 90.8595 377.33 90.5612 377.562C90.2629 377.791 90.0375 378.102 89.885 378.497C89.7359 378.891 89.6613 379.332 89.6613 379.819C89.6613 380.32 89.7375 380.759 89.89 381.137C90.0425 381.514 90.2678 381.809 90.5661 382.022C90.8677 382.234 91.239 382.34 91.6798 382.34ZM100.63 383.841C99.9143 383.841 99.2896 383.677 98.7559 383.349C98.2223 383.021 97.808 382.562 97.513 381.972C97.2181 381.382 97.0706 380.692 97.0706 379.904C97.0706 379.111 97.2181 378.419 97.513 377.826C97.808 377.232 98.2223 376.772 98.7559 376.443C99.2896 376.115 99.9143 375.951 100.63 375.951C101.346 375.951 101.971 376.115 102.505 376.443C103.038 376.772 103.452 377.232 103.747 377.826C104.042 378.419 104.19 379.111 104.19 379.904C104.19 380.692 104.042 381.382 103.747 381.972C103.452 382.562 103.038 383.021 102.505 383.349C101.971 383.677 101.346 383.841 100.63 383.841ZM100.635 382.593C101.099 382.593 101.484 382.471 101.789 382.225C102.094 381.98 102.319 381.654 102.465 381.246C102.614 380.838 102.688 380.389 102.688 379.899C102.688 379.411 102.614 378.964 102.465 378.556C102.319 378.145 102.094 377.816 101.789 377.567C101.484 377.318 101.099 377.194 100.635 377.194C100.168 377.194 99.7801 377.318 99.4718 377.567C99.1669 377.816 98.9399 378.145 98.7907 378.556C98.6449 378.964 98.572 379.411 98.572 379.899C98.572 380.389 98.6449 380.838 98.7907 381.246C98.9399 381.654 99.1669 381.98 99.4718 382.225C99.7801 382.471 100.168 382.593 100.635 382.593ZM110.628 378.74V380.028H106.114V378.74H110.628ZM119.422 376.051L116.653 383.687H115.062L112.288 376.051H113.884L115.818 381.927H115.897L117.826 376.051H119.422ZM124.131 383.841C123.378 383.841 122.73 383.68 122.187 383.359C121.647 383.034 121.229 382.578 120.934 381.992C120.642 381.402 120.497 380.711 120.497 379.919C120.497 379.136 120.642 378.447 120.934 377.85C121.229 377.254 121.64 376.788 122.167 376.453C122.697 376.119 123.317 375.951 124.026 375.951C124.457 375.951 124.875 376.022 125.279 376.165C125.684 376.308 126.046 376.531 126.368 376.836C126.689 377.141 126.943 377.537 127.129 378.024C127.314 378.508 127.407 379.097 127.407 379.789V380.316H121.337V379.203H125.95C125.95 378.812 125.871 378.465 125.712 378.164C125.553 377.859 125.329 377.618 125.041 377.443C124.756 377.267 124.421 377.179 124.036 377.179C123.619 377.179 123.254 377.282 122.943 377.487C122.634 377.69 122.396 377.955 122.227 378.283C122.061 378.608 121.978 378.961 121.978 379.342V380.212C121.978 380.722 122.068 381.156 122.247 381.514C122.429 381.872 122.682 382.146 123.007 382.335C123.332 382.52 123.711 382.613 124.146 382.613C124.427 382.613 124.684 382.573 124.916 382.494C125.148 382.411 125.349 382.288 125.518 382.126C125.687 381.964 125.816 381.763 125.906 381.524L127.313 381.778C127.2 382.192 126.998 382.555 126.706 382.867C126.418 383.175 126.055 383.415 125.617 383.588C125.183 383.757 124.688 383.841 124.131 383.841ZM132.553 383.841C131.814 383.841 131.177 383.674 130.644 383.339C130.114 383.001 129.706 382.535 129.421 381.942C129.136 381.349 128.993 380.669 128.993 379.904C128.993 379.128 129.139 378.444 129.431 377.85C129.722 377.254 130.133 376.788 130.664 376.453C131.194 376.119 131.819 375.951 132.538 375.951C133.118 375.951 133.635 376.059 134.089 376.274C134.543 376.486 134.909 376.785 135.188 377.169C135.47 377.554 135.637 378.003 135.69 378.517H134.243C134.164 378.159 133.981 377.85 133.696 377.592C133.415 377.333 133.037 377.204 132.563 377.204C132.149 377.204 131.786 377.313 131.474 377.532C131.166 377.748 130.926 378.056 130.753 378.457C130.581 378.855 130.495 379.325 130.495 379.869C130.495 380.426 130.579 380.906 130.748 381.311C130.917 381.715 131.156 382.028 131.464 382.25C131.776 382.472 132.142 382.583 132.563 382.583C132.845 382.583 133.1 382.532 133.329 382.429C133.561 382.323 133.754 382.172 133.91 381.977C134.069 381.781 134.18 381.546 134.243 381.271H135.69C135.637 381.765 135.476 382.205 135.208 382.593C134.939 382.981 134.58 383.286 134.129 383.508C133.682 383.73 133.156 383.841 132.553 383.841ZM141.124 376.051V377.244H136.953V376.051H141.124ZM138.072 374.221H139.558V381.445C139.558 381.733 139.601 381.95 139.688 382.096C139.774 382.239 139.885 382.336 140.021 382.389C140.16 382.439 140.311 382.464 140.473 382.464C140.592 382.464 140.697 382.456 140.786 382.439C140.876 382.423 140.945 382.409 140.995 382.399L141.264 383.627C141.177 383.66 141.055 383.694 140.896 383.727C140.737 383.763 140.538 383.783 140.299 383.786C139.908 383.793 139.543 383.723 139.205 383.578C138.867 383.432 138.594 383.206 138.385 382.902C138.176 382.597 138.072 382.214 138.072 381.753V374.221ZM146.183 383.841C145.467 383.841 144.843 383.677 144.309 383.349C143.775 383.021 143.361 382.562 143.066 381.972C142.771 381.382 142.624 380.692 142.624 379.904C142.624 379.111 142.771 378.419 143.066 377.826C143.361 377.232 143.775 376.772 144.309 376.443C144.843 376.115 145.467 375.951 146.183 375.951C146.899 375.951 147.524 376.115 148.058 376.443C148.591 376.772 149.005 377.232 149.3 377.826C149.595 378.419 149.743 379.111 149.743 379.904C149.743 380.692 149.595 381.382 149.3 381.972C149.005 382.562 148.591 383.021 148.058 383.349C147.524 383.677 146.899 383.841 146.183 383.841ZM146.188 382.593C146.652 382.593 147.037 382.471 147.342 382.225C147.647 381.98 147.872 381.654 148.018 381.246C148.167 380.838 148.242 380.389 148.242 379.899C148.242 379.411 148.167 378.964 148.018 378.556C147.872 378.145 147.647 377.816 147.342 377.567C147.037 377.318 146.652 377.194 146.188 377.194C145.721 377.194 145.333 377.318 145.025 377.567C144.72 377.816 144.493 378.145 144.344 378.556C144.198 378.964 144.125 379.411 144.125 379.899C144.125 380.389 144.198 380.838 144.344 381.246C144.493 381.654 144.72 381.98 145.025 382.225C145.333 382.471 145.721 382.593 146.188 382.593ZM151.682 383.687V376.051H153.119V377.264H153.199C153.338 376.853 153.583 376.53 153.934 376.294C154.289 376.056 154.69 375.936 155.137 375.936C155.23 375.936 155.34 375.94 155.466 375.946C155.595 375.953 155.696 375.961 155.769 375.971V377.393C155.709 377.376 155.603 377.358 155.451 377.338C155.298 377.315 155.146 377.303 154.993 377.303C154.642 377.303 154.329 377.378 154.054 377.527C153.782 377.673 153.566 377.877 153.407 378.139C153.248 378.397 153.169 378.692 153.169 379.024V383.687H151.682ZM157.44 383.781C157.168 383.781 156.934 383.685 156.739 383.493C156.543 383.298 156.445 383.062 156.445 382.787C156.445 382.515 156.543 382.283 156.739 382.091C156.934 381.896 157.168 381.798 157.44 381.798C157.711 381.798 157.945 381.896 158.141 382.091C158.336 382.283 158.434 382.515 158.434 382.787C158.434 382.969 158.388 383.137 158.295 383.289C158.205 383.438 158.086 383.558 157.937 383.647C157.788 383.737 157.622 383.781 157.44 383.781ZM160.705 386.551V376.051H162.157V377.289H162.281C162.367 377.129 162.492 376.946 162.654 376.737C162.816 376.528 163.042 376.346 163.33 376.19C163.618 376.031 164 375.951 164.474 375.951C165.09 375.951 165.64 376.107 166.124 376.419C166.608 376.73 166.988 377.179 167.263 377.766C167.541 378.352 167.68 379.058 167.68 379.884C167.68 380.709 167.543 381.417 167.268 382.007C166.992 382.593 166.615 383.046 166.134 383.364C165.653 383.679 165.105 383.836 164.488 383.836C164.024 383.836 163.645 383.758 163.35 383.602C163.058 383.447 162.83 383.264 162.664 383.056C162.498 382.847 162.371 382.661 162.281 382.499H162.192V386.551H160.705ZM162.162 379.869C162.162 380.406 162.24 380.876 162.395 381.281C162.551 381.685 162.777 382.002 163.072 382.23C163.367 382.456 163.728 382.568 164.155 382.568C164.6 382.568 164.971 382.451 165.269 382.215C165.567 381.977 165.793 381.654 165.945 381.246C166.101 380.838 166.179 380.379 166.179 379.869C166.179 379.365 166.103 378.913 165.95 378.512C165.801 378.111 165.576 377.794 165.274 377.562C164.976 377.33 164.603 377.214 164.155 377.214C163.725 377.214 163.36 377.325 163.062 377.547C162.767 377.769 162.543 378.079 162.39 378.477C162.238 378.875 162.162 379.339 162.162 379.869ZM171.112 379.153V383.687H169.626V376.051H171.053V377.294H171.147C171.323 376.889 171.598 376.564 171.972 376.319C172.35 376.074 172.826 375.951 173.399 375.951C173.92 375.951 174.375 376.061 174.766 376.279C175.157 376.495 175.461 376.816 175.676 377.244C175.892 377.671 175.999 378.2 175.999 378.83V383.687H174.513V379.009C174.513 378.455 174.369 378.023 174.08 377.711C173.792 377.396 173.396 377.239 172.892 377.239C172.547 377.239 172.241 377.313 171.972 377.463C171.707 377.612 171.497 377.83 171.341 378.119C171.188 378.404 171.112 378.749 171.112 379.153ZM181.475 386.71C180.868 386.71 180.346 386.63 179.909 386.471C179.474 386.312 179.12 386.102 178.845 385.84C178.57 385.578 178.364 385.291 178.228 384.98L179.506 384.453C179.595 384.598 179.715 384.753 179.864 384.915C180.016 385.081 180.222 385.222 180.48 385.338C180.742 385.454 181.079 385.512 181.49 385.512C182.053 385.512 182.519 385.374 182.887 385.099C183.254 384.827 183.438 384.393 183.438 383.796V382.295H183.344C183.254 382.457 183.125 382.638 182.956 382.837C182.79 383.036 182.562 383.208 182.27 383.354C181.978 383.5 181.599 383.573 181.132 383.573C180.528 383.573 179.985 383.432 179.501 383.15C179.02 382.865 178.639 382.446 178.357 381.892C178.079 381.335 177.94 380.651 177.94 379.839C177.94 379.027 178.077 378.331 178.352 377.751C178.631 377.171 179.012 376.727 179.496 376.419C179.98 376.107 180.528 375.951 181.142 375.951C181.615 375.951 181.998 376.031 182.29 376.19C182.582 376.346 182.809 376.528 182.971 376.737C183.137 376.946 183.264 377.129 183.354 377.289H183.463V376.051H184.92V383.856C184.92 384.512 184.767 385.051 184.463 385.472C184.158 385.893 183.745 386.204 183.225 386.406C182.708 386.609 182.124 386.71 181.475 386.71ZM181.46 382.34C181.887 382.34 182.249 382.24 182.544 382.041C182.842 381.839 183.067 381.551 183.22 381.176C183.375 380.799 183.453 380.346 183.453 379.819C183.453 379.305 183.377 378.853 183.225 378.462C183.072 378.071 182.848 377.766 182.553 377.547C182.258 377.325 181.894 377.214 181.46 377.214C181.012 377.214 180.639 377.33 180.341 377.562C180.043 377.791 179.817 378.102 179.665 378.497C179.516 378.891 179.441 379.332 179.441 379.819C179.441 380.32 179.517 380.759 179.67 381.137C179.822 381.514 180.048 381.809 180.346 382.022C180.648 382.234 181.019 382.34 181.46 382.34ZM191.611 378.596C191.611 377.35 191.775 376.203 192.103 375.156C192.431 374.108 192.91 373.142 193.54 372.257H194.902C194.657 372.585 194.428 372.988 194.216 373.465C194.004 373.943 193.819 374.466 193.659 375.036C193.5 375.603 193.376 376.192 193.287 376.801C193.197 377.408 193.152 378.006 193.152 378.596C193.152 379.385 193.23 380.184 193.386 380.992C193.542 381.801 193.752 382.552 194.017 383.245C194.283 383.937 194.578 384.502 194.902 384.94H193.54C192.91 384.055 192.431 383.089 192.103 382.041C191.775 380.994 191.611 379.846 191.611 378.596ZM200.593 373.505V383.687H199.051V375.046H198.992L196.556 376.637V375.166L199.096 373.505H200.593ZM207.172 383.826C206.489 383.826 205.879 383.709 205.342 383.473C204.809 383.238 204.386 382.911 204.074 382.494C203.766 382.073 203.6 381.586 203.577 381.032H205.138C205.158 381.334 205.259 381.596 205.442 381.818C205.627 382.036 205.869 382.205 206.167 382.325C206.466 382.444 206.797 382.504 207.162 382.504C207.563 382.504 207.917 382.434 208.226 382.295C208.537 382.156 208.781 381.962 208.956 381.713C209.132 381.461 209.22 381.171 209.22 380.843C209.22 380.502 209.132 380.202 208.956 379.943C208.784 379.682 208.531 379.476 208.196 379.327C207.864 379.178 207.463 379.103 206.993 379.103H206.133V377.85H206.993C207.371 377.85 207.702 377.782 207.987 377.647C208.275 377.511 208.501 377.322 208.663 377.08C208.826 376.835 208.907 376.548 208.907 376.22C208.907 375.905 208.835 375.631 208.693 375.399C208.554 375.164 208.355 374.98 208.096 374.848C207.841 374.715 207.54 374.649 207.192 374.649C206.86 374.649 206.55 374.71 206.262 374.833C205.977 374.952 205.745 375.124 205.566 375.35C205.387 375.572 205.291 375.839 205.277 376.15H203.791C203.808 375.6 203.97 375.116 204.278 374.698C204.59 374.281 205.001 373.954 205.511 373.719C206.022 373.484 206.588 373.366 207.211 373.366C207.864 373.366 208.428 373.494 208.902 373.749C209.379 374.001 209.747 374.337 210.005 374.758C210.267 375.179 210.397 375.64 210.393 376.14C210.397 376.71 210.237 377.194 209.916 377.592C209.598 377.99 209.174 378.256 208.643 378.392V378.472C209.319 378.575 209.843 378.843 210.214 379.277C210.589 379.711 210.774 380.25 210.771 380.893C210.774 381.453 210.619 381.955 210.304 382.399C209.992 382.843 209.566 383.193 209.026 383.448C208.486 383.7 207.868 383.826 207.172 383.826ZM217.055 373.505H218.919L222.16 381.42H222.28L225.521 373.505H227.386V383.687H225.924V376.319H225.83L222.827 383.672H221.614L218.611 376.314H218.516V383.687H217.055V373.505ZM229.899 383.687V373.505H233.628C234.35 373.505 234.949 373.625 235.423 373.863C235.896 374.098 236.251 374.418 236.486 374.823C236.722 375.224 236.839 375.676 236.839 376.18C236.839 376.604 236.762 376.962 236.606 377.254C236.45 377.542 236.241 377.774 235.979 377.95C235.721 378.122 235.436 378.248 235.124 378.328V378.427C235.462 378.444 235.792 378.553 236.114 378.755C236.438 378.954 236.707 379.237 236.919 379.605C237.131 379.973 237.237 380.421 237.237 380.948C237.237 381.468 237.115 381.935 236.869 382.35C236.627 382.761 236.253 383.087 235.746 383.329C235.239 383.568 234.591 383.687 233.802 383.687H229.899ZM231.435 382.37H233.653C234.388 382.37 234.915 382.227 235.234 381.942C235.552 381.657 235.711 381.301 235.711 380.873C235.711 380.552 235.63 380.257 235.467 379.988C235.305 379.72 235.073 379.506 234.771 379.347C234.473 379.188 234.118 379.108 233.707 379.108H231.435V382.37ZM231.435 377.91H233.494C233.838 377.91 234.148 377.844 234.423 377.711C234.702 377.579 234.922 377.393 235.084 377.154C235.25 376.912 235.333 376.627 235.333 376.299C235.333 375.878 235.186 375.525 234.891 375.24C234.596 374.955 234.143 374.813 233.533 374.813H231.435V377.91ZM242.079 378.596C242.079 379.846 241.915 380.994 241.586 382.041C241.258 383.089 240.779 384.055 240.15 384.94H238.787C239.033 384.612 239.261 384.209 239.473 383.732C239.686 383.254 239.871 382.732 240.03 382.166C240.189 381.596 240.314 381.006 240.403 380.396C240.493 379.786 240.537 379.186 240.537 378.596C240.537 377.811 240.46 377.013 240.304 376.205C240.148 375.396 239.937 374.645 239.672 373.953C239.407 373.26 239.112 372.695 238.787 372.257H240.15C240.779 373.142 241.258 374.108 241.586 375.156C241.915 376.203 242.079 377.35 242.079 378.596Z" fill="#ADF0DD"/>
<g clip-path="url(#clip0_306_3489)">
<path d="M772.658 392.067H759.23C758.562 392.067 757.922 391.802 757.45 391.33C756.978 390.858 756.712 390.217 756.712 389.55V373.604C756.712 373.381 756.801 373.168 756.958 373.01C757.115 372.853 757.329 372.765 757.552 372.765C757.774 372.765 757.988 372.853 758.145 373.01C758.302 373.168 758.391 373.381 758.391 373.604V389.55C758.391 389.772 758.479 389.986 758.637 390.143C758.794 390.3 759.007 390.389 759.23 390.389H772.658C772.881 390.389 773.094 390.3 773.251 390.143C773.409 389.986 773.497 389.772 773.497 389.55V373.604C773.497 373.381 773.586 373.168 773.743 373.01C773.9 372.853 774.114 372.765 774.336 372.765C774.559 372.765 774.772 372.853 774.93 373.01C775.087 373.168 775.176 373.381 775.176 373.604V389.55C775.176 390.217 774.91 390.858 774.438 391.33C773.966 391.802 773.326 392.067 772.658 392.067Z" fill="#ADF0DD"/>
<path d="M776.016 371.925H755.874C755.651 371.925 755.438 371.837 755.281 371.679C755.123 371.522 755.035 371.308 755.035 371.086C755.035 370.863 755.123 370.65 755.281 370.492C755.438 370.335 755.651 370.247 755.874 370.247H776.016C776.239 370.247 776.452 370.335 776.609 370.492C776.767 370.65 776.855 370.863 776.855 371.086C776.855 371.308 776.767 371.522 776.609 371.679C776.452 371.837 776.239 371.925 776.016 371.925Z" fill="#ADF0DD"/>
<path d="M769.302 371.925C769.079 371.925 768.866 371.837 768.709 371.679C768.551 371.522 768.463 371.308 768.463 371.086V368.568H763.427V371.086C763.427 371.308 763.339 371.522 763.181 371.679C763.024 371.837 762.811 371.925 762.588 371.925C762.365 371.925 762.152 371.837 761.995 371.679C761.837 371.522 761.749 371.308 761.749 371.086V367.729C761.749 367.506 761.837 367.293 761.995 367.135C762.152 366.978 762.365 366.89 762.588 366.89H769.302C769.525 366.89 769.738 366.978 769.895 367.135C770.053 367.293 770.141 367.506 770.141 367.729V371.086C770.141 371.308 770.053 371.522 769.895 371.679C769.738 371.837 769.525 371.925 769.302 371.925Z" fill="#ADF0DD"/>
<path d="M765.945 387.871C765.722 387.871 765.509 387.782 765.352 387.625C765.194 387.468 765.106 387.254 765.106 387.032V375.282C765.106 375.06 765.194 374.846 765.352 374.689C765.509 374.531 765.722 374.443 765.945 374.443C766.168 374.443 766.381 374.531 766.538 374.689C766.696 374.846 766.784 375.06 766.784 375.282V387.032C766.784 387.254 766.696 387.468 766.538 387.625C766.381 387.782 766.168 387.871 765.945 387.871Z" fill="#ADF0DD"/>
<path d="M770.142 386.192C769.919 386.192 769.706 386.104 769.548 385.946C769.391 385.789 769.303 385.575 769.303 385.353V376.96C769.303 376.738 769.391 376.524 769.548 376.367C769.706 376.21 769.919 376.121 770.142 376.121C770.364 376.121 770.578 376.21 770.735 376.367C770.893 376.524 770.981 376.738 770.981 376.96V385.353C770.981 385.575 770.893 385.789 770.735 385.946C770.578 386.104 770.364 386.192 770.142 386.192Z" fill="#ADF0DD"/>
<path d="M761.749 386.193C761.526 386.193 761.313 386.104 761.155 385.947C760.998 385.789 760.91 385.576 760.91 385.353V376.961C760.91 376.738 760.998 376.525 761.155 376.367C761.313 376.21 761.526 376.122 761.749 376.122C761.971 376.122 762.185 376.21 762.342 376.367C762.5 376.525 762.588 376.738 762.588 376.961V385.353C762.588 385.576 762.5 385.789 762.342 385.947C762.185 386.104 761.971 386.193 761.749 386.193Z" fill="#ADF0DD"/>
</g>
</g>
<rect y="1" width="813" height="467" fill="url(#paint4_linear_306_3489)"/>
<defs>
<linearGradient id="paint0_linear_306_3489" x1="35.2351" y1="266.061" x2="393.191" y2="266.061" gradientUnits="userSpaceOnUse">
<stop stop-color="#ADF0DD"/>
<stop offset="1" stop-color="#638A7F"/>
</linearGradient>
<linearGradient id="paint1_linear_306_3489" x1="35.2351" y1="266.061" x2="393.191" y2="266.061" gradientUnits="userSpaceOnUse">
<stop stop-color="#ADF0DD"/>
<stop offset="0.3" stop-color="#97D1C1"/>
<stop offset="0.615" stop-color="#89F8D8"/>
<stop offset="1" stop-color="#887E62"/>
</linearGradient>
<linearGradient id="paint2_linear_306_3489" x1="34.729" y1="102.823" x2="249.51" y2="102.823" gradientUnits="userSpaceOnUse">
<stop stop-color="#ADF0DD"/>
<stop offset="1" stop-color="#638A7F"/>
</linearGradient>
<linearGradient id="paint3_linear_306_3489" x1="34.729" y1="102.823" x2="249.51" y2="102.823" gradientUnits="userSpaceOnUse">
<stop stop-color="#ADF0DD"/>
<stop offset="0.3" stop-color="#97D1C1"/>
<stop offset="0.615" stop-color="#89F8D8"/>
<stop offset="1" stop-color="#887E62"/>
</linearGradient>
<linearGradient id="paint4_linear_306_3489" x1="406.5" y1="148.967" x2="406" y2="412" gradientUnits="userSpaceOnUse">
<stop offset="0.586666" stop-color="#0D1D1C" stop-opacity="0"/>
<stop offset="1" stop-color="#051413"/>
</linearGradient>
<clipPath id="clip0_306_3489">
<rect width="26.8559" height="26.8559" fill="white" transform="translate(752.517 366.05)"/>
</clipPath>
</defs>
</svg>
