<svg width="25" height="25" viewBox="0 0 25 25" fill="none" xmlns="http://www.w3.org/2000/svg">
<g clip-path="url(#clip0_306_1367)">
<path fill-rule="evenodd" clip-rule="evenodd" d="M12.4992 0.260376C5.59687 0.260376 0 5.87874 0 12.8108C0 18.3545 3.58125 23.0582 8.54922 24.718C9.17422 24.8332 9.40234 24.4457 9.40234 24.1133C9.40234 23.8153 9.39141 23.0262 9.38516 21.9791C5.90781 22.7375 5.17422 20.2967 5.17422 20.2967C4.60625 18.8473 3.78672 18.4614 3.78672 18.4614C2.65156 17.6824 3.87266 17.6983 3.87266 17.6983C5.12656 17.7869 5.78672 18.9916 5.78672 18.9916C6.90234 20.9094 8.7125 20.3557 9.425 20.034C9.53828 19.2231 9.86172 18.6699 10.2188 18.3563C7.44297 18.0395 4.525 16.9633 4.525 12.1545C4.525 10.7842 5.01172 9.66428 5.81172 8.78655C5.68281 8.46897 5.25391 7.19358 5.93359 5.46565C5.93359 5.46565 6.98359 5.12834 9.37109 6.75198C10.3687 6.47346 11.4375 6.33479 12.5008 6.32913C13.5625 6.33459 14.632 6.47346 15.6305 6.75198C18.0164 5.12834 19.0641 5.46565 19.0641 5.46565C19.7461 7.19358 19.3172 8.46897 19.1883 8.78655C19.9898 9.66428 20.4734 10.7842 20.4734 12.1545C20.4734 16.975 17.5508 18.0364 14.7664 18.3469C15.2148 18.7344 15.6148 19.4998 15.6148 20.6709C15.6148 22.3487 15.5992 23.7016 15.5992 24.1135C15.5992 24.4492 15.8242 24.8399 16.4586 24.7166C21.4219 23.0535 25 18.353 25 12.8108C25 5.87874 19.4031 0.260376 12.4992 0.260376Z" fill="#0D1D1C"/>
</g>
<defs>
<clipPath id="clip0_306_1367">
<rect width="25" height="25" fill="white"/>
</clipPath>
</defs>
</svg>
