<svg width="25" height="25" viewBox="0 0 25 25" fill="none" xmlns="http://www.w3.org/2000/svg">
<g clip-path="url(#clip0_306_1131)">
<path fill-rule="evenodd" clip-rule="evenodd" d="M12.4992 0.260254C5.59687 0.260254 0 5.87861 0 12.8106C0 18.3544 3.58125 23.0581 8.54922 24.7179C9.17422 24.8331 9.40234 24.4456 9.40234 24.1132C9.40234 23.8151 9.39141 23.0261 9.38516 21.979C5.90781 22.7374 5.17422 20.2966 5.17422 20.2966C4.60625 18.8472 3.78672 18.4612 3.78672 18.4612C2.65156 17.6823 3.87266 17.6981 3.87266 17.6981C5.12656 17.7868 5.78672 18.9915 5.78672 18.9915C6.90234 20.9093 8.7125 20.3556 9.425 20.0339C9.53828 19.2229 9.86172 18.6698 10.2188 18.3562C7.44297 18.0394 4.525 16.9632 4.525 12.1544C4.525 10.7841 5.01172 9.66416 5.81172 8.78643C5.68281 8.46885 5.25391 7.19346 5.93359 5.46553C5.93359 5.46553 6.98359 5.12822 9.37109 6.75186C10.3687 6.47334 11.4375 6.33467 12.5008 6.329C13.5625 6.33447 14.632 6.47334 15.6305 6.75186C18.0164 5.12822 19.0641 5.46553 19.0641 5.46553C19.7461 7.19346 19.3172 8.46885 19.1883 8.78643C19.9898 9.66416 20.4734 10.7841 20.4734 12.1544C20.4734 16.9749 17.5508 18.0362 14.7664 18.3468C15.2148 18.7343 15.6148 19.4997 15.6148 20.6708C15.6148 22.3485 15.5992 23.7015 15.5992 24.1134C15.5992 24.4491 15.8242 24.8397 16.4586 24.7165C21.4219 23.0534 25 18.3528 25 12.8106C25 5.87861 19.4031 0.260254 12.4992 0.260254Z" fill="#F8F8F8" fill-opacity="0.75"/>
</g>
<defs>
<clipPath id="clip0_306_1131">
<rect width="25" height="25" fill="white"/>
</clipPath>
</defs>
</svg>
