<svg width="342" height="283" viewBox="0 0 342 283" fill="none" xmlns="http://www.w3.org/2000/svg">
<g clip-path="url(#clip0_306_2697)">
<g opacity="0.25">
<rect x="0.307617" y="-0.5" width="342" height="95" rx="5.5" fill="#0D2D2A" stroke="#0D2D2A"/>
<rect x="23.2959" y="63.7168" width="298.512" height="12.4935" rx="6.24675" fill="#051413"/>
<rect x="23.2959" y="63.7168" width="86.7955" height="12.4935" rx="6.24675" fill="#ABEEDB"/>
<path d="M57.0151 29.5532V39.735H55.5286V29.5532H57.0151ZM64.1323 36.5681V32.0986H65.6237V39.735H64.1621V38.4125H64.0826C63.9069 38.8202 63.6252 39.1599 63.2374 39.4317C62.8529 39.7002 62.374 39.8344 61.8006 39.8344C61.3101 39.8344 60.8759 39.7267 60.498 39.5113C60.1235 39.2925 59.8285 38.9694 59.6131 38.5418C59.401 38.1142 59.2949 37.5856 59.2949 36.9559V32.0986H60.7814V36.7769C60.7814 37.2972 60.9256 37.7115 61.2139 38.0198C61.5023 38.328 61.8768 38.4821 62.3375 38.4821C62.6159 38.4821 62.8927 38.4125 63.1678 38.2733C63.4462 38.1341 63.6765 37.9237 63.8588 37.6419C64.0444 37.3602 64.1356 37.0023 64.1323 36.5681ZM67.9011 39.735V32.0986H69.3279V33.3415H69.4224C69.5815 32.9206 69.8417 32.5925 70.2029 32.3571C70.5642 32.1185 70.9967 31.9992 71.5005 31.9992C72.0109 31.9992 72.4385 32.1185 72.7832 32.3571C73.1312 32.5958 73.3881 32.9239 73.5538 33.3415H73.6333C73.8156 32.9338 74.1056 32.609 74.5034 32.3671C74.9011 32.1218 75.375 31.9992 75.9252 31.9992C76.6179 31.9992 77.183 32.2163 77.6205 32.6505C78.0614 33.0847 78.2818 33.7392 78.2818 34.6142V39.735H76.7953V34.7535C76.7953 34.2364 76.6544 33.8619 76.3727 33.6299C76.091 33.3979 75.7545 33.2819 75.3634 33.2819C74.8795 33.2819 74.5034 33.431 74.2349 33.7293C73.9664 34.0243 73.8322 34.4038 73.8322 34.8678V39.735H72.3507V34.659C72.3507 34.2447 72.2214 33.9116 71.9629 33.6597C71.7044 33.4078 71.3679 33.2819 70.9536 33.2819C70.6719 33.2819 70.4117 33.3564 70.1731 33.5056C69.9378 33.6514 69.7472 33.8553 69.6014 34.1171C69.4589 34.3789 69.3876 34.6822 69.3876 35.0269V39.735H67.9011ZM83.8453 39.8891C83.093 39.8891 82.445 39.7284 81.9014 39.4069C81.3612 39.082 80.9436 38.6263 80.6486 38.0397C80.3569 37.4497 80.2111 36.7587 80.2111 35.9665C80.2111 35.1843 80.3569 34.4949 80.6486 33.8983C80.9436 33.3017 81.3546 32.8361 81.8815 32.5013C82.4119 32.1666 83.0316 31.9992 83.7409 31.9992C84.1718 31.9992 84.5894 32.0704 84.9938 32.213C85.3981 32.3555 85.761 32.5792 86.0825 32.8841C86.404 33.1891 86.6576 33.5851 86.8432 34.0723C87.0288 34.5562 87.1216 35.1445 87.1216 35.8373V36.3642H81.0513V35.2506H85.6649C85.6649 34.8595 85.5854 34.5132 85.4263 34.2115C85.2672 33.9066 85.0435 33.6663 84.7551 33.4907C84.4701 33.315 84.1353 33.2272 83.7509 33.2272C83.3333 33.2272 82.9687 33.3299 82.6571 33.5354C82.3489 33.7376 82.1102 34.0027 81.9412 34.3309C81.7755 34.6557 81.6926 35.0087 81.6926 35.3898V36.2598C81.6926 36.7703 81.7821 37.2044 81.9611 37.5624C82.1434 37.9204 82.3969 38.1938 82.7217 38.3827C83.0466 38.5683 83.4261 38.6611 83.8602 38.6611C84.142 38.6611 84.3988 38.6213 84.6308 38.5418C84.8628 38.4589 85.0634 38.3363 85.2324 38.1739C85.4014 38.0115 85.5307 37.811 85.6202 37.5723L87.0271 37.8259C86.9145 38.2402 86.7123 38.6031 86.4206 38.9147C86.1323 39.2229 85.7693 39.4632 85.3318 39.6356C84.8976 39.8046 84.4021 39.8891 83.8453 39.8891ZM93.5502 34.7883V36.0759H89.036V34.7883H93.5502ZM97.2979 29.5532V39.735H95.8114V29.5532H97.2979ZM102.794 39.8891C102.078 39.8891 101.454 39.725 100.92 39.3969C100.386 39.0688 99.9721 38.6097 99.6772 38.0198C99.3822 37.4298 99.2347 36.7404 99.2347 35.9516C99.2347 35.1595 99.3822 34.4668 99.6772 33.8735C99.9721 33.2802 100.386 32.8195 100.92 32.4914C101.454 32.1633 102.078 31.9992 102.794 31.9992C103.51 31.9992 104.135 32.1633 104.669 32.4914C105.202 32.8195 105.617 33.2802 105.912 33.8735C106.207 34.4668 106.354 35.1595 106.354 35.9516C106.354 36.7404 106.207 37.4298 105.912 38.0198C105.617 38.6097 105.202 39.0688 104.669 39.3969C104.135 39.725 103.51 39.8891 102.794 39.8891ZM102.799 38.6412C103.263 38.6412 103.648 38.5186 103.953 38.2733C104.258 38.0281 104.483 37.7016 104.629 37.2939C104.778 36.8863 104.853 36.4372 104.853 35.9466C104.853 35.4594 104.778 35.012 104.629 34.6043C104.483 34.1933 104.258 33.8635 103.953 33.615C103.648 33.3664 103.263 33.2421 102.799 33.2421C102.332 33.2421 101.944 33.3664 101.636 33.615C101.331 33.8635 101.104 34.1933 100.955 34.6043C100.809 35.012 100.736 35.4594 100.736 35.9466C100.736 36.4372 100.809 36.8863 100.955 37.2939C101.104 37.7016 101.331 38.0281 101.636 38.2733C101.944 38.5186 102.332 38.6412 102.799 38.6412ZM111.495 42.7577C110.888 42.7577 110.366 42.6782 109.929 42.5191C109.495 42.36 109.14 42.1495 108.865 41.8877C108.59 41.6258 108.384 41.3392 108.249 41.0276L109.526 40.5006C109.616 40.6464 109.735 40.8006 109.884 40.963C110.037 41.1287 110.242 41.2695 110.501 41.3856C110.762 41.5016 111.099 41.5596 111.51 41.5596C112.073 41.5596 112.539 41.422 112.907 41.1469C113.275 40.8751 113.459 40.441 113.459 39.8444V38.3429H113.364C113.275 38.5053 113.146 38.686 112.977 38.8848C112.811 39.0837 112.582 39.2561 112.29 39.4019C111.999 39.5477 111.619 39.6206 111.152 39.6206C110.549 39.6206 110.005 39.4798 109.521 39.1981C109.041 38.913 108.66 38.4937 108.378 37.9402C108.099 37.3834 107.96 36.699 107.96 35.887C107.96 35.0749 108.098 34.3789 108.373 33.7989C108.651 33.2189 109.032 32.7748 109.516 32.4665C110 32.155 110.549 31.9992 111.162 31.9992C111.636 31.9992 112.019 32.0787 112.31 32.2378C112.602 32.3936 112.829 32.5759 112.991 32.7847C113.157 32.9935 113.285 33.1775 113.374 33.3365H113.484V32.0986H114.94V39.904C114.94 40.5603 114.788 41.0989 114.483 41.5198C114.178 41.9407 113.765 42.2523 113.245 42.4544C112.728 42.6566 112.145 42.7577 111.495 42.7577ZM111.48 38.3877C111.908 38.3877 112.269 38.2883 112.564 38.0894C112.862 37.8872 113.088 37.5989 113.24 37.2243C113.396 36.8465 113.474 36.3941 113.474 35.8671C113.474 35.3534 113.397 34.9009 113.245 34.5098C113.093 34.1187 112.869 33.8138 112.574 33.5951C112.279 33.373 111.914 33.262 111.48 33.262C111.033 33.262 110.66 33.378 110.361 33.61C110.063 33.8387 109.838 34.1502 109.685 34.5446C109.536 34.9391 109.462 35.3799 109.462 35.8671C109.462 36.3676 109.538 36.8067 109.69 37.1846C109.843 37.5624 110.068 37.8574 110.366 38.0695C110.668 38.2816 111.039 38.3877 111.48 38.3877ZM120.431 39.8891C119.715 39.8891 119.09 39.725 118.556 39.3969C118.023 39.0688 117.608 38.6097 117.313 38.0198C117.018 37.4298 116.871 36.7404 116.871 35.9516C116.871 35.1595 117.018 34.4668 117.313 33.8735C117.608 33.2802 118.023 32.8195 118.556 32.4914C119.09 32.1633 119.715 31.9992 120.431 31.9992C121.146 31.9992 121.771 32.1633 122.305 32.4914C122.838 32.8195 123.253 33.2802 123.548 33.8735C123.843 34.4668 123.99 35.1595 123.99 35.9516C123.99 36.7404 123.843 37.4298 123.548 38.0198C123.253 38.6097 122.838 39.0688 122.305 39.3969C121.771 39.725 121.146 39.8891 120.431 39.8891ZM120.435 38.6412C120.9 38.6412 121.284 38.5186 121.589 38.2733C121.894 38.0281 122.119 37.7016 122.265 37.2939C122.414 36.8863 122.489 36.4372 122.489 35.9466C122.489 35.4594 122.414 35.012 122.265 34.6043C122.119 34.1933 121.894 33.8635 121.589 33.615C121.284 33.3664 120.9 33.2421 120.435 33.2421C119.968 33.2421 119.58 33.3664 119.272 33.615C118.967 33.8635 118.74 34.1933 118.591 34.6043C118.445 35.012 118.372 35.4594 118.372 35.9466C118.372 36.4372 118.445 36.8863 118.591 37.2939C118.74 37.7016 118.967 38.0281 119.272 38.2733C119.58 38.5186 119.968 38.6412 120.435 38.6412ZM130.429 34.7883V36.0759H125.915V34.7883H130.429ZM139.223 32.0986L136.453 39.735H134.863L132.088 32.0986H133.684L135.618 37.975H135.698L137.627 32.0986H139.223ZM143.931 39.8891C143.179 39.8891 142.531 39.7284 141.987 39.4069C141.447 39.082 141.029 38.6263 140.734 38.0397C140.443 37.4497 140.297 36.7587 140.297 35.9665C140.297 35.1843 140.443 34.4949 140.734 33.8983C141.029 33.3017 141.44 32.8361 141.967 32.5013C142.498 32.1666 143.117 31.9992 143.827 31.9992C144.257 31.9992 144.675 32.0704 145.079 32.213C145.484 32.3555 145.847 32.5792 146.168 32.8841C146.49 33.1891 146.743 33.5851 146.929 34.0723C147.115 34.5562 147.207 35.1445 147.207 35.8373V36.3642H141.137V35.2506H145.751C145.751 34.8595 145.671 34.5132 145.512 34.2115C145.353 33.9066 145.129 33.6663 144.841 33.4907C144.556 33.315 144.221 33.2272 143.837 33.2272C143.419 33.2272 143.054 33.3299 142.743 33.5354C142.435 33.7376 142.196 34.0027 142.027 34.3309C141.861 34.6557 141.778 35.0087 141.778 35.3898V36.2598C141.778 36.7703 141.868 37.2044 142.047 37.5624C142.229 37.9204 142.483 38.1938 142.807 38.3827C143.132 38.5683 143.512 38.6611 143.946 38.6611C144.228 38.6611 144.485 38.6213 144.717 38.5418C144.949 38.4589 145.149 38.3363 145.318 38.1739C145.487 38.0115 145.616 37.811 145.706 37.5723L147.113 37.8259C147 38.2402 146.798 38.6031 146.506 38.9147C146.218 39.2229 145.855 39.4632 145.418 39.6356C144.983 39.8046 144.488 39.8891 143.931 39.8891ZM152.353 39.8891C151.614 39.8891 150.978 39.7217 150.444 39.387C149.914 39.0489 149.506 38.5832 149.221 37.99C148.936 37.3967 148.794 36.7172 148.794 35.9516C148.794 35.176 148.939 34.4916 149.231 33.8983C149.523 33.3017 149.934 32.8361 150.464 32.5013C150.994 32.1666 151.619 31.9992 152.338 31.9992C152.918 31.9992 153.435 32.1069 153.889 32.3223C154.344 32.5345 154.71 32.8328 154.988 33.2172C155.27 33.6017 155.437 34.0508 155.49 34.5645H154.044C153.964 34.2066 153.782 33.8983 153.497 33.6398C153.215 33.3813 152.837 33.252 152.363 33.252C151.949 33.252 151.586 33.3614 151.274 33.5802C150.966 33.7956 150.726 34.1038 150.554 34.5049C150.381 34.9026 150.295 35.3732 150.295 35.9168C150.295 36.4736 150.38 36.9542 150.549 37.3586C150.718 37.7629 150.956 38.0761 151.264 38.2982C151.576 38.5203 151.942 38.6313 152.363 38.6313C152.645 38.6313 152.9 38.5799 153.129 38.4772C153.361 38.3711 153.555 38.2203 153.71 38.0248C153.87 37.8292 153.981 37.5939 154.044 37.3188H155.49C155.437 37.8126 155.277 38.2535 155.008 38.6412C154.74 39.029 154.38 39.3339 153.929 39.556C153.482 39.7781 152.956 39.8891 152.353 39.8891ZM160.925 32.0986V33.2918H156.753V32.0986H160.925ZM157.872 30.2691H159.359V37.4928C159.359 37.7812 159.402 37.9982 159.488 38.1441C159.574 38.2866 159.685 38.3844 159.821 38.4374C159.96 38.4871 160.111 38.512 160.273 38.512C160.393 38.512 160.497 38.5037 160.587 38.4871C160.676 38.4705 160.746 38.4573 160.795 38.4473L161.064 39.6753C160.978 39.7085 160.855 39.7416 160.696 39.7748C160.537 39.8112 160.338 39.8311 160.099 39.8344C159.708 39.841 159.344 39.7714 159.006 39.6256C158.668 39.4798 158.394 39.2544 158.185 38.9495C157.976 38.6445 157.872 38.2617 157.872 37.801V30.2691ZM165.984 39.8891C165.268 39.8891 164.643 39.725 164.109 39.3969C163.576 39.0688 163.161 38.6097 162.866 38.0198C162.571 37.4298 162.424 36.7404 162.424 35.9516C162.424 35.1595 162.571 34.4668 162.866 33.8735C163.161 33.2802 163.576 32.8195 164.109 32.4914C164.643 32.1633 165.268 31.9992 165.984 31.9992C166.699 31.9992 167.324 32.1633 167.858 32.4914C168.391 32.8195 168.806 33.2802 169.101 33.8735C169.396 34.4668 169.543 35.1595 169.543 35.9516C169.543 36.7404 169.396 37.4298 169.101 38.0198C168.806 38.6097 168.391 39.0688 167.858 39.3969C167.324 39.725 166.699 39.8891 165.984 39.8891ZM165.989 38.6412C166.453 38.6412 166.837 38.5186 167.142 38.2733C167.447 38.0281 167.672 37.7016 167.818 37.2939C167.967 36.8863 168.042 36.4372 168.042 35.9466C168.042 35.4594 167.967 35.012 167.818 34.6043C167.672 34.1933 167.447 33.8635 167.142 33.615C166.837 33.3664 166.453 33.2421 165.989 33.2421C165.521 33.2421 165.133 33.3664 164.825 33.615C164.52 33.8635 164.293 34.1933 164.144 34.6043C163.998 35.012 163.925 35.4594 163.925 35.9466C163.925 36.4372 163.998 36.8863 164.144 37.2939C164.293 37.7016 164.52 38.0281 164.825 38.2733C165.133 38.5186 165.521 38.6412 165.989 38.6412ZM171.482 39.735V32.0986H172.919V33.3117H172.999C173.138 32.9007 173.383 32.5776 173.735 32.3422C174.089 32.1036 174.49 31.9843 174.938 31.9843C175.031 31.9843 175.14 31.9876 175.266 31.9942C175.395 32.0008 175.496 32.0091 175.569 32.0191V33.441C175.509 33.4244 175.403 33.4062 175.251 33.3863C175.098 33.3631 174.946 33.3515 174.794 33.3515C174.442 33.3515 174.129 33.426 173.854 33.5752C173.582 33.721 173.367 33.9249 173.208 34.1867C173.049 34.4452 172.969 34.7402 172.969 35.0716V39.735H171.482ZM177.24 39.8294C176.968 39.8294 176.735 39.7333 176.539 39.5411C176.343 39.3455 176.246 39.1102 176.246 38.8351C176.246 38.5633 176.343 38.3313 176.539 38.1391C176.735 37.9436 176.968 37.8458 177.24 37.8458C177.512 37.8458 177.745 37.9436 177.941 38.1391C178.136 38.3313 178.234 38.5633 178.234 38.8351C178.234 39.0174 178.188 39.1848 178.095 39.3373C178.006 39.4864 177.886 39.6057 177.737 39.6952C177.588 39.7847 177.422 39.8294 177.24 39.8294ZM180.505 42.5986V32.0986H181.957V33.3365H182.081C182.168 33.1775 182.292 32.9935 182.454 32.7847C182.617 32.5759 182.842 32.3936 183.13 32.2378C183.419 32.0787 183.8 31.9992 184.274 31.9992C184.89 31.9992 185.441 32.155 185.924 32.4665C186.408 32.7781 186.788 33.2272 187.063 33.8138C187.341 34.4005 187.481 35.1064 187.481 35.9317C187.481 36.757 187.343 37.4646 187.068 38.0546C186.793 38.6412 186.415 39.0937 185.934 39.4118C185.454 39.7267 184.905 39.8841 184.289 39.8841C183.825 39.8841 183.445 39.8062 183.15 39.6505C182.859 39.4947 182.63 39.3124 182.464 39.1036C182.298 38.8948 182.171 38.7092 182.081 38.5468H181.992V42.5986H180.505ZM181.962 35.9168C181.962 36.4537 182.04 36.9244 182.196 37.3287C182.352 37.7331 182.577 38.0496 182.872 38.2783C183.167 38.5037 183.528 38.6164 183.956 38.6164C184.4 38.6164 184.771 38.4987 185.069 38.2634C185.368 38.0248 185.593 37.7016 185.745 37.2939C185.901 36.8863 185.979 36.4272 185.979 35.9168C185.979 35.413 185.903 34.9606 185.75 34.5596C185.601 34.1585 185.376 33.842 185.074 33.61C184.776 33.378 184.403 33.262 183.956 33.262C183.525 33.262 183.16 33.373 182.862 33.5951C182.567 33.8171 182.343 34.127 182.191 34.5248C182.038 34.9225 181.962 35.3865 181.962 35.9168ZM195.148 33.963L193.801 34.2016C193.745 34.0293 193.655 33.8652 193.533 33.7094C193.413 33.5536 193.251 33.426 193.045 33.3266C192.84 33.2272 192.583 33.1775 192.275 33.1775C191.854 33.1775 191.502 33.2719 191.221 33.4608C190.939 33.6464 190.798 33.8867 190.798 34.1817C190.798 34.4369 190.893 34.6424 191.082 34.7982C191.27 34.954 191.575 35.0816 191.996 35.181L193.209 35.4594C193.912 35.6218 194.436 35.8721 194.78 36.2101C195.125 36.5482 195.297 36.9874 195.297 37.5276C195.297 37.985 195.165 38.3927 194.9 38.7506C194.638 39.1053 194.272 39.3837 193.801 39.5858C193.334 39.788 192.792 39.8891 192.175 39.8891C191.32 39.8891 190.622 39.7068 190.082 39.3422C189.542 38.9743 189.211 38.4523 189.088 37.7762L190.525 37.5574C190.614 37.932 190.798 38.2153 191.077 38.4076C191.355 38.5965 191.718 38.691 192.165 38.691C192.653 38.691 193.042 38.5899 193.334 38.3877C193.625 38.1822 193.771 37.932 193.771 37.637C193.771 37.3983 193.682 37.1978 193.503 37.0354C193.327 36.873 193.057 36.7504 192.692 36.6675L191.4 36.3841C190.687 36.2217 190.16 35.9632 189.819 35.6086C189.481 35.2539 189.312 34.8048 189.312 34.2613C189.312 33.8105 189.438 33.4161 189.689 33.078C189.941 32.74 190.289 32.4765 190.734 32.2875C191.178 32.0953 191.686 31.9992 192.26 31.9992C193.085 31.9992 193.735 32.1782 194.209 32.5361C194.683 32.8908 194.996 33.3664 195.148 33.963ZM200.071 39.8841C199.454 39.8841 198.904 39.7267 198.42 39.4118C197.939 39.0937 197.562 38.6412 197.286 38.0546C197.015 37.4646 196.879 36.757 196.879 35.9317C196.879 35.1064 197.016 34.4005 197.291 33.8138C197.57 33.2272 197.951 32.7781 198.435 32.4665C198.919 32.155 199.467 31.9992 200.08 31.9992C200.554 31.9992 200.936 32.0787 201.224 32.2378C201.516 32.3936 201.741 32.5759 201.9 32.7847C202.062 32.9935 202.188 33.1775 202.278 33.3365H202.367V29.5532H203.854V39.735H202.402V38.5468H202.278C202.188 38.7092 202.059 38.8948 201.89 39.1036C201.724 39.3124 201.496 39.4947 201.204 39.6505C200.912 39.8062 200.535 39.8841 200.071 39.8841ZM200.399 38.6164C200.826 38.6164 201.187 38.5037 201.482 38.2783C201.781 38.0496 202.006 37.7331 202.159 37.3287C202.314 36.9244 202.392 36.4537 202.392 35.9168C202.392 35.3865 202.316 34.9225 202.164 34.5248C202.011 34.127 201.787 33.8171 201.492 33.5951C201.197 33.373 200.833 33.262 200.399 33.262C199.951 33.262 199.578 33.378 199.28 33.61C198.982 33.842 198.756 34.1585 198.604 34.5596C198.455 34.9606 198.38 35.413 198.38 35.9168C198.38 36.4272 198.456 36.8863 198.609 37.2939C198.761 37.7016 198.987 38.0248 199.285 38.2634C199.587 38.4987 199.958 38.6164 200.399 38.6164ZM210.673 34.6441C210.673 33.3979 210.837 32.2511 211.165 31.2037C211.493 30.1564 211.972 29.1902 212.602 28.3053H213.964C213.719 28.6334 213.49 29.0361 213.278 29.5134C213.066 29.9907 212.881 30.5143 212.721 31.0844C212.562 31.6512 212.438 32.2395 212.349 32.8493C212.259 33.4559 212.214 34.0541 212.214 34.6441C212.214 35.4329 212.292 36.2317 212.448 37.0404C212.604 37.8491 212.814 38.5998 213.079 39.2925C213.345 39.9852 213.64 40.5503 213.964 40.9878H212.602C211.972 40.1029 211.493 39.1367 211.165 38.0894C210.837 37.042 210.673 35.8936 210.673 34.6441ZM215.792 39.735V38.6213L219.237 35.0517C219.605 34.664 219.908 34.3242 220.147 34.0326C220.389 33.7376 220.569 33.4575 220.689 33.1924C220.808 32.9272 220.868 32.6455 220.868 32.3472C220.868 32.0091 220.788 31.7175 220.629 31.4722C220.47 31.2236 220.253 31.033 219.978 30.9005C219.703 30.7646 219.393 30.6966 219.048 30.6966C218.684 30.6966 218.365 30.7712 218.094 30.9204C217.822 31.0695 217.613 31.28 217.467 31.5517C217.321 31.8235 217.248 32.1417 217.248 32.5063H215.782C215.782 31.8865 215.924 31.3446 216.209 30.8806C216.494 30.4166 216.886 30.057 217.383 29.8017C217.88 29.5432 218.445 29.414 219.078 29.414C219.718 29.414 220.281 29.5416 220.768 29.7968C221.259 30.0487 221.642 30.3934 221.917 30.8309C222.192 31.2651 222.329 31.7556 222.329 32.3025C222.329 32.6803 222.258 33.0499 222.116 33.4111C221.976 33.7724 221.733 34.1751 221.385 34.6192C221.037 35.06 220.553 35.5953 219.933 36.225L217.91 38.3429V38.4175H222.493V39.735H215.792ZM228.098 39.8742C227.385 39.8742 226.756 39.7516 226.209 39.5063C225.665 39.261 225.239 38.923 224.931 38.4921C224.623 38.0612 224.47 37.5707 224.474 37.0205C224.47 36.5896 224.558 36.1936 224.737 35.8323C224.92 35.4677 225.166 35.1644 225.478 34.9225C225.79 34.6772 226.138 34.5214 226.522 34.4552V34.3955C226.015 34.2729 225.609 34.0011 225.304 33.5802C224.999 33.1592 224.848 32.6753 224.852 32.1285C224.848 31.6081 224.986 31.1441 225.264 30.7364C225.546 30.3254 225.932 30.0023 226.423 29.7669C226.913 29.5316 227.472 29.414 228.098 29.414C228.718 29.414 229.271 29.5333 229.759 29.7719C230.249 30.0072 230.635 30.3304 230.917 30.7414C231.199 31.149 231.341 31.6114 231.344 32.1285C231.341 32.6753 231.185 33.1592 230.877 33.5802C230.569 34.0011 230.168 34.2729 229.674 34.3955V34.4552C230.055 34.5214 230.398 34.6772 230.703 34.9225C231.011 35.1644 231.257 35.4677 231.439 35.8323C231.625 36.1936 231.719 36.5896 231.722 37.0205C231.719 37.5707 231.563 38.0612 231.255 38.4921C230.947 38.923 230.519 39.261 229.972 39.5063C229.429 39.7516 228.804 39.8742 228.098 39.8742ZM228.098 38.6164C228.519 38.6164 228.884 38.5468 229.192 38.4076C229.5 38.2651 229.739 38.0678 229.908 37.816C230.077 37.5607 230.163 37.2624 230.166 36.9211C230.163 36.5664 230.07 36.2532 229.888 35.9814C229.709 35.7097 229.465 35.4959 229.157 35.3401C228.849 35.1843 228.496 35.1064 228.098 35.1064C227.697 35.1064 227.341 35.1843 227.029 35.3401C226.718 35.4959 226.472 35.7097 226.293 35.9814C226.114 36.2532 226.027 36.5664 226.03 36.9211C226.027 37.2624 226.108 37.5607 226.273 37.816C226.442 38.0678 226.683 38.2651 226.994 38.4076C227.306 38.5468 227.674 38.6164 228.098 38.6164ZM228.098 33.8785C228.436 33.8785 228.736 33.8105 228.998 33.6746C229.26 33.5387 229.465 33.3498 229.614 33.1079C229.767 32.8659 229.845 32.5825 229.848 32.2577C229.845 31.9395 229.768 31.6611 229.619 31.4225C229.474 31.1838 229.27 30.9999 229.008 30.8706C228.746 30.7381 228.443 30.6718 228.098 30.6718C227.747 30.6718 227.438 30.7381 227.173 30.8706C226.911 30.9999 226.708 31.1838 226.562 31.4225C226.416 31.6611 226.345 31.9395 226.348 32.2577C226.345 32.5825 226.418 32.8659 226.567 33.1079C226.716 33.3498 226.921 33.5387 227.183 33.6746C227.448 33.8105 227.753 33.8785 228.098 33.8785ZM237.908 29.5532H239.772L243.013 37.4679H243.133L246.374 29.5532H248.239V39.735H246.777V32.3671H246.683L243.68 39.7201H242.467L239.464 32.3621H239.369V39.735H237.908V29.5532ZM250.752 39.735V29.5532H254.481C255.203 29.5532 255.802 29.6725 256.276 29.9111C256.75 30.1464 257.104 30.4663 257.339 30.8706C257.575 31.2717 257.692 31.7241 257.692 32.2279C257.692 32.6521 257.615 33.0101 257.459 33.3017C257.303 33.5901 257.094 33.8221 256.832 33.9978C256.574 34.1701 256.289 34.2961 255.977 34.3756V34.475C256.315 34.4916 256.645 34.601 256.967 34.8032C257.291 35.002 257.56 35.2854 257.772 35.6533C257.984 36.0212 258.09 36.4687 258.09 36.9956C258.09 37.516 257.968 37.9833 257.722 38.3976C257.48 38.8086 257.106 39.1351 256.599 39.377C256.092 39.6157 255.444 39.735 254.655 39.735H250.752ZM252.288 38.4175H254.506C255.241 38.4175 255.768 38.275 256.087 37.99C256.405 37.7049 256.564 37.3486 256.564 36.9211C256.564 36.5996 256.483 36.3046 256.32 36.0361C256.158 35.7677 255.926 35.5539 255.624 35.3948C255.326 35.2357 254.971 35.1562 254.56 35.1562H252.288V38.4175ZM252.288 33.958H254.347C254.691 33.958 255.001 33.8917 255.276 33.7591C255.555 33.6266 255.775 33.441 255.937 33.2023C256.103 32.9604 256.186 32.6753 256.186 32.3472C256.186 31.9263 256.039 31.5733 255.744 31.2883C255.449 31.0032 254.996 30.8607 254.386 30.8607H252.288V33.958ZM262.932 34.6441C262.932 35.8936 262.768 37.042 262.439 38.0894C262.111 39.1367 261.632 40.1029 261.003 40.9878H259.64C259.886 40.6597 260.114 40.257 260.327 39.7797C260.539 39.3025 260.724 38.7804 260.883 38.2137C261.042 37.6436 261.167 37.0536 261.256 36.4438C261.346 35.8339 261.39 35.234 261.39 34.6441C261.39 33.8586 261.313 33.0615 261.157 32.2527C261.001 31.444 260.791 30.6933 260.525 30.0006C260.26 29.3079 259.965 28.7428 259.64 28.3053H261.003C261.632 29.1902 262.111 30.1564 262.439 31.2037C262.768 32.2511 262.932 33.3979 262.932 34.6441Z" fill="#ABEEDB"/>
<path d="M37.4481 29.0017V42.5139H25.2871V24.948H31.3676" stroke="#ABEEDB" stroke-linecap="round" stroke-linejoin="round"/>
<path d="M31.3691 24.948L37.4496 29.0017" stroke="#ABEEDB" stroke-linecap="round" stroke-linejoin="round"/>
<path d="M31.3691 24.948V29.0017" stroke="#ABEEDB" stroke-linecap="round" stroke-linejoin="round"/>
<path d="M37.4496 29.0017H31.3691" stroke="#ABEEDB" stroke-linecap="round" stroke-linejoin="round"/>
<path d="M27.9893 34.4066H31.3673" stroke="#ABEEDB" stroke-linecap="round" stroke-linejoin="round"/>
<path d="M27.9893 37.109H34.0698" stroke="#ABEEDB" stroke-linecap="round" stroke-linejoin="round"/>
<g clip-path="url(#clip1_306_2697)">
<path d="M319.414 42.1126H310.188C309.729 42.1126 309.289 41.9304 308.965 41.6059C308.64 41.2815 308.458 40.8415 308.458 40.3827V29.4263C308.458 29.2733 308.519 29.1267 308.627 29.0185C308.735 28.9104 308.882 28.8496 309.035 28.8496C309.188 28.8496 309.334 28.9104 309.442 29.0185C309.551 29.1267 309.611 29.2733 309.611 29.4263V40.3827C309.611 40.5356 309.672 40.6823 309.78 40.7904C309.888 40.8986 310.035 40.9593 310.188 40.9593H319.414C319.567 40.9593 319.714 40.8986 319.822 40.7904C319.93 40.6823 319.991 40.5356 319.991 40.3827V29.4263C319.991 29.2733 320.052 29.1267 320.16 29.0185C320.268 28.9104 320.415 28.8496 320.568 28.8496C320.721 28.8496 320.867 28.9104 320.975 29.0185C321.084 29.1267 321.144 29.2733 321.144 29.4263V40.3827C321.144 40.8415 320.962 41.2815 320.638 41.6059C320.313 41.9304 319.873 42.1126 319.414 42.1126Z" fill="#ABEEDB"/>
<path d="M321.722 28.2729H307.882C307.729 28.2729 307.583 28.2122 307.475 28.104C307.366 27.9959 307.306 27.8492 307.306 27.6963C307.306 27.5433 307.366 27.3967 307.475 27.2885C307.583 27.1804 307.729 27.1196 307.882 27.1196H321.722C321.875 27.1196 322.022 27.1804 322.13 27.2885C322.238 27.3967 322.299 27.5433 322.299 27.6963C322.299 27.8492 322.238 27.9959 322.13 28.104C322.022 28.2122 321.875 28.2729 321.722 28.2729Z" fill="#ABEEDB"/>
<path d="M317.109 28.2729C316.956 28.2729 316.809 28.2122 316.701 28.104C316.593 27.9959 316.532 27.8492 316.532 27.6963V25.9663H313.072V27.6963C313.072 27.8492 313.011 27.9959 312.903 28.104C312.795 28.2122 312.649 28.2729 312.496 28.2729C312.343 28.2729 312.196 28.2122 312.088 28.104C311.98 27.9959 311.919 27.8492 311.919 27.6963V25.3896C311.919 25.2367 311.98 25.09 312.088 24.9819C312.196 24.8737 312.343 24.813 312.496 24.813H317.109C317.262 24.813 317.408 24.8737 317.517 24.9819C317.625 25.09 317.685 25.2367 317.685 25.3896V27.6963C317.685 27.8492 317.625 27.9959 317.517 28.104C317.408 28.2122 317.262 28.2729 317.109 28.2729Z" fill="#ABEEDB"/>
<path d="M314.802 39.2294C314.649 39.2294 314.503 39.1686 314.394 39.0605C314.286 38.9523 314.226 38.8057 314.226 38.6527V30.5796C314.226 30.4266 314.286 30.28 314.394 30.1718C314.503 30.0637 314.649 30.0029 314.802 30.0029C314.955 30.0029 315.102 30.0637 315.21 30.1718C315.318 30.28 315.379 30.4266 315.379 30.5796V38.6527C315.379 38.8057 315.318 38.9523 315.21 39.0605C315.102 39.1686 314.955 39.2294 314.802 39.2294Z" fill="#ABEEDB"/>
<path d="M317.686 38.076C317.533 38.076 317.386 38.0152 317.278 37.9071C317.17 37.7989 317.109 37.6523 317.109 37.4993V31.7328C317.109 31.5798 317.17 31.4332 317.278 31.325C317.386 31.2169 317.533 31.1561 317.686 31.1561C317.839 31.1561 317.986 31.2169 318.094 31.325C318.202 31.4332 318.263 31.5798 318.263 31.7328V37.4993C318.263 37.6523 318.202 37.7989 318.094 37.9071C317.986 38.0152 317.839 38.076 317.686 38.076Z" fill="#ABEEDB"/>
<path d="M311.918 38.076C311.766 38.076 311.619 38.0152 311.511 37.9071C311.403 37.7989 311.342 37.6523 311.342 37.4993V31.7328C311.342 31.5798 311.403 31.4332 311.511 31.325C311.619 31.2169 311.766 31.1561 311.918 31.1561C312.071 31.1561 312.218 31.2169 312.326 31.325C312.434 31.4332 312.495 31.5798 312.495 31.7328V37.4993C312.495 37.6523 312.434 37.7989 312.326 37.9071C312.218 38.0152 312.071 38.076 311.918 38.076Z" fill="#ABEEDB"/>
</g>
</g>
<path d="M0.740649 129.091C0.761454 126.33 3.01686 124.104 5.77824 124.12L336.695 126.043C339.456 126.059 341.678 128.31 341.657 131.072L340.473 288.206C340.453 290.968 338.197 293.193 335.436 293.177L4.51898 291.255C1.7576 291.239 -0.464067 288.987 -0.443262 286.226L0.740649 129.091Z" fill="#0D2D2A"/>
<path d="M28.3036 208.046L26.5825 202.868L24.7996 208.025L23.1356 208.016L20.508 200L22.3639 200.011L24.0503 205.541L25.9319 200.032L27.2758 200.04L29.0422 205.57L30.8438 200.06L32.7158 200.071L29.9675 208.055L28.3036 208.046ZM36.0518 208.091L34.2918 208.08L34.3822 196.081L36.1422 196.091L36.1039 201.179C36.6115 200.35 37.4253 199.939 38.5452 199.945C39.4732 199.95 40.2123 200.259 40.7623 200.87C41.3124 201.481 41.5836 202.293 41.576 203.307L41.5397 208.123L39.7797 208.112L39.8139 203.584C39.8187 202.944 39.6731 202.448 39.3771 202.094C39.0811 201.73 38.6772 201.546 38.1652 201.543C37.5572 201.539 37.0595 201.766 36.672 202.222C36.2846 202.679 36.0877 203.323 36.0815 204.155L36.0518 208.091ZM45.0651 198.399C44.7451 198.397 44.4686 198.283 44.2356 198.058C44.0027 197.822 43.8875 197.539 43.89 197.208C43.8924 196.888 44.0118 196.617 44.2481 196.394C44.4846 196.161 44.7628 196.045 45.0828 196.047C45.4134 196.049 45.6899 196.168 45.9121 196.404C46.1344 196.629 46.2444 196.902 46.242 197.222C46.2395 197.552 46.1253 197.834 45.8996 198.068C45.6739 198.29 45.3957 198.401 45.0651 198.399ZM44.1117 208.138L44.1719 200.138L45.9319 200.148L45.8716 208.148L44.1117 208.138ZM48.5566 208.163L48.6169 200.164L50.3768 200.174L50.3661 201.598C50.5188 201.151 50.7935 200.79 51.1903 200.515C51.5977 200.24 52.0307 200.103 52.4894 200.106C52.7667 200.108 52.9959 200.13 53.1769 200.174L53.1633 201.982C52.908 201.885 52.615 201.835 52.2844 201.833C51.7511 201.83 51.2961 202.046 50.9195 202.481C50.5429 202.905 50.3518 203.502 50.346 204.27L50.3166 208.174L48.5566 208.163ZM54.9546 208.201L55.045 196.201L56.805 196.211L56.7146 208.211L54.9546 208.201ZM61.9343 211.585L59.9983 211.574L61.7387 207.808L58.3558 200.22L60.2918 200.231L62.6971 205.909L65.2037 200.26L67.1557 200.271L61.9343 211.585ZM68.3671 204.662L68.3801 202.934L72.6841 202.959L72.6711 204.687L68.3671 204.662ZM76.8522 211.672L75.0922 211.662L75.1777 200.318L76.9376 200.328L76.9296 201.4C77.1775 201.06 77.5316 200.774 77.9921 200.542C78.4632 200.3 78.9708 200.18 79.5148 200.183C80.6028 200.189 81.5117 200.6 82.2416 201.415C82.9821 202.23 83.3481 203.213 83.3394 204.365C83.3307 205.517 82.95 206.496 82.1972 207.303C81.4551 208.109 80.5401 208.509 79.4521 208.503C78.9081 208.5 78.4024 208.379 77.9348 208.142C77.478 207.894 77.1282 207.599 76.8854 207.256L76.8522 211.672ZM79.1442 206.901C79.8375 206.905 80.41 206.663 80.8617 206.175C81.3134 205.687 81.542 205.08 81.5474 204.355C81.5529 203.63 81.3335 203.02 80.8892 202.527C80.4449 202.034 79.8761 201.785 79.1828 201.781C78.4788 201.777 77.9009 202.019 77.4492 202.507C76.9975 202.995 76.769 203.602 76.7635 204.327C76.758 205.052 76.9775 205.662 77.4218 206.155C77.866 206.648 78.4402 206.897 79.1442 206.901ZM85.4216 208.378L85.4819 200.378L87.2418 200.388L87.2311 201.812C87.3838 201.365 87.6585 201.004 88.0553 200.729C88.4627 200.454 88.8958 200.318 89.3544 200.32C89.6317 200.322 89.8609 200.345 90.0419 200.388L90.0283 202.196C89.773 202.099 89.4801 202.049 89.1494 202.047C88.6161 202.044 88.1611 202.26 87.7845 202.695C87.4079 203.12 87.2168 203.716 87.211 204.484L87.1816 208.388L85.4216 208.378ZM98.1381 207.411C97.3321 208.207 96.3371 208.601 95.1531 208.594C93.9691 208.587 92.9748 208.181 92.1702 207.377C91.3763 206.561 90.9838 205.572 90.9925 204.41C91.0013 203.247 91.4087 202.268 92.2147 201.473C93.0314 200.667 94.0318 200.267 95.2158 200.274C96.3998 200.281 97.3887 200.692 98.1826 201.508C98.9872 202.312 99.3851 203.296 99.3764 204.459C99.3676 205.621 98.9549 206.605 98.1381 207.411ZM95.1654 206.962C95.8587 206.966 96.4312 206.729 96.8828 206.252C97.3451 205.764 97.579 205.163 97.5844 204.448C97.5898 203.733 97.365 203.135 96.9099 202.652C96.4656 202.159 95.8968 201.91 95.2035 201.906C94.4995 201.902 93.9163 202.144 93.454 202.632C93.0024 203.109 92.7739 203.705 92.7685 204.42C92.7631 205.135 92.9826 205.739 93.4269 206.232C93.8819 206.715 94.4614 206.958 95.1654 206.962ZM103.385 200.482L103.318 209.329C103.311 210.183 103.051 210.837 102.535 211.293C102.03 211.749 101.389 211.974 100.61 211.97C100.311 211.968 100.061 211.951 99.8583 211.917L99.8699 210.381C100.019 210.404 100.163 210.415 100.302 210.416C101.134 210.421 101.553 209.97 101.56 209.063L101.625 200.472L103.385 200.482ZM102.518 198.733C102.198 198.731 101.921 198.617 101.688 198.392C101.455 198.156 101.34 197.872 101.343 197.542C101.345 197.222 101.464 196.951 101.701 196.728C101.937 196.495 102.215 196.379 102.535 196.381C102.866 196.383 103.143 196.502 103.365 196.738C103.587 196.963 103.697 197.235 103.695 197.555C103.692 197.886 103.578 198.168 103.352 198.402C103.127 198.624 102.848 198.735 102.518 198.733ZM109.541 208.678C108.346 208.671 107.368 208.276 106.606 207.493C105.844 206.699 105.467 205.699 105.476 204.494C105.485 203.289 105.872 202.299 106.635 201.525C107.398 200.74 108.393 200.351 109.62 200.358C110.857 200.365 111.851 200.803 112.602 201.671C113.353 202.529 113.68 203.63 113.585 204.973L107.217 204.936C107.234 205.555 107.465 206.074 107.909 206.492C108.354 206.911 108.923 207.122 109.617 207.126C110.598 207.132 111.273 206.762 111.641 206.018L113.481 206.028C113.23 206.806 112.756 207.443 112.059 207.94C111.362 208.438 110.522 208.683 109.541 208.678ZM109.561 201.83C108.985 201.826 108.487 201.989 108.069 202.317C107.661 202.635 107.396 203.092 107.275 203.688L111.706 203.714C111.583 203.095 111.325 202.629 110.933 202.318C110.541 201.995 110.083 201.833 109.561 201.83ZM119.3 208.734C118.095 208.727 117.095 208.322 116.301 207.517C115.518 206.702 115.131 205.713 115.14 204.55C115.148 203.387 115.55 202.408 116.346 201.613C117.152 200.807 118.158 200.408 119.363 200.415C120.398 200.421 121.275 200.714 121.996 201.294C122.728 201.874 123.197 202.618 123.404 203.526L121.548 203.515C121.391 203.066 121.116 202.707 120.724 202.438C120.342 202.159 119.884 202.018 119.351 202.015C118.647 202.01 118.069 202.247 117.617 202.724C117.166 203.202 116.937 203.814 116.932 204.56C116.926 205.307 117.145 205.922 117.59 206.404C118.034 206.887 118.608 207.13 119.312 207.134C119.846 207.137 120.305 207.007 120.691 206.742C121.088 206.467 121.368 206.106 121.531 205.659L123.387 205.67C123.167 206.575 122.687 207.314 121.947 207.886C121.217 208.457 120.335 208.74 119.3 208.734ZM128.727 208.709C127.916 208.704 127.256 208.477 126.748 208.026C126.25 207.564 126.004 206.901 126.011 206.037L126.04 202.181L124.376 202.172L124.388 200.604L126.052 200.613L126.068 198.389L127.828 198.4L127.812 200.624L130.099 200.637L130.088 202.205L127.8 202.192L127.773 205.759C127.769 206.25 127.873 206.603 128.085 206.817C128.297 207.021 128.637 207.125 129.107 207.127C129.491 207.129 129.806 207.078 130.052 206.973L130.04 208.541C129.655 208.656 129.217 208.712 128.727 208.709ZM132.955 208.782C132.582 208.779 132.258 208.644 131.982 208.376C131.718 208.097 131.587 207.766 131.59 207.382C131.593 207.008 131.728 206.684 131.997 206.408C132.277 206.132 132.603 205.996 132.976 205.998C133.36 206 133.685 206.141 133.949 206.419C134.224 206.698 134.361 207.024 134.358 207.398C134.355 207.782 134.214 208.112 133.934 208.387C133.666 208.652 133.339 208.784 132.955 208.782ZM138.531 200.686L138.464 209.534C138.458 210.387 138.197 211.041 137.681 211.497C137.177 211.953 136.535 212.178 135.756 212.174C135.458 212.172 135.207 212.155 135.005 212.122L135.016 210.586C135.165 210.608 135.309 210.619 135.448 210.62C136.28 210.625 136.699 210.174 136.706 209.267L136.771 200.676L138.531 200.686ZM137.664 198.937C137.344 198.935 137.068 198.821 136.835 198.596C136.602 198.36 136.486 198.077 136.489 197.746C136.491 197.426 136.611 197.155 136.847 196.932C137.084 196.699 137.362 196.583 137.682 196.585C138.012 196.587 138.289 196.706 138.511 196.942C138.733 197.167 138.843 197.44 138.841 197.76C138.838 198.09 138.724 198.372 138.499 198.606C138.273 198.828 137.995 198.939 137.664 198.937ZM143.967 208.878C143.018 208.872 142.22 208.633 141.573 208.16C140.936 207.687 140.6 207.055 140.563 206.266L142.387 206.276C142.509 207.066 143.055 207.464 144.026 207.47C144.421 207.472 144.736 207.405 144.971 207.267C145.207 207.119 145.326 206.907 145.328 206.629C145.33 206.352 145.241 206.133 145.061 205.972C144.881 205.811 144.578 205.676 144.152 205.567L142.843 205.207C141.48 204.836 140.804 204.027 140.813 202.779C140.818 202.107 141.094 201.57 141.641 201.168C142.188 200.755 142.91 200.551 143.806 200.557C144.67 200.562 145.378 200.784 145.929 201.225C146.48 201.665 146.785 202.249 146.844 202.974L145.084 202.964C144.918 202.302 144.483 201.969 143.779 201.964C143.427 201.962 143.144 202.035 142.93 202.183C142.715 202.321 142.607 202.518 142.605 202.774C142.602 203.232 142.957 203.554 143.67 203.74L145.011 204.1C146.427 204.471 147.13 205.28 147.121 206.528C147.115 207.285 146.818 207.87 146.228 208.283C145.649 208.685 144.895 208.883 143.967 208.878ZM155.807 207.746C155 208.542 154.005 208.936 152.822 208.929C151.638 208.922 150.643 208.516 149.839 207.712C149.045 206.896 148.652 205.907 148.661 204.745C148.67 203.582 149.077 202.603 149.883 201.808C150.7 201.002 151.7 200.602 152.884 200.609C154.068 200.616 155.057 201.027 155.851 201.843C156.656 202.647 157.054 203.631 157.045 204.794C157.036 205.956 156.623 206.94 155.807 207.746ZM152.834 207.297C153.527 207.301 154.1 207.064 154.551 206.587C155.014 206.099 155.247 205.498 155.253 204.783C155.258 204.068 155.033 203.47 154.578 202.987C154.134 202.494 153.565 202.245 152.872 202.241C152.168 202.237 151.585 202.479 151.122 202.967C150.671 203.444 150.442 204.04 150.437 204.755C150.432 205.47 150.651 206.074 151.095 206.567C151.55 207.05 152.13 207.293 152.834 207.297ZM159.105 208.806L159.165 200.806L160.925 200.816L160.917 201.904C161.424 201.075 162.238 200.664 163.358 200.67C164.286 200.676 165.025 200.984 165.575 201.595C166.125 202.206 166.397 203.018 166.389 204.032L166.353 208.848L164.593 208.837L164.627 204.31C164.632 203.67 164.486 203.173 164.19 202.819C163.894 202.455 163.49 202.271 162.978 202.268C162.37 202.264 161.872 202.491 161.485 202.947C161.097 203.404 160.901 204.048 160.894 204.88L160.865 208.816L159.105 208.806Z" fill="#ADF0DD" fill-opacity="0.25"/>
<g clip-path="url(#clip2_306_2697)">
<g clip-path="url(#clip3_306_2697)">
<path fill-rule="evenodd" clip-rule="evenodd" d="M46.3177 177.374L46.4702 157.139C46.4822 155.55 45.2005 154.241 43.622 154.232L23.5321 154.115C21.9536 154.106 20.6523 155.4 20.6403 156.989L20.4879 177.224C20.4759 178.814 21.7576 180.122 23.3361 180.131L43.426 180.248C45.0045 180.257 46.3058 178.964 46.3177 177.374ZM28.4402 169.321L31.995 173.677L37.0665 167.203L43.4587 175.912L23.3688 175.795L28.4402 169.321Z" fill="#ADF0DD" fill-opacity="0.5"/>
</g>
</g>
<path d="M17.5818 254.764L17.5106 264.218L16.0795 264.21L16.14 256.187L16.0846 256.186L13.8114 257.65L13.8217 256.284L16.1923 254.756L17.5818 254.764ZM27.4749 257.185L27.4666 258.293L23.4595 258.27L23.4679 257.162L27.4749 257.185ZM24.5132 264.259L24.5728 256.346C24.5761 255.903 24.6758 255.536 24.8719 255.245C25.068 254.95 25.3267 254.732 25.6478 254.589C25.969 254.443 26.3174 254.371 26.6928 254.374C26.9698 254.375 27.2066 254.4 27.4032 254.447C27.5999 254.491 27.7457 254.532 27.8409 254.57L27.5093 255.685C27.4448 255.666 27.3619 255.644 27.2605 255.619C27.1592 255.59 27.0362 255.576 26.8915 255.575C26.5561 255.573 26.3154 255.655 26.1695 255.82C26.0267 255.986 25.9541 256.225 25.9517 256.539L25.8935 264.267L24.5132 264.259ZM29.1057 264.285L29.1591 257.195L30.5394 257.203L30.486 264.294L29.1057 264.285ZM29.8644 256.105C29.6243 256.103 29.4187 256.022 29.2476 255.861C29.0796 255.697 28.9964 255.503 28.9981 255.278C28.9998 255.05 29.0859 254.857 29.2564 254.698C29.4299 254.536 29.6368 254.455 29.8768 254.457C30.1169 254.458 30.3209 254.541 30.489 254.705C30.6601 254.866 30.7448 255.06 30.7431 255.288C30.7414 255.513 30.6538 255.706 30.4802 255.868C30.3097 256.027 30.1045 256.106 29.8644 256.105ZM34.0544 254.86L33.9832 264.314L32.6029 264.306L32.6741 254.852L34.0544 254.86ZM39.1551 264.487C38.4565 264.483 37.856 264.33 37.3535 264.029C36.8541 263.724 36.4695 263.299 36.1997 262.752C35.933 262.203 35.8024 261.561 35.808 260.825C35.8135 260.099 35.9537 259.459 36.2287 258.907C36.5068 258.355 36.8917 257.924 37.3833 257.616C37.8781 257.309 38.4548 257.156 39.1134 257.16C39.5135 257.163 39.9007 257.231 40.2752 257.366C40.6497 257.5 40.9851 257.71 41.2815 257.995C41.5779 258.279 41.8106 258.649 41.9795 259.102C42.1485 259.552 42.2305 260.099 42.2257 260.742L42.222 261.232L36.5854 261.199L36.5932 260.165L40.8772 260.19C40.8799 259.827 40.8085 259.505 40.6629 259.224C40.5173 258.94 40.3112 258.715 40.0447 258.551C39.7812 258.386 39.471 258.303 39.114 258.301C38.7262 258.298 38.387 258.392 38.0963 258.581C37.8086 258.767 37.5852 259.012 37.4259 259.316C37.2698 259.616 37.1904 259.944 37.1877 260.298L37.1816 261.105C37.178 261.579 37.2581 261.983 37.4218 262.316C37.5885 262.65 37.8221 262.905 38.1224 263.082C38.4227 263.256 38.7744 263.344 39.1776 263.347C39.4392 263.348 39.678 263.313 39.8939 263.24C40.11 263.165 40.297 263.052 40.4551 262.902C40.6132 262.752 40.7346 262.566 40.8194 262.345L42.1241 262.588C42.0165 262.972 41.8262 263.308 41.5532 263.596C41.2833 263.881 40.9447 264.102 40.5372 264.26C40.1329 264.414 39.6722 264.49 39.1551 264.487ZM48.1275 259.669C48.1362 258.511 48.2966 257.448 48.6086 256.477C48.9206 255.506 49.3721 254.612 49.963 253.793L51.2279 253.801C50.9979 254.104 50.7827 254.477 50.5824 254.919C50.3821 255.361 50.2061 255.846 50.0544 256.374C49.9027 256.9 49.7832 257.445 49.6958 258.011C49.6085 258.574 49.5627 259.129 49.5586 259.677C49.5531 260.409 49.6198 261.152 49.7588 261.903C49.8978 262.655 50.088 263.353 50.3293 263.998C50.5707 264.643 50.8406 265.169 51.1392 265.577L49.8743 265.57C49.2957 264.744 48.8578 263.845 48.5604 262.87C48.2631 261.896 48.1188 260.829 48.1275 259.669ZM56.503 254.99L56.4317 264.444L55.0007 264.436L55.0611 256.413L55.0057 256.412L52.7325 257.876L52.7428 256.51L55.1134 254.982L56.503 254.99ZM59.6306 264.551C59.3782 264.549 59.1619 264.459 58.9817 264.279C58.8015 264.096 58.7123 263.877 58.7142 263.622C58.7161 263.37 58.8086 263.155 58.9915 262.977C59.1744 262.797 59.3921 262.707 59.6444 262.709C59.8968 262.71 60.1131 262.802 60.2933 262.985C60.4735 263.164 60.5627 263.38 60.5608 263.633C60.5595 263.802 60.5153 263.957 60.428 264.098C60.3439 264.236 60.2323 264.346 60.0931 264.429C59.954 264.511 59.7998 264.552 59.6306 264.551ZM62.6449 264.48L62.6527 263.446L65.8768 260.15C66.2212 259.792 66.5051 259.478 66.7288 259.209C66.9555 258.936 67.1252 258.677 67.2378 258.432C67.3505 258.186 67.4078 257.925 67.4099 257.648C67.4123 257.334 67.3405 257.063 67.1945 256.834C67.0485 256.602 66.8482 256.424 66.5937 256.3C66.3392 256.172 66.0519 256.107 65.7319 256.105C65.3933 256.103 65.0974 256.171 64.844 256.308C64.5906 256.445 64.3952 256.639 64.2579 256.891C64.1206 257.142 64.0506 257.437 64.0481 257.776L62.6862 257.768C62.6906 257.193 62.8267 256.69 63.0946 256.261C63.3625 255.832 63.7282 255.5 64.1916 255.265C64.6551 255.028 65.1807 254.911 65.7686 254.915C66.3625 254.918 66.8848 255.039 67.3354 255.279C67.7892 255.516 68.1422 255.838 68.3946 256.245C68.647 256.65 68.7713 257.106 68.7675 257.614C68.7648 257.965 68.6961 258.308 68.5612 258.642C68.4294 258.977 68.2004 259.35 67.8741 259.76C67.5479 260.168 67.0948 260.662 66.5149 261.244L64.6212 263.199L64.6207 263.268L68.877 263.293L68.8678 264.516L62.6449 264.48ZM74.7783 255.096L76.5094 255.106L79.464 262.473L79.5747 262.474L82.64 255.142L84.3712 255.152L84.2999 264.606L82.9427 264.598L82.9943 257.757L82.9065 257.756L80.0668 264.568L78.9404 264.561L76.2036 257.713L76.1159 257.712L76.0643 264.558L74.707 264.55L74.7783 255.096ZM86.6338 264.62L86.7051 255.165L90.1674 255.186C90.8383 255.189 91.393 255.303 91.8314 255.528C92.2698 255.749 92.5969 256.048 92.8126 256.424C93.0283 256.798 93.1344 257.219 93.1309 257.686C93.1279 258.08 93.0531 258.412 92.9064 258.682C92.7597 258.949 92.5642 259.164 92.3198 259.325C92.0786 259.484 91.813 259.599 91.5232 259.671L91.5225 259.764C91.8363 259.781 92.1417 259.884 92.4388 260.074C92.7391 260.26 92.9864 260.525 93.1808 260.868C93.3751 261.21 93.4705 261.626 93.4668 262.116C93.4632 262.599 93.346 263.032 93.1154 263.415C92.8878 263.796 92.5378 264.097 92.0652 264.319C91.5927 264.538 90.9902 264.645 90.2577 264.641L86.6338 264.62ZM88.0695 263.405L90.1284 263.417C90.8117 263.421 91.302 263.291 91.5994 263.028C91.8969 262.765 92.0471 262.435 92.0501 262.038C92.0523 261.74 91.979 261.465 91.8301 261.215C91.6812 260.965 91.4672 260.765 91.1883 260.616C90.9124 260.467 90.5837 260.391 90.202 260.389L88.0923 260.376L88.0695 263.405ZM88.1007 259.264L90.0119 259.275C90.332 259.277 90.6202 259.217 90.8766 259.095C91.136 258.974 91.342 258.802 91.4944 258.582C91.65 258.358 91.729 258.094 91.7312 257.789C91.7342 257.398 91.5997 257.07 91.3278 256.803C91.0559 256.537 90.6368 256.402 90.0705 256.399L88.1224 256.388L88.1007 259.264ZM97.9788 259.958C97.9701 261.118 97.8097 262.184 97.4977 263.155C97.1857 264.125 96.7342 265.02 96.1433 265.838L94.8784 265.831C95.1084 265.528 95.3236 265.155 95.5239 264.713C95.7242 264.271 95.9002 263.787 96.0519 263.262C96.2036 262.733 96.3231 262.186 96.4105 261.62C96.4979 261.055 96.5436 260.498 96.5477 259.95C96.5532 259.221 96.4865 258.48 96.3475 257.728C96.2085 256.976 96.0183 256.278 95.777 255.634C95.5356 254.989 95.2656 254.463 94.9671 254.055L96.232 254.062C96.8105 254.887 97.2485 255.787 97.5459 256.761C97.8432 257.735 97.9875 258.801 97.9788 259.958Z" fill="#ADF0DD"/>
<path d="M220.638 266.399L224.826 258.261L224.827 258.192L220.054 258.164L220.063 256.941L226.313 256.977L226.304 258.242L222.129 266.407L220.638 266.399ZM234.48 266.618C233.907 266.614 233.397 266.465 232.95 266.17C232.506 265.872 232.159 265.45 231.907 264.904C231.659 264.354 231.538 263.697 231.544 262.93C231.549 262.164 231.682 261.509 231.942 260.966C232.204 260.423 232.561 260.008 233.013 259.721C233.464 259.434 233.975 259.293 234.544 259.296C234.984 259.299 235.338 259.375 235.604 259.524C235.874 259.67 236.082 259.841 236.228 260.035C236.378 260.23 236.493 260.401 236.575 260.55L236.658 260.55L236.685 257.037L238.065 257.045L237.994 266.499L236.646 266.492L236.654 265.388L236.539 265.388C236.455 265.538 236.333 265.71 236.175 265.903C236.019 266.096 235.806 266.264 235.534 266.407C235.262 266.55 234.911 266.62 234.48 266.618ZM234.793 265.442C235.19 265.444 235.527 265.342 235.802 265.134C236.081 264.923 236.292 264.631 236.436 264.256C236.584 263.881 236.66 263.445 236.663 262.946C236.667 262.454 236.599 262.023 236.461 261.652C236.322 261.282 236.116 260.993 235.844 260.786C235.572 260.578 235.234 260.473 234.831 260.47C234.415 260.468 234.068 260.574 233.79 260.787C233.511 261.001 233.299 261.294 233.155 261.666C233.014 262.037 232.941 262.457 232.938 262.925C232.934 263.399 233.002 263.825 233.141 264.205C233.279 264.584 233.486 264.885 233.762 265.108C234.04 265.328 234.384 265.44 234.793 265.442ZM242.286 266.681C241.837 266.679 241.431 266.593 241.069 266.425C240.707 266.254 240.422 266.007 240.212 265.686C240.005 265.365 239.903 264.972 239.907 264.507C239.91 264.107 239.989 263.778 240.145 263.52C240.301 263.263 240.51 263.059 240.773 262.91C241.035 262.761 241.329 262.649 241.652 262.574C241.976 262.498 242.306 262.442 242.642 262.404C243.067 262.357 243.412 262.319 243.677 262.29C243.942 262.258 244.134 262.205 244.255 262.132C244.375 262.058 244.436 261.939 244.438 261.773L244.438 261.74C244.441 261.337 244.329 261.024 244.103 260.801C243.88 260.578 243.546 260.466 243.099 260.463C242.635 260.46 242.268 260.561 241.998 260.766C241.732 260.967 241.547 261.193 241.444 261.441L240.149 261.138C240.306 260.708 240.533 260.362 240.831 260.099C241.131 259.833 241.476 259.641 241.865 259.523C242.253 259.402 242.662 259.343 243.089 259.346C243.373 259.347 243.672 259.383 243.989 259.452C244.308 259.519 244.606 259.641 244.882 259.818C245.16 259.995 245.388 260.247 245.564 260.574C245.74 260.898 245.826 261.319 245.822 261.836L245.787 266.545L244.439 266.537L244.446 265.567L244.391 265.567C244.3 265.745 244.165 265.92 243.985 266.091C243.805 266.262 243.575 266.404 243.294 266.516C243.013 266.629 242.677 266.684 242.286 266.681ZM242.595 265.575C242.976 265.577 243.303 265.504 243.575 265.355C243.85 265.205 244.059 265.01 244.203 264.767C244.349 264.522 244.423 264.259 244.426 263.979L244.432 263.065C244.383 263.114 244.287 263.16 244.145 263.202C244.006 263.241 243.848 263.276 243.669 263.305C243.49 263.332 243.316 263.357 243.147 263.381C242.977 263.401 242.836 263.419 242.722 263.434C242.454 263.466 242.208 263.522 241.986 263.6C241.767 263.679 241.591 263.793 241.457 263.944C241.327 264.09 241.261 264.287 241.259 264.533C241.256 264.875 241.381 265.134 241.632 265.311C241.883 265.485 242.204 265.573 242.595 265.575ZM248.484 269.22C248.277 269.218 248.09 269.2 247.921 269.165C247.752 269.134 247.626 269.099 247.543 269.062L247.884 267.933C248.136 268.002 248.36 268.032 248.557 268.024C248.754 268.016 248.929 267.943 249.081 267.806C249.236 267.668 249.373 267.443 249.492 267.129L249.666 266.66L247.126 259.461L248.603 259.47L250.358 264.983L250.431 264.984L252.269 259.491L253.751 259.5L250.768 267.52C250.63 267.889 250.455 268.2 250.244 268.454C250.033 268.711 249.782 268.904 249.492 269.031C249.201 269.159 248.865 269.222 248.484 269.22ZM260.608 261.271L259.356 261.485C259.304 261.325 259.222 261.172 259.11 261.027C259 260.882 258.85 260.762 258.66 260.669C258.47 260.575 258.232 260.528 257.945 260.526C257.555 260.524 257.228 260.61 256.965 260.784C256.702 260.954 256.569 261.177 256.567 261.451C256.566 261.688 256.652 261.879 256.826 262.025C257 262.17 257.283 262.29 257.673 262.385L258.797 262.65C259.449 262.805 259.933 263.04 260.251 263.356C260.569 263.671 260.726 264.08 260.722 264.582C260.719 265.006 260.593 265.384 260.344 265.715C260.098 266.043 259.756 266.3 259.318 266.485C258.882 266.67 258.379 266.761 257.806 266.758C257.012 266.753 256.366 266.58 255.866 266.239C255.367 265.894 255.063 265.408 254.954 264.779L256.29 264.584C256.37 264.932 256.539 265.196 256.796 265.376C257.053 265.553 257.39 265.643 257.805 265.645C258.258 265.648 258.62 265.556 258.892 265.37C259.165 265.181 259.302 264.949 259.304 264.675C259.305 264.453 259.224 264.267 259.059 264.115C258.897 263.963 258.647 263.848 258.309 263.769L257.111 263.499C256.45 263.344 255.962 263.101 255.648 262.77C255.336 262.439 255.183 262.021 255.186 261.516C255.19 261.098 255.309 260.732 255.546 260.42C255.782 260.107 256.107 259.865 256.521 259.691C256.934 259.515 257.407 259.429 257.94 259.432C258.706 259.436 259.308 259.606 259.746 259.941C260.183 260.273 260.471 260.716 260.608 261.271ZM268.247 266.832C267.797 266.83 267.392 266.744 267.03 266.576C266.668 266.404 266.382 266.158 266.172 265.837C265.965 265.515 265.864 265.122 265.867 264.658C265.87 264.258 265.949 263.929 266.105 263.671C266.261 263.414 266.47 263.21 266.733 263.061C266.996 262.912 267.289 262.799 267.613 262.724C267.937 262.649 268.266 262.593 268.602 262.555C269.027 262.508 269.372 262.47 269.637 262.441C269.902 262.408 270.095 262.356 270.215 262.282C270.336 262.209 270.397 262.09 270.398 261.923L270.398 261.891C270.401 261.488 270.29 261.175 270.064 260.952C269.841 260.729 269.506 260.616 269.06 260.614C268.595 260.611 268.228 260.712 267.959 260.917C267.693 261.118 267.508 261.343 267.404 261.592L266.109 261.289C266.267 260.859 266.494 260.513 266.791 260.25C267.092 259.984 267.436 259.792 267.825 259.674C268.214 259.553 268.622 259.494 269.05 259.497C269.333 259.498 269.633 259.534 269.949 259.603C270.269 259.67 270.566 259.792 270.842 259.969C271.121 260.146 271.348 260.398 271.524 260.725C271.7 261.049 271.786 261.47 271.783 261.987L271.747 266.696L270.399 266.688L270.406 265.718L270.351 265.718C270.26 265.896 270.125 266.071 269.945 266.242C269.766 266.413 269.535 266.555 269.254 266.667C268.973 266.779 268.638 266.834 268.247 266.832ZM268.555 265.726C268.937 265.728 269.264 265.655 269.535 265.505C269.811 265.356 270.02 265.16 270.163 264.918C270.31 264.673 270.384 264.41 270.386 264.13L270.393 263.216C270.343 263.265 270.248 263.311 270.106 263.353C269.967 263.392 269.808 263.427 269.629 263.456C269.451 263.483 269.277 263.508 269.107 263.532C268.938 263.552 268.796 263.57 268.682 263.585C268.414 263.617 268.169 263.672 267.947 263.751C267.728 263.83 267.551 263.944 267.418 264.094C267.287 264.241 267.221 264.438 267.22 264.684C267.217 265.026 267.341 265.285 267.592 265.462C267.843 265.636 268.164 265.724 268.555 265.726ZM276.797 269.532C276.234 269.528 275.75 269.452 275.345 269.302C274.943 269.152 274.615 268.954 274.361 268.71C274.108 268.465 273.919 268.198 273.795 267.908L274.985 267.425C275.067 267.561 275.177 267.705 275.314 267.857C275.455 268.011 275.644 268.143 275.884 268.252C276.126 268.361 276.438 268.417 276.82 268.419C277.343 268.422 277.776 268.297 278.12 268.044C278.463 267.793 278.637 267.391 278.641 266.837L278.652 265.443L278.564 265.442C278.48 265.593 278.359 265.76 278.2 265.944C278.045 266.127 277.831 266.286 277.559 266.42C277.288 266.554 276.935 266.619 276.501 266.617C275.941 266.614 275.437 266.48 274.99 266.216C274.545 265.949 274.194 265.557 273.937 265.042C273.682 264.523 273.558 263.887 273.563 263.133C273.569 262.379 273.701 261.733 273.961 261.196C274.224 260.659 274.581 260.249 275.032 259.965C275.484 259.679 275.994 259.537 276.563 259.54C277.003 259.543 277.358 259.619 277.628 259.768C277.898 259.914 278.107 260.085 278.257 260.279C278.409 260.474 278.526 260.646 278.608 260.794L278.71 260.794L278.719 259.645L280.071 259.653L280.017 266.901C280.012 267.51 279.867 268.009 279.581 268.398C279.294 268.788 278.909 269.075 278.424 269.26C277.943 269.445 277.401 269.535 276.797 269.532ZM276.814 265.474C277.211 265.476 277.547 265.386 277.823 265.203C278.101 265.017 278.312 264.75 278.456 264.403C278.604 264.053 278.679 263.633 278.683 263.144C278.687 262.667 278.619 262.247 278.48 261.883C278.341 261.519 278.136 261.234 277.863 261.03C277.591 260.822 277.253 260.717 276.85 260.714C276.434 260.712 276.087 260.818 275.809 261.032C275.53 261.242 275.319 261.53 275.174 261.896C275.033 262.261 274.961 262.67 274.957 263.123C274.954 263.587 275.022 263.995 275.161 264.347C275.3 264.699 275.507 264.974 275.782 265.172C276.061 265.371 276.405 265.471 276.814 265.474ZM285.115 266.916C284.45 266.912 283.871 266.757 283.378 266.449C282.884 266.142 282.503 265.713 282.233 265.164C281.963 264.614 281.831 263.973 281.837 263.241C281.842 262.505 281.984 261.863 282.262 261.314C282.54 260.764 282.928 260.339 283.426 260.037C283.924 259.735 284.505 259.586 285.17 259.59C285.835 259.594 286.414 259.75 286.907 260.057C287.4 260.365 287.781 260.795 288.051 261.347C288.321 261.9 288.453 262.544 288.447 263.279C288.442 264.012 288.3 264.651 288.022 265.197C287.744 265.744 287.356 266.168 286.858 266.469C286.361 266.771 285.779 266.92 285.115 266.916ZM285.128 265.758C285.559 265.76 285.917 265.648 286.202 265.422C286.486 265.196 286.698 264.894 286.836 264.516C286.978 264.139 287.05 263.722 287.053 263.267C287.057 262.814 286.991 262.398 286.855 262.019C286.722 261.637 286.516 261.329 286.234 261.097C285.953 260.864 285.597 260.747 285.166 260.744C284.732 260.742 284.371 260.855 284.083 261.084C283.798 261.313 283.585 261.618 283.444 261.999C283.305 262.377 283.234 262.792 283.231 263.244C283.228 263.7 283.292 264.117 283.425 264.497C283.56 264.876 283.769 265.18 284.05 265.41C284.335 265.639 284.694 265.755 285.128 265.758Z" fill="#ADF0DD"/>
<g clip-path="url(#clip4_306_2697)">
<path d="M202.351 255.772C201.201 255.766 200.073 256.102 199.112 256.739C198.15 257.377 197.397 258.286 196.949 259.352C196.5 260.419 196.376 261.594 196.592 262.73C196.808 263.866 197.355 264.912 198.162 265.735C198.97 266.557 200.002 267.121 201.129 267.353C202.256 267.585 203.427 267.476 204.493 267.04C205.56 266.603 206.474 265.858 207.12 264.9C207.767 263.942 208.117 262.813 208.126 261.656C208.136 260.105 207.533 258.614 206.451 257.511C205.368 256.408 203.894 255.783 202.351 255.772ZM202.271 266.497C201.312 266.491 200.376 266.2 199.583 265.66C198.79 265.119 198.174 264.354 197.814 263.462C197.454 262.569 197.365 261.588 197.559 260.643C197.753 259.699 198.222 258.833 198.905 258.155C199.588 257.477 200.456 257.018 201.397 256.835C202.339 256.653 203.314 256.755 204.197 257.129C205.08 257.503 205.832 258.132 206.359 258.937C206.886 259.742 207.163 260.686 207.156 261.65C207.145 262.943 206.624 264.179 205.708 265.087C204.792 265.996 203.556 266.503 202.271 266.497Z" fill="#ADF0DD"/>
<path d="M202.794 261.423L202.815 258.7C202.816 258.571 202.765 258.446 202.675 258.354C202.585 258.263 202.462 258.21 202.333 258.21C202.205 258.209 202.081 258.26 201.99 258.351C201.898 258.441 201.846 258.565 201.845 258.694L201.823 261.619C201.822 261.749 201.872 261.873 201.962 261.965L203.406 263.436C203.496 263.525 203.619 263.575 203.746 263.574C203.873 263.574 203.995 263.524 204.085 263.434C204.176 263.344 204.228 263.222 204.23 263.094C204.232 262.966 204.184 262.843 204.096 262.75L202.794 261.423Z" fill="#ADF0DD"/>
</g>
<path d="M318.922 155.154L306.487 155.082C306.252 155.08 306.026 154.985 305.861 154.816C305.696 154.648 305.604 154.42 305.606 154.183C305.607 153.946 305.703 153.72 305.87 153.553C306.038 153.387 306.265 153.294 306.501 153.295L318.936 153.368C319.171 153.369 319.397 153.464 319.562 153.633C319.727 153.801 319.819 154.029 319.817 154.266C319.816 154.503 319.72 154.729 319.553 154.896C319.385 155.062 319.158 155.155 318.922 155.154Z" fill="#ADF0DD" fill-opacity="0.5"/>
<path d="M318.888 159.619L306.453 159.547C306.217 159.546 305.992 159.45 305.827 159.282C305.661 159.113 305.57 158.886 305.571 158.649C305.573 158.412 305.668 158.185 305.836 158.019C306.004 157.852 306.231 157.759 306.466 157.761L318.902 157.833C319.137 157.834 319.363 157.93 319.528 158.098C319.693 158.267 319.785 158.494 319.783 158.731C319.781 158.968 319.686 159.195 319.518 159.361C319.35 159.528 319.124 159.621 318.888 159.619Z" fill="#ADF0DD" fill-opacity="0.5"/>
<path d="M318.855 164.084L306.42 164.012C306.184 164.011 305.959 163.915 305.794 163.747C305.628 163.579 305.536 163.351 305.538 163.114C305.54 162.877 305.635 162.651 305.803 162.484C305.971 162.318 306.198 162.225 306.433 162.226L318.869 162.298C319.104 162.3 319.329 162.395 319.495 162.564C319.66 162.732 319.752 162.96 319.75 163.197C319.748 163.433 319.653 163.66 319.485 163.827C319.317 163.993 319.091 164.086 318.855 164.084Z" fill="#ADF0DD" fill-opacity="0.5"/>
</g>
<defs>
<clipPath id="clip0_306_2697">
<rect width="342" height="283" fill="white"/>
</clipPath>
<clipPath id="clip1_306_2697">
<rect width="18.4529" height="18.4529" fill="white" transform="translate(305.576 24.2363)"/>
</clipPath>
<clipPath id="clip2_306_2697">
<rect width="31.3177" height="25.1904" fill="white" transform="matrix(0.999983 0.00580931 -0.00753415 0.999972 20.5254 154.151)"/>
</clipPath>
<clipPath id="clip3_306_2697">
<rect width="25.8303" height="26.0167" fill="white" transform="matrix(0.999983 0.00580931 -0.00753415 0.999972 20.6621 154.099)"/>
</clipPath>
<clipPath id="clip4_306_2697">
<rect width="11.6366" height="11.6999" fill="white" transform="matrix(0.999983 0.00580931 -0.00753415 0.999972 196.533 255.739)"/>
</clipPath>
</defs>
</svg>
