<svg width="24" height="19" viewBox="0 0 24 19" fill="none" xmlns="http://www.w3.org/2000/svg">
<path d="M16.3012 2.74869C16.794 2.75545 17.2804 2.86137 17.7314 3.06013C18.1824 3.25888 18.5887 3.54641 18.9262 3.90556C18.9262 3.90556 20.3587 3.62431 21.15 3.06744C21.15 3.06744 20.9512 4.16994 19.6331 5.01369H19.6444C19.7456 5.01369 20.4844 4.99494 21.6469 4.45119C21.6469 4.45119 21.4237 5.08681 19.9031 6.29619C19.995 9.15744 18.5794 14.4468 13.3406 16.3293C12.1901 16.7502 10.9751 16.9678 9.74999 16.9724C7.78718 16.9814 5.86458 16.4163 4.21874 15.3468C4.49999 15.3749 4.75311 15.3749 5.00624 15.3749C8.10374 15.3749 9.60374 13.7849 9.52124 13.7849H9.40686C6.78186 13.7849 6.14249 11.2724 6.14249 11.2724C6.35272 11.3995 6.59664 11.4597 6.84186 11.4449C7.15883 11.4383 7.47374 11.3924 7.77936 11.3081C4.81686 10.6068 4.92749 7.76432 4.92749 7.76432C5.32783 8.0315 5.79627 8.17854 6.27749 8.18807C6.35664 8.18895 6.43571 8.18268 6.51374 8.16932C3.80811 6.02806 5.43749 3.47244 5.43749 3.47244C8.48624 7.01057 12.2344 7.13619 12.75 7.13619H12.8119C12.5344 5.47494 13.2187 3.87931 15.0619 3.01119C15.4463 2.83462 15.865 2.74499 16.2881 2.74869M22.875 0.374939L20.4506 2.07744C20.0803 2.29939 19.68 2.46674 19.2619 2.57431C18.4133 1.9117 17.3703 1.54669 16.2937 1.53556C15.6919 1.52999 15.0963 1.65807 14.55 1.91056C12.8287 2.71869 11.7825 4.11369 11.5744 5.78806C9.53666 5.3678 7.70059 4.27171 6.36374 2.67744L5.29499 1.43806L4.41374 2.81244C3.84561 3.74833 3.62027 4.85252 3.77624 5.93619L3.70686 7.72306C3.69129 8.85739 4.06819 9.96224 4.77374 10.8506L4.96124 11.5818C5.23016 12.5261 5.7762 13.368 6.52874 13.9987C6.02807 14.1082 5.51686 14.1623 5.00436 14.1599C4.78124 14.1599 4.55061 14.1506 4.31811 14.1318L0.0187378 13.7737L3.49686 16.3293C5.35298 17.5505 7.52818 18.1969 9.74999 18.1874C11.1174 18.1838 12.4738 17.9427 13.7587 17.4749C16.3364 16.555 18.4635 14.6822 19.7025 12.2418C20.5595 10.5753 21.0438 8.7423 21.1219 6.86994C22.365 5.79931 22.7062 5.11682 22.7981 4.85619L23.7581 2.12431L22.4456 2.73556L22.875 0.374939Z" fill="#0D1D1C"/>
</svg>
