<svg width="24" height="24" viewBox="0 0 24 24" fill="none" xmlns="http://www.w3.org/2000/svg">
<g clip-path="url(#clip0_306_1498)">
<path d="M18.1031 2.62494C18.3482 2.62296 18.5912 2.66943 18.8182 2.76166C19.0453 2.8539 19.2518 2.99009 19.4261 3.16241C19.6003 3.33472 19.7388 3.53977 19.8335 3.76577C19.9282 3.99177 19.9774 4.23426 19.9781 4.47931V20.6249L18.0187 18.9149L16.9106 17.9062L15.75 16.8356L16.2338 18.5006H5.89688C5.65183 18.5025 5.40881 18.4561 5.18178 18.3638C4.95474 18.2716 4.74818 18.1354 4.57394 17.9631C4.39971 17.7908 4.26124 17.5857 4.1665 17.3597C4.07176 17.1337 4.02261 16.8912 4.02188 16.6462V4.47931C4.02261 4.23426 4.07176 3.99177 4.1665 3.76577C4.26124 3.53977 4.39971 3.33472 4.57394 3.16241C4.74818 2.99009 4.95474 2.8539 5.18178 2.76166C5.40881 2.66943 5.65183 2.62296 5.89688 2.62494H18.1031ZM18.1031 1.40619H5.89688C5.08064 1.40569 4.29753 1.72895 3.71932 2.30505C3.1411 2.88116 2.81498 3.66308 2.8125 4.47931V16.6481C2.81498 17.4646 3.14136 18.2468 3.71998 18.823C4.2986 19.3991 5.08219 19.7222 5.89875 19.7212H17.0869L17.19 19.8168L17.2013 19.8262H17.2125L19.1719 21.5362L21.1875 23.3062V4.47931C21.185 3.66308 20.8589 2.88116 20.2807 2.30505C19.7025 1.72895 18.9194 1.40569 18.1031 1.40619Z" fill="#0D1D1C"/>
<path d="M13.9312 13.7081C14.205 14.0512 14.5331 14.4374 14.5331 14.4374C16.5469 14.3737 17.3212 13.0687 17.3212 13.0687C17.2912 11.2413 16.8422 9.4452 16.0087 7.81869C15.2717 7.25161 14.3783 6.92438 13.4494 6.88119L13.3219 7.02557C14.8706 7.49432 15.5906 8.16932 15.5906 8.16932C14.7411 7.70716 13.8103 7.41364 12.8494 7.30494C12.2377 7.23864 11.6202 7.24493 11.01 7.32369C10.9577 7.32544 10.9056 7.33171 10.8544 7.34244C10.1418 7.42177 9.44601 7.61154 8.79187 7.90494C8.44687 8.06244 8.25 8.16557 8.25 8.16557C8.25 8.16557 9 7.45494 10.6462 6.98619L10.5544 6.87744C9.6254 6.92063 8.73206 7.24786 7.995 7.81494C7.16152 9.44145 6.71249 11.2376 6.6825 13.0649C6.6825 13.0649 7.4475 14.3774 9.46125 14.4337C9.46125 14.4337 9.79875 14.0287 10.0725 13.6837C8.91562 13.3424 8.47875 12.6224 8.47875 12.6224C8.47875 12.6224 8.57062 12.6862 8.73375 12.7762C8.74397 12.787 8.75604 12.7959 8.76937 12.8024C8.7975 12.8212 8.82375 12.8287 8.85187 12.8474C9.06653 12.9643 9.28892 13.0665 9.5175 13.1531C9.95119 13.3219 10.3993 13.4512 10.8562 13.5393C11.6358 13.6841 12.4354 13.6841 13.215 13.5393C13.6657 13.4606 14.106 13.331 14.5275 13.1531C14.8957 13.0161 15.2473 12.8381 15.5756 12.6224C15.5756 12.6224 15.1256 13.3762 13.9312 13.7081ZM10.5562 12.4537C10.05 12.4537 9.63375 11.9906 9.63375 11.4243C9.61817 11.2941 9.63039 11.162 9.66959 11.0368C9.70879 10.9116 9.77408 10.7962 9.86116 10.698C9.94824 10.5999 10.0551 10.5214 10.1748 10.4676C10.2944 10.4138 10.4241 10.386 10.5553 10.386C10.6865 10.386 10.8162 10.4138 10.9358 10.4676C11.0555 10.5214 11.1624 10.5999 11.2495 10.698C11.3365 10.7962 11.4018 10.9116 11.441 11.0368C11.4802 11.162 11.4924 11.2941 11.4769 11.4243C11.4842 11.5528 11.4661 11.6815 11.4236 11.8029C11.381 11.9244 11.3149 12.0362 11.229 12.1321C11.1431 12.2279 11.0391 12.3058 10.923 12.3613C10.8069 12.4168 10.681 12.4489 10.5525 12.4556L10.5562 12.4537ZM13.8544 12.4537C13.3462 12.4556 12.9375 11.9999 12.9375 11.4262C12.9571 11.248 13.0278 11.0793 13.1412 10.9405C13.2545 10.8016 13.4057 10.6986 13.5763 10.6438C13.747 10.589 13.9299 10.5847 14.1029 10.6316C14.2759 10.6785 14.4316 10.7745 14.5513 10.908C14.6709 11.0415 14.7493 11.2068 14.777 11.3839C14.8048 11.561 14.7806 11.7423 14.7075 11.906C14.6344 12.0696 14.5155 12.2086 14.3651 12.3062C14.2147 12.4037 14.0392 12.4556 13.86 12.4556L13.8544 12.4537Z" fill="#0D1D1C"/>
</g>
<defs>
<clipPath id="clip0_306_1498">
<rect width="24" height="24" fill="white"/>
</clipPath>
</defs>
</svg>
