<svg width="25" height="25" viewBox="0 0 25 25" fill="none" xmlns="http://www.w3.org/2000/svg">
<g clip-path="url(#clip0_306_1372)">
<path d="M24.1771 11.7604L13.2396 0.822929C13.0444 0.628917 12.7804 0.52002 12.5052 0.52002C12.23 0.52002 11.966 0.628917 11.7708 0.822929L0.822929 11.7604C0.628917 11.9556 0.52002 12.2196 0.52002 12.4948C0.52002 12.77 0.628917 13.034 0.822929 13.2292L11.7604 24.1667C11.9556 24.3607 12.2196 24.4696 12.4948 24.4696C12.77 24.4696 13.034 24.3607 13.2292 24.1667L24.1667 13.2292C24.3607 13.034 24.4696 12.77 24.4696 12.4948C24.4696 12.2196 24.3607 11.9556 24.1667 11.7604H24.1771Z" stroke="#0D1D1C" stroke-linecap="round" stroke-linejoin="round"/>
<path d="M8.95837 3.75L11.3959 6.1875" stroke="#0D1D1C" stroke-linecap="round" stroke-linejoin="round"/>
<path d="M12.5 8.85419V16.1459" stroke="#0D1D1C" stroke-linecap="round" stroke-linejoin="round"/>
<path d="M12.5 8.85419C13.3629 8.85419 14.0625 8.15463 14.0625 7.29169C14.0625 6.42874 13.3629 5.72919 12.5 5.72919C11.6371 5.72919 10.9375 6.42874 10.9375 7.29169C10.9375 8.15463 11.6371 8.85419 12.5 8.85419Z" stroke="#0D1D1C" stroke-linecap="round" stroke-linejoin="round"/>
<path d="M17.7084 14.0625C18.5713 14.0625 19.2709 13.3629 19.2709 12.5C19.2709 11.6371 18.5713 10.9375 17.7084 10.9375C16.8454 10.9375 16.1459 11.6371 16.1459 12.5C16.1459 13.3629 16.8454 14.0625 17.7084 14.0625Z" stroke="#0D1D1C" stroke-linecap="round" stroke-linejoin="round"/>
<path d="M12.5 19.2709C13.3629 19.2709 14.0625 18.5713 14.0625 17.7084C14.0625 16.8454 13.3629 16.1459 12.5 16.1459C11.6371 16.1459 10.9375 16.8454 10.9375 17.7084C10.9375 18.5713 11.6371 19.2709 12.5 19.2709Z" stroke="#0D1D1C" stroke-linecap="round" stroke-linejoin="round"/>
<path d="M13.5938 8.40625L16.5938 11.4063" stroke="#0D1D1C" stroke-linecap="round" stroke-linejoin="round"/>
</g>
<defs>
<clipPath id="clip0_306_1372">
<rect width="25" height="25" fill="white"/>
</clipPath>
</defs>
</svg>
