<svg width="25" height="25" viewBox="0 0 25 25" fill="none" xmlns="http://www.w3.org/2000/svg">
<g clip-path="url(#clip0_306_1136)">
<path d="M24.1771 11.7604L13.2396 0.822929C13.0444 0.628917 12.7804 0.52002 12.5052 0.52002C12.23 0.52002 11.966 0.628917 11.7708 0.822929L0.822929 11.7604C0.628917 11.9556 0.52002 12.2196 0.52002 12.4948C0.52002 12.77 0.628917 13.034 0.822929 13.2292L11.7604 24.1667C11.9556 24.3607 12.2196 24.4696 12.4948 24.4696C12.77 24.4696 13.034 24.3607 13.2292 24.1667L24.1667 13.2292C24.3607 13.034 24.4696 12.77 24.4696 12.4948C24.4696 12.2196 24.3607 11.9556 24.1667 11.7604H24.1771Z" stroke="#F8F8F8" stroke-opacity="0.75" stroke-linecap="round" stroke-linejoin="round"/>
<path d="M8.95825 3.75L11.3958 6.1875" stroke="#F8F8F8" stroke-opacity="0.75" stroke-linecap="round" stroke-linejoin="round"/>
<path d="M12.5 8.854V16.1457" stroke="#F8F8F8" stroke-opacity="0.75" stroke-linecap="round" stroke-linejoin="round"/>
<path d="M12.5 8.854C13.3629 8.854 14.0625 8.15445 14.0625 7.2915C14.0625 6.42856 13.3629 5.729 12.5 5.729C11.6371 5.729 10.9375 6.42856 10.9375 7.2915C10.9375 8.15445 11.6371 8.854 12.5 8.854Z" stroke="#F8F8F8" stroke-opacity="0.75" stroke-linecap="round" stroke-linejoin="round"/>
<path d="M17.7083 14.0625C18.5712 14.0625 19.2708 13.3629 19.2708 12.5C19.2708 11.6371 18.5712 10.9375 17.7083 10.9375C16.8453 10.9375 16.1458 11.6371 16.1458 12.5C16.1458 13.3629 16.8453 14.0625 17.7083 14.0625Z" stroke="#F8F8F8" stroke-opacity="0.75" stroke-linecap="round" stroke-linejoin="round"/>
<path d="M12.5 19.271C13.3629 19.271 14.0625 18.5714 14.0625 17.7085C14.0625 16.8456 13.3629 16.146 12.5 16.146C11.6371 16.146 10.9375 16.8456 10.9375 17.7085C10.9375 18.5714 11.6371 19.271 12.5 19.271Z" stroke="#F8F8F8" stroke-opacity="0.75" stroke-linecap="round" stroke-linejoin="round"/>
<path d="M13.5938 8.40625L16.5938 11.4063" stroke="#F8F8F8" stroke-opacity="0.75" stroke-linecap="round" stroke-linejoin="round"/>
</g>
<defs>
<clipPath id="clip0_306_1136">
<rect width="25" height="25" fill="white"/>
</clipPath>
</defs>
</svg>
