<svg width="617" height="376" viewBox="0 0 617 376" fill="none" xmlns="http://www.w3.org/2000/svg">
<path d="M73 2.5C69.9624 2.5 67.5 4.96243 67.5 7.99999V214C67.5 217.038 69.9624 219.5 73 219.5H611C614.038 219.5 616.5 217.038 616.5 214V8C616.5 4.96243 614.038 2.5 611 2.5H73Z" fill="#111C1B" stroke="#0D2D2A"/>
<rect x="452" y="47" width="128" height="48" rx="5" fill="#0D2D2A"/>
<g clip-path="url(#clip0_306_821)">
<path d="M478 63.5C473.856 63.5 470.5 66.8562 470.5 71C470.5 75.1438 473.856 78.5 478 78.5C482.144 78.5 485.5 75.1438 485.5 71C485.5 66.8562 482.144 63.5 478 63.5ZM481.75 71.75H478.75V74.75H477.25V71.75H474.25V70.25H477.25V67.25H478.75V70.25H481.75V71.75Z" fill="#ADF0DD"/>
</g>
<path d="M496.979 76H495.348L499.012 65.8182H500.787L504.451 76H502.82L499.942 67.6676H499.862L496.979 76ZM497.252 72.0128H502.542V73.3054H497.252V72.0128ZM508.818 76.1491C508.201 76.1491 507.651 75.9917 507.167 75.6768C506.686 75.3587 506.309 74.9062 506.034 74.3196C505.762 73.7296 505.626 73.022 505.626 72.1967C505.626 71.3714 505.763 70.6655 506.039 70.0788C506.317 69.4922 506.698 69.0431 507.182 68.7315C507.666 68.42 508.214 68.2642 508.828 68.2642C509.302 68.2642 509.683 68.3438 509.971 68.5028C510.263 68.6586 510.488 68.8409 510.647 69.0497C510.81 69.2585 510.936 69.4425 511.025 69.6016H511.115V65.8182H512.601V76H511.149V74.8118H511.025C510.936 74.9742 510.806 75.1598 510.637 75.3686C510.472 75.5774 510.243 75.7597 509.951 75.9155C509.659 76.0713 509.282 76.1491 508.818 76.1491ZM509.146 74.8814C509.573 74.8814 509.935 74.7687 510.23 74.5433C510.528 74.3146 510.753 73.9981 510.906 73.5938C511.061 73.1894 511.139 72.7187 511.139 72.1818C511.139 71.6515 511.063 71.1875 510.911 70.7898C510.758 70.392 510.534 70.0821 510.24 69.8601C509.945 69.638 509.58 69.527 509.146 69.527C508.698 69.527 508.325 69.643 508.027 69.875C507.729 70.107 507.503 70.4235 507.351 70.8246C507.202 71.2256 507.127 71.678 507.127 72.1818C507.127 72.6922 507.204 73.1513 507.356 73.5589C507.508 73.9666 507.734 74.2898 508.032 74.5284C508.334 74.7637 508.705 74.8814 509.146 74.8814ZM517.861 76.1491C517.245 76.1491 516.695 75.9917 516.211 75.6768C515.73 75.3587 515.352 74.9062 515.077 74.3196C514.805 73.7296 514.67 73.022 514.67 72.1967C514.67 71.3714 514.807 70.6655 515.082 70.0788C515.361 69.4922 515.742 69.0431 516.226 68.7315C516.71 68.42 517.258 68.2642 517.871 68.2642C518.345 68.2642 518.726 68.3438 519.015 68.5028C519.306 68.6586 519.532 68.8409 519.691 69.0497C519.853 69.2585 519.979 69.4425 520.069 69.6016H520.158V65.8182H521.645V76H520.193V74.8118H520.069C519.979 74.9742 519.85 75.1598 519.681 75.3686C519.515 75.5774 519.287 75.7597 518.995 75.9155C518.703 76.0713 518.325 76.1491 517.861 76.1491ZM518.189 74.8814C518.617 74.8814 518.978 74.7687 519.273 74.5433C519.572 74.3146 519.797 73.9981 519.949 73.5938C520.105 73.1894 520.183 72.7187 520.183 72.1818C520.183 71.6515 520.107 71.1875 519.954 70.7898C519.802 70.392 519.578 70.0821 519.283 69.8601C518.988 69.638 518.624 69.527 518.189 69.527C517.742 69.527 517.369 69.643 517.071 69.875C516.773 70.107 516.547 70.4235 516.395 70.8246C516.246 71.2256 516.171 71.678 516.171 72.1818C516.171 72.6922 516.247 73.1513 516.4 73.5589C516.552 73.9666 516.778 74.2898 517.076 74.5284C517.377 74.7637 517.749 74.8814 518.189 74.8814ZM528.151 65.8182H530.015L533.257 73.733H533.376L536.617 65.8182H538.482V76H537.02V68.6321H536.926L533.923 75.9851H532.71L529.707 68.6271H529.612V76H528.151V65.8182ZM544.092 76.1541C543.377 76.1541 542.752 75.9901 542.218 75.6619C541.685 75.3338 541.27 74.8748 540.975 74.2848C540.68 73.6948 540.533 73.0054 540.533 72.2166C540.533 71.4245 540.68 70.7318 540.975 70.1385C541.27 69.5452 541.685 69.0845 542.218 68.7564C542.752 68.4283 543.377 68.2642 544.092 68.2642C544.808 68.2642 545.433 68.4283 545.967 68.7564C546.5 69.0845 546.915 69.5452 547.21 70.1385C547.505 70.7318 547.652 71.4245 547.652 72.2166C547.652 73.0054 547.505 73.6948 547.21 74.2848C546.915 74.8748 546.5 75.3338 545.967 75.6619C545.433 75.9901 544.808 76.1541 544.092 76.1541ZM544.097 74.9062C544.561 74.9062 544.946 74.7836 545.251 74.5384C545.556 74.2931 545.781 73.9666 545.927 73.5589C546.076 73.1513 546.151 72.7022 546.151 72.2116C546.151 71.7244 546.076 71.277 545.927 70.8693C545.781 70.4583 545.556 70.1286 545.251 69.88C544.946 69.6314 544.561 69.5071 544.097 69.5071C543.63 69.5071 543.242 69.6314 542.934 69.88C542.629 70.1286 542.402 70.4583 542.253 70.8693C542.107 71.277 542.034 71.7244 542.034 72.2116C542.034 72.7022 542.107 73.1513 542.253 73.5589C542.402 73.9666 542.629 74.2931 542.934 74.5384C543.242 74.7836 543.63 74.9062 544.097 74.9062ZM549.591 76V68.3636H551.028V69.5767H551.108C551.247 69.1657 551.492 68.8426 551.844 68.6072C552.198 68.3686 552.599 68.2493 553.047 68.2493C553.139 68.2493 553.249 68.2526 553.375 68.2592C553.504 68.2659 553.605 68.2741 553.678 68.2841V69.706C553.618 69.6894 553.512 69.6712 553.36 69.6513C553.207 69.6281 553.055 69.6165 552.902 69.6165C552.551 69.6165 552.238 69.6911 551.963 69.8402C551.691 69.986 551.476 70.1899 551.317 70.4517C551.157 70.7102 551.078 71.0052 551.078 71.3366V76H549.591ZM558.262 76.1541C557.51 76.1541 556.862 75.9934 556.318 75.6719C555.778 75.3471 555.36 74.8913 555.065 74.3047C554.774 73.7147 554.628 73.0237 554.628 72.2315C554.628 71.4493 554.774 70.7599 555.065 70.1634C555.36 69.5668 555.771 69.1011 556.298 68.7663C556.829 68.4316 557.449 68.2642 558.158 68.2642C558.589 68.2642 559.006 68.3355 559.411 68.478C559.815 68.6205 560.178 68.8442 560.499 69.1491C560.821 69.4541 561.074 69.8501 561.26 70.3374C561.446 70.8213 561.538 71.4096 561.538 72.1023V72.6293H555.468V71.5156H560.082C560.082 71.1245 560.002 70.7782 559.843 70.4766C559.684 70.1716 559.46 69.9313 559.172 69.7557C558.887 69.58 558.552 69.4922 558.168 69.4922C557.75 69.4922 557.386 69.5949 557.074 69.8004C556.766 70.0026 556.527 70.2678 556.358 70.5959C556.192 70.9207 556.11 71.2737 556.11 71.6548V72.5249C556.11 73.0353 556.199 73.4695 556.378 73.8274C556.56 74.1854 556.814 74.4588 557.139 74.6477C557.463 74.8333 557.843 74.9261 558.277 74.9261C558.559 74.9261 558.816 74.8864 559.048 74.8068C559.28 74.724 559.48 74.6013 559.649 74.4389C559.818 74.2765 559.948 74.076 560.037 73.8374L561.444 74.0909C561.331 74.5052 561.129 74.8681 560.837 75.1797C560.549 75.4879 560.186 75.7282 559.749 75.9006C559.315 76.0696 558.819 76.1541 558.262 76.1541Z" fill="#ADF0DD"/>
<path d="M107.119 80.8182H108.983L112.224 88.733H112.344L115.585 80.8182H117.45V91H115.988V83.6321H115.893L112.891 90.9851H111.678L108.675 83.6271H108.58V91H107.119V80.8182ZM123.06 91.1541C122.344 91.1541 121.72 90.9901 121.186 90.6619C120.652 90.3338 120.238 89.8748 119.943 89.2848C119.648 88.6948 119.501 88.0054 119.501 87.2166C119.501 86.4245 119.648 85.7318 119.943 85.1385C120.238 84.5452 120.652 84.0845 121.186 83.7564C121.72 83.4283 122.344 83.2642 123.06 83.2642C123.776 83.2642 124.401 83.4283 124.935 83.7564C125.468 84.0845 125.883 84.5452 126.178 85.1385C126.473 85.7318 126.62 86.4245 126.62 87.2166C126.62 88.0054 126.473 88.6948 126.178 89.2848C125.883 89.8748 125.468 90.3338 124.935 90.6619C124.401 90.9901 123.776 91.1541 123.06 91.1541ZM123.065 89.9062C123.529 89.9062 123.914 89.7836 124.219 89.5384C124.524 89.2931 124.749 88.9666 124.895 88.5589C125.044 88.1513 125.119 87.7022 125.119 87.2116C125.119 86.7244 125.044 86.277 124.895 85.8693C124.749 85.4583 124.524 85.1286 124.219 84.88C123.914 84.6314 123.529 84.5071 123.065 84.5071C122.598 84.5071 122.21 84.6314 121.902 84.88C121.597 85.1286 121.37 85.4583 121.221 85.8693C121.075 86.277 121.002 86.7244 121.002 87.2116C121.002 87.7022 121.075 88.1513 121.221 88.5589C121.37 88.9666 121.597 89.2931 121.902 89.5384C122.21 89.7836 122.598 89.9062 123.065 89.9062ZM130.046 86.4659V91H128.559V83.3636H129.986V84.6065H130.081C130.256 84.2022 130.531 83.8774 130.906 83.6321C131.284 83.3868 131.759 83.2642 132.333 83.2642C132.853 83.2642 133.309 83.3736 133.7 83.5923C134.091 83.8078 134.394 84.1293 134.61 84.5568C134.825 84.9844 134.933 85.513 134.933 86.1428V91H133.446V86.3217C133.446 85.7682 133.302 85.3357 133.014 85.0241C132.725 84.7093 132.329 84.5518 131.826 84.5518C131.481 84.5518 131.174 84.6264 130.906 84.7756C130.641 84.9247 130.43 85.1435 130.274 85.4318C130.122 85.7169 130.046 86.0616 130.046 86.4659ZM140.771 83.3636V84.5568H136.6V83.3636H140.771ZM137.719 81.5341H139.205V88.7578C139.205 89.0462 139.248 89.2633 139.334 89.4091C139.42 89.5516 139.532 89.6494 139.667 89.7024C139.807 89.7521 139.957 89.777 140.12 89.777C140.239 89.777 140.344 89.7687 140.433 89.7521C140.523 89.7356 140.592 89.7223 140.642 89.7124L140.91 90.9403C140.824 90.9735 140.702 91.0066 140.542 91.0398C140.383 91.0762 140.184 91.0961 139.946 91.0994C139.555 91.1061 139.19 91.0365 138.852 90.8906C138.514 90.7448 138.241 90.5194 138.032 90.2145C137.823 89.9096 137.719 89.5268 137.719 89.0661V81.5341ZM144.346 86.4659V91H142.86V80.8182H144.326V84.6065H144.421C144.6 84.1955 144.873 83.8691 145.241 83.6271C145.609 83.3852 146.089 83.2642 146.683 83.2642C147.206 83.2642 147.664 83.3719 148.055 83.5874C148.449 83.8028 148.754 84.1243 148.97 84.5518C149.188 84.9761 149.298 85.5064 149.298 86.1428V91H147.811V86.3217C147.811 85.7616 147.667 85.3274 147.379 85.0192C147.09 84.7076 146.689 84.5518 146.176 84.5518C145.824 84.5518 145.509 84.6264 145.231 84.7756C144.956 84.9247 144.739 85.1435 144.58 85.4318C144.424 85.7169 144.346 86.0616 144.346 86.4659ZM153.048 80.8182V91H151.561V80.8182H153.048ZM156.267 93.8636C156.045 93.8636 155.843 93.8454 155.661 93.8089C155.479 93.7758 155.343 93.7393 155.253 93.6996L155.611 92.4815C155.883 92.5545 156.125 92.5859 156.337 92.576C156.549 92.5661 156.736 92.4865 156.899 92.3374C157.064 92.1882 157.21 91.9446 157.336 91.6065L157.52 91.0994L154.726 83.3636H156.317L158.251 89.2898H158.331L160.265 83.3636H161.86L158.713 92.0192C158.568 92.4169 158.382 92.7533 158.157 93.0284C157.931 93.3068 157.663 93.5156 157.351 93.6548C157.04 93.794 156.678 93.8636 156.267 93.8636ZM170.381 91.1491C169.765 91.1491 169.214 90.9917 168.731 90.6768C168.25 90.3587 167.872 89.9062 167.597 89.3196C167.325 88.7296 167.189 88.022 167.189 87.1967C167.189 86.3714 167.327 85.6655 167.602 85.0788C167.88 84.4922 168.262 84.0431 168.746 83.7315C169.229 83.42 169.778 83.2642 170.391 83.2642C170.865 83.2642 171.246 83.3438 171.535 83.5028C171.826 83.6586 172.052 83.8409 172.211 84.0497C172.373 84.2585 172.499 84.4425 172.589 84.6016H172.678V80.8182H174.165V91H172.713V89.8118H172.589C172.499 89.9742 172.37 90.1598 172.201 90.3686C172.035 90.5774 171.806 90.7597 171.515 90.9155C171.223 91.0713 170.845 91.1491 170.381 91.1491ZM170.709 89.8814C171.137 89.8814 171.498 89.7687 171.793 89.5433C172.091 89.3146 172.317 88.9981 172.469 88.5938C172.625 88.1894 172.703 87.7187 172.703 87.1818C172.703 86.6515 172.627 86.1875 172.474 85.7898C172.322 85.392 172.098 85.0821 171.803 84.8601C171.508 84.638 171.143 84.527 170.709 84.527C170.262 84.527 169.889 84.643 169.591 84.875C169.292 85.107 169.067 85.4235 168.915 85.8246C168.765 86.2256 168.691 86.678 168.691 87.1818C168.691 87.6922 168.767 88.1513 168.92 88.5589C169.072 88.9666 169.297 89.2898 169.596 89.5284C169.897 89.7637 170.268 89.8814 170.709 89.8814ZM179.783 91.1541C179.067 91.1541 178.442 90.9901 177.908 90.6619C177.375 90.3338 176.961 89.8748 176.666 89.2848C176.371 88.6948 176.223 88.0054 176.223 87.2166C176.223 86.4245 176.371 85.7318 176.666 85.1385C176.961 84.5452 177.375 84.0845 177.908 83.7564C178.442 83.4283 179.067 83.2642 179.783 83.2642C180.499 83.2642 181.123 83.4283 181.657 83.7564C182.191 84.0845 182.605 84.5452 182.9 85.1385C183.195 85.7318 183.342 86.4245 183.342 87.2166C183.342 88.0054 183.195 88.6948 182.9 89.2848C182.605 89.8748 182.191 90.3338 181.657 90.6619C181.123 90.9901 180.499 91.1541 179.783 91.1541ZM179.788 89.9062C180.252 89.9062 180.636 89.7836 180.941 89.5384C181.246 89.2931 181.471 88.9666 181.617 88.5589C181.766 88.1513 181.841 87.7022 181.841 87.2116C181.841 86.7244 181.766 86.277 181.617 85.8693C181.471 85.4583 181.246 85.1286 180.941 84.88C180.636 84.6314 180.252 84.5071 179.788 84.5071C179.32 84.5071 178.933 84.6314 178.624 84.88C178.319 85.1286 178.092 85.4583 177.943 85.8693C177.797 86.277 177.725 86.7244 177.725 87.2116C177.725 87.7022 177.797 88.1513 177.943 88.5589C178.092 88.9666 178.319 89.2931 178.624 89.5384C178.933 89.7836 179.32 89.9062 179.788 89.9062ZM186.705 91L184.458 83.3636H185.994L187.49 88.9716H187.565L189.066 83.3636H190.603L192.094 88.9467H192.169L193.655 83.3636H195.191L192.949 91H191.433L189.882 85.4865H189.767L188.216 91H186.705ZM198.369 86.4659V91H196.882V83.3636H198.309V84.6065H198.403C198.579 84.2022 198.854 83.8774 199.229 83.6321C199.606 83.3868 200.082 83.2642 200.655 83.2642C201.176 83.2642 201.632 83.3736 202.023 83.5923C202.414 83.8078 202.717 84.1293 202.932 84.5568C203.148 84.9844 203.256 85.513 203.256 86.1428V91H201.769V86.3217C201.769 85.7682 201.625 85.3357 201.337 85.0241C201.048 84.7093 200.652 84.5518 200.148 84.5518C199.804 84.5518 199.497 84.6264 199.229 84.7756C198.963 84.9247 198.753 85.1435 198.597 85.4318C198.445 85.7169 198.369 86.0616 198.369 86.4659ZM207.016 80.8182V91H205.529V80.8182H207.016ZM212.512 91.1541C211.796 91.1541 211.171 90.9901 210.638 90.6619C210.104 90.3338 209.69 89.8748 209.395 89.2848C209.1 88.6948 208.952 88.0054 208.952 87.2166C208.952 86.4245 209.1 85.7318 209.395 85.1385C209.69 84.5452 210.104 84.0845 210.638 83.7564C211.171 83.4283 211.796 83.2642 212.512 83.2642C213.228 83.2642 213.853 83.4283 214.386 83.7564C214.92 84.0845 215.334 84.5452 215.629 85.1385C215.924 85.7318 216.072 86.4245 216.072 87.2166C216.072 88.0054 215.924 88.6948 215.629 89.2848C215.334 89.8748 214.92 90.3338 214.386 90.6619C213.853 90.9901 213.228 91.1541 212.512 91.1541ZM212.517 89.9062C212.981 89.9062 213.366 89.7836 213.671 89.5384C213.975 89.2931 214.201 88.9666 214.347 88.5589C214.496 88.1513 214.57 87.7022 214.57 87.2116C214.57 86.7244 214.496 86.277 214.347 85.8693C214.201 85.4583 213.975 85.1286 213.671 84.88C213.366 84.6314 212.981 84.5071 212.517 84.5071C212.05 84.5071 211.662 84.6314 211.354 84.88C211.049 85.1286 210.822 85.4583 210.673 85.8693C210.527 86.277 210.454 86.7244 210.454 87.2116C210.454 87.7022 210.527 88.1513 210.673 88.5589C210.822 88.9666 211.049 89.2931 211.354 89.5384C211.662 89.7836 212.05 89.9062 212.517 89.9062ZM220.233 91.169C219.749 91.169 219.312 91.0795 218.921 90.9006C218.53 90.7183 218.22 90.4548 217.991 90.1101C217.766 89.7654 217.653 89.3428 217.653 88.8423C217.653 88.4115 217.736 88.0568 217.902 87.7784C218.067 87.5 218.291 87.2796 218.573 87.1172C218.855 86.9548 219.169 86.8321 219.517 86.7493C219.865 86.6664 220.22 86.6035 220.581 86.5604C221.039 86.5073 221.41 86.4643 221.695 86.4311C221.98 86.3946 222.187 86.3366 222.316 86.2571C222.446 86.1776 222.51 86.0483 222.51 85.8693V85.8345C222.51 85.4003 222.388 85.0639 222.142 84.8253C221.901 84.5866 221.539 84.4673 221.059 84.4673C220.558 84.4673 220.164 84.5784 219.875 84.8004C219.59 85.0192 219.393 85.2628 219.284 85.5312L217.887 85.2131C218.053 84.7491 218.294 84.3745 218.613 84.0895C218.934 83.8011 219.304 83.5923 219.721 83.4631C220.139 83.3305 220.578 83.2642 221.039 83.2642C221.344 83.2642 221.667 83.3007 222.008 83.3736C222.353 83.4432 222.674 83.5724 222.973 83.7614C223.274 83.9503 223.521 84.2204 223.713 84.5717C223.906 84.9197 224.002 85.3722 224.002 85.929V91H222.55V89.956H222.49C222.394 90.1482 222.25 90.3371 222.058 90.5227C221.866 90.7083 221.619 90.8625 221.317 90.9851C221.016 91.1077 220.654 91.169 220.233 91.169ZM220.557 89.9759C220.968 89.9759 221.319 89.8946 221.611 89.7322C221.905 89.5698 222.129 89.3577 222.282 89.0959C222.437 88.8307 222.515 88.5473 222.515 88.2457V87.2614C222.462 87.3144 222.36 87.3641 222.207 87.4105C222.058 87.4536 221.887 87.4917 221.695 87.5249C221.503 87.5547 221.316 87.5829 221.133 87.6094C220.951 87.6326 220.798 87.6525 220.676 87.669C220.388 87.7055 220.124 87.7668 219.885 87.853C219.65 87.9392 219.461 88.0634 219.319 88.2259C219.179 88.3849 219.11 88.5971 219.11 88.8622C219.11 89.2301 219.246 89.5085 219.517 89.6974C219.789 89.883 220.136 89.9759 220.557 89.9759ZM229.12 91.1491C228.504 91.1491 227.954 90.9917 227.47 90.6768C226.989 90.3587 226.611 89.9062 226.336 89.3196C226.065 88.7296 225.929 88.022 225.929 87.1967C225.929 86.3714 226.066 85.6655 226.341 85.0788C226.62 84.4922 227.001 84.0431 227.485 83.7315C227.969 83.42 228.517 83.2642 229.13 83.2642C229.604 83.2642 229.986 83.3438 230.274 83.5028C230.566 83.6586 230.791 83.8409 230.95 84.0497C231.112 84.2585 231.238 84.4425 231.328 84.6016H231.417V80.8182H232.904V91H231.452V89.8118H231.328C231.238 89.9742 231.109 90.1598 230.94 90.3686C230.774 90.5774 230.546 90.7597 230.254 90.9155C229.962 91.0713 229.584 91.1491 229.12 91.1491ZM229.449 89.8814C229.876 89.8814 230.237 89.7687 230.532 89.5433C230.831 89.3146 231.056 88.9981 231.209 88.5938C231.364 88.1894 231.442 87.7187 231.442 87.1818C231.442 86.6515 231.366 86.1875 231.213 85.7898C231.061 85.392 230.837 85.0821 230.542 84.8601C230.247 84.638 229.883 84.527 229.449 84.527C229.001 84.527 228.628 84.643 228.33 84.875C228.032 85.107 227.806 85.4235 227.654 85.8246C227.505 86.2256 227.43 86.678 227.43 87.1818C227.43 87.6922 227.506 88.1513 227.659 88.5589C227.811 88.9666 228.037 89.2898 228.335 89.5284C228.637 89.7637 229.008 89.8814 229.449 89.8814ZM240.777 80.8182V91H239.291V80.8182H240.777ZM243.057 91V83.3636H244.543V91H243.057ZM243.808 82.1854C243.549 82.1854 243.327 82.0992 243.141 81.9268C242.959 81.7512 242.868 81.5424 242.868 81.3004C242.868 81.0552 242.959 80.8464 243.141 80.674C243.327 80.4983 243.549 80.4105 243.808 80.4105C244.066 80.4105 244.287 80.4983 244.469 80.674C244.654 80.8464 244.747 81.0552 244.747 81.3004C244.747 81.5424 244.654 81.7512 244.469 81.9268C244.287 82.0992 244.066 82.1854 243.808 82.1854ZM246.823 91V83.3636H248.25V84.6065H248.345C248.504 84.1856 248.764 83.8575 249.125 83.6222C249.486 83.3835 249.919 83.2642 250.423 83.2642C250.933 83.2642 251.361 83.3835 251.705 83.6222C252.053 83.8608 252.31 84.1889 252.476 84.6065H252.555C252.738 84.1989 253.028 83.8741 253.425 83.6321C253.823 83.3868 254.297 83.2642 254.847 83.2642C255.54 83.2642 256.105 83.4813 256.543 83.9155C256.983 84.3497 257.204 85.0043 257.204 85.8793V91H255.717V86.0185C255.717 85.5014 255.577 85.1269 255.295 84.8949C255.013 84.6629 254.677 84.5469 254.286 84.5469C253.802 84.5469 253.425 84.696 253.157 84.9943C252.889 85.2893 252.754 85.6688 252.754 86.1328V91H251.273V85.924C251.273 85.5097 251.144 85.1766 250.885 84.9247C250.626 84.6728 250.29 84.5469 249.876 84.5469C249.594 84.5469 249.334 84.6214 249.095 84.7706C248.86 84.9164 248.669 85.1203 248.523 85.3821C248.381 85.6439 248.31 85.9472 248.31 86.2919V91H246.823ZM259.476 91V83.3636H260.963V91H259.476ZM260.227 82.1854C259.968 82.1854 259.746 82.0992 259.561 81.9268C259.378 81.7512 259.287 81.5424 259.287 81.3004C259.287 81.0552 259.378 80.8464 259.561 80.674C259.746 80.4983 259.968 80.4105 260.227 80.4105C260.485 80.4105 260.706 80.4983 260.888 80.674C261.074 80.8464 261.167 81.0552 261.167 81.3004C261.167 81.5424 261.074 81.7512 260.888 81.9268C260.706 82.0992 260.485 82.1854 260.227 82.1854ZM266.807 83.3636V84.5568H262.636V83.3636H266.807ZM263.755 81.5341H265.241V88.7578C265.241 89.0462 265.284 89.2633 265.37 89.4091C265.457 89.5516 265.568 89.6494 265.704 89.7024C265.843 89.7521 265.994 89.777 266.156 89.777C266.275 89.777 266.38 89.7687 266.469 89.7521C266.559 89.7356 266.628 89.7223 266.678 89.7124L266.946 90.9403C266.86 90.9735 266.738 91.0066 266.579 91.0398C266.419 91.0762 266.221 91.0961 265.982 91.0994C265.591 91.1061 265.226 91.0365 264.888 90.8906C264.55 90.7448 264.277 90.5194 264.068 90.2145C263.859 89.9096 263.755 89.5268 263.755 89.0661V81.5341ZM272.717 91V83.3636H274.203V91H272.717ZM273.467 82.1854C273.209 82.1854 272.987 82.0992 272.801 81.9268C272.619 81.7512 272.528 81.5424 272.528 81.3004C272.528 81.0552 272.619 80.8464 272.801 80.674C272.987 80.4983 273.209 80.4105 273.467 80.4105C273.726 80.4105 273.946 80.4983 274.129 80.674C274.314 80.8464 274.407 81.0552 274.407 81.3004C274.407 81.5424 274.314 81.7512 274.129 81.9268C273.946 82.0992 273.726 82.1854 273.467 82.1854ZM282.205 85.228L280.858 85.4666C280.802 85.2943 280.712 85.1302 280.589 84.9744C280.47 84.8187 280.308 84.6911 280.102 84.5916C279.897 84.4922 279.64 84.4425 279.332 84.4425C278.911 84.4425 278.559 84.5369 278.278 84.7259C277.996 84.9115 277.855 85.1518 277.855 85.4467C277.855 85.7019 277.95 85.9074 278.139 86.0632C278.327 86.219 278.632 86.3466 279.053 86.446L280.266 86.7244C280.969 86.8868 281.493 87.1371 281.837 87.4751C282.182 87.8132 282.354 88.2524 282.354 88.7926C282.354 89.25 282.222 89.6577 281.957 90.0156C281.695 90.3703 281.329 90.6487 280.858 90.8509C280.391 91.053 279.849 91.1541 279.232 91.1541C278.377 91.1541 277.679 90.9718 277.139 90.6072C276.599 90.2393 276.268 89.7173 276.145 89.0412L277.582 88.8224C277.671 89.197 277.855 89.4804 278.134 89.6726C278.412 89.8615 278.775 89.956 279.222 89.956C279.71 89.956 280.099 89.8549 280.391 89.6527C280.682 89.4472 280.828 89.197 280.828 88.902C280.828 88.6634 280.739 88.4628 280.56 88.3004C280.384 88.138 280.114 88.0154 279.749 87.9325L278.457 87.6491C277.744 87.4867 277.217 87.2282 276.876 86.8736C276.538 86.5189 276.369 86.0698 276.369 85.5263C276.369 85.0755 276.495 84.6811 276.746 84.343C276.998 84.005 277.346 83.7415 277.79 83.5526C278.235 83.3603 278.743 83.2642 279.317 83.2642C280.142 83.2642 280.792 83.4432 281.266 83.8011C281.74 84.1558 282.053 84.6314 282.205 85.228ZM292.097 80.8182V91H290.556V82.3594H290.496L288.06 83.9503V82.4787L290.6 80.8182H292.097ZM298.676 91.169C297.89 91.1657 297.219 90.9586 296.662 90.5476C296.106 90.1366 295.68 89.5384 295.385 88.7528C295.09 87.9673 294.942 87.0211 294.942 85.9141C294.942 84.8104 295.09 83.8674 295.385 83.0852C295.683 82.303 296.111 81.7064 296.667 81.2955C297.228 80.8845 297.897 80.679 298.676 80.679C299.455 80.679 300.123 80.8861 300.679 81.3004C301.236 81.7114 301.662 82.308 301.957 83.0902C302.255 83.8691 302.405 84.8104 302.405 85.9141C302.405 87.0244 302.257 87.9723 301.962 88.7578C301.667 89.54 301.241 90.1383 300.684 90.5526C300.128 90.9635 299.458 91.169 298.676 91.169ZM298.676 89.8416C299.365 89.8416 299.904 89.5052 300.292 88.8324C300.683 88.1596 300.878 87.1868 300.878 85.9141C300.878 85.0689 300.789 84.3546 300.61 83.7713C300.434 83.1847 300.181 82.7405 299.849 82.4389C299.521 82.134 299.13 81.9815 298.676 81.9815C297.99 81.9815 297.451 82.3196 297.06 82.9957C296.669 83.6719 296.472 84.6446 296.469 85.9141C296.469 86.7625 296.556 87.4801 296.732 88.0668C296.911 88.6501 297.165 89.0926 297.493 89.3942C297.821 89.6925 298.215 89.8416 298.676 89.8416ZM315.463 84.0348C315.367 83.7332 315.238 83.4631 315.075 83.2244C314.916 82.9825 314.726 82.777 314.504 82.608C314.282 82.4356 314.028 82.3047 313.743 82.2152C313.461 82.1257 313.151 82.081 312.813 82.081C312.24 82.081 311.723 82.2285 311.262 82.5234C310.802 82.8184 310.437 83.2509 310.168 83.821C309.903 84.3878 309.771 85.0821 309.771 85.9041C309.771 86.7294 309.905 87.4271 310.173 87.9972C310.442 88.5672 310.81 88.9998 311.277 89.2947C311.744 89.5897 312.276 89.7372 312.873 89.7372C313.427 89.7372 313.909 89.6245 314.32 89.3991C314.734 89.1738 315.054 88.8556 315.279 88.4446C315.508 88.0303 315.622 87.5431 315.622 86.983L316.02 87.0575H313.107V85.7898H317.109V86.9482C317.109 87.8033 316.927 88.5457 316.562 89.1754C316.201 89.8018 315.7 90.2857 315.061 90.6271C314.424 90.9685 313.695 91.1392 312.873 91.1392C311.952 91.1392 311.143 90.9271 310.447 90.5028C309.754 90.0786 309.214 89.477 308.826 88.6982C308.438 87.916 308.244 86.9879 308.244 85.9141C308.244 85.102 308.357 84.3729 308.583 83.7266C308.808 83.0803 309.124 82.5317 309.532 82.081C309.943 81.6269 310.425 81.2805 310.979 81.0419C311.536 80.8 312.144 80.679 312.803 80.679C313.354 80.679 313.866 80.7602 314.34 80.9226C314.817 81.085 315.241 81.3153 315.612 81.6136C315.987 81.9119 316.297 82.2666 316.542 82.6776C316.787 83.0852 316.953 83.5376 317.039 84.0348H315.463ZM319.339 91V80.8182H323.068C323.79 80.8182 324.388 80.9375 324.862 81.1761C325.336 81.4115 325.691 81.7313 325.926 82.1357C326.162 82.5367 326.279 82.9891 326.279 83.4929C326.279 83.9171 326.201 84.2751 326.046 84.5668C325.89 84.8551 325.681 85.0871 325.419 85.2628C325.161 85.4351 324.876 85.5611 324.564 85.6406V85.7401C324.902 85.7566 325.232 85.866 325.553 86.0682C325.878 86.267 326.147 86.5504 326.359 86.9183C326.571 87.2862 326.677 87.7337 326.677 88.2607C326.677 88.781 326.554 89.2483 326.309 89.6626C326.067 90.0736 325.693 90.4001 325.186 90.642C324.678 90.8807 324.03 91 323.242 91H319.339ZM320.875 89.6825H323.092C323.828 89.6825 324.355 89.54 324.673 89.255C324.992 88.9699 325.151 88.6136 325.151 88.1861C325.151 87.8646 325.07 87.5696 324.907 87.3011C324.745 87.0327 324.513 86.8189 324.211 86.6598C323.913 86.5007 323.558 86.4212 323.147 86.4212H320.875V89.6825ZM320.875 85.223H322.933C323.278 85.223 323.588 85.1567 323.863 85.0241C324.141 84.8916 324.362 84.706 324.524 84.4673C324.69 84.2254 324.773 83.9403 324.773 83.6122C324.773 83.1913 324.625 82.8383 324.33 82.5533C324.035 82.2682 323.583 82.1257 322.973 82.1257H320.875V85.223Z" fill="#ADF0DD" fill-opacity="0.65"/>
<path d="M144.682 64H139.506V48.7273H144.786C146.303 48.7273 147.605 49.033 148.694 49.6445C149.788 50.2511 150.628 51.1236 151.214 52.2621C151.801 53.4006 152.094 54.7628 152.094 56.3487C152.094 57.9396 151.799 59.3068 151.207 60.4503C150.62 61.5937 149.773 62.4712 148.664 63.0827C147.56 63.6942 146.233 64 144.682 64ZM142.273 61.6062H144.548C145.612 61.6062 146.499 61.4123 147.21 61.0245C147.921 60.6317 148.455 60.0476 148.813 59.272C149.171 58.4915 149.35 57.517 149.35 56.3487C149.35 55.1804 149.171 54.2109 148.813 53.4403C148.455 52.6648 147.926 52.0856 147.225 51.7028C146.529 51.315 145.664 51.1211 144.63 51.1211H142.273V61.6062ZM159.6 64.2237C158.482 64.2237 157.512 63.9776 156.692 63.4854C155.872 62.9933 155.235 62.3047 154.783 61.4197C154.335 60.5348 154.112 59.5007 154.112 58.3175C154.112 57.1342 154.335 56.0977 154.783 55.2077C155.235 54.3178 155.872 53.6268 156.692 53.1346C157.512 52.6424 158.482 52.3963 159.6 52.3963C160.719 52.3963 161.688 52.6424 162.509 53.1346C163.329 53.6268 163.963 54.3178 164.41 55.2077C164.863 56.0977 165.089 57.1342 165.089 58.3175C165.089 59.5007 164.863 60.5348 164.41 61.4197C163.963 62.3047 163.329 62.9933 162.509 63.4854C161.688 63.9776 160.719 64.2237 159.6 64.2237ZM159.615 62.0611C160.222 62.0611 160.729 61.8945 161.137 61.5614C161.544 61.2234 161.847 60.771 162.046 60.2042C162.25 59.6374 162.352 59.006 162.352 58.31C162.352 57.609 162.25 56.9751 162.046 56.4084C161.847 55.8366 161.544 55.3817 161.137 55.0437C160.729 54.7056 160.222 54.5366 159.615 54.5366C158.994 54.5366 158.477 54.7056 158.064 55.0437C157.656 55.3817 157.351 55.8366 157.147 56.4084C156.948 56.9751 156.849 57.609 156.849 58.31C156.849 59.006 156.948 59.6374 157.147 60.2042C157.351 60.771 157.656 61.2234 158.064 61.5614C158.477 61.8945 158.994 62.0611 159.615 62.0611ZM169.416 64L166.18 52.5455H168.931L170.945 60.5994H171.049L173.108 52.5455H175.829L177.888 60.5547H178L179.983 52.5455H182.742L179.498 64H176.687L174.539 56.2592H174.383L172.235 64H169.416ZM187.327 57.2884V64H184.627V52.5455H187.208V54.4918H187.342C187.605 53.8505 188.025 53.3409 188.602 52.9631C189.184 52.5852 189.902 52.3963 190.757 52.3963C191.548 52.3963 192.236 52.5653 192.823 52.9034C193.415 53.2415 193.872 53.7312 194.195 54.3725C194.523 55.0138 194.685 55.7919 194.68 56.7067V64H191.98V57.1243C191.98 56.3587 191.781 55.7596 191.384 55.3271C190.991 54.8945 190.447 54.6783 189.751 54.6783C189.278 54.6783 188.858 54.7827 188.49 54.9915C188.127 55.1953 187.841 55.4911 187.633 55.8789C187.429 56.2667 187.327 56.7365 187.327 57.2884ZM200.124 48.7273V64H197.424V48.7273H200.124ZM207.896 64.2237C206.778 64.2237 205.808 63.9776 204.988 63.4854C204.168 62.9933 203.531 62.3047 203.079 61.4197C202.631 60.5348 202.408 59.5007 202.408 58.3175C202.408 57.1342 202.631 56.0977 203.079 55.2077C203.531 54.3178 204.168 53.6268 204.988 53.1346C205.808 52.6424 206.778 52.3963 207.896 52.3963C209.015 52.3963 209.984 52.6424 210.805 53.1346C211.625 53.6268 212.259 54.3178 212.706 55.2077C213.159 56.0977 213.385 57.1342 213.385 58.3175C213.385 59.5007 213.159 60.5348 212.706 61.4197C212.259 62.3047 211.625 62.9933 210.805 63.4854C209.984 63.9776 209.015 64.2237 207.896 64.2237ZM207.911 62.0611C208.518 62.0611 209.025 61.8945 209.432 61.5614C209.84 61.2234 210.143 60.771 210.342 60.2042C210.546 59.6374 210.648 59.006 210.648 58.31C210.648 57.609 210.546 56.9751 210.342 56.4084C210.143 55.8366 209.84 55.3817 209.432 55.0437C209.025 54.7056 208.518 54.5366 207.911 54.5366C207.29 54.5366 206.773 54.7056 206.36 55.0437C205.952 55.3817 205.647 55.8366 205.443 56.4084C205.244 56.9751 205.144 57.609 205.144 58.31C205.144 59.006 205.244 59.6374 205.443 60.2042C205.647 60.771 205.952 61.2234 206.36 61.5614C206.773 61.8945 207.29 62.0611 207.911 62.0611ZM218.972 64.2312C218.246 64.2312 217.593 64.1019 217.011 63.8434C216.434 63.5799 215.977 63.1921 215.639 62.68C215.306 62.168 215.139 61.5366 215.139 60.7859C215.139 60.1396 215.259 59.6051 215.497 59.1825C215.736 58.7599 216.061 58.4219 216.474 58.1683C216.887 57.9148 217.352 57.7234 217.869 57.5941C218.391 57.4599 218.93 57.3629 219.487 57.3033C220.158 57.2337 220.702 57.1715 221.12 57.1168C221.538 57.0572 221.841 56.9677 222.03 56.8484C222.224 56.7241 222.321 56.5327 222.321 56.2741V56.2294C222.321 55.6676 222.154 55.2326 221.821 54.9244C221.488 54.6161 221.008 54.462 220.382 54.462C219.721 54.462 219.196 54.6062 218.808 54.8945C218.425 55.1829 218.167 55.5234 218.033 55.9162L215.512 55.5582C215.711 54.8622 216.039 54.2805 216.496 53.8132C216.954 53.3409 217.513 52.9879 218.174 52.7543C218.836 52.5156 219.566 52.3963 220.367 52.3963C220.919 52.3963 221.468 52.4609 222.015 52.5902C222.562 52.7195 223.061 52.9332 223.514 53.2315C223.966 53.5249 224.329 53.9251 224.603 54.4322C224.881 54.9393 225.02 55.5732 225.02 56.3338V64H222.425V62.4265H222.336C222.172 62.7447 221.94 63.043 221.642 63.3214C221.349 63.5948 220.978 63.8161 220.531 63.9851C220.088 64.1491 219.569 64.2312 218.972 64.2312ZM219.673 62.2475C220.215 62.2475 220.685 62.1406 221.083 61.9268C221.48 61.7081 221.786 61.4197 222 61.0618C222.219 60.7038 222.328 60.3136 222.328 59.891V58.5412C222.244 58.6108 222.099 58.6754 221.896 58.7351C221.697 58.7947 221.473 58.8469 221.224 58.8917C220.976 58.9364 220.73 58.9762 220.486 59.011C220.243 59.0458 220.031 59.0756 219.852 59.1005C219.45 59.1552 219.089 59.2447 218.771 59.369C218.453 59.4933 218.202 59.6673 218.018 59.891C217.834 60.1097 217.742 60.3931 217.742 60.7411C217.742 61.2383 217.923 61.6136 218.286 61.8672C218.649 62.1207 219.112 62.2475 219.673 62.2475ZM231.985 64.2013C231.086 64.2013 230.28 63.9702 229.569 63.5078C228.858 63.0455 228.297 62.3743 227.884 61.4943C227.471 60.6143 227.265 59.5455 227.265 58.2876C227.265 57.0149 227.474 55.9411 227.891 55.0661C228.314 54.1861 228.883 53.5224 229.599 53.0749C230.315 52.6225 231.113 52.3963 231.993 52.3963C232.664 52.3963 233.216 52.5107 233.648 52.7393C234.081 52.9631 234.424 53.234 234.678 53.5522C234.931 53.8654 235.127 54.1612 235.267 54.4396H235.379V48.7273H238.086V64H235.431V62.1953H235.267C235.127 62.4737 234.926 62.7695 234.663 63.0827C234.399 63.391 234.051 63.6545 233.619 63.8732C233.186 64.092 232.642 64.2013 231.985 64.2013ZM232.739 61.9865C233.31 61.9865 233.798 61.8324 234.2 61.5241C234.603 61.2109 234.909 60.7759 235.118 60.2191C235.326 59.6623 235.431 59.0135 235.431 58.2727C235.431 57.532 235.326 56.8881 235.118 56.3413C234.914 55.7944 234.61 55.3693 234.208 55.0661C233.81 54.7628 233.32 54.6112 232.739 54.6112C232.137 54.6112 231.635 54.7678 231.232 55.081C230.83 55.3942 230.526 55.8267 230.322 56.3786C230.119 56.9304 230.017 57.5618 230.017 58.2727C230.017 58.9886 230.119 59.6275 230.322 60.1893C230.531 60.7461 230.837 61.1861 231.24 61.5092C231.647 61.8274 232.147 61.9865 232.739 61.9865Z" fill="#ADF0DD"/>
<g clip-path="url(#clip1_306_821)">
<path fill-rule="evenodd" clip-rule="evenodd" d="M122.455 54.625C121.862 51.4375 119.317 49 116.179 49C113.719 49 111.598 50.5 110.58 52.75C107.951 53.125 106 55.4688 106 58.375C106 61.4688 108.29 64 111.089 64H122.116C124.491 64 126.357 61.9375 126.357 59.3125C126.357 56.875 124.576 54.8125 122.455 54.625ZM120.42 57.4375L116.179 62.125L111.937 57.4375H114.482V53.6875H117.875V57.4375H120.42Z" fill="#ADF0DD"/>
</g>
<rect x="105" y="134" width="475" height="15" rx="7.5" fill="#0D2D2A"/>
<rect x="105" y="134" width="127" height="15" rx="7.5" fill="#ADF0DD"/>
<path d="M519.781 179.139C519.069 179.139 518.439 179.017 517.892 178.771C517.349 178.526 516.923 178.188 516.614 177.757C516.306 177.326 516.154 176.836 516.157 176.286C516.154 175.855 516.242 175.459 516.421 175.097C516.603 174.733 516.85 174.429 517.161 174.188C517.473 173.942 517.821 173.786 518.205 173.72V173.661C517.698 173.538 517.292 173.266 516.987 172.845C516.682 172.424 516.532 171.94 516.535 171.393C516.532 170.873 516.669 170.409 516.948 170.001C517.229 169.59 517.615 169.267 518.106 169.032C518.596 168.797 519.155 168.679 519.781 168.679C520.401 168.679 520.955 168.798 521.442 169.037C521.932 169.272 522.318 169.595 522.6 170.006C522.882 170.414 523.024 170.876 523.028 171.393C523.024 171.94 522.869 172.424 522.56 172.845C522.252 173.266 521.851 173.538 521.357 173.661V173.72C521.738 173.786 522.081 173.942 522.386 174.188C522.695 174.429 522.94 174.733 523.122 175.097C523.308 175.459 523.402 175.855 523.406 176.286C523.402 176.836 523.247 177.326 522.938 177.757C522.63 178.188 522.202 178.526 521.656 178.771C521.112 179.017 520.487 179.139 519.781 179.139ZM519.781 177.881C520.202 177.881 520.567 177.812 520.875 177.673C521.183 177.53 521.422 177.333 521.591 177.081C521.76 176.826 521.846 176.527 521.849 176.186C521.846 175.831 521.753 175.518 521.571 175.246C521.392 174.975 521.148 174.761 520.84 174.605C520.532 174.449 520.179 174.371 519.781 174.371C519.38 174.371 519.024 174.449 518.712 174.605C518.401 174.761 518.156 174.975 517.977 175.246C517.798 175.518 517.71 175.831 517.713 176.186C517.71 176.527 517.791 176.826 517.957 177.081C518.126 177.333 518.366 177.53 518.678 177.673C518.989 177.812 519.357 177.881 519.781 177.881ZM519.781 173.143C520.119 173.143 520.419 173.076 520.681 172.94C520.943 172.804 521.148 172.615 521.298 172.373C521.45 172.131 521.528 171.848 521.531 171.523C521.528 171.205 521.452 170.926 521.303 170.688C521.157 170.449 520.953 170.265 520.691 170.136C520.429 170.003 520.126 169.937 519.781 169.937C519.43 169.937 519.122 170.003 518.857 170.136C518.595 170.265 518.391 170.449 518.245 170.688C518.099 170.926 518.028 171.205 518.031 171.523C518.028 171.848 518.101 172.131 518.25 172.373C518.399 172.615 518.605 172.804 518.867 172.94C519.132 173.076 519.437 173.143 519.781 173.143ZM536.482 172.035C536.385 171.733 536.256 171.463 536.094 171.224C535.935 170.982 535.744 170.777 535.522 170.608C535.3 170.436 535.046 170.305 534.761 170.215C534.48 170.126 534.17 170.081 533.832 170.081C533.258 170.081 532.741 170.228 532.281 170.523C531.82 170.818 531.455 171.251 531.187 171.821C530.922 172.388 530.789 173.082 530.789 173.904C530.789 174.729 530.923 175.427 531.192 175.997C531.46 176.567 531.828 177 532.295 177.295C532.763 177.59 533.295 177.737 533.891 177.737C534.445 177.737 534.927 177.625 535.338 177.399C535.752 177.174 536.072 176.856 536.298 176.445C536.526 176.03 536.641 175.543 536.641 174.983L537.038 175.058H534.125V173.79H538.127V174.948C538.127 175.803 537.945 176.546 537.58 177.175C537.219 177.802 536.719 178.286 536.079 178.627C535.443 178.969 534.713 179.139 533.891 179.139C532.97 179.139 532.161 178.927 531.465 178.503C530.773 178.079 530.232 177.477 529.845 176.698C529.457 175.916 529.263 174.988 529.263 173.914C529.263 173.102 529.376 172.373 529.601 171.727C529.826 171.08 530.143 170.532 530.55 170.081C530.961 169.627 531.444 169.281 531.997 169.042C532.554 168.8 533.162 168.679 533.822 168.679C534.372 168.679 534.884 168.76 535.358 168.923C535.835 169.085 536.26 169.315 536.631 169.614C537.005 169.912 537.315 170.267 537.56 170.678C537.806 171.085 537.971 171.538 538.058 172.035H536.482ZM540.357 179V168.818H544.086C544.809 168.818 545.407 168.937 545.881 169.176C546.355 169.411 546.709 169.731 546.945 170.136C547.18 170.537 547.298 170.989 547.298 171.493C547.298 171.917 547.22 172.275 547.064 172.567C546.908 172.855 546.699 173.087 546.438 173.263C546.179 173.435 545.894 173.561 545.582 173.641V173.74C545.92 173.757 546.25 173.866 546.572 174.068C546.897 174.267 547.165 174.55 547.377 174.918C547.589 175.286 547.695 175.734 547.695 176.261C547.695 176.781 547.573 177.248 547.327 177.663C547.086 178.074 546.711 178.4 546.204 178.642C545.697 178.881 545.049 179 544.26 179H540.357ZM541.894 177.683H544.111C544.847 177.683 545.374 177.54 545.692 177.255C546.01 176.97 546.169 176.614 546.169 176.186C546.169 175.865 546.088 175.57 545.925 175.301C545.763 175.033 545.531 174.819 545.229 174.66C544.931 174.501 544.577 174.421 544.166 174.421H541.894V177.683ZM541.894 173.223H543.952C544.296 173.223 544.606 173.157 544.881 173.024C545.16 172.892 545.38 172.706 545.543 172.467C545.708 172.225 545.791 171.94 545.791 171.612C545.791 171.191 545.644 170.838 545.349 170.553C545.054 170.268 544.601 170.126 543.992 170.126H541.894V173.223ZM553.783 179V168.818H555.319V177.678H559.932V179H553.783ZM565.137 179.154C564.384 179.154 563.736 178.993 563.193 178.672C562.653 178.347 562.235 177.891 561.94 177.305C561.648 176.715 561.503 176.024 561.503 175.232C561.503 174.449 561.648 173.76 561.94 173.163C562.235 172.567 562.646 172.101 563.173 171.766C563.703 171.432 564.323 171.264 565.032 171.264C565.463 171.264 565.881 171.335 566.285 171.478C566.69 171.621 567.052 171.844 567.374 172.149C567.695 172.454 567.949 172.85 568.135 173.337C568.32 173.821 568.413 174.41 568.413 175.102V175.629H562.343V174.516H566.956C566.956 174.125 566.877 173.778 566.718 173.477C566.559 173.172 566.335 172.931 566.047 172.756C565.761 172.58 565.427 172.492 565.042 172.492C564.625 172.492 564.26 172.595 563.949 172.8C563.64 173.003 563.402 173.268 563.233 173.596C563.067 173.921 562.984 174.274 562.984 174.655V175.525C562.984 176.035 563.074 176.469 563.253 176.827C563.435 177.185 563.688 177.459 564.013 177.648C564.338 177.833 564.717 177.926 565.152 177.926C565.433 177.926 565.69 177.886 565.922 177.807C566.154 177.724 566.355 177.601 566.524 177.439C566.693 177.277 566.822 177.076 566.912 176.837L568.319 177.091C568.206 177.505 568.004 177.868 567.712 178.18C567.424 178.488 567.061 178.728 566.623 178.901C566.189 179.07 565.694 179.154 565.137 179.154ZM573.977 171.364V172.557H569.661V171.364H573.977ZM570.844 179V170.479C570.844 170.001 570.949 169.605 571.158 169.29C571.366 168.972 571.643 168.735 571.988 168.58C572.333 168.42 572.707 168.341 573.112 168.341C573.41 168.341 573.665 168.366 573.877 168.415C574.089 168.462 574.247 168.505 574.349 168.545L574.001 169.748C573.932 169.728 573.842 169.705 573.733 169.678C573.624 169.648 573.491 169.634 573.335 169.634C572.974 169.634 572.715 169.723 572.56 169.902C572.407 170.081 572.331 170.339 572.331 170.678V179H570.844ZM579.355 171.364V172.557H575.184V171.364H579.355ZM576.302 169.534H577.789V176.758C577.789 177.046 577.832 177.263 577.918 177.409C578.004 177.552 578.115 177.649 578.251 177.702C578.39 177.752 578.541 177.777 578.704 177.777C578.823 177.777 578.927 177.769 579.017 177.752C579.106 177.736 579.176 177.722 579.226 177.712L579.494 178.94C579.408 178.973 579.285 179.007 579.126 179.04C578.967 179.076 578.768 179.096 578.53 179.099C578.139 179.106 577.774 179.036 577.436 178.891C577.098 178.745 576.824 178.519 576.616 178.214C576.407 177.91 576.302 177.527 576.302 177.066V169.534Z" fill="#ADF0DD"/>
<path d="M105.979 179V177.886L109.425 174.317C109.793 173.929 110.096 173.589 110.335 173.298C110.576 173.003 110.757 172.723 110.876 172.457C110.996 172.192 111.055 171.911 111.055 171.612C111.055 171.274 110.976 170.982 110.817 170.737C110.658 170.489 110.441 170.298 110.165 170.165C109.89 170.03 109.58 169.962 109.236 169.962C108.871 169.962 108.553 170.036 108.281 170.185C108.009 170.335 107.801 170.545 107.655 170.817C107.509 171.089 107.436 171.407 107.436 171.771H105.969C105.969 171.152 106.112 170.61 106.397 170.146C106.682 169.682 107.073 169.322 107.57 169.067C108.067 168.808 108.633 168.679 109.266 168.679C109.905 168.679 110.469 168.807 110.956 169.062C111.446 169.314 111.829 169.658 112.104 170.096C112.379 170.53 112.517 171.021 112.517 171.567C112.517 171.945 112.446 172.315 112.303 172.676C112.164 173.037 111.92 173.44 111.572 173.884C111.224 174.325 110.741 174.86 110.121 175.49L108.097 177.608V177.683H112.681V179H105.979ZM125.86 172.035C125.764 171.733 125.635 171.463 125.472 171.224C125.313 170.982 125.123 170.777 124.901 170.608C124.679 170.436 124.425 170.305 124.14 170.215C123.858 170.126 123.548 170.081 123.21 170.081C122.637 170.081 122.12 170.228 121.659 170.523C121.199 170.818 120.834 171.251 120.566 171.821C120.3 172.388 120.168 173.082 120.168 173.904C120.168 174.729 120.302 175.427 120.57 175.997C120.839 176.567 121.207 177 121.674 177.295C122.141 177.59 122.673 177.737 123.27 177.737C123.824 177.737 124.306 177.625 124.717 177.399C125.131 177.174 125.451 176.856 125.676 176.445C125.905 176.03 126.019 175.543 126.019 174.983L126.417 175.058H123.504V173.79H127.506V174.948C127.506 175.803 127.324 176.546 126.959 177.175C126.598 177.802 126.097 178.286 125.458 178.627C124.821 178.969 124.092 179.139 123.27 179.139C122.349 179.139 121.54 178.927 120.844 178.503C120.151 178.079 119.611 177.477 119.223 176.698C118.835 175.916 118.641 174.988 118.641 173.914C118.641 173.102 118.754 172.373 118.98 171.727C119.205 171.08 119.521 170.532 119.929 170.081C120.34 169.627 120.822 169.281 121.376 169.042C121.933 168.8 122.541 168.679 123.2 168.679C123.751 168.679 124.263 168.76 124.737 168.923C125.214 169.085 125.638 169.315 126.009 169.614C126.384 169.912 126.694 170.267 126.939 170.678C127.184 171.085 127.35 171.538 127.436 172.035H125.86ZM129.736 179V168.818H133.465C134.187 168.818 134.785 168.937 135.259 169.176C135.733 169.411 136.088 169.731 136.323 170.136C136.559 170.537 136.676 170.989 136.676 171.493C136.676 171.917 136.598 172.275 136.443 172.567C136.287 172.855 136.078 173.087 135.816 173.263C135.558 173.435 135.273 173.561 134.961 173.641V173.74C135.299 173.757 135.629 173.866 135.95 174.068C136.275 174.267 136.544 174.55 136.756 174.918C136.968 175.286 137.074 175.734 137.074 176.261C137.074 176.781 136.951 177.248 136.706 177.663C136.464 178.074 136.09 178.4 135.583 178.642C135.075 178.881 134.427 179 133.639 179H129.736ZM131.272 177.683H133.49C134.225 177.683 134.752 177.54 135.07 177.255C135.389 176.97 135.548 176.614 135.548 176.186C135.548 175.865 135.467 175.57 135.304 175.301C135.142 175.033 134.91 174.819 134.608 174.66C134.31 174.501 133.955 174.421 133.544 174.421H131.272V177.683ZM131.272 173.223H133.33C133.675 173.223 133.985 173.157 134.26 173.024C134.539 172.892 134.759 172.706 134.921 172.467C135.087 172.225 135.17 171.94 135.17 171.612C135.17 171.191 135.022 170.838 134.727 170.553C134.432 170.268 133.98 170.126 133.37 170.126H131.272V173.223ZM149.709 168.818H151.25V175.515C151.25 176.228 151.083 176.859 150.748 177.409C150.413 177.956 149.942 178.387 149.336 178.702C148.729 179.013 148.018 179.169 147.203 179.169C146.391 179.169 145.682 179.013 145.075 178.702C144.469 178.387 143.998 177.956 143.663 177.409C143.329 176.859 143.161 176.228 143.161 175.515V168.818H144.697V175.391C144.697 175.851 144.798 176.261 145.001 176.619C145.206 176.977 145.496 177.258 145.871 177.464C146.245 177.666 146.689 177.767 147.203 177.767C147.72 177.767 148.166 177.666 148.54 177.464C148.918 177.258 149.207 176.977 149.406 176.619C149.608 176.261 149.709 175.851 149.709 175.391V168.818ZM159.366 173.228L158.019 173.467C157.963 173.294 157.873 173.13 157.751 172.974C157.631 172.819 157.469 172.691 157.263 172.592C157.058 172.492 156.801 172.442 156.493 172.442C156.072 172.442 155.721 172.537 155.439 172.726C155.157 172.911 155.016 173.152 155.016 173.447C155.016 173.702 155.111 173.907 155.3 174.063C155.489 174.219 155.794 174.347 156.214 174.446L157.428 174.724C158.13 174.887 158.654 175.137 158.999 175.475C159.343 175.813 159.516 176.252 159.516 176.793C159.516 177.25 159.383 177.658 159.118 178.016C158.856 178.37 158.49 178.649 158.019 178.851C157.552 179.053 157.01 179.154 156.393 179.154C155.538 179.154 154.841 178.972 154.3 178.607C153.76 178.239 153.429 177.717 153.306 177.041L154.743 176.822C154.832 177.197 155.016 177.48 155.295 177.673C155.573 177.862 155.936 177.956 156.383 177.956C156.871 177.956 157.26 177.855 157.552 177.653C157.843 177.447 157.989 177.197 157.989 176.902C157.989 176.663 157.9 176.463 157.721 176.3C157.545 176.138 157.275 176.015 156.91 175.933L155.618 175.649C154.905 175.487 154.378 175.228 154.037 174.874C153.699 174.519 153.53 174.07 153.53 173.526C153.53 173.076 153.656 172.681 153.908 172.343C154.16 172.005 154.508 171.741 154.952 171.553C155.396 171.36 155.905 171.264 156.478 171.264C157.303 171.264 157.953 171.443 158.427 171.801C158.901 172.156 159.214 172.631 159.366 173.228ZM164.721 179.154C163.969 179.154 163.321 178.993 162.777 178.672C162.237 178.347 161.819 177.891 161.524 177.305C161.233 176.715 161.087 176.024 161.087 175.232C161.087 174.449 161.233 173.76 161.524 173.163C161.819 172.567 162.23 172.101 162.757 171.766C163.288 171.432 163.908 171.264 164.617 171.264C165.048 171.264 165.465 171.335 165.87 171.478C166.274 171.621 166.637 171.844 166.958 172.149C167.28 172.454 167.533 172.85 167.719 173.337C167.905 173.821 167.997 174.41 167.997 175.102V175.629H161.927V174.516H166.541C166.541 174.125 166.461 173.778 166.302 173.477C166.143 173.172 165.919 172.931 165.631 172.756C165.346 172.58 165.011 172.492 164.627 172.492C164.209 172.492 163.845 172.595 163.533 172.8C163.225 173.003 162.986 173.268 162.817 173.596C162.651 173.921 162.568 174.274 162.568 174.655V175.525C162.568 176.035 162.658 176.469 162.837 176.827C163.019 177.185 163.273 177.459 163.598 177.648C163.922 177.833 164.302 177.926 164.736 177.926C165.018 177.926 165.275 177.886 165.507 177.807C165.739 177.724 165.939 177.601 166.108 177.439C166.277 177.277 166.407 177.076 166.496 176.837L167.903 177.091C167.79 177.505 167.588 177.868 167.296 178.18C167.008 178.488 166.645 178.728 166.208 178.901C165.774 179.07 165.278 179.154 164.721 179.154ZM172.785 179.149C172.169 179.149 171.619 178.992 171.135 178.677C170.654 178.359 170.276 177.906 170.001 177.32C169.73 176.73 169.594 176.022 169.594 175.197C169.594 174.371 169.731 173.665 170.006 173.079C170.285 172.492 170.666 172.043 171.15 171.732C171.634 171.42 172.182 171.264 172.795 171.264C173.269 171.264 173.651 171.344 173.939 171.503C174.231 171.659 174.456 171.841 174.615 172.05C174.777 172.259 174.903 172.442 174.993 172.602H175.082V168.818H176.569V179H175.117V177.812H174.993C174.903 177.974 174.774 178.16 174.605 178.369C174.439 178.577 174.211 178.76 173.919 178.915C173.627 179.071 173.249 179.149 172.785 179.149ZM173.114 177.881C173.541 177.881 173.902 177.769 174.197 177.543C174.496 177.315 174.721 176.998 174.874 176.594C175.029 176.189 175.107 175.719 175.107 175.182C175.107 174.652 175.031 174.187 174.878 173.79C174.726 173.392 174.502 173.082 174.207 172.86C173.912 172.638 173.548 172.527 173.114 172.527C172.666 172.527 172.293 172.643 171.995 172.875C171.697 173.107 171.471 173.424 171.319 173.825C171.17 174.226 171.095 174.678 171.095 175.182C171.095 175.692 171.171 176.151 171.324 176.559C171.476 176.967 171.702 177.29 172 177.528C172.302 177.764 172.673 177.881 173.114 177.881Z" fill="#ADF0DD" fill-opacity="0.65"/>
<path d="M6 158.5C2.96243 158.5 0.5 160.962 0.5 164V370C0.5 373.038 2.96244 375.5 6.00001 375.5H544C547.038 375.5 549.5 373.038 549.5 370V164C549.5 160.962 547.038 158.5 544 158.5H6Z" fill="#111C1B" stroke="#0D2D2A"/>
<path d="M81.1339 205.727H83.9006V215.705C83.9006 216.799 83.642 217.761 83.125 218.591C82.6129 219.422 81.892 220.07 80.9624 220.538C80.0327 221 78.9464 221.231 77.7035 221.231C76.4556 221.231 75.3668 221 74.4371 220.538C73.5075 220.07 72.7866 219.422 72.2745 218.591C71.7624 217.761 71.5064 216.799 71.5064 215.705V205.727H74.2731V215.474C74.2731 216.11 74.4123 216.677 74.6907 217.174C74.9741 217.672 75.3718 218.062 75.8839 218.345C76.396 218.624 77.0025 218.763 77.7035 218.763C78.4045 218.763 79.011 218.624 79.5231 218.345C80.0401 218.062 80.4379 217.672 80.7163 217.174C80.9947 216.677 81.1339 216.11 81.1339 215.474V205.727ZM86.7884 225.295V209.545H89.4433V211.44H89.5999C89.7391 211.161 89.9355 210.865 90.189 210.552C90.4426 210.234 90.7856 209.963 91.2181 209.739C91.6507 209.511 92.2025 209.396 92.8737 209.396C93.7586 209.396 94.5566 209.623 95.2675 210.075C95.9834 210.522 96.5502 211.186 96.9678 212.066C97.3904 212.941 97.6017 214.015 97.6017 215.288C97.6017 216.545 97.3953 217.614 96.9827 218.494C96.57 219.374 96.0083 220.045 95.2973 220.508C94.5864 220.97 93.781 221.201 92.8811 221.201C92.2249 221.201 91.6805 221.092 91.248 220.873C90.8154 220.654 90.4674 220.391 90.2039 220.083C89.9454 219.77 89.7441 219.474 89.5999 219.195H89.488V225.295H86.7884ZM89.4358 215.273C89.4358 216.013 89.5402 216.662 89.749 217.219C89.9628 217.776 90.2686 218.211 90.6663 218.524C91.069 218.832 91.5562 218.987 92.1279 218.987C92.7245 218.987 93.2242 218.827 93.6269 218.509C94.0296 218.186 94.3328 217.746 94.5367 217.189C94.7455 216.627 94.8499 215.989 94.8499 215.273C94.8499 214.562 94.748 213.93 94.5441 213.379C94.3403 212.827 94.037 212.394 93.6343 212.081C93.2316 211.768 92.7295 211.611 92.1279 211.611C91.5512 211.611 91.0615 211.763 90.6588 212.066C90.2561 212.369 89.9504 212.794 89.7416 213.341C89.5377 213.888 89.4358 214.532 89.4358 215.273ZM102.613 205.727V221H99.9134V205.727H102.613ZM110.385 221.224C109.267 221.224 108.297 220.978 107.477 220.485C106.657 219.993 106.02 219.305 105.568 218.42C105.121 217.535 104.897 216.501 104.897 215.317C104.897 214.134 105.121 213.098 105.568 212.208C106.02 211.318 106.657 210.627 107.477 210.135C108.297 209.642 109.267 209.396 110.385 209.396C111.504 209.396 112.474 209.642 113.294 210.135C114.114 210.627 114.748 211.318 115.195 212.208C115.648 213.098 115.874 214.134 115.874 215.317C115.874 216.501 115.648 217.535 115.195 218.42C114.748 219.305 114.114 219.993 113.294 220.485C112.474 220.978 111.504 221.224 110.385 221.224ZM110.4 219.061C111.007 219.061 111.514 218.895 111.922 218.561C112.329 218.223 112.633 217.771 112.831 217.204C113.035 216.637 113.137 216.006 113.137 215.31C113.137 214.609 113.035 213.975 112.831 213.408C112.633 212.837 112.329 212.382 111.922 212.044C111.514 211.706 111.007 211.537 110.4 211.537C109.779 211.537 109.262 211.706 108.849 212.044C108.442 212.382 108.136 212.837 107.932 213.408C107.733 213.975 107.634 214.609 107.634 215.31C107.634 216.006 107.733 216.637 107.932 217.204C108.136 217.771 108.442 218.223 108.849 218.561C109.262 218.895 109.779 219.061 110.4 219.061ZM121.462 221.231C120.736 221.231 120.082 221.102 119.5 220.843C118.924 220.58 118.466 220.192 118.128 219.68C117.795 219.168 117.628 218.537 117.628 217.786C117.628 217.14 117.748 216.605 117.986 216.183C118.225 215.76 118.551 215.422 118.963 215.168C119.376 214.915 119.841 214.723 120.358 214.594C120.88 214.46 121.419 214.363 121.976 214.303C122.647 214.234 123.192 214.172 123.609 214.117C124.027 214.057 124.33 213.968 124.519 213.848C124.713 213.724 124.81 213.533 124.81 213.274V213.229C124.81 212.668 124.643 212.233 124.31 211.924C123.977 211.616 123.497 211.462 122.871 211.462C122.21 211.462 121.685 211.606 121.297 211.895C120.915 212.183 120.656 212.523 120.522 212.916L118.001 212.558C118.2 211.862 118.528 211.281 118.986 210.813C119.443 210.341 120.002 209.988 120.664 209.754C121.325 209.516 122.056 209.396 122.856 209.396C123.408 209.396 123.957 209.461 124.504 209.59C125.051 209.719 125.551 209.933 126.003 210.232C126.456 210.525 126.818 210.925 127.092 211.432C127.37 211.939 127.51 212.573 127.51 213.334V221H124.914V219.426H124.825C124.661 219.745 124.43 220.043 124.131 220.321C123.838 220.595 123.468 220.816 123.02 220.985C122.578 221.149 122.058 221.231 121.462 221.231ZM122.163 219.248C122.704 219.248 123.174 219.141 123.572 218.927C123.97 218.708 124.275 218.42 124.489 218.062C124.708 217.704 124.817 217.314 124.817 216.891V215.541C124.733 215.611 124.589 215.675 124.385 215.735C124.186 215.795 123.962 215.847 123.714 215.892C123.465 215.936 123.219 215.976 122.975 216.011C122.732 216.046 122.521 216.076 122.342 216.1C121.939 216.155 121.578 216.245 121.26 216.369C120.942 216.493 120.691 216.667 120.507 216.891C120.323 217.11 120.231 217.393 120.231 217.741C120.231 218.238 120.413 218.614 120.775 218.867C121.138 219.121 121.601 219.248 122.163 219.248ZM134.475 221.201C133.575 221.201 132.769 220.97 132.059 220.508C131.348 220.045 130.786 219.374 130.373 218.494C129.96 217.614 129.754 216.545 129.754 215.288C129.754 214.015 129.963 212.941 130.381 212.066C130.803 211.186 131.372 210.522 132.088 210.075C132.804 209.623 133.602 209.396 134.482 209.396C135.153 209.396 135.705 209.511 136.138 209.739C136.57 209.963 136.913 210.234 137.167 210.552C137.42 210.865 137.617 211.161 137.756 211.44H137.868V205.727H140.575V221H137.92V219.195H137.756C137.617 219.474 137.415 219.77 137.152 220.083C136.888 220.391 136.54 220.654 136.108 220.873C135.675 221.092 135.131 221.201 134.475 221.201ZM135.228 218.987C135.8 218.987 136.287 218.832 136.69 218.524C137.092 218.211 137.398 217.776 137.607 217.219C137.816 216.662 137.92 216.013 137.92 215.273C137.92 214.532 137.816 213.888 137.607 213.341C137.403 212.794 137.1 212.369 136.697 212.066C136.299 211.763 135.81 211.611 135.228 211.611C134.626 211.611 134.124 211.768 133.722 212.081C133.319 212.394 133.016 212.827 132.812 213.379C132.608 213.93 132.506 214.562 132.506 215.273C132.506 215.989 132.608 216.627 132.812 217.189C133.021 217.746 133.326 218.186 133.729 218.509C134.137 218.827 134.636 218.987 135.228 218.987Z" fill="#ADF0DD"/>
<path d="M38.1186 237.818H39.983L43.2244 245.733H43.3438L46.5852 237.818H48.4496V248H46.9879V240.632H46.8935L43.8906 247.985H42.6776L39.6747 240.627H39.5803V248H38.1186V237.818ZM54.0604 248.154C53.3445 248.154 52.7197 247.99 52.1861 247.662C51.6525 247.334 51.2382 246.875 50.9432 246.285C50.6482 245.695 50.5007 245.005 50.5007 244.217C50.5007 243.424 50.6482 242.732 50.9432 242.138C51.2382 241.545 51.6525 241.085 52.1861 240.756C52.7197 240.428 53.3445 240.264 54.0604 240.264C54.7763 240.264 55.401 240.428 55.9347 240.756C56.4683 241.085 56.8826 241.545 57.1775 242.138C57.4725 242.732 57.62 243.424 57.62 244.217C57.62 245.005 57.4725 245.695 57.1775 246.285C56.8826 246.875 56.4683 247.334 55.9347 247.662C55.401 247.99 54.7763 248.154 54.0604 248.154ZM54.0653 246.906C54.5293 246.906 54.9138 246.784 55.2187 246.538C55.5237 246.293 55.749 245.967 55.8949 245.559C56.044 245.151 56.1186 244.702 56.1186 244.212C56.1186 243.724 56.044 243.277 55.8949 242.869C55.749 242.458 55.5237 242.129 55.2187 241.88C54.9138 241.631 54.5293 241.507 54.0653 241.507C53.598 241.507 53.2102 241.631 52.902 241.88C52.5971 242.129 52.37 242.458 52.2209 242.869C52.075 243.277 52.0021 243.724 52.0021 244.212C52.0021 244.702 52.075 245.151 52.2209 245.559C52.37 245.967 52.5971 246.293 52.902 246.538C53.2102 246.784 53.598 246.906 54.0653 246.906ZM61.0458 243.466V248H59.5593V240.364H60.9861V241.607H61.0806C61.2563 241.202 61.5314 240.877 61.9059 240.632C62.2837 240.387 62.7593 240.264 63.3327 240.264C63.8531 240.264 64.3088 240.374 64.6999 240.592C65.091 240.808 65.3943 241.129 65.6097 241.557C65.8252 241.984 65.9329 242.513 65.9329 243.143V248H64.4464V243.322C64.4464 242.768 64.3022 242.336 64.0138 242.024C63.7255 241.709 63.3294 241.552 62.8256 241.552C62.4809 241.552 62.1743 241.626 61.9059 241.776C61.6407 241.925 61.4303 242.143 61.2745 242.432C61.122 242.717 61.0458 243.062 61.0458 243.466ZM71.7711 240.364V241.557H67.5999V240.364H71.7711ZM68.7186 238.534H70.2051V245.758C70.2051 246.046 70.2481 246.263 70.3343 246.409C70.4205 246.552 70.5315 246.649 70.6674 246.702C70.8066 246.752 70.9574 246.777 71.1198 246.777C71.2391 246.777 71.3436 246.769 71.433 246.752C71.5225 246.736 71.5921 246.722 71.6418 246.712L71.9103 247.94C71.8241 247.973 71.7015 248.007 71.5424 248.04C71.3833 248.076 71.1845 248.096 70.9458 248.099C70.5547 248.106 70.1901 248.036 69.8521 247.891C69.514 247.745 69.2406 247.519 69.0318 247.214C68.823 246.91 68.7186 246.527 68.7186 246.066V238.534ZM75.346 243.466V248H73.8595V237.818H75.3261V241.607H75.4206C75.5996 241.196 75.873 240.869 76.2409 240.627C76.6088 240.385 77.0894 240.264 77.6827 240.264C78.2064 240.264 78.6637 240.372 79.0548 240.587C79.4492 240.803 79.7542 241.124 79.9696 241.552C80.1884 241.976 80.2977 242.506 80.2977 243.143V248H78.8112V243.322C78.8112 242.762 78.6671 242.327 78.3787 242.019C78.0903 241.708 77.6893 241.552 77.1756 241.552C76.8242 241.552 76.5094 241.626 76.231 241.776C75.9559 241.925 75.7388 242.143 75.5797 242.432C75.4239 242.717 75.346 243.062 75.346 243.466ZM84.0479 237.818V248H82.5614V237.818H84.0479ZM87.2674 250.864C87.0453 250.864 86.8431 250.845 86.6608 250.809C86.4785 250.776 86.3426 250.739 86.2532 250.7L86.6111 249.482C86.8829 249.554 87.1248 249.586 87.337 249.576C87.5491 249.566 87.7363 249.487 87.8988 249.337C88.0645 249.188 88.2103 248.945 88.3363 248.607L88.5202 248.099L85.7262 240.364H87.3171L89.251 246.29H89.3306L91.2645 240.364H92.8604L89.7134 249.019C89.5675 249.417 89.3819 249.753 89.1566 250.028C88.9312 250.307 88.6627 250.516 88.3512 250.655C88.0396 250.794 87.6783 250.864 87.2674 250.864ZM103.36 244.833V240.364H104.851V248H103.39V246.678H103.31C103.134 247.085 102.853 247.425 102.465 247.697C102.08 247.965 101.602 248.099 101.028 248.099C100.538 248.099 100.103 247.992 99.7256 247.776C99.3511 247.558 99.0561 247.234 98.8407 246.807C98.6286 246.379 98.5225 245.851 98.5225 245.221V240.364H100.009V245.042C100.009 245.562 100.153 245.977 100.442 246.285C100.73 246.593 101.104 246.747 101.565 246.747C101.844 246.747 102.12 246.678 102.395 246.538C102.674 246.399 102.904 246.189 103.086 245.907C103.272 245.625 103.363 245.267 103.36 244.833ZM107.129 250.864V240.364H108.58V241.602H108.705C108.791 241.442 108.915 241.259 109.078 241.05C109.24 240.841 109.465 240.659 109.754 240.503C110.042 240.344 110.423 240.264 110.897 240.264C111.514 240.264 112.064 240.42 112.548 240.732C113.032 241.043 113.411 241.492 113.686 242.079C113.965 242.665 114.104 243.371 114.104 244.197C114.104 245.022 113.966 245.73 113.691 246.32C113.416 246.906 113.038 247.359 112.558 247.677C112.077 247.992 111.529 248.149 110.912 248.149C110.448 248.149 110.069 248.071 109.774 247.915C109.482 247.76 109.253 247.577 109.087 247.369C108.922 247.16 108.794 246.974 108.705 246.812H108.615V250.864H107.129ZM108.585 244.182C108.585 244.719 108.663 245.189 108.819 245.594C108.975 245.998 109.2 246.315 109.495 246.543C109.79 246.769 110.151 246.881 110.579 246.881C111.023 246.881 111.394 246.764 111.693 246.528C111.991 246.29 112.216 245.967 112.369 245.559C112.524 245.151 112.602 244.692 112.602 244.182C112.602 243.678 112.526 243.226 112.374 242.825C112.225 242.424 111.999 242.107 111.698 241.875C111.399 241.643 111.026 241.527 110.579 241.527C110.148 241.527 109.783 241.638 109.485 241.86C109.19 242.082 108.966 242.392 108.814 242.79C108.662 243.187 108.585 243.652 108.585 244.182ZM117.536 237.818V248H116.049V237.818H117.536ZM123.032 248.154C122.316 248.154 121.692 247.99 121.158 247.662C120.624 247.334 120.21 246.875 119.915 246.285C119.62 245.695 119.473 245.005 119.473 244.217C119.473 243.424 119.62 242.732 119.915 242.138C120.21 241.545 120.624 241.085 121.158 240.756C121.692 240.428 122.316 240.264 123.032 240.264C123.748 240.264 124.373 240.428 124.907 240.756C125.44 241.085 125.854 241.545 126.149 242.138C126.444 242.732 126.592 243.424 126.592 244.217C126.592 245.005 126.444 245.695 126.149 246.285C125.854 246.875 125.44 247.334 124.907 247.662C124.373 247.99 123.748 248.154 123.032 248.154ZM123.037 246.906C123.501 246.906 123.886 246.784 124.191 246.538C124.496 246.293 124.721 245.967 124.867 245.559C125.016 245.151 125.09 244.702 125.09 244.212C125.09 243.724 125.016 243.277 124.867 242.869C124.721 242.458 124.496 242.129 124.191 241.88C123.886 241.631 123.501 241.507 123.037 241.507C122.57 241.507 122.182 241.631 121.874 241.88C121.569 242.129 121.342 242.458 121.193 242.869C121.047 243.277 120.974 243.724 120.974 244.212C120.974 244.702 121.047 245.151 121.193 245.559C121.342 245.967 121.569 246.293 121.874 246.538C122.182 246.784 122.57 246.906 123.037 246.906ZM130.753 248.169C130.27 248.169 129.832 248.08 129.441 247.901C129.05 247.718 128.74 247.455 128.511 247.11C128.286 246.765 128.173 246.343 128.173 245.842C128.173 245.411 128.256 245.057 128.422 244.778C128.588 244.5 128.811 244.28 129.093 244.117C129.375 243.955 129.69 243.832 130.038 243.749C130.386 243.666 130.74 243.603 131.101 243.56C131.559 243.507 131.93 243.464 132.215 243.431C132.5 243.395 132.707 243.337 132.837 243.257C132.966 243.178 133.03 243.048 133.03 242.869V242.835C133.03 242.4 132.908 242.064 132.663 241.825C132.421 241.587 132.059 241.467 131.579 241.467C131.078 241.467 130.684 241.578 130.396 241.8C130.11 242.019 129.913 242.263 129.804 242.531L128.407 242.213C128.573 241.749 128.815 241.375 129.133 241.089C129.454 240.801 129.824 240.592 130.241 240.463C130.659 240.33 131.098 240.264 131.559 240.264C131.864 240.264 132.187 240.301 132.528 240.374C132.873 240.443 133.195 240.572 133.493 240.761C133.794 240.95 134.041 241.22 134.234 241.572C134.426 241.92 134.522 242.372 134.522 242.929V248H133.07V246.956H133.011C132.914 247.148 132.77 247.337 132.578 247.523C132.386 247.708 132.139 247.862 131.837 247.985C131.536 248.108 131.174 248.169 130.753 248.169ZM131.077 246.976C131.488 246.976 131.839 246.895 132.131 246.732C132.426 246.57 132.649 246.358 132.802 246.096C132.958 245.831 133.035 245.547 133.035 245.246V244.261C132.982 244.314 132.88 244.364 132.727 244.411C132.578 244.454 132.407 244.492 132.215 244.525C132.023 244.555 131.836 244.583 131.653 244.609C131.471 244.633 131.319 244.652 131.196 244.669C130.908 244.705 130.644 244.767 130.405 244.853C130.17 244.939 129.981 245.063 129.839 245.226C129.699 245.385 129.63 245.597 129.63 245.862C129.63 246.23 129.766 246.509 130.038 246.697C130.309 246.883 130.656 246.976 131.077 246.976ZM139.641 248.149C139.024 248.149 138.474 247.992 137.99 247.677C137.509 247.359 137.132 246.906 136.856 246.32C136.585 245.73 136.449 245.022 136.449 244.197C136.449 243.371 136.586 242.665 136.861 242.079C137.14 241.492 137.521 241.043 138.005 240.732C138.489 240.42 139.037 240.264 139.65 240.264C140.124 240.264 140.506 240.344 140.794 240.503C141.086 240.659 141.311 240.841 141.47 241.05C141.632 241.259 141.758 241.442 141.848 241.602H141.937V237.818H143.424V248H141.972V246.812H141.848C141.758 246.974 141.629 247.16 141.46 247.369C141.294 247.577 141.066 247.76 140.774 247.915C140.482 248.071 140.105 248.149 139.641 248.149ZM139.969 246.881C140.396 246.881 140.757 246.769 141.052 246.543C141.351 246.315 141.576 245.998 141.729 245.594C141.884 245.189 141.962 244.719 141.962 244.182C141.962 243.652 141.886 243.187 141.734 242.79C141.581 242.392 141.357 242.082 141.062 241.86C140.767 241.638 140.403 241.527 139.969 241.527C139.521 241.527 139.148 241.643 138.85 241.875C138.552 242.107 138.326 242.424 138.174 242.825C138.025 243.226 137.95 243.678 137.95 244.182C137.95 244.692 138.026 245.151 138.179 245.559C138.331 245.967 138.557 246.29 138.855 246.528C139.157 246.764 139.528 246.881 139.969 246.881ZM151.297 237.818V248H149.811V237.818H151.297ZM153.577 248V240.364H155.063V248H153.577ZM154.328 239.185C154.069 239.185 153.847 239.099 153.661 238.927C153.479 238.751 153.388 238.542 153.388 238.3C153.388 238.055 153.479 237.846 153.661 237.674C153.847 237.498 154.069 237.411 154.328 237.411C154.586 237.411 154.807 237.498 154.989 237.674C155.174 237.846 155.267 238.055 155.267 238.3C155.267 238.542 155.174 238.751 154.989 238.927C154.807 239.099 154.586 239.185 154.328 239.185ZM157.343 248V240.364H158.77V241.607H158.865C159.024 241.186 159.284 240.857 159.645 240.622C160.006 240.384 160.439 240.264 160.943 240.264C161.453 240.264 161.881 240.384 162.225 240.622C162.573 240.861 162.83 241.189 162.996 241.607H163.076C163.258 241.199 163.548 240.874 163.946 240.632C164.343 240.387 164.817 240.264 165.367 240.264C166.06 240.264 166.625 240.481 167.063 240.915C167.504 241.35 167.724 242.004 167.724 242.879V248H166.237V243.018C166.237 242.501 166.097 242.127 165.815 241.895C165.533 241.663 165.197 241.547 164.806 241.547C164.322 241.547 163.946 241.696 163.677 241.994C163.409 242.289 163.274 242.669 163.274 243.133V248H161.793V242.924C161.793 242.51 161.664 242.177 161.405 241.925C161.147 241.673 160.81 241.547 160.396 241.547C160.114 241.547 159.854 241.621 159.615 241.771C159.38 241.916 159.189 242.12 159.044 242.382C158.901 242.644 158.83 242.947 158.83 243.292V248H157.343ZM169.996 248V240.364H171.483V248H169.996ZM170.747 239.185C170.489 239.185 170.266 239.099 170.081 238.927C169.899 238.751 169.807 238.542 169.807 238.3C169.807 238.055 169.899 237.846 170.081 237.674C170.266 237.498 170.489 237.411 170.747 237.411C171.006 237.411 171.226 237.498 171.408 237.674C171.594 237.846 171.687 238.055 171.687 238.3C171.687 238.542 171.594 238.751 171.408 238.927C171.226 239.099 171.006 239.185 170.747 239.185ZM177.327 240.364V241.557H173.156V240.364H177.327ZM174.275 238.534H175.761V245.758C175.761 246.046 175.804 246.263 175.89 246.409C175.977 246.552 176.088 246.649 176.224 246.702C176.363 246.752 176.514 246.777 176.676 246.777C176.795 246.777 176.9 246.769 176.989 246.752C177.079 246.736 177.148 246.722 177.198 246.712L177.466 247.94C177.38 247.973 177.258 248.007 177.099 248.04C176.94 248.076 176.741 248.096 176.502 248.099C176.111 248.106 175.746 248.036 175.408 247.891C175.07 247.745 174.797 247.519 174.588 247.214C174.379 246.91 174.275 246.527 174.275 246.066V238.534ZM183.237 248V240.364H184.723V248H183.237ZM183.987 239.185C183.729 239.185 183.507 239.099 183.321 238.927C183.139 238.751 183.048 238.542 183.048 238.3C183.048 238.055 183.139 237.846 183.321 237.674C183.507 237.498 183.729 237.411 183.987 237.411C184.246 237.411 184.466 237.498 184.649 237.674C184.834 237.846 184.927 238.055 184.927 238.3C184.927 238.542 184.834 238.751 184.649 238.927C184.466 239.099 184.246 239.185 183.987 239.185ZM192.725 242.228L191.378 242.467C191.322 242.294 191.232 242.13 191.11 241.974C190.99 241.819 190.828 241.691 190.622 241.592C190.417 241.492 190.16 241.442 189.852 241.442C189.431 241.442 189.08 241.537 188.798 241.726C188.516 241.911 188.375 242.152 188.375 242.447C188.375 242.702 188.47 242.907 188.659 243.063C188.848 243.219 189.152 243.347 189.573 243.446L190.786 243.724C191.489 243.887 192.013 244.137 192.357 244.475C192.702 244.813 192.874 245.252 192.874 245.793C192.874 246.25 192.742 246.658 192.477 247.016C192.215 247.37 191.849 247.649 191.378 247.851C190.911 248.053 190.369 248.154 189.752 248.154C188.897 248.154 188.2 247.972 187.659 247.607C187.119 247.239 186.788 246.717 186.665 246.041L188.102 245.822C188.191 246.197 188.375 246.48 188.654 246.673C188.932 246.862 189.295 246.956 189.742 246.956C190.23 246.956 190.619 246.855 190.911 246.653C191.202 246.447 191.348 246.197 191.348 245.902C191.348 245.663 191.259 245.463 191.08 245.3C190.904 245.138 190.634 245.015 190.269 244.933L188.977 244.649C188.264 244.487 187.737 244.228 187.396 243.874C187.058 243.519 186.889 243.07 186.889 242.526C186.889 242.076 187.015 241.681 187.267 241.343C187.518 241.005 187.866 240.741 188.311 240.553C188.755 240.36 189.263 240.264 189.837 240.264C190.662 240.264 191.312 240.443 191.786 240.801C192.26 241.156 192.573 241.631 192.725 242.228ZM202.617 237.818V248H201.076V239.359H201.016L198.58 240.95V239.479L201.121 237.818H202.617ZM209.012 248.139C208.389 248.139 207.829 248.02 207.332 247.781C206.838 247.539 206.443 247.208 206.148 246.787C205.853 246.366 205.696 245.885 205.676 245.345H207.168C207.204 245.783 207.398 246.142 207.749 246.424C208.101 246.706 208.522 246.847 209.012 246.847C209.403 246.847 209.75 246.757 210.051 246.578C210.356 246.396 210.595 246.146 210.767 245.827C210.943 245.509 211.031 245.146 211.031 244.739C211.031 244.324 210.941 243.955 210.762 243.63C210.583 243.305 210.336 243.05 210.021 242.864C209.71 242.679 209.352 242.584 208.947 242.581C208.639 242.581 208.329 242.634 208.018 242.74C207.706 242.846 207.454 242.985 207.262 243.158L205.855 242.949L206.427 237.818H212.025V239.136H207.705L207.381 241.984H207.441C207.64 241.792 207.903 241.631 208.232 241.502C208.563 241.373 208.918 241.308 209.295 241.308C209.915 241.308 210.467 241.456 210.951 241.751C211.438 242.046 211.821 242.448 212.099 242.959C212.381 243.466 212.52 244.049 212.517 244.709C212.52 245.368 212.371 245.957 212.07 246.474C211.771 246.991 211.357 247.398 210.827 247.697C210.3 247.992 209.695 248.139 209.012 248.139ZM225.628 241.035C225.532 240.733 225.402 240.463 225.24 240.224C225.081 239.982 224.89 239.777 224.668 239.608C224.446 239.436 224.193 239.305 223.908 239.215C223.626 239.126 223.316 239.081 222.978 239.081C222.405 239.081 221.888 239.228 221.427 239.523C220.966 239.818 220.602 240.251 220.333 240.821C220.068 241.388 219.935 242.082 219.935 242.904C219.935 243.729 220.07 244.427 220.338 244.997C220.607 245.567 220.974 246 221.442 246.295C221.909 246.59 222.441 246.737 223.038 246.737C223.591 246.737 224.073 246.625 224.484 246.399C224.899 246.174 225.218 245.856 225.444 245.445C225.673 245.03 225.787 244.543 225.787 243.983L226.185 244.058H223.271V242.79H227.273V243.948C227.273 244.803 227.091 245.546 226.727 246.175C226.365 246.802 225.865 247.286 225.225 247.627C224.589 247.969 223.86 248.139 223.038 248.139C222.116 248.139 221.308 247.927 220.611 247.503C219.919 247.079 219.379 246.477 218.991 245.698C218.603 244.916 218.409 243.988 218.409 242.914C218.409 242.102 218.522 241.373 218.747 240.727C218.973 240.08 219.289 239.532 219.697 239.081C220.108 238.627 220.59 238.281 221.143 238.042C221.7 237.8 222.308 237.679 222.968 237.679C223.518 237.679 224.03 237.76 224.504 237.923C224.982 238.085 225.406 238.315 225.777 238.614C226.151 238.912 226.461 239.267 226.707 239.678C226.952 240.085 227.118 240.538 227.204 241.035H225.628ZM229.504 248V237.818H233.232C233.955 237.818 234.553 237.937 235.027 238.176C235.501 238.411 235.856 238.731 236.091 239.136C236.326 239.537 236.444 239.989 236.444 240.493C236.444 240.917 236.366 241.275 236.21 241.567C236.054 241.855 235.846 242.087 235.584 242.263C235.325 242.435 235.04 242.561 234.729 242.641V242.74C235.067 242.757 235.397 242.866 235.718 243.068C236.043 243.267 236.311 243.55 236.523 243.918C236.736 244.286 236.842 244.734 236.842 245.261C236.842 245.781 236.719 246.248 236.474 246.663C236.232 247.074 235.857 247.4 235.35 247.642C234.843 247.881 234.195 248 233.406 248H229.504ZM231.04 246.683H233.257C233.993 246.683 234.52 246.54 234.838 246.255C235.156 245.97 235.315 245.614 235.315 245.186C235.315 244.865 235.234 244.57 235.072 244.301C234.909 244.033 234.677 243.819 234.376 243.66C234.077 243.501 233.723 243.421 233.312 243.421H231.04V246.683ZM231.04 242.223H233.098C233.443 242.223 233.753 242.157 234.028 242.024C234.306 241.892 234.526 241.706 234.689 241.467C234.855 241.225 234.937 240.94 234.937 240.612C234.937 240.191 234.79 239.838 234.495 239.553C234.2 239.268 233.748 239.126 233.138 239.126H231.04V242.223Z" fill="#ADF0DD" fill-opacity="0.65"/>
<path fill-rule="evenodd" clip-rule="evenodd" d="M54.4 211C53.7 207.6 50.7 205 47 205C44.1 205 41.6 206.6 40.4 209C37.3 209.4 35 211.9 35 215C35 218.3 37.7 221 41 221H54C56.8 221 59 218.8 59 216C59 213.4 56.9 211.2 54.4 211ZM49 214V218H45V214H42L47 209L52 214H49Z" fill="#ADF0DD"/>
<rect x="38" y="291" width="475" height="15" rx="7.5" fill="#0D2D2A"/>
<rect x="38" y="291" width="163" height="15" rx="7.5" fill="#ADF0DD"/>
<path d="M446.115 325.818V336H444.574V327.359H444.514L442.078 328.95V327.479L444.619 325.818H446.115ZM452.694 336.169C451.909 336.166 451.238 335.959 450.681 335.548C450.124 335.137 449.698 334.538 449.403 333.753C449.108 332.967 448.961 332.021 448.961 330.914C448.961 329.81 449.108 328.867 449.403 328.085C449.701 327.303 450.129 326.706 450.686 326.295C451.246 325.884 451.915 325.679 452.694 325.679C453.473 325.679 454.141 325.886 454.698 326.3C455.255 326.711 455.681 327.308 455.976 328.09C456.274 328.869 456.423 329.81 456.423 330.914C456.423 332.024 456.276 332.972 455.981 333.758C455.686 334.54 455.26 335.138 454.703 335.553C454.146 335.964 453.477 336.169 452.694 336.169ZM452.694 334.842C453.384 334.842 453.922 334.505 454.31 333.832C454.701 333.16 454.897 332.187 454.897 330.914C454.897 330.069 454.807 329.355 454.628 328.771C454.453 328.185 454.199 327.741 453.868 327.439C453.539 327.134 453.148 326.982 452.694 326.982C452.008 326.982 451.47 327.32 451.079 327.996C450.687 328.672 450.49 329.645 450.487 330.914C450.487 331.763 450.575 332.48 450.75 333.067C450.929 333.65 451.183 334.093 451.511 334.394C451.839 334.692 452.234 334.842 452.694 334.842ZM469.482 329.035C469.385 328.733 469.256 328.463 469.094 328.224C468.935 327.982 468.744 327.777 468.522 327.608C468.3 327.436 468.046 327.305 467.761 327.215C467.48 327.126 467.17 327.081 466.832 327.081C466.258 327.081 465.741 327.228 465.281 327.523C464.82 327.818 464.455 328.251 464.187 328.821C463.922 329.388 463.789 330.082 463.789 330.904C463.789 331.729 463.923 332.427 464.192 332.997C464.46 333.567 464.828 334 465.296 334.295C465.763 334.59 466.295 334.737 466.891 334.737C467.445 334.737 467.927 334.625 468.338 334.399C468.752 334.174 469.072 333.856 469.298 333.445C469.526 333.03 469.641 332.543 469.641 331.983L470.038 332.058H467.125V330.79H471.127V331.948C471.127 332.803 470.945 333.546 470.58 334.175C470.219 334.802 469.719 335.286 469.079 335.627C468.443 335.969 467.713 336.139 466.891 336.139C465.97 336.139 465.161 335.927 464.465 335.503C463.773 335.079 463.232 334.477 462.845 333.698C462.457 332.916 462.263 331.988 462.263 330.914C462.263 330.102 462.376 329.373 462.601 328.727C462.826 328.08 463.143 327.532 463.55 327.081C463.961 326.627 464.444 326.281 464.997 326.042C465.554 325.8 466.162 325.679 466.822 325.679C467.372 325.679 467.884 325.76 468.358 325.923C468.835 326.085 469.26 326.315 469.631 326.614C470.005 326.912 470.315 327.267 470.56 327.678C470.806 328.085 470.971 328.538 471.058 329.035H469.482ZM473.357 336V325.818H477.086C477.809 325.818 478.407 325.937 478.881 326.176C479.355 326.411 479.709 326.731 479.945 327.136C480.18 327.537 480.298 327.989 480.298 328.493C480.298 328.917 480.22 329.275 480.064 329.567C479.908 329.855 479.699 330.087 479.438 330.263C479.179 330.435 478.894 330.561 478.582 330.641V330.74C478.92 330.757 479.25 330.866 479.572 331.068C479.897 331.267 480.165 331.55 480.377 331.918C480.589 332.286 480.695 332.734 480.695 333.261C480.695 333.781 480.573 334.248 480.327 334.663C480.086 335.074 479.711 335.4 479.204 335.642C478.697 335.881 478.049 336 477.26 336H473.357ZM474.894 334.683H477.111C477.847 334.683 478.374 334.54 478.692 334.255C479.01 333.97 479.169 333.614 479.169 333.186C479.169 332.865 479.088 332.57 478.925 332.301C478.763 332.033 478.531 331.819 478.229 331.66C477.931 331.501 477.577 331.421 477.166 331.421H474.894V334.683ZM474.894 330.223H476.952C477.296 330.223 477.606 330.157 477.881 330.024C478.16 329.892 478.38 329.706 478.543 329.467C478.708 329.225 478.791 328.94 478.791 328.612C478.791 328.191 478.644 327.838 478.349 327.553C478.054 327.268 477.601 327.126 476.992 327.126H474.894V330.223ZM486.783 336V325.818H488.319V334.678H492.932V336H486.783ZM498.137 336.154C497.384 336.154 496.736 335.993 496.193 335.672C495.653 335.347 495.235 334.891 494.94 334.305C494.648 333.715 494.503 333.024 494.503 332.232C494.503 331.449 494.648 330.76 494.94 330.163C495.235 329.567 495.646 329.101 496.173 328.766C496.703 328.432 497.323 328.264 498.032 328.264C498.463 328.264 498.881 328.335 499.285 328.478C499.69 328.621 500.052 328.844 500.374 329.149C500.695 329.454 500.949 329.85 501.135 330.337C501.32 330.821 501.413 331.41 501.413 332.102V332.629H495.343V331.516H499.956C499.956 331.125 499.877 330.778 499.718 330.477C499.559 330.172 499.335 329.931 499.047 329.756C498.761 329.58 498.427 329.492 498.042 329.492C497.625 329.492 497.26 329.595 496.949 329.8C496.64 330.003 496.402 330.268 496.233 330.596C496.067 330.921 495.984 331.274 495.984 331.655V332.525C495.984 333.035 496.074 333.469 496.253 333.827C496.435 334.185 496.688 334.459 497.013 334.648C497.338 334.833 497.717 334.926 498.152 334.926C498.433 334.926 498.69 334.886 498.922 334.807C499.154 334.724 499.355 334.601 499.524 334.439C499.693 334.277 499.822 334.076 499.912 333.837L501.319 334.091C501.206 334.505 501.004 334.868 500.712 335.18C500.424 335.488 500.061 335.728 499.623 335.901C499.189 336.07 498.694 336.154 498.137 336.154ZM506.977 328.364V329.557H502.661V328.364H506.977ZM503.844 336V327.479C503.844 327.001 503.949 326.605 504.158 326.29C504.366 325.972 504.643 325.735 504.988 325.58C505.333 325.42 505.707 325.341 506.112 325.341C506.41 325.341 506.665 325.366 506.877 325.415C507.089 325.462 507.247 325.505 507.349 325.545L507.001 326.748C506.932 326.728 506.842 326.705 506.733 326.678C506.624 326.648 506.491 326.634 506.335 326.634C505.974 326.634 505.715 326.723 505.56 326.902C505.407 327.081 505.331 327.339 505.331 327.678V336H503.844ZM512.355 328.364V329.557H508.184V328.364H512.355ZM509.302 326.534H510.789V333.758C510.789 334.046 510.832 334.263 510.918 334.409C511.004 334.552 511.115 334.649 511.251 334.702C511.39 334.752 511.541 334.777 511.704 334.777C511.823 334.777 511.927 334.769 512.017 334.752C512.106 334.736 512.176 334.722 512.226 334.712L512.494 335.94C512.408 335.973 512.285 336.007 512.126 336.04C511.967 336.076 511.768 336.096 511.53 336.099C511.139 336.106 510.774 336.036 510.436 335.891C510.098 335.745 509.824 335.519 509.616 335.214C509.407 334.91 509.302 334.527 509.302 334.066V326.534Z" fill="#ADF0DD"/>
<path d="M42.3402 336.139C41.7171 336.139 41.157 336.02 40.6598 335.781C40.166 335.539 39.7715 335.208 39.4766 334.787C39.1816 334.366 39.0241 333.885 39.0043 333.345H40.4957C40.5322 333.783 40.7261 334.142 41.0774 334.424C41.4287 334.706 41.8497 334.847 42.3402 334.847C42.7313 334.847 43.0777 334.757 43.3793 334.578C43.6842 334.396 43.9228 334.146 44.0952 333.827C44.2708 333.509 44.3587 333.146 44.3587 332.739C44.3587 332.324 44.2692 331.955 44.0902 331.63C43.9112 331.305 43.6643 331.05 43.3494 330.864C43.0379 330.679 42.6799 330.584 42.2756 330.581C41.9673 330.581 41.6574 330.634 41.3459 330.74C41.0343 330.846 40.7824 330.985 40.5902 331.158L39.1832 330.949L39.755 325.818H45.353V327.136H41.0327L40.7095 329.984H40.7692C40.968 329.792 41.2315 329.631 41.5597 329.502C41.8911 329.373 42.2457 329.308 42.6236 329.308C43.2434 329.308 43.7952 329.456 44.2791 329.751C44.7663 330.046 45.1491 330.448 45.4276 330.959C45.7093 331.466 45.8485 332.049 45.8452 332.709C45.8485 333.368 45.6993 333.957 45.3977 334.474C45.0994 334.991 44.6851 335.398 44.1548 335.697C43.6278 335.992 43.023 336.139 42.3402 336.139ZM58.956 329.035C58.8598 328.733 58.7306 328.463 58.5682 328.224C58.4091 327.982 58.2185 327.777 57.9964 327.608C57.7744 327.436 57.5208 327.305 57.2358 327.215C56.9541 327.126 56.6442 327.081 56.3061 327.081C55.7327 327.081 55.2157 327.228 54.755 327.523C54.2943 327.818 53.9297 328.251 53.6612 328.821C53.3961 329.388 53.2635 330.082 53.2635 330.904C53.2635 331.729 53.3977 332.427 53.6662 332.997C53.9346 333.567 54.3025 334 54.7699 334.295C55.2372 334.59 55.7692 334.737 56.3658 334.737C56.9193 334.737 57.4015 334.625 57.8125 334.399C58.2268 334.174 58.5466 333.856 58.772 333.445C59.0007 333.03 59.115 332.543 59.115 331.983L59.5128 332.058H56.5994V330.79H60.6015V331.948C60.6015 332.803 60.4193 333.546 60.0547 334.175C59.6934 334.802 59.1929 335.286 58.5533 335.627C57.9169 335.969 57.1877 336.139 56.3658 336.139C55.4444 336.139 54.6356 335.927 53.9396 335.503C53.2469 335.079 52.7067 334.477 52.3189 333.698C51.9311 332.916 51.7372 331.988 51.7372 330.914C51.7372 330.102 51.8499 329.373 52.0753 328.727C52.3006 328.08 52.6172 327.532 53.0248 327.081C53.4358 326.627 53.9181 326.281 54.4716 326.042C55.0284 325.8 55.6366 325.679 56.2962 325.679C56.8463 325.679 57.3584 325.76 57.8324 325.923C58.3096 326.085 58.7339 326.315 59.1051 326.614C59.4796 326.912 59.7895 327.267 60.0348 327.678C60.2801 328.085 60.4458 328.538 60.5319 329.035H58.956ZM62.8317 336V325.818H66.5603C67.2829 325.818 67.8811 325.937 68.3551 326.176C68.8291 326.411 69.1837 326.731 69.419 327.136C69.6543 327.537 69.772 327.989 69.772 328.493C69.772 328.917 69.6941 329.275 69.5383 329.567C69.3826 329.855 69.1737 330.087 68.9119 330.263C68.6534 330.435 68.3684 330.561 68.0568 330.641V330.74C68.3949 330.757 68.7246 330.866 69.0461 331.068C69.371 331.267 69.6394 331.55 69.8515 331.918C70.0637 332.286 70.1697 332.734 70.1697 333.261C70.1697 333.781 70.0471 334.248 69.8018 334.663C69.5599 335.074 69.1853 335.4 68.6782 335.642C68.1711 335.881 67.5232 336 66.7344 336H62.8317ZM64.3679 334.683H66.5852C67.321 334.683 67.848 334.54 68.1662 334.255C68.4844 333.97 68.6434 333.614 68.6434 333.186C68.6434 332.865 68.5622 332.57 68.3998 332.301C68.2374 332.033 68.0054 331.819 67.7038 331.66C67.4055 331.501 67.0509 331.421 66.6399 331.421H64.3679V334.683ZM64.3679 330.223H66.4261C66.7708 330.223 67.0807 330.157 67.3558 330.024C67.6342 329.892 67.8546 329.706 68.017 329.467C68.1827 329.225 68.2656 328.94 68.2656 328.612C68.2656 328.191 68.1181 327.838 67.8231 327.553C67.5282 327.268 67.0757 327.126 66.4659 327.126H64.3679V330.223ZM82.8045 325.818H84.3457V332.515C84.3457 333.228 84.1783 333.859 83.8435 334.409C83.5088 334.956 83.0381 335.387 82.4316 335.702C81.8251 336.013 81.1141 336.169 80.2988 336.169C79.4868 336.169 78.7775 336.013 78.171 335.702C77.5644 335.387 77.0938 334.956 76.759 334.409C76.4243 333.859 76.2569 333.228 76.2569 332.515V325.818H77.7931V332.391C77.7931 332.851 77.8942 333.261 78.0964 333.619C78.3019 333.977 78.5919 334.258 78.9664 334.464C79.3409 334.666 79.7851 334.767 80.2988 334.767C80.8158 334.767 81.2616 334.666 81.6362 334.464C82.014 334.258 82.3023 333.977 82.5012 333.619C82.7034 333.261 82.8045 332.851 82.8045 332.391V325.818ZM92.4621 330.228L91.1148 330.467C91.0585 330.294 90.969 330.13 90.8464 329.974C90.7271 329.819 90.5646 329.691 90.3592 329.592C90.1537 329.492 89.8968 329.442 89.5886 329.442C89.1676 329.442 88.8163 329.537 88.5346 329.726C88.2529 329.911 88.112 330.152 88.112 330.447C88.112 330.702 88.2065 330.907 88.3954 331.063C88.5843 331.219 88.8892 331.347 89.3101 331.446L90.5232 331.724C91.2259 331.887 91.7495 332.137 92.0942 332.475C92.4389 332.813 92.6113 333.252 92.6113 333.793C92.6113 334.25 92.4787 334.658 92.2136 335.016C91.9517 335.37 91.5855 335.649 91.1148 335.851C90.6475 336.053 90.1056 336.154 89.4891 336.154C88.634 336.154 87.9363 335.972 87.3961 335.607C86.8558 335.239 86.5244 334.717 86.4018 334.041L87.8386 333.822C87.928 334.197 88.112 334.48 88.3904 334.673C88.6688 334.862 89.0317 334.956 89.4792 334.956C89.9664 334.956 90.3558 334.855 90.6475 334.653C90.9392 334.447 91.085 334.197 91.085 333.902C91.085 333.663 90.9955 333.463 90.8165 333.3C90.6409 333.138 90.3708 333.015 90.0062 332.933L88.7136 332.649C88.001 332.487 87.474 332.228 87.1326 331.874C86.7945 331.519 86.6255 331.07 86.6255 330.526C86.6255 330.076 86.7514 329.681 87.0033 329.343C87.2552 329.005 87.6032 328.741 88.0474 328.553C88.4915 328.36 89.0003 328.264 89.5736 328.264C90.3989 328.264 91.0485 328.443 91.5225 328.801C91.9965 329.156 92.3097 329.631 92.4621 330.228ZM97.8169 336.154C97.0645 336.154 96.4166 335.993 95.873 335.672C95.3328 335.347 94.9151 334.891 94.6202 334.305C94.3285 333.715 94.1827 333.024 94.1827 332.232C94.1827 331.449 94.3285 330.76 94.6202 330.163C94.9151 329.567 95.3261 329.101 95.8531 328.766C96.3834 328.432 97.0032 328.264 97.7125 328.264C98.1434 328.264 98.561 328.335 98.9653 328.478C99.3697 328.621 99.7326 328.844 100.054 329.149C100.376 329.454 100.629 329.85 100.815 330.337C101 330.821 101.093 331.41 101.093 332.102V332.629H95.0229V331.516H99.6365C99.6365 331.125 99.5569 330.778 99.3979 330.477C99.2388 330.172 99.015 329.931 98.7267 329.756C98.4417 329.58 98.1069 329.492 97.7224 329.492C97.3048 329.492 96.9402 329.595 96.6287 329.8C96.3204 330.003 96.0818 330.268 95.9128 330.596C95.747 330.921 95.6642 331.274 95.6642 331.655V332.525C95.6642 333.035 95.7537 333.469 95.9327 333.827C96.1149 334.185 96.3685 334.459 96.6933 334.648C97.0181 334.833 97.3976 334.926 97.8318 334.926C98.1135 334.926 98.3704 334.886 98.6024 334.807C98.8344 334.724 99.0349 334.601 99.204 334.439C99.373 334.277 99.5023 334.076 99.5917 333.837L100.999 334.091C100.886 334.505 100.684 334.868 100.392 335.18C100.104 335.488 99.7409 335.728 99.3034 335.901C98.8692 336.07 98.3737 336.154 97.8169 336.154ZM105.881 336.149C105.265 336.149 104.714 335.992 104.231 335.677C103.75 335.359 103.372 334.906 103.097 334.32C102.825 333.73 102.689 333.022 102.689 332.197C102.689 331.371 102.827 330.665 103.102 330.079C103.38 329.492 103.762 329.043 104.246 328.732C104.729 328.42 105.278 328.264 105.891 328.264C106.365 328.264 106.746 328.344 107.035 328.503C107.326 328.659 107.552 328.841 107.711 329.05C107.873 329.259 107.999 329.442 108.089 329.602H108.178V325.818H109.665V336H108.213V334.812H108.089C107.999 334.974 107.87 335.16 107.701 335.369C107.535 335.577 107.306 335.76 107.015 335.915C106.723 336.071 106.345 336.149 105.881 336.149ZM106.209 334.881C106.637 334.881 106.998 334.769 107.293 334.543C107.591 334.315 107.817 333.998 107.969 333.594C108.125 333.189 108.203 332.719 108.203 332.182C108.203 331.652 108.127 331.187 107.974 330.79C107.822 330.392 107.598 330.082 107.303 329.86C107.008 329.638 106.643 329.527 106.209 329.527C105.762 329.527 105.389 329.643 105.091 329.875C104.792 330.107 104.567 330.424 104.415 330.825C104.265 331.226 104.191 331.678 104.191 332.182C104.191 332.692 104.267 333.151 104.42 333.559C104.572 333.967 104.797 334.29 105.096 334.528C105.397 334.764 105.768 334.881 106.209 334.881Z" fill="#ADF0DD" fill-opacity="0.65"/>
<rect x="385" y="205" width="128" height="48" rx="5" fill="#0D2D2A"/>
<g clip-path="url(#clip2_306_821)">
<path d="M411 221.5C406.856 221.5 403.5 224.856 403.5 229C403.5 233.144 406.856 236.5 411 236.5C415.144 236.5 418.5 233.144 418.5 229C418.5 224.856 415.144 221.5 411 221.5ZM414.75 229.75H411.75V232.75H410.25V229.75H407.25V228.25H410.25V225.25H411.75V228.25H414.75V229.75Z" fill="#ADF0DD"/>
</g>
<path d="M429.979 234H428.348L432.012 223.818H433.787L437.451 234H435.82L432.942 225.668H432.862L429.979 234ZM430.252 230.013H435.542V231.305H430.252V230.013ZM441.818 234.149C441.201 234.149 440.651 233.992 440.167 233.677C439.686 233.359 439.309 232.906 439.034 232.32C438.762 231.73 438.626 231.022 438.626 230.197C438.626 229.371 438.763 228.665 439.039 228.079C439.317 227.492 439.698 227.043 440.182 226.732C440.666 226.42 441.214 226.264 441.828 226.264C442.302 226.264 442.683 226.344 442.971 226.503C443.263 226.659 443.488 226.841 443.647 227.05C443.81 227.259 443.936 227.442 444.025 227.602H444.115V223.818H445.601V234H444.149V232.812H444.025C443.936 232.974 443.806 233.16 443.637 233.369C443.472 233.577 443.243 233.76 442.951 233.915C442.659 234.071 442.282 234.149 441.818 234.149ZM442.146 232.881C442.573 232.881 442.935 232.769 443.23 232.543C443.528 232.315 443.753 231.998 443.906 231.594C444.061 231.189 444.139 230.719 444.139 230.182C444.139 229.652 444.063 229.187 443.911 228.79C443.758 228.392 443.534 228.082 443.24 227.86C442.945 227.638 442.58 227.527 442.146 227.527C441.698 227.527 441.325 227.643 441.027 227.875C440.729 228.107 440.503 228.424 440.351 228.825C440.202 229.226 440.127 229.678 440.127 230.182C440.127 230.692 440.204 231.151 440.356 231.559C440.508 231.967 440.734 232.29 441.032 232.528C441.334 232.764 441.705 232.881 442.146 232.881ZM450.861 234.149C450.245 234.149 449.695 233.992 449.211 233.677C448.73 233.359 448.352 232.906 448.077 232.32C447.805 231.73 447.67 231.022 447.67 230.197C447.67 229.371 447.807 228.665 448.082 228.079C448.361 227.492 448.742 227.043 449.226 226.732C449.71 226.42 450.258 226.264 450.871 226.264C451.345 226.264 451.726 226.344 452.015 226.503C452.306 226.659 452.532 226.841 452.691 227.05C452.853 227.259 452.979 227.442 453.069 227.602H453.158V223.818H454.645V234H453.193V232.812H453.069C452.979 232.974 452.85 233.16 452.681 233.369C452.515 233.577 452.287 233.76 451.995 233.915C451.703 234.071 451.325 234.149 450.861 234.149ZM451.189 232.881C451.617 232.881 451.978 232.769 452.273 232.543C452.572 232.315 452.797 231.998 452.949 231.594C453.105 231.189 453.183 230.719 453.183 230.182C453.183 229.652 453.107 229.187 452.954 228.79C452.802 228.392 452.578 228.082 452.283 227.86C451.988 227.638 451.624 227.527 451.189 227.527C450.742 227.527 450.369 227.643 450.071 227.875C449.773 228.107 449.547 228.424 449.395 228.825C449.246 229.226 449.171 229.678 449.171 230.182C449.171 230.692 449.247 231.151 449.4 231.559C449.552 231.967 449.778 232.29 450.076 232.528C450.377 232.764 450.749 232.881 451.189 232.881ZM461.151 223.818H463.015L466.257 231.733H466.376L469.617 223.818H471.482V234H470.02V226.632H469.926L466.923 233.985H465.71L462.707 226.627H462.612V234H461.151V223.818ZM477.092 234.154C476.377 234.154 475.752 233.99 475.218 233.662C474.685 233.334 474.27 232.875 473.975 232.285C473.68 231.695 473.533 231.005 473.533 230.217C473.533 229.424 473.68 228.732 473.975 228.138C474.27 227.545 474.685 227.085 475.218 226.756C475.752 226.428 476.377 226.264 477.092 226.264C477.808 226.264 478.433 226.428 478.967 226.756C479.5 227.085 479.915 227.545 480.21 228.138C480.505 228.732 480.652 229.424 480.652 230.217C480.652 231.005 480.505 231.695 480.21 232.285C479.915 232.875 479.5 233.334 478.967 233.662C478.433 233.99 477.808 234.154 477.092 234.154ZM477.097 232.906C477.561 232.906 477.946 232.784 478.251 232.538C478.556 232.293 478.781 231.967 478.927 231.559C479.076 231.151 479.151 230.702 479.151 230.212C479.151 229.724 479.076 229.277 478.927 228.869C478.781 228.458 478.556 228.129 478.251 227.88C477.946 227.631 477.561 227.507 477.097 227.507C476.63 227.507 476.242 227.631 475.934 227.88C475.629 228.129 475.402 228.458 475.253 228.869C475.107 229.277 475.034 229.724 475.034 230.212C475.034 230.702 475.107 231.151 475.253 231.559C475.402 231.967 475.629 232.293 475.934 232.538C476.242 232.784 476.63 232.906 477.097 232.906ZM482.591 234V226.364H484.028V227.577H484.108C484.247 227.166 484.492 226.843 484.844 226.607C485.198 226.369 485.599 226.249 486.047 226.249C486.139 226.249 486.249 226.253 486.375 226.259C486.504 226.266 486.605 226.274 486.678 226.284V227.706C486.618 227.689 486.512 227.671 486.36 227.651C486.207 227.628 486.055 227.616 485.902 227.616C485.551 227.616 485.238 227.691 484.963 227.84C484.691 227.986 484.476 228.19 484.317 228.452C484.157 228.71 484.078 229.005 484.078 229.337V234H482.591ZM491.262 234.154C490.51 234.154 489.862 233.993 489.318 233.672C488.778 233.347 488.36 232.891 488.065 232.305C487.774 231.715 487.628 231.024 487.628 230.232C487.628 229.449 487.774 228.76 488.065 228.163C488.36 227.567 488.771 227.101 489.298 226.766C489.829 226.432 490.449 226.264 491.158 226.264C491.589 226.264 492.006 226.335 492.411 226.478C492.815 226.621 493.178 226.844 493.499 227.149C493.821 227.454 494.074 227.85 494.26 228.337C494.446 228.821 494.538 229.41 494.538 230.102V230.629H488.468V229.516H493.082C493.082 229.125 493.002 228.778 492.843 228.477C492.684 228.172 492.46 227.931 492.172 227.756C491.887 227.58 491.552 227.492 491.168 227.492C490.75 227.492 490.386 227.595 490.074 227.8C489.766 228.003 489.527 228.268 489.358 228.596C489.192 228.921 489.11 229.274 489.11 229.655V230.525C489.11 231.035 489.199 231.469 489.378 231.827C489.56 232.185 489.814 232.459 490.139 232.648C490.463 232.833 490.843 232.926 491.277 232.926C491.559 232.926 491.816 232.886 492.048 232.807C492.28 232.724 492.48 232.601 492.649 232.439C492.818 232.277 492.948 232.076 493.037 231.837L494.444 232.091C494.331 232.505 494.129 232.868 493.837 233.18C493.549 233.488 493.186 233.728 492.749 233.901C492.315 234.07 491.819 234.154 491.262 234.154Z" fill="#ADF0DD"/>
<defs>
<clipPath id="clip0_306_821">
<rect width="18" height="18" fill="white" transform="translate(469 62)"/>
</clipPath>
<clipPath id="clip1_306_821">
<rect width="20.3571" height="15" fill="white" transform="translate(106 49)"/>
</clipPath>
<clipPath id="clip2_306_821">
<rect width="18" height="18" fill="white" transform="translate(402 220)"/>
</clipPath>
</defs>
</svg>
