<svg width="641" height="254" viewBox="0 0 641 254" fill="none" xmlns="http://www.w3.org/2000/svg">
<path d="M6 0.5C2.96243 0.5 0.5 2.96244 0.5 6V247.869C0.5 250.906 2.96243 253.369 6 253.369H635C638.038 253.369 640.5 250.906 640.5 247.869V6C640.5 2.96243 638.038 0.5 635 0.5H6Z" fill="#0D2D2A" stroke="#0D2D2A"/>
<path d="M91.2645 61.4092C91.1949 60.7579 90.9015 60.2508 90.3845 59.8879C89.8724 59.5249 89.2062 59.3435 88.3859 59.3435C87.8092 59.3435 87.3145 59.4305 86.9019 59.6045C86.4893 59.7785 86.1736 60.0146 85.9548 60.3129C85.7361 60.6112 85.6242 60.9518 85.6192 61.3346C85.6192 61.6528 85.6913 61.9287 85.8355 62.1624C85.9846 62.396 86.186 62.5949 86.4395 62.759C86.6931 62.9181 86.974 63.0523 87.2822 63.1617C87.5905 63.271 87.9012 63.363 88.2144 63.4376L89.6462 63.7955C90.2229 63.9298 90.7773 64.1112 91.3092 64.3399C91.8461 64.5686 92.3259 64.857 92.7485 65.205C93.176 65.553 93.5141 65.9731 93.7627 66.4653C94.0113 66.9575 94.1356 67.5342 94.1356 68.1954C94.1356 69.0903 93.9069 69.8783 93.4495 70.5594C92.9921 71.2355 92.3309 71.765 91.4658 72.1478C90.6057 72.5257 89.5642 72.7146 88.3412 72.7146C87.153 72.7146 86.1214 72.5306 85.2464 72.1627C84.3763 71.7948 83.6952 71.2579 83.203 70.5519C82.7158 69.846 82.4523 68.9859 82.4126 67.9717H85.1345C85.1743 68.5036 85.3383 68.9461 85.6267 69.2991C85.915 69.6521 86.2904 69.9156 86.7528 70.0896C87.2201 70.2636 87.7421 70.3506 88.3188 70.3506C88.9204 70.3506 89.4474 70.2611 89.8998 70.0821C90.3572 69.8982 90.7151 69.6446 90.9736 69.3215C91.2322 68.9933 91.3639 68.6105 91.3689 68.173C91.3639 67.7753 91.2471 67.4472 91.0184 67.1887C90.7897 66.9252 90.469 66.7064 90.0564 66.5324C89.6487 66.3534 89.1714 66.1943 88.6246 66.0551L86.887 65.6077C85.6292 65.2845 84.6349 64.7948 83.904 64.1386C83.1782 63.4774 82.8153 62.5999 82.8153 61.5061C82.8153 60.6063 83.0589 59.8183 83.5461 59.1421C84.0383 58.466 84.7069 57.9415 85.5521 57.5686C86.3973 57.1908 87.3543 57.0019 88.4232 57.0019C89.507 57.0019 90.4566 57.1908 91.2719 57.5686C92.0922 57.9415 92.7361 58.461 93.2034 59.1272C93.6707 59.7884 93.9118 60.5491 93.9268 61.4092H91.2645ZM102.203 61.0289V63.1169H95.6177V61.0289H102.203ZM97.2434 58.2845H99.943V69.0381C99.943 69.401 99.9977 69.6794 100.107 69.8733C100.221 70.0622 100.371 70.1915 100.555 70.2611C100.738 70.3307 100.942 70.3655 101.166 70.3655C101.335 70.3655 101.489 70.3531 101.628 70.3282C101.773 70.3034 101.882 70.281 101.956 70.2611L102.411 72.3715C102.267 72.4213 102.061 72.4759 101.792 72.5356C101.529 72.5953 101.206 72.6301 100.823 72.64C100.147 72.6599 99.5378 72.558 98.9959 72.3343C98.454 72.1056 98.024 71.7526 97.7058 71.2753C97.3926 70.798 97.2385 70.2014 97.2434 69.4855V58.2845ZM109.334 72.7071C108.215 72.7071 107.246 72.461 106.425 71.9688C105.605 71.4767 104.969 70.7881 104.516 69.9031C104.069 69.0182 103.845 67.9841 103.845 66.8009C103.845 65.6176 104.069 64.5811 104.516 63.6911C104.969 62.8012 105.605 62.1102 106.425 61.618C107.246 61.1258 108.215 60.8797 109.334 60.8797C110.452 60.8797 111.422 61.1258 112.242 61.618C113.062 62.1102 113.696 62.8012 114.144 63.6911C114.596 64.5811 114.822 65.6176 114.822 66.8009C114.822 67.9841 114.596 69.0182 114.144 69.9031C113.696 70.7881 113.062 71.4767 112.242 71.9688C111.422 72.461 110.452 72.7071 109.334 72.7071ZM109.349 70.5445C109.955 70.5445 110.462 70.3779 110.87 70.0448C111.278 69.7068 111.581 69.2544 111.78 68.6876C111.984 68.1208 112.085 67.4894 112.085 66.7934C112.085 66.0924 111.984 65.4585 111.78 64.8918C111.581 64.32 111.278 63.8651 110.87 63.5271C110.462 63.189 109.955 63.02 109.349 63.02C108.727 63.02 108.21 63.189 107.797 63.5271C107.39 63.8651 107.084 64.32 106.88 64.8918C106.681 65.4585 106.582 66.0924 106.582 66.7934C106.582 67.4894 106.681 68.1208 106.88 68.6876C107.084 69.2544 107.39 69.7068 107.797 70.0448C108.21 70.3779 108.727 70.5445 109.349 70.5445ZM117.114 72.4834V61.0289H119.731V62.9379H119.85C120.059 62.2767 120.417 61.7671 120.924 61.4092C121.436 61.0463 122.021 60.8648 122.677 60.8648C122.826 60.8648 122.993 60.8722 123.176 60.8872C123.365 60.8971 123.522 60.9145 123.646 60.9394V63.4227C123.532 63.3829 123.35 63.3481 123.102 63.3183C122.858 63.2835 122.622 63.2661 122.393 63.2661C121.901 63.2661 121.459 63.373 121.066 63.5867C120.678 63.7955 120.373 64.0864 120.149 64.4593C119.925 64.8321 119.813 65.2622 119.813 65.7494V72.4834H117.114ZM128.531 72.7146C127.805 72.7146 127.151 72.5853 126.57 72.3268C125.993 72.0633 125.536 71.6755 125.197 71.1634C124.864 70.6514 124.698 70.02 124.698 69.2693C124.698 68.623 124.817 68.0885 125.056 67.6659C125.294 67.2433 125.62 66.9053 126.033 66.6517C126.445 66.3982 126.91 66.2068 127.427 66.0775C127.949 65.9433 128.489 65.8463 129.045 65.7867C129.717 65.7171 130.261 65.6549 130.679 65.6002C131.096 65.5406 131.4 65.4511 131.588 65.3318C131.782 65.2075 131.879 65.0161 131.879 64.7575V64.7128C131.879 64.151 131.713 63.716 131.38 63.4078C131.047 63.0995 130.567 62.9454 129.94 62.9454C129.279 62.9454 128.755 63.0896 128.367 63.3779C127.984 63.6663 127.725 64.0068 127.591 64.3996L125.071 64.0416C125.27 63.3456 125.598 62.7639 126.055 62.2966C126.512 61.8243 127.072 61.4713 127.733 61.2377C128.394 60.999 129.125 60.8797 129.925 60.8797C130.477 60.8797 131.027 60.9443 131.574 61.0736C132.12 61.2029 132.62 61.4166 133.072 61.7149C133.525 62.0083 133.888 62.4085 134.161 62.9156C134.44 63.4227 134.579 64.0566 134.579 64.8172V72.4834H131.984V70.9099H131.894C131.73 71.2281 131.499 71.5264 131.201 71.8048C130.907 72.0782 130.537 72.2994 130.089 72.4685C129.647 72.6325 129.127 72.7146 128.531 72.7146ZM129.232 70.7309C129.774 70.7309 130.244 70.624 130.641 70.4102C131.039 70.1915 131.345 69.9031 131.559 69.5452C131.777 69.1872 131.887 68.797 131.887 68.3744V67.0246C131.802 67.0942 131.658 67.1588 131.454 67.2185C131.255 67.2781 131.032 67.3303 130.783 67.3751C130.534 67.4198 130.288 67.4596 130.045 67.4944C129.801 67.5292 129.59 67.559 129.411 67.5839C129.008 67.6386 128.648 67.7281 128.33 67.8524C128.011 67.9767 127.76 68.1507 127.576 68.3744C127.392 68.5931 127.3 68.8765 127.3 69.2245C127.3 69.7217 127.482 70.097 127.845 70.3506C128.208 70.6041 128.67 70.7309 129.232 70.7309ZM142.275 77.0175C141.305 77.0175 140.473 76.8857 139.777 76.6222C139.081 76.3637 138.521 76.0157 138.099 75.5782C137.676 75.1407 137.383 74.656 137.219 74.124L139.65 73.5349C139.759 73.7586 139.918 73.9798 140.127 74.1986C140.336 74.4223 140.617 74.6063 140.97 74.7504C141.328 74.8996 141.778 74.9742 142.32 74.9742C143.085 74.9742 143.719 74.7877 144.221 74.4149C144.723 74.047 144.974 73.4404 144.974 72.5953V70.4252H144.84C144.701 70.7036 144.497 70.9894 144.229 71.2828C143.965 71.5761 143.615 71.8222 143.177 72.021C142.745 72.2199 142.2 72.3193 141.544 72.3193C140.664 72.3193 139.866 72.113 139.15 71.7004C138.439 71.2828 137.873 70.6613 137.45 69.836C137.032 69.0058 136.824 67.9667 136.824 66.7188C136.824 65.461 137.032 64.3996 137.45 63.5345C137.873 62.6645 138.442 62.0058 139.158 61.5583C139.874 61.1059 140.672 60.8797 141.551 60.8797C142.223 60.8797 142.775 60.9941 143.207 61.2227C143.645 61.4465 143.993 61.7174 144.251 62.0356C144.51 62.3488 144.706 62.6446 144.84 62.923H144.989V61.0289H147.652V72.6698C147.652 73.6492 147.418 74.4596 146.951 75.1009C146.483 75.7423 145.844 76.222 145.034 76.5402C144.224 76.8584 143.304 77.0175 142.275 77.0175ZM142.297 70.2014C142.869 70.2014 143.356 70.0622 143.759 69.7838C144.162 69.5054 144.467 69.1052 144.676 68.5832C144.885 68.0612 144.989 67.4347 144.989 66.7039C144.989 65.983 144.885 65.3517 144.676 64.8097C144.472 64.2678 144.169 63.8477 143.766 63.5494C143.369 63.2462 142.879 63.0945 142.297 63.0945C141.696 63.0945 141.194 63.2512 140.791 63.5644C140.388 63.8776 140.085 64.3076 139.881 64.8545C139.677 65.3964 139.575 66.0129 139.575 66.7039C139.575 67.4049 139.677 68.0189 139.881 68.5459C140.09 69.0679 140.396 69.4756 140.798 69.7689C141.206 70.0573 141.706 70.2014 142.297 70.2014ZM155.489 72.7071C154.341 72.7071 153.349 72.4685 152.514 71.9912C151.684 71.509 151.045 70.8279 150.597 69.9479C150.15 69.0629 149.926 68.0214 149.926 66.8232C149.926 65.645 150.15 64.6109 150.597 63.721C151.05 62.8261 151.681 62.1301 152.491 61.6329C153.302 61.1308 154.254 60.8797 155.348 60.8797C156.054 60.8797 156.72 60.9941 157.346 61.2227C157.978 61.4465 158.534 61.7945 159.017 62.2668C159.504 62.7391 159.887 63.3406 160.165 64.0715C160.444 64.7973 160.583 65.6624 160.583 66.6666V67.4944H151.194V65.6748H157.995C157.99 65.1578 157.878 64.6979 157.659 64.2952C157.441 63.8875 157.135 63.5669 156.742 63.3332C156.354 63.0995 155.902 62.9827 155.385 62.9827C154.833 62.9827 154.348 63.1169 153.931 63.3854C153.513 63.6489 153.188 63.9969 152.954 64.4294C152.725 64.857 152.608 65.3268 152.603 65.8389V67.4273C152.603 68.0935 152.725 68.6652 152.969 69.1425C153.212 69.6148 153.553 69.9777 153.99 70.2313C154.428 70.4798 154.94 70.6041 155.527 70.6041C155.919 70.6041 156.275 70.5494 156.593 70.4401C156.911 70.3257 157.187 70.1592 157.421 69.9404C157.654 69.7217 157.831 69.4507 157.95 69.1276L160.471 69.411C160.312 70.0771 160.009 70.6588 159.561 71.156C159.119 71.6482 158.552 72.031 157.861 72.3044C157.17 72.5729 156.379 72.7071 155.489 72.7071Z" fill="#ADF0DD"/>
<path d="M44.0966 93.1175H45.961L49.2025 101.032H49.3218L52.5633 93.1175H54.4276V103.299H52.966V95.9314H52.8715L49.8687 103.284H48.6556L45.6527 95.9264H45.5583V103.299H44.0966V93.1175ZM60.0384 103.453C59.3225 103.453 58.6977 103.289 58.1641 102.961C57.6305 102.633 57.2162 102.174 56.9212 101.584C56.6262 100.994 56.4787 100.305 56.4787 99.5159C56.4787 98.7238 56.6262 98.0311 56.9212 97.4378C57.2162 96.8445 57.6305 96.3838 58.1641 96.0557C58.6977 95.7276 59.3225 95.5635 60.0384 95.5635C60.7543 95.5635 61.3791 95.7276 61.9127 96.0557C62.4463 96.3838 62.8606 96.8445 63.1556 97.4378C63.4506 98.0311 63.598 98.7238 63.598 99.5159C63.598 100.305 63.4506 100.994 63.1556 101.584C62.8606 102.174 62.4463 102.633 61.9127 102.961C61.3791 103.289 60.7543 103.453 60.0384 103.453ZM60.0434 102.206C60.5074 102.206 60.8918 102.083 61.1968 101.838C61.5017 101.592 61.7271 101.266 61.8729 100.858C62.0221 100.451 62.0966 100.001 62.0966 99.511C62.0966 99.0237 62.0221 98.5763 61.8729 98.1686C61.7271 97.7576 61.5017 97.4279 61.1968 97.1793C60.8918 96.9307 60.5074 96.8064 60.0434 96.8064C59.576 96.8064 59.1882 96.9307 58.88 97.1793C58.5751 97.4279 58.348 97.7576 58.1989 98.1686C58.0531 98.5763 57.9802 99.0237 57.9802 99.511C57.9802 100.001 58.0531 100.451 58.1989 100.858C58.348 101.266 58.5751 101.592 58.88 101.838C59.1882 102.083 59.576 102.206 60.0434 102.206ZM67.0238 98.7652V103.299H65.5373V95.663H66.9642V96.9059H67.0586C67.2343 96.5015 67.5094 96.1767 67.8839 95.9314C68.2617 95.6862 68.7374 95.5635 69.3108 95.5635C69.8311 95.5635 70.2868 95.6729 70.6779 95.8916C71.069 96.1071 71.3723 96.4286 71.5877 96.8561C71.8032 97.2837 71.9109 97.8123 71.9109 98.4421V103.299H70.4244V98.621C70.4244 98.0675 70.2802 97.635 69.9919 97.3235C69.7035 97.0086 69.3074 96.8512 68.8037 96.8512C68.459 96.8512 68.1524 96.9257 67.8839 97.0749C67.6188 97.224 67.4083 97.4428 67.2525 97.7311C67.1001 98.0162 67.0238 98.3609 67.0238 98.7652ZM77.7491 95.663V96.8561H73.578V95.663H77.7491ZM74.6966 93.8334H76.1831V101.057C76.1831 101.345 76.2262 101.563 76.3123 101.708C76.3985 101.851 76.5096 101.949 76.6454 102.002C76.7846 102.051 76.9355 102.076 77.0979 102.076C77.2172 102.076 77.3216 102.068 77.4111 102.051C77.5006 102.035 77.5702 102.022 77.6199 102.012L77.8883 103.24C77.8022 103.273 77.6795 103.306 77.5204 103.339C77.3614 103.376 77.1625 103.395 76.9239 103.399C76.5328 103.405 76.1682 103.336 75.8301 103.19C75.492 103.044 75.2186 102.819 75.0098 102.514C74.801 102.209 74.6966 101.826 74.6966 101.365V93.8334ZM81.3241 98.7652V103.299H79.8376V93.1175H81.3042V96.9059H81.3986C81.5776 96.4949 81.851 96.1684 82.2189 95.9264C82.5868 95.6845 83.0674 95.5635 83.6607 95.5635C84.1844 95.5635 84.6418 95.6712 85.0329 95.8867C85.4273 96.1021 85.7322 96.4236 85.9476 96.8512C86.1664 97.2754 86.2758 97.8057 86.2758 98.4421V103.299H84.7893V98.621C84.7893 98.0609 84.6451 97.6267 84.3567 97.3185C84.0684 97.0069 83.6673 96.8512 83.1536 96.8512C82.8023 96.8512 82.4874 96.9257 82.209 97.0749C81.9339 97.224 81.7168 97.4428 81.5577 97.7311C81.4019 98.0162 81.3241 98.3609 81.3241 98.7652ZM90.0259 93.1175V103.299H88.5394V93.1175H90.0259ZM93.2454 106.163C93.0233 106.163 92.8211 106.145 92.6389 106.108C92.4566 106.075 92.3207 106.039 92.2312 105.999L92.5891 104.781C92.8609 104.854 93.1029 104.885 93.315 104.875C93.5271 104.865 93.7144 104.786 93.8768 104.637C94.0425 104.488 94.1883 104.244 94.3143 103.906L94.4982 103.399L91.7042 95.663H93.2951L95.2291 101.589H95.3086L97.2425 95.663H98.8384L95.6914 104.318C95.5456 104.716 95.36 105.053 95.1346 105.328C94.9092 105.606 94.6407 105.815 94.3292 105.954C94.0176 106.093 93.6564 106.163 93.2454 106.163ZM110.223 97.5273L108.876 97.7659C108.819 97.5936 108.73 97.4295 108.607 97.2737C108.488 97.118 108.325 96.9904 108.12 96.8909C107.914 96.7915 107.657 96.7418 107.349 96.7418C106.928 96.7418 106.577 96.8362 106.295 97.0252C106.014 97.2108 105.873 97.4511 105.873 97.746C105.873 98.0013 105.967 98.2068 106.156 98.3625C106.345 98.5183 106.65 98.6459 107.071 98.7453L108.284 99.0237C108.987 99.1862 109.51 99.4364 109.855 99.7745C110.2 100.113 110.372 100.552 110.372 101.092C110.372 101.549 110.239 101.957 109.974 102.315C109.712 102.67 109.346 102.948 108.876 103.15C108.408 103.352 107.866 103.453 107.25 103.453C106.395 103.453 105.697 103.271 105.157 102.907C104.617 102.539 104.285 102.017 104.162 101.341L105.599 101.122C105.689 101.496 105.873 101.78 106.151 101.972C106.429 102.161 106.792 102.255 107.24 102.255C107.727 102.255 108.117 102.154 108.408 101.952C108.7 101.747 108.846 101.496 108.846 101.201C108.846 100.963 108.756 100.762 108.577 100.6C108.402 100.437 108.131 100.315 107.767 100.232L106.474 99.9485C105.762 99.7861 105.235 99.5275 104.893 99.1729C104.555 98.8183 104.386 98.3692 104.386 97.8256C104.386 97.3748 104.512 96.9804 104.764 96.6424C105.016 96.3043 105.364 96.0408 105.808 95.8519C106.252 95.6596 106.761 95.5635 107.334 95.5635C108.16 95.5635 108.809 95.7425 109.283 96.1005C109.757 96.4551 110.07 96.9307 110.223 97.5273ZM115.851 95.663V96.8561H111.68V95.663H115.851ZM112.798 93.8334H114.285V101.057C114.285 101.345 114.328 101.563 114.414 101.708C114.5 101.851 114.611 101.949 114.747 102.002C114.887 102.051 115.037 102.076 115.2 102.076C115.319 102.076 115.423 102.068 115.513 102.051C115.602 102.035 115.672 102.022 115.722 102.012L115.99 103.24C115.904 103.273 115.781 103.306 115.622 103.339C115.463 103.376 115.264 103.395 115.026 103.399C114.635 103.405 114.27 103.336 113.932 103.19C113.594 103.044 113.32 102.819 113.112 102.514C112.903 102.209 112.798 101.826 112.798 101.365V93.8334ZM120.91 103.453C120.194 103.453 119.569 103.289 119.036 102.961C118.502 102.633 118.088 102.174 117.793 101.584C117.498 100.994 117.35 100.305 117.35 99.5159C117.35 98.7238 117.498 98.0311 117.793 97.4378C118.088 96.8445 118.502 96.3838 119.036 96.0557C119.569 95.7276 120.194 95.5635 120.91 95.5635C121.626 95.5635 122.251 95.7276 122.784 96.0557C123.318 96.3838 123.732 96.8445 124.027 97.4378C124.322 98.0311 124.47 98.7238 124.47 99.5159C124.47 100.305 124.322 100.994 124.027 101.584C123.732 102.174 123.318 102.633 122.784 102.961C122.251 103.289 121.626 103.453 120.91 103.453ZM120.915 102.206C121.379 102.206 121.763 102.083 122.068 101.838C122.373 101.592 122.599 101.266 122.744 100.858C122.894 100.451 122.968 100.001 122.968 99.511C122.968 99.0237 122.894 98.5763 122.744 98.1686C122.599 97.7576 122.373 97.4279 122.068 97.1793C121.763 96.9307 121.379 96.8064 120.915 96.8064C120.448 96.8064 120.06 96.9307 119.752 97.1793C119.447 97.4279 119.22 97.7576 119.07 98.1686C118.925 98.5763 118.852 99.0237 118.852 99.511C118.852 100.001 118.925 100.451 119.07 100.858C119.22 101.266 119.447 101.592 119.752 101.838C120.06 102.083 120.448 102.206 120.915 102.206ZM126.409 103.299V95.663H127.846V96.876H127.925C128.064 96.465 128.31 96.1419 128.661 95.9066C129.016 95.6679 129.417 95.5486 129.864 95.5486C129.957 95.5486 130.066 95.5519 130.192 95.5585C130.322 95.5652 130.423 95.5735 130.496 95.5834V97.0053C130.436 96.9887 130.33 96.9705 130.177 96.9506C130.025 96.9274 129.872 96.9158 129.72 96.9158C129.369 96.9158 129.055 96.9904 128.78 97.1395C128.509 97.2853 128.293 97.4892 128.134 97.751C127.975 98.0095 127.895 98.3045 127.895 98.636V103.299H126.409ZM134.216 103.468C133.732 103.468 133.294 103.379 132.903 103.2C132.512 103.018 132.202 102.754 131.974 102.409C131.748 102.065 131.636 101.642 131.636 101.142C131.636 100.711 131.718 100.356 131.884 100.078C132.05 99.7993 132.274 99.5789 132.555 99.4165C132.837 99.2541 133.152 99.1315 133.5 99.0486C133.848 98.9657 134.203 98.9028 134.564 98.8597C135.021 98.8067 135.392 98.7636 135.678 98.7304C135.963 98.694 136.17 98.636 136.299 98.5564C136.428 98.4769 136.493 98.3476 136.493 98.1686V98.1338C136.493 97.6996 136.37 97.3632 136.125 97.1246C135.883 96.886 135.522 96.7666 135.041 96.7666C134.541 96.7666 134.146 96.8777 133.858 97.0997C133.573 97.3185 133.376 97.5621 133.266 97.8306L131.869 97.5124C132.035 97.0484 132.277 96.6738 132.595 96.3888C132.917 96.1005 133.286 95.8916 133.704 95.7624C134.121 95.6298 134.561 95.5635 135.021 95.5635C135.326 95.5635 135.649 95.6 135.991 95.6729C136.335 95.7425 136.657 95.8718 136.955 96.0607C137.257 96.2496 137.504 96.5197 137.696 96.871C137.888 97.2191 137.984 97.6715 137.984 98.2283V103.299H136.533V102.255H136.473C136.377 102.448 136.233 102.636 136.04 102.822C135.848 103.008 135.601 103.162 135.3 103.284C134.998 103.407 134.637 103.468 134.216 103.468ZM134.539 102.275C134.95 102.275 135.301 102.194 135.593 102.032C135.888 101.869 136.112 101.657 136.264 101.395C136.42 101.13 136.498 100.847 136.498 100.545V99.5607C136.445 99.6137 136.342 99.6634 136.19 99.7098C136.04 99.7529 135.87 99.791 135.678 99.8242C135.485 99.854 135.298 99.8822 135.116 99.9087C134.933 99.9319 134.781 99.9518 134.658 99.9684C134.37 100.005 134.106 100.066 133.868 100.152C133.633 100.238 133.444 100.363 133.301 100.525C133.162 100.684 133.092 100.896 133.092 101.162C133.092 101.529 133.228 101.808 133.5 101.997C133.772 102.182 134.118 102.275 134.539 102.275ZM143.446 106.322C142.839 106.322 142.317 106.242 141.88 106.083C141.446 105.924 141.091 105.714 140.816 105.452C140.541 105.19 140.335 104.903 140.2 104.592L141.477 104.065C141.567 104.211 141.686 104.365 141.835 104.527C141.988 104.693 142.193 104.834 142.452 104.95C142.713 105.066 143.05 105.124 143.461 105.124C144.024 105.124 144.49 104.986 144.858 104.711C145.226 104.439 145.41 104.005 145.41 103.409V101.907H145.315C145.226 102.07 145.097 102.25 144.928 102.449C144.762 102.648 144.533 102.82 144.241 102.966C143.95 103.112 143.57 103.185 143.103 103.185C142.5 103.185 141.956 103.044 141.472 102.762C140.992 102.477 140.611 102.058 140.329 101.505C140.05 100.948 139.911 100.263 139.911 99.4513C139.911 98.6393 140.049 97.9433 140.324 97.3632C140.602 96.7832 140.983 96.3391 141.467 96.0309C141.951 95.7193 142.5 95.5635 143.113 95.5635C143.587 95.5635 143.97 95.6431 144.261 95.8022C144.553 95.9579 144.78 96.1402 144.942 96.349C145.108 96.5578 145.236 96.7418 145.325 96.9009H145.435V95.663H146.891V103.468C146.891 104.125 146.739 104.663 146.434 105.084C146.129 105.505 145.716 105.817 145.196 106.019C144.679 106.221 144.096 106.322 143.446 106.322ZM143.431 101.952C143.859 101.952 144.22 101.853 144.515 101.654C144.813 101.452 145.039 101.163 145.191 100.789C145.347 100.411 145.425 99.9584 145.425 99.4314C145.425 98.9177 145.348 98.4653 145.196 98.0742C145.044 97.6831 144.82 97.3782 144.525 97.1594C144.23 96.9373 143.865 96.8263 143.431 96.8263C142.984 96.8263 142.611 96.9423 142.312 97.1743C142.014 97.403 141.789 97.7146 141.636 98.109C141.487 98.5034 141.413 98.9442 141.413 99.4314C141.413 99.9319 141.489 100.371 141.641 100.749C141.794 101.127 142.019 101.422 142.317 101.634C142.619 101.846 142.99 101.952 143.431 101.952ZM152.456 103.453C151.704 103.453 151.056 103.293 150.512 102.971C149.972 102.646 149.554 102.191 149.259 101.604C148.968 101.014 148.822 100.323 148.822 99.5309C148.822 98.7487 148.968 98.0593 149.259 97.4627C149.554 96.8661 149.965 96.4004 150.492 96.0657C151.023 95.7309 151.642 95.5635 152.352 95.5635C152.783 95.5635 153.2 95.6348 153.605 95.7773C154.009 95.9198 154.372 96.1435 154.693 96.4485C155.015 96.7534 155.268 97.1495 155.454 97.6367C155.64 98.1206 155.732 98.7089 155.732 99.4016V99.9286H149.662V98.8149H154.276C154.276 98.4238 154.196 98.0775 154.037 97.7759C153.878 97.471 153.654 97.2307 153.366 97.055C153.081 96.8793 152.746 96.7915 152.362 96.7915C151.944 96.7915 151.579 96.8943 151.268 97.0997C150.96 97.3019 150.721 97.5671 150.552 97.8952C150.386 98.22 150.303 98.573 150.303 98.9541V99.8242C150.303 100.335 150.393 100.769 150.572 101.127C150.754 101.485 151.008 101.758 151.333 101.947C151.657 102.133 152.037 102.225 152.471 102.225C152.753 102.225 153.01 102.186 153.242 102.106C153.474 102.023 153.674 101.901 153.843 101.738C154.012 101.576 154.141 101.375 154.231 101.137L155.638 101.39C155.525 101.805 155.323 102.167 155.031 102.479C154.743 102.787 154.38 103.028 153.943 103.2C153.508 103.369 153.013 103.453 152.456 103.453ZM163.133 93.1175V103.299H161.647V93.1175H163.133ZM165.413 103.299V95.663H166.9V103.299H165.413ZM166.164 94.4847C165.905 94.4847 165.683 94.3985 165.498 94.2262C165.315 94.0505 165.224 93.8417 165.224 93.5997C165.224 93.3545 165.315 93.1457 165.498 92.9733C165.683 92.7977 165.905 92.7098 166.164 92.7098C166.422 92.7098 166.643 92.7977 166.825 92.9733C167.011 93.1457 167.103 93.3545 167.103 93.5997C167.103 93.8417 167.011 94.0505 166.825 94.2262C166.643 94.3985 166.422 94.4847 166.164 94.4847ZM169.179 103.299V95.663H170.606V96.9059H170.701C170.86 96.4849 171.12 96.1568 171.481 95.9215C171.843 95.6828 172.275 95.5635 172.779 95.5635C173.289 95.5635 173.717 95.6828 174.062 95.9215C174.41 96.1601 174.666 96.4882 174.832 96.9059H174.912C175.094 96.4982 175.384 96.1734 175.782 95.9314C176.179 95.6862 176.653 95.5635 177.204 95.5635C177.896 95.5635 178.461 95.7806 178.899 96.2148C179.34 96.649 179.56 97.3036 179.56 98.1786V103.299H178.074V98.3178C178.074 97.8007 177.933 97.4262 177.651 97.1942C177.369 96.9622 177.033 96.8462 176.642 96.8462C176.158 96.8462 175.782 96.9953 175.513 97.2936C175.245 97.5886 175.111 97.9681 175.111 98.4321V103.299H173.629V98.2233C173.629 97.809 173.5 97.4759 173.241 97.224C172.983 96.9721 172.646 96.8462 172.232 96.8462C171.95 96.8462 171.69 96.9208 171.451 97.0699C171.216 97.2157 171.026 97.4196 170.88 97.6814C170.737 97.9433 170.666 98.2465 170.666 98.5912V103.299H169.179ZM181.832 103.299V95.663H183.319V103.299H181.832ZM182.583 94.4847C182.325 94.4847 182.103 94.3985 181.917 94.2262C181.735 94.0505 181.644 93.8417 181.644 93.5997C181.644 93.3545 181.735 93.1457 181.917 92.9733C182.103 92.7977 182.325 92.7098 182.583 92.7098C182.842 92.7098 183.062 92.7977 183.244 92.9733C183.43 93.1457 183.523 93.3545 183.523 93.5997C183.523 93.8417 183.43 94.0505 183.244 94.2262C183.062 94.3985 182.842 94.4847 182.583 94.4847ZM189.163 95.663V96.8561H184.992V95.663H189.163ZM186.111 93.8334H187.597V101.057C187.597 101.345 187.64 101.563 187.727 101.708C187.813 101.851 187.924 101.949 188.06 102.002C188.199 102.051 188.35 102.076 188.512 102.076C188.631 102.076 188.736 102.068 188.825 102.051C188.915 102.035 188.984 102.022 189.034 102.012L189.303 103.24C189.216 103.273 189.094 103.306 188.935 103.339C188.776 103.376 188.577 103.395 188.338 103.399C187.947 103.405 187.582 103.336 187.244 103.19C186.906 103.044 186.633 102.819 186.424 102.514C186.215 102.209 186.111 101.826 186.111 101.365V93.8334ZM195.073 103.299V95.663H196.559V103.299H195.073ZM195.824 94.4847C195.565 94.4847 195.343 94.3985 195.157 94.2262C194.975 94.0505 194.884 93.8417 194.884 93.5997C194.884 93.3545 194.975 93.1457 195.157 92.9733C195.343 92.7977 195.565 92.7098 195.824 92.7098C196.082 92.7098 196.303 92.7977 196.485 92.9733C196.67 93.1457 196.763 93.3545 196.763 93.5997C196.763 93.8417 196.67 94.0505 196.485 94.2262C196.303 94.3985 196.082 94.4847 195.824 94.4847ZM204.561 97.5273L203.214 97.7659C203.158 97.5936 203.068 97.4295 202.946 97.2737C202.826 97.118 202.664 96.9904 202.459 96.8909C202.253 96.7915 201.996 96.7418 201.688 96.7418C201.267 96.7418 200.916 96.8362 200.634 97.0252C200.352 97.2108 200.211 97.4511 200.211 97.746C200.211 98.0013 200.306 98.2068 200.495 98.3625C200.684 98.5183 200.989 98.6459 201.41 98.7453L202.623 99.0237C203.325 99.1862 203.849 99.4364 204.194 99.7745C204.538 100.113 204.711 100.552 204.711 101.092C204.711 101.549 204.578 101.957 204.313 102.315C204.051 102.67 203.685 102.948 203.214 103.15C202.747 103.352 202.205 103.453 201.588 103.453C200.733 103.453 200.036 103.271 199.495 102.907C198.955 102.539 198.624 102.017 198.501 101.341L199.938 101.122C200.027 101.496 200.211 101.78 200.49 101.972C200.768 102.161 201.131 102.255 201.579 102.255C202.066 102.255 202.455 102.154 202.747 101.952C203.039 101.747 203.184 101.496 203.184 101.201C203.184 100.963 203.095 100.762 202.916 100.6C202.74 100.437 202.47 100.315 202.106 100.232L200.813 99.9485C200.1 99.7861 199.573 99.5275 199.232 99.1729C198.894 98.8183 198.725 98.3692 198.725 97.8256C198.725 97.3748 198.851 96.9804 199.103 96.6424C199.355 96.3043 199.703 96.0408 200.147 95.8519C200.591 95.6596 201.1 95.5635 201.673 95.5635C202.498 95.5635 203.148 95.7425 203.622 96.1005C204.096 96.4551 204.409 96.9307 204.561 97.5273ZM214.453 93.1175V103.299H212.912V94.6587H212.852L210.416 96.2496V94.778L212.957 93.1175H214.453ZM221.032 103.439C220.349 103.439 219.74 103.321 219.203 103.086C218.669 102.85 218.246 102.524 217.935 102.106C217.627 101.685 217.461 101.198 217.438 100.644H218.999C219.019 100.946 219.12 101.208 219.302 101.43C219.488 101.649 219.73 101.818 220.028 101.937C220.326 102.056 220.658 102.116 221.022 102.116C221.423 102.116 221.778 102.046 222.086 101.907C222.398 101.768 222.641 101.574 222.817 101.326C222.993 101.074 223.08 100.784 223.08 100.456C223.08 100.114 222.993 99.8142 222.817 99.5557C222.645 99.2939 222.391 99.0884 222.056 98.9392C221.725 98.7901 221.324 98.7155 220.853 98.7155H219.993V97.4627H220.853C221.231 97.4627 221.562 97.3947 221.848 97.2588C222.136 97.1229 222.361 96.934 222.524 96.6921C222.686 96.4468 222.767 96.1601 222.767 95.832C222.767 95.5171 222.696 95.2437 222.553 95.0117C222.414 94.7764 222.215 94.5924 221.957 94.4598C221.702 94.3273 221.4 94.261 221.052 94.261C220.721 94.261 220.411 94.3223 220.122 94.4449C219.837 94.5642 219.605 94.7366 219.426 94.962C219.247 95.184 219.151 95.4508 219.138 95.7624H217.651C217.668 95.2122 217.83 94.7283 218.139 94.3107C218.45 93.8931 218.861 93.5666 219.372 93.3313C219.882 93.096 220.449 92.9783 221.072 92.9783C221.725 92.9783 222.288 93.1059 222.762 93.3611C223.24 93.613 223.607 93.9494 223.866 94.3703C224.128 94.7913 224.257 95.252 224.254 95.7524C224.257 96.3225 224.098 96.8064 223.776 97.2041C223.458 97.6019 223.034 97.8687 222.504 98.0046V98.0841C223.18 98.1869 223.704 98.4553 224.075 98.8895C224.449 99.3237 224.635 99.8623 224.632 100.505C224.635 101.065 224.479 101.568 224.164 102.012C223.853 102.456 223.427 102.805 222.887 103.061C222.346 103.313 221.728 103.439 221.032 103.439ZM230.336 103.468C229.55 103.465 228.879 103.258 228.322 102.847C227.765 102.436 227.339 101.838 227.044 101.052C226.749 100.267 226.602 99.3204 226.602 98.2134C226.602 97.1097 226.749 96.1667 227.044 95.3845C227.343 94.6023 227.77 94.0058 228.327 93.5948C228.887 93.1838 229.557 92.9783 230.336 92.9783C231.114 92.9783 231.782 93.1854 232.339 93.5997C232.896 94.0107 233.322 94.6073 233.617 95.3895C233.915 96.1684 234.064 97.1097 234.064 98.2134C234.064 99.3237 233.917 100.272 233.622 101.057C233.327 101.839 232.901 102.438 232.344 102.852C231.787 103.263 231.118 103.468 230.336 103.468ZM230.336 102.141C231.025 102.141 231.564 101.805 231.951 101.132C232.342 100.459 232.538 99.4861 232.538 98.2134C232.538 97.3682 232.449 96.654 232.27 96.0706C232.094 95.484 231.84 95.0398 231.509 94.7382C231.181 94.4333 230.79 94.2808 230.336 94.2808C229.65 94.2808 229.111 94.6189 228.72 95.2951C228.329 95.9712 228.132 96.944 228.128 98.2134C228.128 99.0619 228.216 99.7794 228.392 100.366C228.571 100.949 228.824 101.392 229.152 101.693C229.48 101.992 229.875 102.141 230.336 102.141ZM247.123 96.3341C247.027 96.0325 246.898 95.7624 246.735 95.5237C246.576 95.2818 246.385 95.0763 246.163 94.9073C245.941 94.7349 245.688 94.604 245.403 94.5145C245.121 94.425 244.811 94.3803 244.473 94.3803C243.9 94.3803 243.383 94.5278 242.922 94.8228C242.461 95.1177 242.097 95.5503 241.828 96.1203C241.563 96.6871 241.43 97.3815 241.43 98.2034C241.43 99.0287 241.565 99.7264 241.833 100.296C242.102 100.867 242.469 101.299 242.937 101.594C243.404 101.889 243.936 102.037 244.533 102.037C245.086 102.037 245.568 101.924 245.979 101.698C246.394 101.473 246.714 101.155 246.939 100.744C247.168 100.33 247.282 99.8424 247.282 99.2823L247.68 99.3568H244.766V98.0891H248.768V99.2475C248.768 100.103 248.586 100.845 248.222 101.475C247.86 102.101 247.36 102.585 246.72 102.926C246.084 103.268 245.355 103.439 244.533 103.439C243.611 103.439 242.803 103.226 242.107 102.802C241.414 102.378 240.874 101.776 240.486 100.997C240.098 100.215 239.904 99.2872 239.904 98.2134C239.904 97.4014 240.017 96.6722 240.242 96.0259C240.468 95.3796 240.784 94.831 241.192 94.3803C241.603 93.9262 242.085 93.5799 242.639 93.3412C243.195 93.0993 243.804 92.9783 244.463 92.9783C245.013 92.9783 245.525 93.0595 245.999 93.2219C246.477 93.3843 246.901 93.6147 247.272 93.913C247.647 94.2112 247.956 94.5659 248.202 94.9769C248.447 95.3845 248.613 95.837 248.699 96.3341H247.123ZM250.999 103.299V93.1175H254.727C255.45 93.1175 256.048 93.2368 256.522 93.4755C256.996 93.7108 257.351 94.0306 257.586 94.435C257.821 94.836 257.939 95.2884 257.939 95.7922C257.939 96.2165 257.861 96.5744 257.705 96.8661C257.549 97.1544 257.341 97.3864 257.079 97.5621C256.82 97.7344 256.535 97.8604 256.224 97.9399V98.0394C256.562 98.0559 256.892 98.1653 257.213 98.3675C257.538 98.5664 257.806 98.8497 258.018 99.2176C258.231 99.5855 258.337 100.033 258.337 100.56C258.337 101.08 258.214 101.548 257.969 101.962C257.727 102.373 257.352 102.699 256.845 102.941C256.338 103.18 255.69 103.299 254.901 103.299H250.999ZM252.535 101.982H254.752C255.488 101.982 256.015 101.839 256.333 101.554C256.651 101.269 256.81 100.913 256.81 100.485C256.81 100.164 256.729 99.8689 256.567 99.6005C256.404 99.332 256.172 99.1182 255.871 98.9591C255.572 98.8 255.218 98.7205 254.807 98.7205H252.535V101.982ZM252.535 97.5223H254.593C254.938 97.5223 255.248 97.456 255.523 97.3235C255.801 97.1909 256.022 97.0053 256.184 96.7666C256.35 96.5247 256.433 96.2397 256.433 95.9115C256.433 95.4906 256.285 95.1376 255.99 94.8526C255.695 94.5675 255.243 94.425 254.633 94.425H252.535V97.5223Z" fill="#ADF0DD" fill-opacity="0.65"/>
<path d="M65.7387 65.4878C65.7354 65.4878 65.7305 65.4894 65.7272 65.4894C66.0097 64.1579 65.9535 62.7042 65.2382 61.1579C64.2255 58.9691 62.1523 57.3336 59.7619 57.0297C56.4382 56.6068 53.4993 58.5016 52.3281 61.3182C51.9333 61.1662 51.5037 61.082 51.0544 61.082C49.0274 61.082 47.3837 62.7257 47.3837 64.7526C47.3837 65.0434 47.425 65.3209 47.4895 65.5918C46.609 65.3853 45.6442 65.4085 44.4746 66.3534C43.6057 67.0571 42.9664 68.0813 42.9779 69.1997C43.0011 71.2085 44.6349 72.8291 46.6486 72.8291H65.562C67.2784 72.8291 68.8973 71.7371 69.2987 70.0687C69.8819 67.6469 68.0631 65.4878 65.7387 65.4878Z" fill="#ADF0DD"/>
<rect x="44.144" y="154.919" width="553.878" height="17.4909" rx="8.74544" fill="#051413"/>
<rect x="44.144" y="154.919" width="513.955" height="17.4909" rx="8.74544" fill="url(#paint0_linear_306_3403)"/>
<path d="M531.137 197.55V207.731H529.596V199.091H529.536L527.1 200.682V199.21L529.641 197.55H531.137ZM537.716 207.9C536.931 207.897 536.26 207.69 535.703 207.279C535.146 206.868 534.72 206.27 534.425 205.484C534.13 204.699 533.983 203.753 533.983 202.646C533.983 201.542 534.13 200.599 534.425 199.817C534.723 199.034 535.151 198.438 535.708 198.027C536.268 197.616 536.937 197.41 537.716 197.41C538.495 197.41 539.163 197.618 539.72 198.032C540.277 198.443 540.702 199.039 540.997 199.822C541.296 200.601 541.445 201.542 541.445 202.646C541.445 203.756 541.297 204.704 541.002 205.489C540.707 206.271 540.282 206.87 539.725 207.284C539.168 207.695 538.498 207.9 537.716 207.9ZM537.716 206.573C538.406 206.573 538.944 206.237 539.332 205.564C539.723 204.891 539.919 203.918 539.919 202.646C539.919 201.8 539.829 201.086 539.65 200.503C539.474 199.916 539.221 199.472 538.889 199.17C538.561 198.865 538.17 198.713 537.716 198.713C537.03 198.713 536.492 199.051 536.1 199.727C535.709 200.403 535.512 201.376 535.509 202.646C535.509 203.494 535.597 204.212 535.772 204.798C535.951 205.382 536.205 205.824 536.533 206.126C536.861 206.424 537.255 206.573 537.716 206.573ZM554.503 200.766C554.407 200.465 554.278 200.195 554.116 199.956C553.957 199.714 553.766 199.508 553.544 199.339C553.322 199.167 553.068 199.036 552.783 198.947C552.502 198.857 552.192 198.812 551.854 198.812C551.28 198.812 550.763 198.96 550.302 199.255C549.842 199.55 549.477 199.982 549.209 200.552C548.944 201.119 548.811 201.814 548.811 202.636C548.811 203.461 548.945 204.159 549.214 204.729C549.482 205.299 549.85 205.731 550.317 206.026C550.785 206.321 551.317 206.469 551.913 206.469C552.467 206.469 552.949 206.356 553.36 206.131C553.774 205.905 554.094 205.587 554.32 205.176C554.548 204.762 554.663 204.275 554.663 203.714L555.06 203.789H552.147V202.521H556.149V203.68C556.149 204.535 555.967 205.277 555.602 205.907C555.241 206.533 554.74 207.017 554.101 207.359C553.464 207.7 552.735 207.871 551.913 207.871C550.992 207.871 550.183 207.659 549.487 207.234C548.794 206.81 548.254 206.208 547.866 205.43C547.479 204.647 547.285 203.719 547.285 202.646C547.285 201.833 547.397 201.104 547.623 200.458C547.848 199.812 548.165 199.263 548.572 198.812C548.983 198.358 549.466 198.012 550.019 197.773C550.576 197.531 551.184 197.41 551.844 197.41C552.394 197.41 552.906 197.492 553.38 197.654C553.857 197.816 554.281 198.047 554.653 198.345C555.027 198.643 555.337 198.998 555.582 199.409C555.828 199.817 555.993 200.269 556.079 200.766H554.503ZM558.379 207.731V197.55H562.108C562.83 197.55 563.429 197.669 563.903 197.908C564.377 198.143 564.731 198.463 564.967 198.867C565.202 199.268 565.32 199.721 565.32 200.224C565.32 200.649 565.242 201.007 565.086 201.298C564.93 201.587 564.721 201.819 564.459 201.994C564.201 202.167 563.916 202.293 563.604 202.372V202.472C563.942 202.488 564.272 202.597 564.594 202.8C564.918 202.998 565.187 203.282 565.399 203.65C565.611 204.018 565.717 204.465 565.717 204.992C565.717 205.512 565.595 205.98 565.349 206.394C565.107 206.805 564.733 207.132 564.226 207.373C563.719 207.612 563.071 207.731 562.282 207.731H558.379ZM559.915 206.414H562.133C562.869 206.414 563.396 206.271 563.714 205.986C564.032 205.701 564.191 205.345 564.191 204.918C564.191 204.596 564.11 204.301 563.947 204.033C563.785 203.764 563.553 203.55 563.251 203.391C562.953 203.232 562.598 203.153 562.187 203.153H559.915V206.414ZM559.915 201.954H561.974C562.318 201.954 562.628 201.888 562.903 201.756C563.182 201.623 563.402 201.437 563.565 201.199C563.73 200.957 563.813 200.672 563.813 200.344C563.813 199.923 563.666 199.57 563.371 199.285C563.076 199 562.623 198.857 562.013 198.857H559.915V201.954ZM571.804 207.731V197.55H573.341V206.409H577.954V207.731H571.804ZM583.159 207.886C582.406 207.886 581.758 207.725 581.215 207.403C580.674 207.079 580.257 206.623 579.962 206.036C579.67 205.446 579.524 204.755 579.524 203.963C579.524 203.181 579.67 202.491 579.962 201.895C580.257 201.298 580.668 200.833 581.195 200.498C581.725 200.163 582.345 199.996 583.054 199.996C583.485 199.996 583.903 200.067 584.307 200.209C584.711 200.352 585.074 200.576 585.396 200.881C585.717 201.186 585.971 201.582 586.156 202.069C586.342 202.553 586.435 203.141 586.435 203.834V204.361H580.365V203.247H584.978C584.978 202.856 584.899 202.51 584.74 202.208C584.58 201.903 584.357 201.663 584.068 201.487C583.783 201.311 583.449 201.224 583.064 201.224C582.647 201.224 582.282 201.326 581.97 201.532C581.662 201.734 581.424 201.999 581.254 202.327C581.089 202.652 581.006 203.005 581.006 203.386V204.256C581.006 204.767 581.095 205.201 581.274 205.559C581.457 205.917 581.71 206.19 582.035 206.379C582.36 206.565 582.739 206.658 583.174 206.658C583.455 206.658 583.712 206.618 583.944 206.538C584.176 206.455 584.377 206.333 584.546 206.17C584.715 206.008 584.844 205.807 584.933 205.569L586.34 205.822C586.228 206.237 586.026 206.6 585.734 206.911C585.446 207.219 585.083 207.46 584.645 207.632C584.211 207.801 583.715 207.886 583.159 207.886ZM591.998 200.095V201.288H587.683V200.095H591.998ZM588.866 207.731V199.21C588.866 198.733 588.971 198.337 589.18 198.022C589.388 197.704 589.665 197.467 590.01 197.311C590.355 197.152 590.729 197.072 591.133 197.072C591.432 197.072 591.687 197.097 591.899 197.147C592.111 197.193 592.269 197.236 592.371 197.276L592.023 198.479C591.954 198.459 591.864 198.436 591.755 198.41C591.645 198.38 591.513 198.365 591.357 198.365C590.996 198.365 590.737 198.454 590.582 198.633C590.429 198.812 590.353 199.071 590.353 199.409V207.731H588.866ZM597.377 200.095V201.288H593.206V200.095H597.377ZM594.324 198.266H595.811V205.489C595.811 205.778 595.854 205.995 595.94 206.141C596.026 206.283 596.137 206.381 596.273 206.434C596.412 206.484 596.563 206.508 596.726 206.508C596.845 206.508 596.949 206.5 597.039 206.484C597.128 206.467 597.198 206.454 597.248 206.444L597.516 207.672C597.43 207.705 597.307 207.738 597.148 207.771C596.989 207.808 596.79 207.828 596.552 207.831C596.16 207.838 595.796 207.768 595.458 207.622C595.12 207.476 594.846 207.251 594.637 206.946C594.429 206.641 594.324 206.258 594.324 205.797V198.266Z" fill="#ADF0DD"/>
<path d="M48.9864 197.55V207.731H47.4452V199.091H47.3855L44.9494 200.682V199.21L47.4899 197.55H48.9864ZM52.0206 207.731V206.618L55.4659 203.048C55.8338 202.66 56.1371 202.321 56.3757 202.029C56.6177 201.734 56.7983 201.454 56.9177 201.189C57.037 200.924 57.0966 200.642 57.0966 200.344C57.0966 200.006 57.0171 199.714 56.858 199.469C56.6989 199.22 56.4818 199.03 56.2067 198.897C55.9316 198.761 55.6217 198.693 55.277 198.693C54.9124 198.693 54.5943 198.768 54.3225 198.917C54.0507 199.066 53.8419 199.276 53.6961 199.548C53.5502 199.82 53.4773 200.138 53.4773 200.503H52.0107C52.0107 199.883 52.1532 199.341 52.4382 198.877C52.7233 198.413 53.1144 198.053 53.6115 197.798C54.1087 197.54 54.6738 197.41 55.3069 197.41C55.9465 197.41 56.51 197.538 56.9972 197.793C57.4877 198.045 57.8705 198.39 58.1456 198.827C58.4207 199.262 58.5583 199.752 58.5583 200.299C58.5583 200.677 58.487 201.046 58.3445 201.408C58.2053 201.769 57.9617 202.172 57.6137 202.616C57.2657 203.056 56.7818 203.592 56.162 204.222L54.1385 206.339V206.414H58.7223V207.731H52.0206ZM64.4313 207.9C63.6458 207.897 62.9746 207.69 62.4178 207.279C61.861 206.868 61.4351 206.27 61.1401 205.484C60.8451 204.699 60.6977 203.753 60.6977 202.646C60.6977 201.542 60.8451 200.599 61.1401 199.817C61.4384 199.034 61.866 198.438 62.4228 198.027C62.9829 197.616 63.6524 197.41 64.4313 197.41C65.2102 197.41 65.878 197.618 66.4349 198.032C66.9917 198.443 67.4176 199.039 67.7126 199.822C68.0109 200.601 68.16 201.542 68.16 202.646C68.16 203.756 68.0125 204.704 67.7175 205.489C67.4226 206.271 66.9967 206.87 66.4398 207.284C65.883 207.695 65.2135 207.9 64.4313 207.9ZM64.4313 206.573C65.1207 206.573 65.6593 206.237 66.0471 205.564C66.4382 204.891 66.6337 203.918 66.6337 202.646C66.6337 201.8 66.5442 201.086 66.3653 200.503C66.1896 199.916 65.9361 199.472 65.6046 199.17C65.2765 198.865 64.8854 198.713 64.4313 198.713C63.7452 198.713 63.2066 199.051 62.8155 199.727C62.4245 200.403 62.2272 201.376 62.2239 202.646C62.2239 203.494 62.3118 204.212 62.4874 204.798C62.6664 205.382 62.92 205.824 63.2481 206.126C63.5762 206.424 63.9706 206.573 64.4313 206.573ZM81.2186 200.766C81.1225 200.465 80.9932 200.195 80.8308 199.956C80.6717 199.714 80.4811 199.508 80.2591 199.339C80.037 199.167 79.7835 199.036 79.4984 198.947C79.2167 198.857 78.9068 198.812 78.5687 198.812C77.9953 198.812 77.4783 198.96 77.0176 199.255C76.5569 199.55 76.1923 199.982 75.9238 200.552C75.6587 201.119 75.5261 201.814 75.5261 202.636C75.5261 203.461 75.6604 204.159 75.9288 204.729C76.1973 205.299 76.5652 205.731 77.0325 206.026C77.4998 206.321 78.0318 206.469 78.6284 206.469C79.1819 206.469 79.6641 206.356 80.0751 206.131C80.4894 205.905 80.8093 205.587 81.0346 205.176C81.2633 204.762 81.3777 204.275 81.3777 203.714L81.7754 203.789H78.8621V202.521H82.8642V203.68C82.8642 204.535 82.6819 205.277 82.3173 205.907C81.956 206.533 81.4556 207.017 80.8159 207.359C80.1795 207.7 79.4504 207.871 78.6284 207.871C77.707 207.871 76.8983 207.659 76.2023 207.234C75.5095 206.81 74.9693 206.208 74.5815 205.43C74.1937 204.647 73.9998 203.719 73.9998 202.646C73.9998 201.833 74.1125 201.104 74.3379 200.458C74.5633 199.812 74.8798 199.263 75.2875 198.812C75.6985 198.358 76.1807 198.012 76.7342 197.773C77.291 197.531 77.8992 197.41 78.5588 197.41C79.109 197.41 79.6211 197.492 80.095 197.654C80.5723 197.816 80.9965 198.047 81.3677 198.345C81.7423 198.643 82.0522 198.998 82.2974 199.409C82.5427 199.817 82.7084 200.269 82.7946 200.766H81.2186ZM85.0943 207.731V197.55H88.823C89.5455 197.55 90.1438 197.669 90.6177 197.908C91.0917 198.143 91.4463 198.463 91.6817 198.867C91.917 199.268 92.0346 199.721 92.0346 200.224C92.0346 200.649 91.9567 201.007 91.801 201.298C91.6452 201.587 91.4364 201.819 91.1745 201.994C90.916 202.167 90.631 202.293 90.3194 202.372V202.472C90.6575 202.488 90.9873 202.597 91.3088 202.8C91.6336 202.998 91.9021 203.282 92.1142 203.65C92.3263 204.018 92.4324 204.465 92.4324 204.992C92.4324 205.512 92.3097 205.98 92.0645 206.394C91.8225 206.805 91.448 207.132 90.9409 207.373C90.4338 207.612 89.7858 207.731 88.997 207.731H85.0943ZM86.6305 206.414H88.8478C89.5836 206.414 90.1106 206.271 90.4288 205.986C90.747 205.701 90.9061 205.345 90.9061 204.918C90.9061 204.596 90.8249 204.301 90.6625 204.033C90.5001 203.764 90.2681 203.55 89.9665 203.391C89.6682 203.232 89.3135 203.153 88.9025 203.153H86.6305V206.414ZM86.6305 201.954H88.6888C89.0335 201.954 89.3433 201.888 89.6184 201.756C89.8969 201.623 90.1173 201.437 90.2797 201.199C90.4454 200.957 90.5282 200.672 90.5282 200.344C90.5282 199.923 90.3808 199.57 90.0858 199.285C89.7908 199 89.3384 198.857 88.7285 198.857H86.6305V201.954ZM105.067 197.55H106.608V204.246C106.608 204.959 106.441 205.59 106.106 206.141C105.771 206.687 105.301 207.118 104.694 207.433C104.088 207.745 103.377 207.9 102.561 207.9C101.749 207.9 101.04 207.745 100.434 207.433C99.8271 207.118 99.3564 206.687 99.0217 206.141C98.6869 205.59 98.5195 204.959 98.5195 204.246V197.55H100.056V204.122C100.056 204.583 100.157 204.992 100.359 205.35C100.565 205.708 100.855 205.99 101.229 206.195C101.604 206.397 102.048 206.498 102.561 206.498C103.078 206.498 103.524 206.397 103.899 206.195C104.277 205.99 104.565 205.708 104.764 205.35C104.966 204.992 105.067 204.583 105.067 204.122V197.55ZM114.725 201.959L113.377 202.198C113.321 202.026 113.232 201.862 113.109 201.706C112.99 201.55 112.827 201.422 112.622 201.323C112.416 201.224 112.159 201.174 111.851 201.174C111.43 201.174 111.079 201.268 110.797 201.457C110.515 201.643 110.375 201.883 110.375 202.178C110.375 202.433 110.469 202.639 110.658 202.795C110.847 202.95 111.152 203.078 111.573 203.177L112.786 203.456C113.489 203.618 114.012 203.869 114.357 204.207C114.702 204.545 114.874 204.984 114.874 205.524C114.874 205.981 114.741 206.389 114.476 206.747C114.214 207.102 113.848 207.38 113.377 207.582C112.91 207.784 112.368 207.886 111.752 207.886C110.897 207.886 110.199 207.703 109.659 207.339C109.118 206.971 108.787 206.449 108.664 205.773L110.101 205.554C110.191 205.928 110.375 206.212 110.653 206.404C110.931 206.593 111.294 206.687 111.742 206.687C112.229 206.687 112.618 206.586 112.91 206.384C113.202 206.179 113.348 205.928 113.348 205.633C113.348 205.395 113.258 205.194 113.079 205.032C112.904 204.869 112.633 204.747 112.269 204.664L110.976 204.381C110.264 204.218 109.737 203.96 109.395 203.605C109.057 203.25 108.888 202.801 108.888 202.258C108.888 201.807 109.014 201.413 109.266 201.074C109.518 200.736 109.866 200.473 110.31 200.284C110.754 200.092 111.263 199.996 111.836 199.996C112.662 199.996 113.311 200.175 113.785 200.533C114.259 200.887 114.572 201.363 114.725 201.959ZM120.08 207.886C119.327 207.886 118.679 207.725 118.136 207.403C117.595 207.079 117.178 206.623 116.883 206.036C116.591 205.446 116.445 204.755 116.445 203.963C116.445 203.181 116.591 202.491 116.883 201.895C117.178 201.298 117.589 200.833 118.116 200.498C118.646 200.163 119.266 199.996 119.975 199.996C120.406 199.996 120.824 200.067 121.228 200.209C121.632 200.352 121.995 200.576 122.317 200.881C122.638 201.186 122.892 201.582 123.077 202.069C123.263 202.553 123.356 203.141 123.356 203.834V204.361H117.285V203.247H121.899C121.899 202.856 121.82 202.51 121.66 202.208C121.501 201.903 121.278 201.663 120.989 201.487C120.704 201.311 120.37 201.224 119.985 201.224C119.567 201.224 119.203 201.326 118.891 201.532C118.583 201.734 118.344 201.999 118.175 202.327C118.01 202.652 117.927 203.005 117.927 203.386V204.256C117.927 204.767 118.016 205.201 118.195 205.559C118.378 205.917 118.631 206.19 118.956 206.379C119.281 206.565 119.66 206.658 120.094 206.658C120.376 206.658 120.633 206.618 120.865 206.538C121.097 206.455 121.298 206.333 121.467 206.17C121.636 206.008 121.765 205.807 121.854 205.569L123.261 205.822C123.149 206.237 122.946 206.6 122.655 206.911C122.366 207.219 122.004 207.46 121.566 207.632C121.132 207.801 120.636 207.886 120.08 207.886ZM128.144 207.881C127.527 207.881 126.977 207.723 126.493 207.408C126.013 207.09 125.635 206.638 125.36 206.051C125.088 205.461 124.952 204.753 124.952 203.928C124.952 203.103 125.09 202.397 125.365 201.81C125.643 201.224 126.024 200.775 126.508 200.463C126.992 200.151 127.541 199.996 128.154 199.996C128.628 199.996 129.009 200.075 129.297 200.234C129.589 200.39 129.814 200.572 129.973 200.781C130.136 200.99 130.262 201.174 130.351 201.333H130.441V197.55H131.927V207.731H130.475V206.543H130.351C130.262 206.706 130.132 206.891 129.963 207.1C129.798 207.309 129.569 207.491 129.277 207.647C128.986 207.803 128.608 207.881 128.144 207.881ZM128.472 206.613C128.899 206.613 129.261 206.5 129.556 206.275C129.854 206.046 130.079 205.73 130.232 205.325C130.388 204.921 130.466 204.45 130.466 203.913C130.466 203.383 130.389 202.919 130.237 202.521C130.084 202.123 129.861 201.814 129.566 201.592C129.271 201.369 128.906 201.258 128.472 201.258C128.024 201.258 127.652 201.374 127.353 201.606C127.055 201.838 126.83 202.155 126.677 202.556C126.528 202.957 126.453 203.409 126.453 203.913C126.453 204.424 126.53 204.883 126.682 205.29C126.835 205.698 127.06 206.021 127.358 206.26C127.66 206.495 128.031 206.613 128.472 206.613Z" fill="#ADF0DD" fill-opacity="0.65"/>
<rect x="473" y="54.6387" width="128" height="48" rx="5" fill="#051413"/>
<g clip-path="url(#clip0_306_3403)">
<path d="M499 71.1387C494.856 71.1387 491.5 74.4949 491.5 78.6387C491.5 82.7824 494.856 86.1387 499 86.1387C503.144 86.1387 506.5 82.7824 506.5 78.6387C506.5 74.4949 503.144 71.1387 499 71.1387ZM502.75 79.3887H499.75V82.3887H498.25V79.3887H495.25V77.8887H498.25V74.8887H499.75V77.8887H502.75V79.3887Z" fill="#ADF0DD"/>
</g>
<path d="M517.979 83.6387H516.348L520.012 73.4569H521.787L525.451 83.6387H523.82L520.942 75.3063H520.862L517.979 83.6387ZM518.252 79.6515H523.542V80.9441H518.252V79.6515ZM529.818 83.7878C529.201 83.7878 528.651 83.6304 528.167 83.3155C527.686 82.9973 527.309 82.5449 527.034 81.9583C526.762 81.3683 526.626 80.6607 526.626 79.8354C526.626 79.0101 526.763 78.3042 527.039 77.7175C527.317 77.1309 527.698 76.6818 528.182 76.3702C528.666 76.0587 529.214 75.9029 529.828 75.9029C530.302 75.9029 530.683 75.9824 530.971 76.1415C531.263 76.2973 531.488 76.4796 531.647 76.6884C531.81 76.8972 531.936 77.0811 532.025 77.2402H532.115V73.4569H533.601V83.6387H532.149V82.4505H532.025C531.936 82.6129 531.806 82.7985 531.637 83.0073C531.472 83.2161 531.243 83.3984 530.951 83.5542C530.659 83.7099 530.282 83.7878 529.818 83.7878ZM530.146 82.5201C530.573 82.5201 530.935 82.4074 531.23 82.182C531.528 81.9533 531.753 81.6368 531.906 81.2324C532.061 80.8281 532.139 80.3574 532.139 79.8205C532.139 79.2902 532.063 78.8262 531.911 78.4284C531.758 78.0307 531.534 77.7208 531.24 77.4988C530.945 77.2767 530.58 77.1657 530.146 77.1657C529.698 77.1657 529.325 77.2817 529.027 77.5137C528.729 77.7457 528.503 78.0622 528.351 78.4632C528.202 78.8643 528.127 79.3167 528.127 79.8205C528.127 80.3309 528.204 80.79 528.356 81.1976C528.508 81.6053 528.734 81.9284 529.032 82.1671C529.334 82.4024 529.705 82.5201 530.146 82.5201ZM538.861 83.7878C538.245 83.7878 537.695 83.6304 537.211 83.3155C536.73 82.9973 536.352 82.5449 536.077 81.9583C535.805 81.3683 535.67 80.6607 535.67 79.8354C535.67 79.0101 535.807 78.3042 536.082 77.7175C536.361 77.1309 536.742 76.6818 537.226 76.3702C537.71 76.0587 538.258 75.9029 538.871 75.9029C539.345 75.9029 539.726 75.9824 540.015 76.1415C540.306 76.2973 540.532 76.4796 540.691 76.6884C540.853 76.8972 540.979 77.0811 541.069 77.2402H541.158V73.4569H542.645V83.6387H541.193V82.4505H541.069C540.979 82.6129 540.85 82.7985 540.681 83.0073C540.515 83.2161 540.287 83.3984 539.995 83.5542C539.703 83.7099 539.325 83.7878 538.861 83.7878ZM539.189 82.5201C539.617 82.5201 539.978 82.4074 540.273 82.182C540.572 81.9533 540.797 81.6368 540.949 81.2324C541.105 80.8281 541.183 80.3574 541.183 79.8205C541.183 79.2902 541.107 78.8262 540.954 78.4284C540.802 78.0307 540.578 77.7208 540.283 77.4988C539.988 77.2767 539.624 77.1657 539.189 77.1657C538.742 77.1657 538.369 77.2817 538.071 77.5137C537.773 77.7457 537.547 78.0622 537.395 78.4632C537.246 78.8643 537.171 79.3167 537.171 79.8205C537.171 80.3309 537.247 80.79 537.4 81.1976C537.552 81.6053 537.778 81.9284 538.076 82.1671C538.377 82.4024 538.749 82.5201 539.189 82.5201ZM549.151 73.4569H551.015L554.257 81.3716H554.376L557.617 73.4569H559.482V83.6387H558.02V76.2708H557.926L554.923 83.6238H553.71L550.707 76.2658H550.612V83.6387H549.151V73.4569ZM565.092 83.7928C564.377 83.7928 563.752 83.6287 563.218 83.3006C562.685 82.9725 562.27 82.5134 561.975 81.9235C561.68 81.3335 561.533 80.6441 561.533 79.8553C561.533 79.0632 561.68 78.3704 561.975 77.7772C562.27 77.1839 562.685 76.7232 563.218 76.3951C563.752 76.0669 564.377 75.9029 565.092 75.9029C565.808 75.9029 566.433 76.0669 566.967 76.3951C567.5 76.7232 567.915 77.1839 568.21 77.7772C568.505 78.3704 568.652 79.0632 568.652 79.8553C568.652 80.6441 568.505 81.3335 568.21 81.9235C567.915 82.5134 567.5 82.9725 566.967 83.3006C566.433 83.6287 565.808 83.7928 565.092 83.7928ZM565.097 82.5449C565.561 82.5449 565.946 82.4223 566.251 82.177C566.556 81.9318 566.781 81.6053 566.927 81.1976C567.076 80.79 567.151 80.3408 567.151 79.8503C567.151 79.3631 567.076 78.9157 566.927 78.508C566.781 78.097 566.556 77.7672 566.251 77.5186C565.946 77.2701 565.561 77.1458 565.097 77.1458C564.63 77.1458 564.242 77.2701 563.934 77.5186C563.629 77.7672 563.402 78.097 563.253 78.508C563.107 78.9157 563.034 79.3631 563.034 79.8503C563.034 80.3408 563.107 80.79 563.253 81.1976C563.402 81.6053 563.629 81.9318 563.934 82.177C564.242 82.4223 564.63 82.5449 565.097 82.5449ZM570.591 83.6387V76.0023H572.028V77.2154H572.108C572.247 76.8044 572.492 76.4812 572.844 76.2459C573.198 76.0073 573.599 75.888 574.047 75.888C574.139 75.888 574.249 75.8913 574.375 75.8979C574.504 75.9045 574.605 75.9128 574.678 75.9228V77.3446C574.618 77.3281 574.512 77.3098 574.36 77.29C574.207 77.2667 574.055 77.2551 573.902 77.2551C573.551 77.2551 573.238 77.3297 572.963 77.4789C572.691 77.6247 572.476 77.8285 572.317 78.0904C572.157 78.3489 572.078 78.6439 572.078 78.9753V83.6387H570.591ZM579.262 83.7928C578.51 83.7928 577.862 83.632 577.318 83.3105C576.778 82.9857 576.36 82.53 576.065 81.9434C575.774 81.3534 575.628 80.6623 575.628 79.8702C575.628 79.088 575.774 78.3986 576.065 77.802C576.36 77.2054 576.771 76.7398 577.298 76.405C577.829 76.0703 578.449 75.9029 579.158 75.9029C579.589 75.9029 580.006 75.9741 580.411 76.1167C580.815 76.2592 581.178 76.4829 581.499 76.7878C581.821 77.0927 582.074 77.4888 582.26 77.976C582.446 78.4599 582.538 79.0482 582.538 79.7409V80.2679H576.468V79.1543H581.082C581.082 78.7632 581.002 78.4168 580.843 78.1152C580.684 77.8103 580.46 77.57 580.172 77.3944C579.887 77.2187 579.552 77.1309 579.168 77.1309C578.75 77.1309 578.386 77.2336 578.074 77.4391C577.766 77.6413 577.527 77.9064 577.358 78.2346C577.192 78.5594 577.11 78.9123 577.11 79.2935V80.1635C577.11 80.6739 577.199 81.1081 577.378 81.4661C577.56 81.824 577.814 82.0975 578.139 82.2864C578.463 82.472 578.843 82.5648 579.277 82.5648C579.559 82.5648 579.816 82.525 580.048 82.4455C580.28 82.3626 580.48 82.24 580.649 82.0776C580.818 81.9152 580.948 81.7147 581.037 81.476L582.444 81.7296C582.331 82.1439 582.129 82.5068 581.837 82.8184C581.549 83.1266 581.186 83.3669 580.749 83.5392C580.315 83.7083 579.819 83.7928 579.262 83.7928Z" fill="#ADF0DD"/>
<defs>
<linearGradient id="paint0_linear_306_3403" x1="44.144" y1="163.665" x2="558.099" y2="163.665" gradientUnits="userSpaceOnUse">
<stop stop-color="#ADF0DD"/>
<stop offset="0.3" stop-color="#97D1C1"/>
<stop offset="0.615" stop-color="#89F8D8"/>
<stop offset="1" stop-color="#887E62"/>
</linearGradient>
<clipPath id="clip0_306_3403">
<rect width="18" height="18" fill="white" transform="translate(490 69.6387)"/>
</clipPath>
</defs>
</svg>
